M48
;DRILL file {KiCad 4.0.5+dfsg1-4} date Sat Jun 24 23:26:40 2017
;FORMAT={-:-/ absolute / inch / decimal}
FMAT,2
INCH,TZ
T1C0.016
T2C0.020
T3C0.022
T4C0.031
T5C0.032
T6C0.039
T7C0.040
%
G90
G05
M72
T1
X1.6496Y-5.0709
X1.6575Y-4.6142
X1.815Y-3.2205
X1.815Y-3.3976
X1.9291Y-5.0669
X1.9488Y-4.5945
X1.9528Y-4.752
X2.0587Y-3.0803
X2.1095Y-3.7509
X2.1339Y-2.1705
X2.1345Y-2.5157
X2.1385Y-2.4602
X2.1395Y-2.7746
X2.1561Y-3.2721
X2.1608Y-2.4379
X2.1624Y-2.5974
X2.1772Y-2.2936
X2.1884Y-2.421
X2.1969Y-2.5057
X2.208Y-2.2628
X2.2428Y-2.3527
X2.2718Y-3.5813
X2.277Y-2.3232
X2.2858Y-2.3794
X2.2953Y-5.1614
X2.3071Y-2.0984
X2.3641Y-2.5256
X2.3856Y-2.3399
X2.3976Y-3.2283
X2.4104Y-2.2491
X2.497Y-2.6087
X2.4975Y-2.2656
X2.525Y-2.3148
X2.5285Y-2.5097
X2.5504Y-2.3738
X2.5505Y-2.8923
X2.56Y-2.6095
X2.5605Y-2.4871
X2.5753Y-2.4125
X2.5936Y-2.4853
X2.6092Y-2.3179
X2.6284Y-2.4912
X2.66Y-2.0611
X2.6767Y-2.2262
X2.7255Y-2.0489
X2.7348Y-2.2406
X2.735Y-2.2085
X2.775Y-2.5602
X2.9023Y-2.3249
X2.9319Y-2.528
X3.0472Y-2.4921
X3.1544Y-2.5726
X3.1772Y-3.6457
X3.1929Y-2.626
X3.2078Y-4.2319
X3.2165Y-2.0394
X3.3583Y-2.122
T4
X2.126Y-4.9606
X3.1693Y-5.4055
X3.2677Y-4.9606
X3.2693Y-5.4055
T5
X3.1024Y-1.7571
X3.1024Y-1.8571
X3.3834Y-3.0894
X3.3834Y-3.2894
X3.3834Y-3.5894
X3.3834Y-3.7894
X3.3858Y-3.9894
X3.3858Y-4.0894
X3.3882Y-2.9894
X3.3882Y-3.1894
X3.3882Y-3.4894
X3.3882Y-3.6894
T6
X1.6898Y-4.3307
X2.0898Y-4.3307
T7
X1.7402Y-4.752
X1.7402Y-4.852
X1.7402Y-4.952
X1.8402Y-4.752
X1.8402Y-4.852
X1.8402Y-4.952
T1
X2.0512Y-5.0492G85X2.0512Y-5.1083
G05
X3.0748Y-5.0492G85X3.0748Y-5.1083
G05
T2
X1.6822Y-5.4676G85X1.6822Y-5.442
G05
X1.9578Y-5.4676G85X1.9578Y-5.442
G05
T3
X1.7156Y-5.3485G85X1.7274Y-5.3485
G05
X1.9125Y-5.3485G85X1.9243Y-5.3485
G05
T0
M30
