G04 #@! TF.FileFunction,Soldermask,Bot*
%FSLAX45Y45*%
G04 Gerber Fmt 4.5, Leading zero omitted, Abs format (unit mm)*
G04 Created by KiCad (PCBNEW 4.0.5+dfsg1-4) date Sat Jun 24 23:26:37 2017*
%MOMM*%
%LPD*%
G01*
G04 APERTURE LIST*
%ADD10C,0.100000*%
%ADD11C,1.300000*%
%ADD12C,1.924000*%
%ADD13R,1.924000X1.924000*%
%ADD14O,1.650000X1.350000*%
%ADD15O,1.400000X1.950000*%
%ADD16R,2.127200X2.127200*%
%ADD17O,2.127200X2.127200*%
%ADD18O,1.400000X2.900000*%
%ADD19C,2.899360*%
%ADD20R,1.400000X3.150000*%
%ADD21C,1.797000*%
%ADD22R,1.797000X1.797000*%
G04 APERTURE END LIST*
D10*
D11*
X8512500Y-11350000D03*
X8512500Y-11050000D03*
D12*
X8050000Y-13730000D03*
D13*
X8304000Y-13730000D03*
D11*
X8512500Y-4830000D03*
X8512500Y-4530000D03*
D14*
X4372710Y-13585146D03*
X4872710Y-13585146D03*
D15*
X4272710Y-13855146D03*
X4972710Y-13855146D03*
D12*
X5400000Y-12600000D03*
D13*
X8300000Y-12600000D03*
D16*
X4420000Y-12070000D03*
D17*
X4674000Y-12070000D03*
X4420000Y-12324000D03*
X4674000Y-12324000D03*
X4420000Y-12578000D03*
X4674000Y-12578000D03*
D18*
X5210000Y-12900000D03*
X7810000Y-12900000D03*
D19*
X5308000Y-11000000D03*
X4292000Y-11000000D03*
D20*
X5700000Y-12677500D03*
X5700000Y-12102500D03*
X6100000Y-12102500D03*
X6100000Y-12677500D03*
X6400000Y-13377500D03*
X6400000Y-12802500D03*
X6800000Y-12802500D03*
X6800000Y-13377500D03*
X7100000Y-12677500D03*
X7100000Y-12102500D03*
X7500000Y-12102500D03*
X7500000Y-12677500D03*
X6400000Y-11977500D03*
X6400000Y-11402500D03*
X6800000Y-11402500D03*
X6800000Y-11977500D03*
D21*
X8593904Y-7847000D03*
X8606096Y-8101000D03*
D22*
X8606096Y-7593000D03*
D21*
X8593904Y-8355000D03*
X8593904Y-9117000D03*
X8606096Y-9371000D03*
D22*
X8606096Y-8863000D03*
D21*
X8593904Y-9625000D03*
D22*
X8600000Y-10133000D03*
D21*
X8600000Y-10387000D03*
X7880000Y-4717000D03*
D22*
X7880000Y-4463000D03*
M02*
