M48
;DRILL file {KiCad 4.0.2+dfsg1-stable} date Sat May  7 02:05:05 2016
;FORMAT={-:-/ absolute / inch / decimal}
FMAT,2
INCH,TZ
T1C0.016
T2C0.020
T3C0.022
T4C0.031
T5C0.040
T6C0.126
%
G90
G05
M72
T1
X1.6417Y-1.9882
X1.937Y-1.9528
X2.1342Y-2.2008
X2.1345Y-2.3534
X2.1364Y-2.3109
X2.1635Y-2.5659
X2.1648Y-2.5974
X2.1648Y-2.7047
X2.1648Y-2.7746
X2.1648Y-2.954
X2.1668Y-2.5344
X2.2017Y-2.4996
X2.2353Y-2.466
X2.2381Y-2.5329
X2.2625Y-2.4387
X2.3306Y-2.3358
X2.3307Y-4.1299
X2.3648Y-2.2866
X2.3696Y-2.2442
X2.4696Y-2.3425
X2.5324Y-2.8917
X2.5326Y-2.8072
X2.5334Y-3.047
X2.5492Y-2.5903
X2.5887Y-2.5851
X2.6102Y-2.2467
X2.6122Y-2.4861
X2.6141Y-2.2151
X2.6431Y-2.2307
X2.6437Y-2.5861
X2.6647Y-2.374
X2.6707Y-2.2477
X2.6718Y-2.4851
X2.6957Y-2.2723
X2.7067Y-2.475
X2.778Y-2.4648
X2.8012Y-2.1364
X2.8178Y-2.1904
X2.9181Y-2.2547
X2.9388Y-2.1658
X2.9615Y-2.092
X2.9633Y-2.7947
X3.0936Y-2.7204
X3.1063Y-4.4436
X3.1063Y-4.5748
X3.1074Y-2.7899
X3.1142Y-5.1142
X3.122Y-3.1811
X3.2024Y-3.6013
X3.227Y-2.7215
X3.2474Y-2.0334
X3.248Y-3.2362
X3.315Y-4.9815
X3.3386Y-3.0906
T4
X1.9606Y-4.878
X2.002Y-5.376
X2.102Y-5.376
X3.1024Y-4.878
T5
X1.6811Y-1.711
X1.6811Y-1.811
X3.4055Y-1.9882
X3.4055Y-2.0882
X3.4055Y-2.1882
X3.5055Y-1.9882
X3.5055Y-2.0882
X3.5055Y-2.1882
X3.5059Y-2.4035
X3.5059Y-2.5035
X3.5059Y-2.6035
X3.5059Y-2.7035
X3.5059Y-3.1378
X3.5059Y-3.2378
X3.5059Y-3.3378
X3.5059Y-3.4378
X3.5059Y-3.5787
X3.5059Y-3.6787
T6
X1.7441Y-5.3425
X3.4488Y-1.7323
X3.4488Y-3.9134
T2
X3.0747Y-5.4676G85X3.0747Y-5.442
G05
X3.3503Y-5.4676G85X3.3503Y-5.442
G05
T3
X3.1081Y-5.3485G85X3.1199Y-5.3485
G05
X3.305Y-5.3485G85X3.3168Y-5.3485
G05
T0
M30
