G04 #@! TF.FileFunction,Legend,Top*
%FSLAX45Y45*%
G04 Gerber Fmt 4.5, Leading zero omitted, Abs format (unit mm)*
G04 Created by KiCad (PCBNEW 4.0.5+dfsg1-4) date Sat Jun 24 23:26:37 2017*
%MOMM*%
%LPD*%
G01*
G04 APERTURE LIST*
%ADD10C,0.100000*%
%ADD11C,0.200000*%
%ADD12C,0.300000*%
%ADD13C,0.150000*%
%ADD14C,0.010000*%
%ADD15C,0.254000*%
G04 APERTURE END LIST*
D10*
D11*
X4120000Y-12120000D02*
X4120000Y-11960000D01*
X4200000Y-12040000D02*
X4120000Y-12120000D01*
X4120000Y-11960000D02*
X4200000Y-12040000D01*
D12*
X8612857Y-12590714D02*
X8727143Y-12590714D01*
X8670000Y-12647857D02*
X8670000Y-12533571D01*
D13*
X7652857Y-4860476D02*
X7657619Y-4846191D01*
X7662381Y-4841429D01*
X7671905Y-4836667D01*
X7686190Y-4836667D01*
X7695714Y-4841429D01*
X7700476Y-4846191D01*
X7705238Y-4855714D01*
X7705238Y-4893810D01*
X7605238Y-4893810D01*
X7605238Y-4860476D01*
X7610000Y-4850952D01*
X7614762Y-4846191D01*
X7624286Y-4841429D01*
X7633809Y-4841429D01*
X7643333Y-4846191D01*
X7648095Y-4850952D01*
X7652857Y-4860476D01*
X7652857Y-4893810D01*
X7705238Y-4750952D02*
X7652857Y-4750952D01*
X7643333Y-4755714D01*
X7638571Y-4765238D01*
X7638571Y-4784286D01*
X7643333Y-4793810D01*
X7700476Y-4750952D02*
X7705238Y-4760476D01*
X7705238Y-4784286D01*
X7700476Y-4793810D01*
X7690952Y-4798572D01*
X7681429Y-4798572D01*
X7671905Y-4793810D01*
X7667143Y-4784286D01*
X7667143Y-4760476D01*
X7662381Y-4750952D01*
X7700476Y-4660476D02*
X7705238Y-4670000D01*
X7705238Y-4689048D01*
X7700476Y-4698572D01*
X7695714Y-4703333D01*
X7686190Y-4708095D01*
X7657619Y-4708095D01*
X7648095Y-4703333D01*
X7643333Y-4698572D01*
X7638571Y-4689048D01*
X7638571Y-4670000D01*
X7643333Y-4660476D01*
X7705238Y-4617619D02*
X7605238Y-4617619D01*
X7667143Y-4608095D02*
X7705238Y-4579524D01*
X7638571Y-4579524D02*
X7676667Y-4617619D01*
X7705238Y-4522381D02*
X7700476Y-4531905D01*
X7690952Y-4536667D01*
X7605238Y-4536667D01*
X7705238Y-4484286D02*
X7638571Y-4484286D01*
X7605238Y-4484286D02*
X7610000Y-4489048D01*
X7614762Y-4484286D01*
X7610000Y-4479524D01*
X7605238Y-4484286D01*
X7614762Y-4484286D01*
X7638571Y-4393810D02*
X7719524Y-4393810D01*
X7729048Y-4398571D01*
X7733809Y-4403333D01*
X7738571Y-4412857D01*
X7738571Y-4427143D01*
X7733809Y-4436667D01*
X7700476Y-4393810D02*
X7705238Y-4403333D01*
X7705238Y-4422381D01*
X7700476Y-4431905D01*
X7695714Y-4436667D01*
X7686190Y-4441429D01*
X7657619Y-4441429D01*
X7648095Y-4436667D01*
X7643333Y-4431905D01*
X7638571Y-4422381D01*
X7638571Y-4403333D01*
X7643333Y-4393810D01*
X7705238Y-4346191D02*
X7605238Y-4346191D01*
X7705238Y-4303333D02*
X7652857Y-4303333D01*
X7643333Y-4308095D01*
X7638571Y-4317619D01*
X7638571Y-4331905D01*
X7643333Y-4341429D01*
X7648095Y-4346191D01*
X7638571Y-4270000D02*
X7638571Y-4231905D01*
X7605238Y-4255714D02*
X7690952Y-4255714D01*
X7700476Y-4250952D01*
X7705238Y-4241429D01*
X7705238Y-4231905D01*
X5560476Y-11605238D02*
X5560476Y-11505238D01*
X5603333Y-11605238D02*
X5603333Y-11552857D01*
X5598571Y-11543333D01*
X5589048Y-11538571D01*
X5574762Y-11538571D01*
X5565238Y-11543333D01*
X5560476Y-11548095D01*
X5636667Y-11538571D02*
X5674762Y-11538571D01*
X5650952Y-11505238D02*
X5650952Y-11590952D01*
X5655714Y-11600476D01*
X5665238Y-11605238D01*
X5674762Y-11605238D01*
X5693809Y-11538571D02*
X5731905Y-11538571D01*
X5708095Y-11505238D02*
X5708095Y-11590952D01*
X5712857Y-11600476D01*
X5722381Y-11605238D01*
X5731905Y-11605238D01*
X5765238Y-11538571D02*
X5765238Y-11638571D01*
X5765238Y-11543333D02*
X5774762Y-11538571D01*
X5793810Y-11538571D01*
X5803333Y-11543333D01*
X5808095Y-11548095D01*
X5812857Y-11557619D01*
X5812857Y-11586190D01*
X5808095Y-11595714D01*
X5803333Y-11600476D01*
X5793810Y-11605238D01*
X5774762Y-11605238D01*
X5765238Y-11600476D01*
X5850952Y-11600476D02*
X5860476Y-11605238D01*
X5879524Y-11605238D01*
X5889048Y-11600476D01*
X5893810Y-11590952D01*
X5893810Y-11586190D01*
X5889048Y-11576667D01*
X5879524Y-11571905D01*
X5865238Y-11571905D01*
X5855714Y-11567143D01*
X5850952Y-11557619D01*
X5850952Y-11552857D01*
X5855714Y-11543333D01*
X5865238Y-11538571D01*
X5879524Y-11538571D01*
X5889048Y-11543333D01*
X5936667Y-11595714D02*
X5941429Y-11600476D01*
X5936667Y-11605238D01*
X5931905Y-11600476D01*
X5936667Y-11595714D01*
X5936667Y-11605238D01*
X5936667Y-11543333D02*
X5941429Y-11548095D01*
X5936667Y-11552857D01*
X5931905Y-11548095D01*
X5936667Y-11543333D01*
X5936667Y-11552857D01*
X6055714Y-11500476D02*
X5970000Y-11629048D01*
X6160476Y-11500476D02*
X6074762Y-11629048D01*
X6236667Y-11538571D02*
X6236667Y-11619524D01*
X6231905Y-11629048D01*
X6227143Y-11633809D01*
X6217619Y-11638571D01*
X6203333Y-11638571D01*
X6193809Y-11633809D01*
X6236667Y-11600476D02*
X6227143Y-11605238D01*
X6208095Y-11605238D01*
X6198571Y-11600476D01*
X6193809Y-11595714D01*
X6189048Y-11586190D01*
X6189048Y-11557619D01*
X6193809Y-11548095D01*
X6198571Y-11543333D01*
X6208095Y-11538571D01*
X6227143Y-11538571D01*
X6236667Y-11543333D01*
X6284286Y-11605238D02*
X6284286Y-11538571D01*
X6284286Y-11505238D02*
X6279524Y-11510000D01*
X6284286Y-11514762D01*
X6289048Y-11510000D01*
X6284286Y-11505238D01*
X6284286Y-11514762D01*
X6317619Y-11538571D02*
X6355714Y-11538571D01*
X6331905Y-11505238D02*
X6331905Y-11590952D01*
X6336667Y-11600476D01*
X6346190Y-11605238D01*
X6355714Y-11605238D01*
X6389048Y-11605238D02*
X6389048Y-11505238D01*
X6431905Y-11605238D02*
X6431905Y-11552857D01*
X6427143Y-11543333D01*
X6417619Y-11538571D01*
X6403333Y-11538571D01*
X6393809Y-11543333D01*
X6389048Y-11548095D01*
X6522381Y-11538571D02*
X6522381Y-11605238D01*
X6479524Y-11538571D02*
X6479524Y-11590952D01*
X6484286Y-11600476D01*
X6493809Y-11605238D01*
X6508095Y-11605238D01*
X6517619Y-11600476D01*
X6522381Y-11595714D01*
X6570000Y-11605238D02*
X6570000Y-11505238D01*
X6570000Y-11543333D02*
X6579524Y-11538571D01*
X6598571Y-11538571D01*
X6608095Y-11543333D01*
X6612857Y-11548095D01*
X6617619Y-11557619D01*
X6617619Y-11586190D01*
X6612857Y-11595714D01*
X6608095Y-11600476D01*
X6598571Y-11605238D01*
X6579524Y-11605238D01*
X6570000Y-11600476D01*
X6660476Y-11595714D02*
X6665238Y-11600476D01*
X6660476Y-11605238D01*
X6655714Y-11600476D01*
X6660476Y-11595714D01*
X6660476Y-11605238D01*
X6750952Y-11600476D02*
X6741429Y-11605238D01*
X6722381Y-11605238D01*
X6712857Y-11600476D01*
X6708095Y-11595714D01*
X6703333Y-11586190D01*
X6703333Y-11557619D01*
X6708095Y-11548095D01*
X6712857Y-11543333D01*
X6722381Y-11538571D01*
X6741429Y-11538571D01*
X6750952Y-11543333D01*
X6808095Y-11605238D02*
X6798571Y-11600476D01*
X6793809Y-11595714D01*
X6789048Y-11586190D01*
X6789048Y-11557619D01*
X6793809Y-11548095D01*
X6798571Y-11543333D01*
X6808095Y-11538571D01*
X6822381Y-11538571D01*
X6831905Y-11543333D01*
X6836667Y-11548095D01*
X6841429Y-11557619D01*
X6841429Y-11586190D01*
X6836667Y-11595714D01*
X6831905Y-11600476D01*
X6822381Y-11605238D01*
X6808095Y-11605238D01*
X6884286Y-11605238D02*
X6884286Y-11538571D01*
X6884286Y-11548095D02*
X6889048Y-11543333D01*
X6898571Y-11538571D01*
X6912857Y-11538571D01*
X6922381Y-11543333D01*
X6927143Y-11552857D01*
X6927143Y-11605238D01*
X6927143Y-11552857D02*
X6931905Y-11543333D01*
X6941429Y-11538571D01*
X6955714Y-11538571D01*
X6965238Y-11543333D01*
X6970000Y-11552857D01*
X6970000Y-11605238D01*
X7089048Y-11500476D02*
X7003333Y-11629048D01*
X7117619Y-11600476D02*
X7127143Y-11605238D01*
X7146190Y-11605238D01*
X7155714Y-11600476D01*
X7160476Y-11590952D01*
X7160476Y-11586190D01*
X7155714Y-11576667D01*
X7146190Y-11571905D01*
X7131905Y-11571905D01*
X7122381Y-11567143D01*
X7117619Y-11557619D01*
X7117619Y-11552857D01*
X7122381Y-11543333D01*
X7131905Y-11538571D01*
X7146190Y-11538571D01*
X7155714Y-11543333D01*
X7193809Y-11538571D02*
X7246190Y-11538571D01*
X7193809Y-11605238D01*
X7246190Y-11605238D01*
X7327143Y-11605238D02*
X7327143Y-11505238D01*
X7327143Y-11600476D02*
X7317619Y-11605238D01*
X7298571Y-11605238D01*
X7289048Y-11600476D01*
X7284286Y-11595714D01*
X7279524Y-11586190D01*
X7279524Y-11557619D01*
X7284286Y-11548095D01*
X7289048Y-11543333D01*
X7298571Y-11538571D01*
X7317619Y-11538571D01*
X7327143Y-11543333D01*
X7374762Y-11605238D02*
X7374762Y-11538571D01*
X7374762Y-11505238D02*
X7370000Y-11510000D01*
X7374762Y-11514762D01*
X7379524Y-11510000D01*
X7374762Y-11505238D01*
X7374762Y-11514762D01*
X7412857Y-11538571D02*
X7436667Y-11605238D01*
X7460476Y-11538571D02*
X7436667Y-11605238D01*
X7427143Y-11629048D01*
X7422381Y-11633809D01*
X7412857Y-11638571D01*
X7570000Y-11500476D02*
X7484286Y-11629048D01*
X7650952Y-11605238D02*
X7603333Y-11605238D01*
X7603333Y-11505238D01*
X7741429Y-11595714D02*
X7736667Y-11600476D01*
X7722381Y-11605238D01*
X7712857Y-11605238D01*
X7698571Y-11600476D01*
X7689048Y-11590952D01*
X7684286Y-11581429D01*
X7679524Y-11562381D01*
X7679524Y-11548095D01*
X7684286Y-11529048D01*
X7689048Y-11519524D01*
X7698571Y-11510000D01*
X7712857Y-11505238D01*
X7722381Y-11505238D01*
X7736667Y-11510000D01*
X7741429Y-11514762D01*
X7784286Y-11605238D02*
X7784286Y-11505238D01*
X7808095Y-11505238D01*
X7822381Y-11510000D01*
X7831905Y-11519524D01*
X7836667Y-11529048D01*
X7841429Y-11548095D01*
X7841429Y-11562381D01*
X7836667Y-11581429D01*
X7831905Y-11590952D01*
X7822381Y-11600476D01*
X7808095Y-11605238D01*
X7784286Y-11605238D01*
X7874762Y-11505238D02*
X7941429Y-11505238D01*
X7898571Y-11605238D01*
X7965238Y-11538571D02*
X8003333Y-11538571D01*
X7979524Y-11505238D02*
X7979524Y-11590952D01*
X7984286Y-11600476D01*
X7993809Y-11605238D01*
X8003333Y-11605238D01*
X8036667Y-11605238D02*
X8036667Y-11505238D01*
X8079524Y-11605238D02*
X8079524Y-11552857D01*
X8074762Y-11543333D01*
X8065238Y-11538571D01*
X8050952Y-11538571D01*
X8041429Y-11543333D01*
X8036667Y-11548095D01*
X8618095Y-11675238D02*
X8637143Y-11675238D01*
X8646667Y-11680000D01*
X8656191Y-11689524D01*
X8660952Y-11708571D01*
X8660952Y-11741905D01*
X8656191Y-11760952D01*
X8646667Y-11770476D01*
X8637143Y-11775238D01*
X8618095Y-11775238D01*
X8608571Y-11770476D01*
X8599048Y-11760952D01*
X8594286Y-11741905D01*
X8594286Y-11708571D01*
X8599048Y-11689524D01*
X8608571Y-11680000D01*
X8618095Y-11675238D01*
X8703810Y-11775238D02*
X8703810Y-11675238D01*
X8760952Y-11775238D01*
X8760952Y-11675238D01*
X8508095Y-5165238D02*
X8527143Y-5165238D01*
X8536667Y-5170000D01*
X8546191Y-5179524D01*
X8550952Y-5198571D01*
X8550952Y-5231905D01*
X8546191Y-5250952D01*
X8536667Y-5260476D01*
X8527143Y-5265238D01*
X8508095Y-5265238D01*
X8498571Y-5260476D01*
X8489048Y-5250952D01*
X8484286Y-5231905D01*
X8484286Y-5198571D01*
X8489048Y-5179524D01*
X8498571Y-5170000D01*
X8508095Y-5165238D01*
X8593810Y-5265238D02*
X8593810Y-5165238D01*
X8650952Y-5265238D01*
X8650952Y-5165238D01*
X8243810Y-10340000D02*
X8234286Y-10335238D01*
X8220000Y-10335238D01*
X8205714Y-10340000D01*
X8196190Y-10349524D01*
X8191429Y-10359048D01*
X8186667Y-10378095D01*
X8186667Y-10392381D01*
X8191429Y-10411429D01*
X8196190Y-10420952D01*
X8205714Y-10430476D01*
X8220000Y-10435238D01*
X8229524Y-10435238D01*
X8243810Y-10430476D01*
X8248571Y-10425714D01*
X8248571Y-10392381D01*
X8229524Y-10392381D01*
X8291429Y-10435238D02*
X8291429Y-10335238D01*
X8348571Y-10435238D01*
X8348571Y-10335238D01*
X8396191Y-10435238D02*
X8396191Y-10335238D01*
X8420000Y-10335238D01*
X8434286Y-10340000D01*
X8443810Y-10349524D01*
X8448572Y-10359048D01*
X8453333Y-10378095D01*
X8453333Y-10392381D01*
X8448572Y-10411429D01*
X8443810Y-10420952D01*
X8434286Y-10430476D01*
X8420000Y-10435238D01*
X8396191Y-10435238D01*
X8330952Y-10085238D02*
X8283333Y-10085238D01*
X8278571Y-10132857D01*
X8283333Y-10128095D01*
X8292857Y-10123333D01*
X8316667Y-10123333D01*
X8326190Y-10128095D01*
X8330952Y-10132857D01*
X8335714Y-10142381D01*
X8335714Y-10166191D01*
X8330952Y-10175714D01*
X8326190Y-10180476D01*
X8316667Y-10185238D01*
X8292857Y-10185238D01*
X8283333Y-10180476D01*
X8278571Y-10175714D01*
X8364286Y-10085238D02*
X8397619Y-10185238D01*
X8430952Y-10085238D01*
X6410952Y-4845238D02*
X6353809Y-4845238D01*
X6382381Y-4845238D02*
X6382381Y-4745238D01*
X6372857Y-4759524D01*
X6363333Y-4769048D01*
X6353809Y-4773810D01*
X6496667Y-4745238D02*
X6477619Y-4745238D01*
X6468095Y-4750000D01*
X6463333Y-4754762D01*
X6453809Y-4769048D01*
X6449048Y-4788095D01*
X6449048Y-4826191D01*
X6453809Y-4835714D01*
X6458571Y-4840476D01*
X6468095Y-4845238D01*
X6487143Y-4845238D01*
X6496667Y-4840476D01*
X6501429Y-4835714D01*
X6506190Y-4826191D01*
X6506190Y-4802381D01*
X6501429Y-4792857D01*
X6496667Y-4788095D01*
X6487143Y-4783333D01*
X6468095Y-4783333D01*
X6458571Y-4788095D01*
X6453809Y-4792857D01*
X6449048Y-4802381D01*
D11*
X7133852Y-6240000D02*
G75*
G03X7133852Y-6240000I-53852J0D01*
G01*
D13*
X8200952Y-9680476D02*
X8215238Y-9685238D01*
X8239048Y-9685238D01*
X8248571Y-9680476D01*
X8253333Y-9675714D01*
X8258095Y-9666191D01*
X8258095Y-9656667D01*
X8253333Y-9647143D01*
X8248571Y-9642381D01*
X8239048Y-9637619D01*
X8220000Y-9632857D01*
X8210476Y-9628095D01*
X8205714Y-9623333D01*
X8200952Y-9613810D01*
X8200952Y-9604286D01*
X8205714Y-9594762D01*
X8210476Y-9590000D01*
X8220000Y-9585238D01*
X8243810Y-9585238D01*
X8258095Y-9590000D01*
X8358095Y-9675714D02*
X8353333Y-9680476D01*
X8339048Y-9685238D01*
X8329524Y-9685238D01*
X8315238Y-9680476D01*
X8305714Y-9670952D01*
X8300952Y-9661429D01*
X8296190Y-9642381D01*
X8296190Y-9628095D01*
X8300952Y-9609048D01*
X8305714Y-9599524D01*
X8315238Y-9590000D01*
X8329524Y-9585238D01*
X8339048Y-9585238D01*
X8353333Y-9590000D01*
X8358095Y-9594762D01*
X8448572Y-9685238D02*
X8400952Y-9685238D01*
X8400952Y-9585238D01*
X8198571Y-9420476D02*
X8212857Y-9425238D01*
X8236667Y-9425238D01*
X8246190Y-9420476D01*
X8250952Y-9415714D01*
X8255714Y-9406191D01*
X8255714Y-9396667D01*
X8250952Y-9387143D01*
X8246190Y-9382381D01*
X8236667Y-9377619D01*
X8217619Y-9372857D01*
X8208095Y-9368095D01*
X8203333Y-9363333D01*
X8198571Y-9353810D01*
X8198571Y-9344286D01*
X8203333Y-9334762D01*
X8208095Y-9330000D01*
X8217619Y-9325238D01*
X8241429Y-9325238D01*
X8255714Y-9330000D01*
X8298571Y-9425238D02*
X8298571Y-9325238D01*
X8322381Y-9325238D01*
X8336667Y-9330000D01*
X8346190Y-9339524D01*
X8350952Y-9349048D01*
X8355714Y-9368095D01*
X8355714Y-9382381D01*
X8350952Y-9401429D01*
X8346190Y-9410952D01*
X8336667Y-9420476D01*
X8322381Y-9425238D01*
X8298571Y-9425238D01*
X8393810Y-9396667D02*
X8441429Y-9396667D01*
X8384286Y-9425238D02*
X8417619Y-9325238D01*
X8450952Y-9425238D01*
X8233810Y-9080000D02*
X8224286Y-9075238D01*
X8210000Y-9075238D01*
X8195714Y-9080000D01*
X8186190Y-9089524D01*
X8181429Y-9099048D01*
X8176667Y-9118095D01*
X8176667Y-9132381D01*
X8181429Y-9151429D01*
X8186190Y-9160952D01*
X8195714Y-9170476D01*
X8210000Y-9175238D01*
X8219524Y-9175238D01*
X8233810Y-9170476D01*
X8238571Y-9165714D01*
X8238571Y-9132381D01*
X8219524Y-9132381D01*
X8281429Y-9175238D02*
X8281429Y-9075238D01*
X8338571Y-9175238D01*
X8338571Y-9075238D01*
X8386190Y-9175238D02*
X8386190Y-9075238D01*
X8410000Y-9075238D01*
X8424286Y-9080000D01*
X8433810Y-9089524D01*
X8438572Y-9099048D01*
X8443333Y-9118095D01*
X8443333Y-9132381D01*
X8438572Y-9151429D01*
X8433810Y-9160952D01*
X8424286Y-9170476D01*
X8410000Y-9175238D01*
X8386190Y-9175238D01*
X8206190Y-8815238D02*
X8268095Y-8815238D01*
X8234762Y-8853333D01*
X8249048Y-8853333D01*
X8258571Y-8858095D01*
X8263333Y-8862857D01*
X8268095Y-8872381D01*
X8268095Y-8896191D01*
X8263333Y-8905714D01*
X8258571Y-8910476D01*
X8249048Y-8915238D01*
X8220476Y-8915238D01*
X8210952Y-8910476D01*
X8206190Y-8905714D01*
X8296667Y-8815238D02*
X8330000Y-8915238D01*
X8363333Y-8815238D01*
X8387143Y-8815238D02*
X8449048Y-8815238D01*
X8415714Y-8853333D01*
X8430000Y-8853333D01*
X8439524Y-8858095D01*
X8444286Y-8862857D01*
X8449048Y-8872381D01*
X8449048Y-8896191D01*
X8444286Y-8905714D01*
X8439524Y-8910476D01*
X8430000Y-8915238D01*
X8401429Y-8915238D01*
X8391905Y-8910476D01*
X8387143Y-8905714D01*
X8353333Y-8395238D02*
X8320000Y-8347619D01*
X8296190Y-8395238D02*
X8296190Y-8295238D01*
X8334286Y-8295238D01*
X8343810Y-8300000D01*
X8348571Y-8304762D01*
X8353333Y-8314286D01*
X8353333Y-8328571D01*
X8348571Y-8338095D01*
X8343810Y-8342857D01*
X8334286Y-8347619D01*
X8296190Y-8347619D01*
X8386667Y-8295238D02*
X8453333Y-8395238D01*
X8453333Y-8295238D02*
X8386667Y-8395238D01*
X8293809Y-8055238D02*
X8350952Y-8055238D01*
X8322381Y-8155238D02*
X8322381Y-8055238D01*
X8374762Y-8055238D02*
X8441429Y-8155238D01*
X8441429Y-8055238D02*
X8374762Y-8155238D01*
X8233810Y-7800000D02*
X8224286Y-7795238D01*
X8210000Y-7795238D01*
X8195714Y-7800000D01*
X8186190Y-7809524D01*
X8181429Y-7819048D01*
X8176667Y-7838095D01*
X8176667Y-7852381D01*
X8181429Y-7871429D01*
X8186190Y-7880952D01*
X8195714Y-7890476D01*
X8210000Y-7895238D01*
X8219524Y-7895238D01*
X8233810Y-7890476D01*
X8238571Y-7885714D01*
X8238571Y-7852381D01*
X8219524Y-7852381D01*
X8281429Y-7895238D02*
X8281429Y-7795238D01*
X8338571Y-7895238D01*
X8338571Y-7795238D01*
X8386190Y-7895238D02*
X8386190Y-7795238D01*
X8410000Y-7795238D01*
X8424286Y-7800000D01*
X8433810Y-7809524D01*
X8438572Y-7819048D01*
X8443333Y-7838095D01*
X8443333Y-7852381D01*
X8438572Y-7871429D01*
X8433810Y-7880952D01*
X8424286Y-7890476D01*
X8410000Y-7895238D01*
X8386190Y-7895238D01*
X8206190Y-7545238D02*
X8268095Y-7545238D01*
X8234762Y-7583333D01*
X8249048Y-7583333D01*
X8258571Y-7588095D01*
X8263333Y-7592857D01*
X8268095Y-7602381D01*
X8268095Y-7626190D01*
X8263333Y-7635714D01*
X8258571Y-7640476D01*
X8249048Y-7645238D01*
X8220476Y-7645238D01*
X8210952Y-7640476D01*
X8206190Y-7635714D01*
X8296667Y-7545238D02*
X8330000Y-7645238D01*
X8363333Y-7545238D01*
X8387143Y-7545238D02*
X8449048Y-7545238D01*
X8415714Y-7583333D01*
X8430000Y-7583333D01*
X8439524Y-7588095D01*
X8444286Y-7592857D01*
X8449048Y-7602381D01*
X8449048Y-7626190D01*
X8444286Y-7635714D01*
X8439524Y-7640476D01*
X8430000Y-7645238D01*
X8401429Y-7645238D01*
X8391905Y-7640476D01*
X8387143Y-7635714D01*
X8394286Y-7287143D02*
X8470476Y-7287143D01*
X8432381Y-7325238D02*
X8432381Y-7249048D01*
X8503810Y-7225238D02*
X8560952Y-7225238D01*
X8532381Y-7325238D02*
X8532381Y-7225238D01*
X8584762Y-7225238D02*
X8651429Y-7325238D01*
X8651429Y-7225238D02*
X8584762Y-7325238D01*
X8689524Y-7287143D02*
X8765714Y-7287143D01*
X8382381Y-6777143D02*
X8458572Y-6777143D01*
X8420476Y-6815238D02*
X8420476Y-6739048D01*
X8563333Y-6815238D02*
X8530000Y-6767619D01*
X8506191Y-6815238D02*
X8506191Y-6715238D01*
X8544286Y-6715238D01*
X8553810Y-6720000D01*
X8558572Y-6724762D01*
X8563333Y-6734286D01*
X8563333Y-6748571D01*
X8558572Y-6758095D01*
X8553810Y-6762857D01*
X8544286Y-6767619D01*
X8506191Y-6767619D01*
X8596667Y-6715238D02*
X8663333Y-6815238D01*
X8663333Y-6715238D02*
X8596667Y-6815238D01*
X8701429Y-6777143D02*
X8777619Y-6777143D01*
X4412381Y-12865238D02*
X4412381Y-12765238D01*
X4517143Y-12855714D02*
X4512381Y-12860476D01*
X4498095Y-12865238D01*
X4488572Y-12865238D01*
X4474286Y-12860476D01*
X4464762Y-12850952D01*
X4460000Y-12841429D01*
X4455238Y-12822381D01*
X4455238Y-12808095D01*
X4460000Y-12789048D01*
X4464762Y-12779524D01*
X4474286Y-12770000D01*
X4488572Y-12765238D01*
X4498095Y-12765238D01*
X4512381Y-12770000D01*
X4517143Y-12774762D01*
X4555238Y-12860476D02*
X4569524Y-12865238D01*
X4593333Y-12865238D01*
X4602857Y-12860476D01*
X4607619Y-12855714D01*
X4612381Y-12846190D01*
X4612381Y-12836667D01*
X4607619Y-12827143D01*
X4602857Y-12822381D01*
X4593333Y-12817619D01*
X4574286Y-12812857D01*
X4564762Y-12808095D01*
X4560000Y-12803333D01*
X4555238Y-12793809D01*
X4555238Y-12784286D01*
X4560000Y-12774762D01*
X4564762Y-12770000D01*
X4574286Y-12765238D01*
X4598095Y-12765238D01*
X4612381Y-12770000D01*
X4655238Y-12865238D02*
X4655238Y-12765238D01*
X4693333Y-12765238D01*
X4702857Y-12770000D01*
X4707619Y-12774762D01*
X4712381Y-12784286D01*
X4712381Y-12798571D01*
X4707619Y-12808095D01*
X4702857Y-12812857D01*
X4693333Y-12817619D01*
X4655238Y-12817619D01*
X4594762Y-5035238D02*
X4561429Y-4987619D01*
X4537619Y-5035238D02*
X4537619Y-4935238D01*
X4575714Y-4935238D01*
X4585238Y-4940000D01*
X4590000Y-4944762D01*
X4594762Y-4954286D01*
X4594762Y-4968571D01*
X4590000Y-4978095D01*
X4585238Y-4982857D01*
X4575714Y-4987619D01*
X4537619Y-4987619D01*
X4637619Y-4982857D02*
X4670952Y-4982857D01*
X4685238Y-5035238D02*
X4637619Y-5035238D01*
X4637619Y-4935238D01*
X4685238Y-4935238D01*
X4723333Y-5030476D02*
X4737619Y-5035238D01*
X4761429Y-5035238D01*
X4770952Y-5030476D01*
X4775714Y-5025714D01*
X4780476Y-5016191D01*
X4780476Y-5006667D01*
X4775714Y-4997143D01*
X4770952Y-4992381D01*
X4761429Y-4987619D01*
X4742381Y-4982857D01*
X4732857Y-4978095D01*
X4728095Y-4973333D01*
X4723333Y-4963810D01*
X4723333Y-4954286D01*
X4728095Y-4944762D01*
X4732857Y-4940000D01*
X4742381Y-4935238D01*
X4766191Y-4935238D01*
X4780476Y-4940000D01*
X4823333Y-4982857D02*
X4856667Y-4982857D01*
X4870952Y-5035238D02*
X4823333Y-5035238D01*
X4823333Y-4935238D01*
X4870952Y-4935238D01*
X4899524Y-4935238D02*
X4956667Y-4935238D01*
X4928095Y-5035238D02*
X4928095Y-4935238D01*
X7841905Y-4237143D02*
X7918095Y-4237143D01*
X7880000Y-4275238D02*
X7880000Y-4199048D01*
X8612500Y-11125000D02*
X8642500Y-11125000D01*
X8612500Y-11275000D02*
X8642500Y-11275000D01*
X8382500Y-11060000D02*
X8382500Y-11040000D01*
X8772500Y-11340000D02*
X8792500Y-11320000D01*
X8772500Y-11210000D02*
X8792500Y-11230000D01*
X8642500Y-11340000D02*
X8772500Y-11340000D01*
X8792500Y-11320000D02*
X8792500Y-11230000D01*
X8772500Y-11210000D02*
X8642500Y-11210000D01*
X8642500Y-11485000D02*
X8642500Y-10915000D01*
X8382500Y-11360000D02*
X8382500Y-11190000D01*
X8472500Y-11535000D02*
X8552500Y-11535000D01*
X8552500Y-10865000D02*
X8472500Y-10865000D01*
X4710000Y-8540000D02*
G75*
G03X4710000Y-8540000I-10000J0D01*
G01*
X4725000Y-8485000D02*
X4725000Y-8535000D01*
X5015000Y-8485000D02*
X4725000Y-8485000D01*
X5015000Y-8535000D02*
X5015000Y-8485000D01*
X4725000Y-8535000D02*
X5015000Y-8535000D01*
X4680000Y-9780000D02*
G75*
G03X4680000Y-9780000I-10000J0D01*
G01*
X4645000Y-9835000D02*
X4645000Y-9785000D01*
X4355000Y-9835000D02*
X4645000Y-9835000D01*
X4355000Y-9785000D02*
X4355000Y-9835000D01*
X4645000Y-9785000D02*
X4355000Y-9785000D01*
X7859500Y-13666500D02*
X7859500Y-13793500D01*
X8431000Y-13730000D02*
X8558000Y-13730000D01*
X8494500Y-13793500D02*
X8494500Y-13666500D01*
X7923000Y-13603000D02*
X8431000Y-13603000D01*
X8431000Y-13603000D02*
X8431000Y-13857000D01*
X8431000Y-13857000D02*
X7923000Y-13857000D01*
X7923000Y-13857000D02*
X7923000Y-13603000D01*
X8612500Y-4605000D02*
X8642500Y-4605000D01*
X8612500Y-4755000D02*
X8642500Y-4755000D01*
X8382500Y-4540000D02*
X8382500Y-4520000D01*
X8772500Y-4820000D02*
X8792500Y-4800000D01*
X8772500Y-4690000D02*
X8792500Y-4710000D01*
X8642500Y-4820000D02*
X8772500Y-4820000D01*
X8792500Y-4800000D02*
X8792500Y-4710000D01*
X8772500Y-4690000D02*
X8642500Y-4690000D01*
X8642500Y-4965000D02*
X8642500Y-4395000D01*
X8382500Y-4840000D02*
X8382500Y-4670000D01*
X8472500Y-5015000D02*
X8552500Y-5015000D01*
X8552500Y-4345000D02*
X8472500Y-4345000D01*
X7019900Y-6448400D02*
X7019900Y-6380900D01*
X5984900Y-6448400D02*
X5984900Y-6380900D01*
X5984900Y-5413400D02*
X5984900Y-5480900D01*
X7019900Y-5413400D02*
X7019900Y-5480900D01*
X7019900Y-6448400D02*
X6952400Y-6448400D01*
X7019900Y-5413400D02*
X6952400Y-5413400D01*
X5984900Y-5413400D02*
X6052400Y-5413400D01*
X5984900Y-6448400D02*
X6052400Y-6448400D01*
X7019900Y-6380900D02*
X7147400Y-6380900D01*
X4187710Y-14123146D02*
X5057710Y-14123146D01*
X4187710Y-13482646D02*
X5057710Y-13482646D01*
X5057710Y-13482646D02*
X5057710Y-14123146D01*
X5057710Y-14000146D02*
X4187710Y-14000146D01*
X4187710Y-14123146D02*
X4187710Y-13482646D01*
X5140000Y-12600000D02*
X5140000Y-11730000D01*
X5140000Y-11730000D02*
X8560000Y-11730000D01*
X8560000Y-11730000D02*
X8560000Y-13470000D01*
X8560000Y-13470000D02*
X5140000Y-13470000D01*
X5140000Y-13470000D02*
X5140000Y-12600000D01*
X4293000Y-12197000D02*
X4293000Y-12705000D01*
X4265000Y-11915000D02*
X4420000Y-11915000D01*
X4547000Y-11943000D02*
X4547000Y-12197000D01*
X4547000Y-12197000D02*
X4293000Y-12197000D01*
X4293000Y-12705000D02*
X4801000Y-12705000D01*
X4801000Y-12705000D02*
X4801000Y-12197000D01*
X4265000Y-11915000D02*
X4265000Y-12070000D01*
X4801000Y-11943000D02*
X4547000Y-11943000D01*
X4801000Y-12197000D02*
X4801000Y-11943000D01*
X5410000Y-8070000D02*
X4350000Y-8070000D01*
X4350000Y-8070000D02*
X4350000Y-5230000D01*
X4350000Y-5230000D02*
X5410000Y-5230000D01*
X5410000Y-5230000D02*
X5410000Y-8070000D01*
X8075000Y-5680000D02*
X8005000Y-5680000D01*
X8005000Y-5560000D02*
X8075000Y-5560000D01*
X8075000Y-6080000D02*
X8005000Y-6080000D01*
X8005000Y-5960000D02*
X8075000Y-5960000D01*
X8075000Y-6270000D02*
X8005000Y-6270000D01*
X8005000Y-6150000D02*
X8075000Y-6150000D01*
X4850000Y-13165000D02*
X4850000Y-13095000D01*
X4970000Y-13095000D02*
X4970000Y-13165000D01*
X5740000Y-9165000D02*
X5740000Y-9235000D01*
X5620000Y-9235000D02*
X5620000Y-9165000D01*
X8075000Y-5880000D02*
X8005000Y-5880000D01*
X8005000Y-5760000D02*
X8075000Y-5760000D01*
X6030000Y-4835000D02*
X6030000Y-4765000D01*
X6150000Y-4765000D02*
X6150000Y-4835000D01*
X6840000Y-4765000D02*
X6840000Y-4835000D01*
X6720000Y-4835000D02*
X6720000Y-4765000D01*
X7400000Y-6015000D02*
X7400000Y-5945000D01*
X7520000Y-5945000D02*
X7520000Y-6015000D01*
X5040000Y-9765000D02*
X5040000Y-9835000D01*
X4920000Y-9835000D02*
X4920000Y-9765000D01*
X5905000Y-7090000D02*
X5975000Y-7090000D01*
X5975000Y-7210000D02*
X5905000Y-7210000D01*
X5905000Y-7290000D02*
X5975000Y-7290000D01*
X5975000Y-7410000D02*
X5905000Y-7410000D01*
X5905000Y-7490000D02*
X5975000Y-7490000D01*
X5975000Y-7610000D02*
X5905000Y-7610000D01*
X5905000Y-7690000D02*
X5975000Y-7690000D01*
X5975000Y-7810000D02*
X5905000Y-7810000D01*
X5905000Y-7890000D02*
X5975000Y-7890000D01*
X5975000Y-8010000D02*
X5905000Y-8010000D01*
X6650000Y-7090000D02*
X6720000Y-7090000D01*
X6720000Y-7210000D02*
X6650000Y-7210000D01*
X6650000Y-7290000D02*
X6720000Y-7290000D01*
X6720000Y-7410000D02*
X6650000Y-7410000D01*
X6650000Y-7490000D02*
X6720000Y-7490000D01*
X6720000Y-7610000D02*
X6650000Y-7610000D01*
X6650000Y-7690000D02*
X6720000Y-7690000D01*
X6720000Y-7810000D02*
X6650000Y-7810000D01*
X6650000Y-7890000D02*
X6720000Y-7890000D01*
X6720000Y-8010000D02*
X6650000Y-8010000D01*
X8005000Y-6340000D02*
X8075000Y-6340000D01*
X8075000Y-6460000D02*
X8005000Y-6460000D01*
X5195000Y-8475000D02*
X5485000Y-8475000D01*
X5485000Y-8300000D02*
X5485000Y-8760000D01*
X5195000Y-8760000D02*
X5195000Y-8300000D01*
X8690000Y-6885000D02*
X8500000Y-6885000D01*
X8690000Y-6995000D02*
X8500000Y-6995000D01*
X8600000Y-6940000D02*
X8555000Y-6940000D01*
X8605000Y-6965000D02*
X8605000Y-6915000D01*
X8605000Y-6940000D02*
X8580000Y-6965000D01*
X8580000Y-6965000D02*
X8580000Y-6915000D01*
X8580000Y-6915000D02*
X8605000Y-6940000D01*
X8690000Y-7065000D02*
X8500000Y-7065000D01*
X8690000Y-7175000D02*
X8500000Y-7175000D01*
X8600000Y-7120000D02*
X8555000Y-7120000D01*
X8605000Y-7145000D02*
X8605000Y-7095000D01*
X8605000Y-7120000D02*
X8580000Y-7145000D01*
X8580000Y-7145000D02*
X8580000Y-7095000D01*
X8580000Y-7095000D02*
X8605000Y-7120000D01*
X6510000Y-13400000D02*
X6610000Y-13500000D01*
X6510000Y-13950000D02*
X6510000Y-13400000D01*
X6510000Y-13400000D02*
X6410000Y-13500000D01*
X7810000Y-13550000D02*
X7310000Y-14000000D01*
X5210000Y-13550000D02*
X5710000Y-14000000D01*
X5710000Y-14000000D02*
X7310000Y-14000000D01*
X6810000Y-11750000D02*
X7810000Y-12250000D01*
X6210000Y-11750000D02*
X5210000Y-12250000D01*
X6510000Y-11750000D02*
X6810000Y-11750000D01*
X6510000Y-11750000D02*
X6210000Y-11750000D01*
X7810000Y-12900000D02*
X7810000Y-13550000D01*
X7810000Y-12900000D02*
X7810000Y-12250000D01*
X5210000Y-12900000D02*
X5210000Y-13550000D01*
X5210000Y-12900000D02*
X5210000Y-12250000D01*
X4487500Y-9150000D02*
X4487500Y-9250000D01*
X4352500Y-9250000D02*
X4352500Y-9150000D01*
X4652200Y-13081800D02*
X4652200Y-13181800D01*
X4517200Y-13181800D02*
X4517200Y-13081800D01*
X4461700Y-13081800D02*
X4461700Y-13181800D01*
X4326700Y-13181800D02*
X4326700Y-13081800D01*
X4487500Y-8470000D02*
X4487500Y-8570000D01*
X4352500Y-8570000D02*
X4352500Y-8470000D01*
X5312500Y-4650000D02*
X5312500Y-4550000D01*
X5447500Y-4550000D02*
X5447500Y-4650000D01*
X8130000Y-6862500D02*
X8230000Y-6862500D01*
X8230000Y-6997500D02*
X8130000Y-6997500D01*
X8130000Y-7052500D02*
X8230000Y-7052500D01*
X8230000Y-7187500D02*
X8130000Y-7187500D01*
X8100000Y-5487500D02*
X8000000Y-5487500D01*
X8000000Y-5352500D02*
X8100000Y-5352500D01*
X5417500Y-9150000D02*
X5417500Y-9250000D01*
X5282500Y-9250000D02*
X5282500Y-9150000D01*
X5732500Y-8590000D02*
X5732500Y-8490000D01*
X5867500Y-8490000D02*
X5867500Y-8590000D01*
X5600487Y-11000000D02*
G75*
G03X5600487Y-11000000I-800487J0D01*
G01*
X5060000Y-4270000D02*
X5060000Y-4290000D01*
X5060000Y-4870000D02*
X5060000Y-4850000D01*
X4460000Y-4870000D02*
X4460000Y-4850000D01*
X4460000Y-4270000D02*
X4460000Y-4290000D01*
X4460000Y-4450000D02*
X4460000Y-4690000D01*
X5060000Y-4450000D02*
X5060000Y-4690000D01*
X5060000Y-4270000D02*
X4460000Y-4270000D01*
X4460000Y-4870000D02*
X5060000Y-4870000D01*
X4930000Y-4570000D02*
G75*
G03X4930000Y-4570000I-170000J0D01*
G01*
X6270000Y-4680000D02*
X6590000Y-4680000D01*
X6590000Y-4680000D02*
X6590000Y-4940000D01*
X6590000Y-4940000D02*
X6270000Y-4940000D01*
X6270000Y-4940000D02*
X6270000Y-4680000D01*
X4675000Y-9090000D02*
X4675000Y-9280000D01*
X4785000Y-9090000D02*
X4785000Y-9280000D01*
X4730000Y-9180000D02*
X4730000Y-9225000D01*
X4755000Y-9175000D02*
X4705000Y-9175000D01*
X4730000Y-9175000D02*
X4755000Y-9200000D01*
X4755000Y-9200000D02*
X4705000Y-9200000D01*
X4705000Y-9200000D02*
X4730000Y-9175000D01*
X5095000Y-9310000D02*
X5095000Y-9120000D01*
X4985000Y-9310000D02*
X4985000Y-9120000D01*
X5040000Y-9220000D02*
X5040000Y-9175000D01*
X5015000Y-9225000D02*
X5065000Y-9225000D01*
X5040000Y-9225000D02*
X5015000Y-9200000D01*
X5015000Y-9200000D02*
X5065000Y-9200000D01*
X5065000Y-9200000D02*
X5040000Y-9225000D01*
D14*
G36*
X7177072Y-9959559D02*
X7190838Y-9962646D01*
X7215734Y-9966479D01*
X7242418Y-9969773D01*
X7272258Y-9973751D01*
X7289138Y-9978540D01*
X7297004Y-9985872D01*
X7299472Y-9994817D01*
X7306057Y-10009711D01*
X7313991Y-10013867D01*
X7323597Y-10016625D01*
X7331028Y-10026267D01*
X7336734Y-10044846D01*
X7341162Y-10074415D01*
X7344761Y-10117027D01*
X7347648Y-10167930D01*
X7353802Y-10292361D01*
X7376084Y-10296897D01*
X7391307Y-10299559D01*
X7417740Y-10303779D01*
X7451222Y-10308936D01*
X7487590Y-10314409D01*
X7522685Y-10319575D01*
X7552345Y-10323814D01*
X7572407Y-10326504D01*
X7578557Y-10327133D01*
X7579637Y-10319329D01*
X7579439Y-10298460D01*
X7578040Y-10268339D01*
X7577057Y-10253050D01*
X7574074Y-10208165D01*
X7570817Y-10156210D01*
X7567900Y-10107026D01*
X7567386Y-10097935D01*
X7564039Y-10038072D01*
X7586589Y-10038072D01*
X7591863Y-10112753D01*
X7594991Y-10157622D01*
X7598562Y-10209694D01*
X7601912Y-10259274D01*
X7602608Y-10269711D01*
X7608080Y-10351988D01*
X7642923Y-10359821D01*
X7673069Y-10366510D01*
X7692372Y-10368582D01*
X7702965Y-10363501D01*
X7706976Y-10348735D01*
X7706537Y-10321751D01*
X7704228Y-10286917D01*
X7699681Y-10218529D01*
X7696038Y-10165145D01*
X7693026Y-10124873D01*
X7690373Y-10095827D01*
X7687804Y-10076114D01*
X7685046Y-10063848D01*
X7681828Y-10057137D01*
X7677874Y-10054093D01*
X7672913Y-10052826D01*
X7670316Y-10052339D01*
X7650003Y-10048571D01*
X7623560Y-10044056D01*
X7619478Y-10043391D01*
X7586589Y-10038072D01*
X7564039Y-10038072D01*
X7562856Y-10016903D01*
X7611844Y-10022696D01*
X7656547Y-10028593D01*
X7686818Y-10034350D01*
X7705132Y-10040780D01*
X7713964Y-10048698D01*
X7715867Y-10056873D01*
X7722246Y-10070658D01*
X7731551Y-10073133D01*
X7737060Y-10074332D01*
X7741607Y-10079111D01*
X7745421Y-10089241D01*
X7748730Y-10106494D01*
X7751763Y-10132642D01*
X7754746Y-10169458D01*
X7757910Y-10218713D01*
X7761481Y-10282178D01*
X7763604Y-10321928D01*
X7769370Y-10431022D01*
X7673533Y-10419048D01*
X7673533Y-10521607D01*
X7621592Y-10516178D01*
X7569651Y-10510749D01*
X7574707Y-10556525D01*
X7577142Y-10583229D01*
X7579986Y-10621613D01*
X7582875Y-10666440D01*
X7585333Y-10710250D01*
X7590903Y-10818200D01*
X7566602Y-10817194D01*
X7543832Y-10815055D01*
X7513566Y-10810762D01*
X7498235Y-10808143D01*
X7468064Y-10800332D01*
X7452247Y-10790023D01*
X7449119Y-10784182D01*
X7437500Y-10768350D01*
X7428547Y-10763340D01*
X7420675Y-10758190D01*
X7415229Y-10746481D01*
X7411329Y-10724896D01*
X7408098Y-10690118D01*
X7407691Y-10684590D01*
X7404421Y-10639769D01*
X7400817Y-10591062D01*
X7397621Y-10548457D01*
X7397405Y-10545611D01*
X7392452Y-10480455D01*
X7361543Y-10477878D01*
X7339831Y-10473814D01*
X7329994Y-10464397D01*
X7327928Y-10456250D01*
X7321343Y-10441356D01*
X7313409Y-10437200D01*
X7299375Y-10429606D01*
X7288665Y-10410295D01*
X7284085Y-10384479D01*
X7284067Y-10382723D01*
X7280724Y-10366280D01*
X7267645Y-10361109D01*
X7263592Y-10361000D01*
X7233625Y-10356913D01*
X7218425Y-10344626D01*
X7216333Y-10334694D01*
X7211002Y-10321467D01*
X7204133Y-10318667D01*
X7189525Y-10313212D01*
X7186420Y-10309747D01*
X7184151Y-10298852D01*
X7181253Y-10274353D01*
X7177944Y-10239402D01*
X7174442Y-10197150D01*
X7170966Y-10150747D01*
X7167734Y-10103343D01*
X7164963Y-10058090D01*
X7162873Y-10018137D01*
X7162061Y-9996663D01*
X7187629Y-9996663D01*
X7188546Y-10019361D01*
X7190246Y-10052389D01*
X7192524Y-10092468D01*
X7195176Y-10136320D01*
X7197995Y-10180665D01*
X7200777Y-10222225D01*
X7203318Y-10257721D01*
X7205412Y-10283874D01*
X7206854Y-10297406D01*
X7207135Y-10298523D01*
X7215195Y-10299932D01*
X7235394Y-10302558D01*
X7258272Y-10305249D01*
X7308678Y-10310952D01*
X7311189Y-10363493D01*
X7313700Y-10416033D01*
X7358704Y-10421526D01*
X7384589Y-10425304D01*
X7402730Y-10429106D01*
X7407794Y-10431105D01*
X7409608Y-10440468D01*
X7412152Y-10463977D01*
X7415184Y-10498875D01*
X7418463Y-10542402D01*
X7421501Y-10587867D01*
X7431122Y-10740542D01*
X7478244Y-10748651D01*
X7504484Y-10753250D01*
X7522992Y-10756653D01*
X7528677Y-10757847D01*
X7529501Y-10750328D01*
X7529436Y-10728969D01*
X7528545Y-10696837D01*
X7526891Y-10656998D01*
X7526394Y-10646750D01*
X7523853Y-10600162D01*
X7521022Y-10555336D01*
X7518240Y-10517254D01*
X7515846Y-10490901D01*
X7515761Y-10490145D01*
X7510723Y-10445723D01*
X7562495Y-10451134D01*
X7614267Y-10456546D01*
X7614267Y-10430998D01*
X7612456Y-10402380D01*
X7609223Y-10380230D01*
X7606035Y-10368024D01*
X7600050Y-10359944D01*
X7587758Y-10354391D01*
X7565648Y-10349767D01*
X7530906Y-10344572D01*
X7491323Y-10338699D01*
X7452576Y-10332561D01*
X7421863Y-10327305D01*
X7417000Y-10326400D01*
X7385751Y-10321626D01*
X7356000Y-10318907D01*
X7347650Y-10318667D01*
X7326212Y-10315795D01*
X7312752Y-10308809D01*
X7312225Y-10308083D01*
X7309504Y-10296483D01*
X7306166Y-10270966D01*
X7302517Y-10234526D01*
X7298865Y-10190154D01*
X7296176Y-10151423D01*
X7292873Y-10103448D01*
X7289544Y-10061562D01*
X7286450Y-10028602D01*
X7283853Y-10007404D01*
X7282287Y-10000798D01*
X7271473Y-9996517D01*
X7250882Y-9992119D01*
X7226458Y-9988435D01*
X7204143Y-9986296D01*
X7189879Y-9986532D01*
X7187699Y-9987574D01*
X7187629Y-9996663D01*
X7162061Y-9996663D01*
X7161681Y-9986636D01*
X7161607Y-9966737D01*
X7162292Y-9961461D01*
X7172245Y-9958373D01*
X7177072Y-9959559D01*
X7177072Y-9959559D01*
G37*
X7177072Y-9959559D02*
X7190838Y-9962646D01*
X7215734Y-9966479D01*
X7242418Y-9969773D01*
X7272258Y-9973751D01*
X7289138Y-9978540D01*
X7297004Y-9985872D01*
X7299472Y-9994817D01*
X7306057Y-10009711D01*
X7313991Y-10013867D01*
X7323597Y-10016625D01*
X7331028Y-10026267D01*
X7336734Y-10044846D01*
X7341162Y-10074415D01*
X7344761Y-10117027D01*
X7347648Y-10167930D01*
X7353802Y-10292361D01*
X7376084Y-10296897D01*
X7391307Y-10299559D01*
X7417740Y-10303779D01*
X7451222Y-10308936D01*
X7487590Y-10314409D01*
X7522685Y-10319575D01*
X7552345Y-10323814D01*
X7572407Y-10326504D01*
X7578557Y-10327133D01*
X7579637Y-10319329D01*
X7579439Y-10298460D01*
X7578040Y-10268339D01*
X7577057Y-10253050D01*
X7574074Y-10208165D01*
X7570817Y-10156210D01*
X7567900Y-10107026D01*
X7567386Y-10097935D01*
X7564039Y-10038072D01*
X7586589Y-10038072D01*
X7591863Y-10112753D01*
X7594991Y-10157622D01*
X7598562Y-10209694D01*
X7601912Y-10259274D01*
X7602608Y-10269711D01*
X7608080Y-10351988D01*
X7642923Y-10359821D01*
X7673069Y-10366510D01*
X7692372Y-10368582D01*
X7702965Y-10363501D01*
X7706976Y-10348735D01*
X7706537Y-10321751D01*
X7704228Y-10286917D01*
X7699681Y-10218529D01*
X7696038Y-10165145D01*
X7693026Y-10124873D01*
X7690373Y-10095827D01*
X7687804Y-10076114D01*
X7685046Y-10063848D01*
X7681828Y-10057137D01*
X7677874Y-10054093D01*
X7672913Y-10052826D01*
X7670316Y-10052339D01*
X7650003Y-10048571D01*
X7623560Y-10044056D01*
X7619478Y-10043391D01*
X7586589Y-10038072D01*
X7564039Y-10038072D01*
X7562856Y-10016903D01*
X7611844Y-10022696D01*
X7656547Y-10028593D01*
X7686818Y-10034350D01*
X7705132Y-10040780D01*
X7713964Y-10048698D01*
X7715867Y-10056873D01*
X7722246Y-10070658D01*
X7731551Y-10073133D01*
X7737060Y-10074332D01*
X7741607Y-10079111D01*
X7745421Y-10089241D01*
X7748730Y-10106494D01*
X7751763Y-10132642D01*
X7754746Y-10169458D01*
X7757910Y-10218713D01*
X7761481Y-10282178D01*
X7763604Y-10321928D01*
X7769370Y-10431022D01*
X7673533Y-10419048D01*
X7673533Y-10521607D01*
X7621592Y-10516178D01*
X7569651Y-10510749D01*
X7574707Y-10556525D01*
X7577142Y-10583229D01*
X7579986Y-10621613D01*
X7582875Y-10666440D01*
X7585333Y-10710250D01*
X7590903Y-10818200D01*
X7566602Y-10817194D01*
X7543832Y-10815055D01*
X7513566Y-10810762D01*
X7498235Y-10808143D01*
X7468064Y-10800332D01*
X7452247Y-10790023D01*
X7449119Y-10784182D01*
X7437500Y-10768350D01*
X7428547Y-10763340D01*
X7420675Y-10758190D01*
X7415229Y-10746481D01*
X7411329Y-10724896D01*
X7408098Y-10690118D01*
X7407691Y-10684590D01*
X7404421Y-10639769D01*
X7400817Y-10591062D01*
X7397621Y-10548457D01*
X7397405Y-10545611D01*
X7392452Y-10480455D01*
X7361543Y-10477878D01*
X7339831Y-10473814D01*
X7329994Y-10464397D01*
X7327928Y-10456250D01*
X7321343Y-10441356D01*
X7313409Y-10437200D01*
X7299375Y-10429606D01*
X7288665Y-10410295D01*
X7284085Y-10384479D01*
X7284067Y-10382723D01*
X7280724Y-10366280D01*
X7267645Y-10361109D01*
X7263592Y-10361000D01*
X7233625Y-10356913D01*
X7218425Y-10344626D01*
X7216333Y-10334694D01*
X7211002Y-10321467D01*
X7204133Y-10318667D01*
X7189525Y-10313212D01*
X7186420Y-10309747D01*
X7184151Y-10298852D01*
X7181253Y-10274353D01*
X7177944Y-10239402D01*
X7174442Y-10197150D01*
X7170966Y-10150747D01*
X7167734Y-10103343D01*
X7164963Y-10058090D01*
X7162873Y-10018137D01*
X7162061Y-9996663D01*
X7187629Y-9996663D01*
X7188546Y-10019361D01*
X7190246Y-10052389D01*
X7192524Y-10092468D01*
X7195176Y-10136320D01*
X7197995Y-10180665D01*
X7200777Y-10222225D01*
X7203318Y-10257721D01*
X7205412Y-10283874D01*
X7206854Y-10297406D01*
X7207135Y-10298523D01*
X7215195Y-10299932D01*
X7235394Y-10302558D01*
X7258272Y-10305249D01*
X7308678Y-10310952D01*
X7311189Y-10363493D01*
X7313700Y-10416033D01*
X7358704Y-10421526D01*
X7384589Y-10425304D01*
X7402730Y-10429106D01*
X7407794Y-10431105D01*
X7409608Y-10440468D01*
X7412152Y-10463977D01*
X7415184Y-10498875D01*
X7418463Y-10542402D01*
X7421501Y-10587867D01*
X7431122Y-10740542D01*
X7478244Y-10748651D01*
X7504484Y-10753250D01*
X7522992Y-10756653D01*
X7528677Y-10757847D01*
X7529501Y-10750328D01*
X7529436Y-10728969D01*
X7528545Y-10696837D01*
X7526891Y-10656998D01*
X7526394Y-10646750D01*
X7523853Y-10600162D01*
X7521022Y-10555336D01*
X7518240Y-10517254D01*
X7515846Y-10490901D01*
X7515761Y-10490145D01*
X7510723Y-10445723D01*
X7562495Y-10451134D01*
X7614267Y-10456546D01*
X7614267Y-10430998D01*
X7612456Y-10402380D01*
X7609223Y-10380230D01*
X7606035Y-10368024D01*
X7600050Y-10359944D01*
X7587758Y-10354391D01*
X7565648Y-10349767D01*
X7530906Y-10344572D01*
X7491323Y-10338699D01*
X7452576Y-10332561D01*
X7421863Y-10327305D01*
X7417000Y-10326400D01*
X7385751Y-10321626D01*
X7356000Y-10318907D01*
X7347650Y-10318667D01*
X7326212Y-10315795D01*
X7312752Y-10308809D01*
X7312225Y-10308083D01*
X7309504Y-10296483D01*
X7306166Y-10270966D01*
X7302517Y-10234526D01*
X7298865Y-10190154D01*
X7296176Y-10151423D01*
X7292873Y-10103448D01*
X7289544Y-10061562D01*
X7286450Y-10028602D01*
X7283853Y-10007404D01*
X7282287Y-10000798D01*
X7271473Y-9996517D01*
X7250882Y-9992119D01*
X7226458Y-9988435D01*
X7204143Y-9986296D01*
X7189879Y-9986532D01*
X7187699Y-9987574D01*
X7187629Y-9996663D01*
X7162061Y-9996663D01*
X7161681Y-9986636D01*
X7161607Y-9966737D01*
X7162292Y-9961461D01*
X7172245Y-9958373D01*
X7177072Y-9959559D01*
G36*
X6748550Y-9900550D02*
X6775100Y-9904188D01*
X6809140Y-9909067D01*
X6831100Y-9912309D01*
X6864929Y-9917198D01*
X6907092Y-9923045D01*
X6949124Y-9928677D01*
X6953867Y-9929297D01*
X6998657Y-9935287D01*
X7029308Y-9940037D01*
X7048491Y-9944349D01*
X7058875Y-9949020D01*
X7063132Y-9954851D01*
X7063933Y-9962241D01*
X7071006Y-9977275D01*
X7079583Y-9982117D01*
X7092880Y-9993456D01*
X7101562Y-10019687D01*
X7105781Y-10061417D01*
X7106267Y-10086992D01*
X7106267Y-10132600D01*
X7070283Y-10126910D01*
X7038782Y-10122216D01*
X7020525Y-10121425D01*
X7012024Y-10125839D01*
X7009791Y-10136755D01*
X7010104Y-10149333D01*
X7013388Y-10222713D01*
X7017130Y-10293646D01*
X7021180Y-10360178D01*
X7025384Y-10420351D01*
X7029593Y-10472210D01*
X7033654Y-10513798D01*
X7037417Y-10543160D01*
X7040729Y-10558340D01*
X7041893Y-10560002D01*
X7056689Y-10563794D01*
X7074517Y-10567888D01*
X7093325Y-10577105D01*
X7097800Y-10589761D01*
X7103828Y-10603761D01*
X7114999Y-10606533D01*
X7130520Y-10611065D01*
X7135542Y-10617117D01*
X7138737Y-10633625D01*
X7141508Y-10658961D01*
X7143623Y-10688483D01*
X7144855Y-10717552D01*
X7144976Y-10741527D01*
X7143755Y-10755768D01*
X7142477Y-10757780D01*
X7129719Y-10755791D01*
X7114733Y-10753596D01*
X7095247Y-10750783D01*
X7065933Y-10746525D01*
X7038533Y-10742532D01*
X7002338Y-10737351D01*
X6958312Y-10731194D01*
X6915408Y-10725312D01*
X6911533Y-10724788D01*
X6866826Y-10718654D01*
X6836231Y-10713916D01*
X6817074Y-10709759D01*
X6806679Y-10705365D01*
X6802370Y-10699918D01*
X6801472Y-10692602D01*
X6801467Y-10691200D01*
X6793852Y-10675584D01*
X6780300Y-10669277D01*
X6771557Y-10666747D01*
X6765466Y-10662465D01*
X6761486Y-10653673D01*
X6759075Y-10637615D01*
X6757693Y-10611535D01*
X6756799Y-10572677D01*
X6756360Y-10547267D01*
X6757737Y-10534672D01*
X6764623Y-10528186D01*
X6780337Y-10527045D01*
X6808199Y-10530482D01*
X6820517Y-10532472D01*
X6852267Y-10537735D01*
X6852143Y-10498051D01*
X6851500Y-10477403D01*
X6849777Y-10443181D01*
X6847172Y-10398699D01*
X6843880Y-10347267D01*
X6840095Y-10292198D01*
X6839567Y-10284800D01*
X6835803Y-10231977D01*
X6832483Y-10184697D01*
X6829792Y-10145638D01*
X6827914Y-10117479D01*
X6827032Y-10102900D01*
X6826990Y-10101732D01*
X6819418Y-10094590D01*
X6800648Y-10088284D01*
X6793000Y-10086815D01*
X6770211Y-10081163D01*
X6760413Y-10072269D01*
X6759133Y-10064567D01*
X6753015Y-10050377D01*
X6743258Y-10047733D01*
X6731047Y-10041864D01*
X6722804Y-10023345D01*
X6718174Y-9990812D01*
X6716800Y-9945607D01*
X6716800Y-9919039D01*
X6741304Y-9919039D01*
X6743869Y-9968358D01*
X6746433Y-10017678D01*
X6796564Y-10026356D01*
X6823521Y-10032262D01*
X6842605Y-10038782D01*
X6848966Y-10043500D01*
X6850020Y-10054082D01*
X6851718Y-10079049D01*
X6853913Y-10115873D01*
X6856456Y-10162025D01*
X6859202Y-10214974D01*
X6860568Y-10242467D01*
X6863583Y-10302031D01*
X6866695Y-10359966D01*
X6869700Y-10412727D01*
X6872393Y-10456765D01*
X6874570Y-10488534D01*
X6875108Y-10495335D01*
X6880318Y-10557704D01*
X6826939Y-10551508D01*
X6773559Y-10545313D01*
X6779046Y-10572748D01*
X6783061Y-10600374D01*
X6784533Y-10623781D01*
X6784283Y-10632665D01*
X6785120Y-10639164D01*
X6789424Y-10644024D01*
X6799575Y-10647991D01*
X6817956Y-10651810D01*
X6846946Y-10656227D01*
X6888926Y-10661989D01*
X6920000Y-10666218D01*
X6958108Y-10671676D01*
X6994210Y-10677260D01*
X7021642Y-10681930D01*
X7025833Y-10682727D01*
X7058798Y-10688902D01*
X7078194Y-10690018D01*
X7087119Y-10684024D01*
X7088668Y-10668864D01*
X7085981Y-10642840D01*
X7081274Y-10615490D01*
X7075054Y-10595358D01*
X7070403Y-10588366D01*
X7056568Y-10583644D01*
X7032833Y-10578675D01*
X7019888Y-10576665D01*
X6994944Y-10572039D01*
X6982764Y-10565538D01*
X6979188Y-10554727D01*
X6979138Y-10552822D01*
X6978527Y-10539130D01*
X6976893Y-10511360D01*
X6974417Y-10472326D01*
X6971277Y-10424839D01*
X6967655Y-10371714D01*
X6966617Y-10356767D01*
X6962784Y-10298756D01*
X6959414Y-10241997D01*
X6956705Y-10190290D01*
X6954855Y-10147435D01*
X6954060Y-10117233D01*
X6954045Y-10114770D01*
X6953867Y-10050574D01*
X7000433Y-10054435D01*
X7047000Y-10058297D01*
X7046884Y-10025498D01*
X7046496Y-9999094D01*
X7043820Y-9980426D01*
X7036268Y-9967639D01*
X7021246Y-9958881D01*
X6996164Y-9952297D01*
X6958432Y-9946034D01*
X6929981Y-9941854D01*
X6884886Y-9935453D01*
X6841853Y-9929679D01*
X6805805Y-9925173D01*
X6781969Y-9922602D01*
X6741304Y-9919039D01*
X6716800Y-9919039D01*
X6716800Y-9896398D01*
X6748550Y-9900550D01*
X6748550Y-9900550D01*
G37*
X6748550Y-9900550D02*
X6775100Y-9904188D01*
X6809140Y-9909067D01*
X6831100Y-9912309D01*
X6864929Y-9917198D01*
X6907092Y-9923045D01*
X6949124Y-9928677D01*
X6953867Y-9929297D01*
X6998657Y-9935287D01*
X7029308Y-9940037D01*
X7048491Y-9944349D01*
X7058875Y-9949020D01*
X7063132Y-9954851D01*
X7063933Y-9962241D01*
X7071006Y-9977275D01*
X7079583Y-9982117D01*
X7092880Y-9993456D01*
X7101562Y-10019687D01*
X7105781Y-10061417D01*
X7106267Y-10086992D01*
X7106267Y-10132600D01*
X7070283Y-10126910D01*
X7038782Y-10122216D01*
X7020525Y-10121425D01*
X7012024Y-10125839D01*
X7009791Y-10136755D01*
X7010104Y-10149333D01*
X7013388Y-10222713D01*
X7017130Y-10293646D01*
X7021180Y-10360178D01*
X7025384Y-10420351D01*
X7029593Y-10472210D01*
X7033654Y-10513798D01*
X7037417Y-10543160D01*
X7040729Y-10558340D01*
X7041893Y-10560002D01*
X7056689Y-10563794D01*
X7074517Y-10567888D01*
X7093325Y-10577105D01*
X7097800Y-10589761D01*
X7103828Y-10603761D01*
X7114999Y-10606533D01*
X7130520Y-10611065D01*
X7135542Y-10617117D01*
X7138737Y-10633625D01*
X7141508Y-10658961D01*
X7143623Y-10688483D01*
X7144855Y-10717552D01*
X7144976Y-10741527D01*
X7143755Y-10755768D01*
X7142477Y-10757780D01*
X7129719Y-10755791D01*
X7114733Y-10753596D01*
X7095247Y-10750783D01*
X7065933Y-10746525D01*
X7038533Y-10742532D01*
X7002338Y-10737351D01*
X6958312Y-10731194D01*
X6915408Y-10725312D01*
X6911533Y-10724788D01*
X6866826Y-10718654D01*
X6836231Y-10713916D01*
X6817074Y-10709759D01*
X6806679Y-10705365D01*
X6802370Y-10699918D01*
X6801472Y-10692602D01*
X6801467Y-10691200D01*
X6793852Y-10675584D01*
X6780300Y-10669277D01*
X6771557Y-10666747D01*
X6765466Y-10662465D01*
X6761486Y-10653673D01*
X6759075Y-10637615D01*
X6757693Y-10611535D01*
X6756799Y-10572677D01*
X6756360Y-10547267D01*
X6757737Y-10534672D01*
X6764623Y-10528186D01*
X6780337Y-10527045D01*
X6808199Y-10530482D01*
X6820517Y-10532472D01*
X6852267Y-10537735D01*
X6852143Y-10498051D01*
X6851500Y-10477403D01*
X6849777Y-10443181D01*
X6847172Y-10398699D01*
X6843880Y-10347267D01*
X6840095Y-10292198D01*
X6839567Y-10284800D01*
X6835803Y-10231977D01*
X6832483Y-10184697D01*
X6829792Y-10145638D01*
X6827914Y-10117479D01*
X6827032Y-10102900D01*
X6826990Y-10101732D01*
X6819418Y-10094590D01*
X6800648Y-10088284D01*
X6793000Y-10086815D01*
X6770211Y-10081163D01*
X6760413Y-10072269D01*
X6759133Y-10064567D01*
X6753015Y-10050377D01*
X6743258Y-10047733D01*
X6731047Y-10041864D01*
X6722804Y-10023345D01*
X6718174Y-9990812D01*
X6716800Y-9945607D01*
X6716800Y-9919039D01*
X6741304Y-9919039D01*
X6743869Y-9968358D01*
X6746433Y-10017678D01*
X6796564Y-10026356D01*
X6823521Y-10032262D01*
X6842605Y-10038782D01*
X6848966Y-10043500D01*
X6850020Y-10054082D01*
X6851718Y-10079049D01*
X6853913Y-10115873D01*
X6856456Y-10162025D01*
X6859202Y-10214974D01*
X6860568Y-10242467D01*
X6863583Y-10302031D01*
X6866695Y-10359966D01*
X6869700Y-10412727D01*
X6872393Y-10456765D01*
X6874570Y-10488534D01*
X6875108Y-10495335D01*
X6880318Y-10557704D01*
X6826939Y-10551508D01*
X6773559Y-10545313D01*
X6779046Y-10572748D01*
X6783061Y-10600374D01*
X6784533Y-10623781D01*
X6784283Y-10632665D01*
X6785120Y-10639164D01*
X6789424Y-10644024D01*
X6799575Y-10647991D01*
X6817956Y-10651810D01*
X6846946Y-10656227D01*
X6888926Y-10661989D01*
X6920000Y-10666218D01*
X6958108Y-10671676D01*
X6994210Y-10677260D01*
X7021642Y-10681930D01*
X7025833Y-10682727D01*
X7058798Y-10688902D01*
X7078194Y-10690018D01*
X7087119Y-10684024D01*
X7088668Y-10668864D01*
X7085981Y-10642840D01*
X7081274Y-10615490D01*
X7075054Y-10595358D01*
X7070403Y-10588366D01*
X7056568Y-10583644D01*
X7032833Y-10578675D01*
X7019888Y-10576665D01*
X6994944Y-10572039D01*
X6982764Y-10565538D01*
X6979188Y-10554727D01*
X6979138Y-10552822D01*
X6978527Y-10539130D01*
X6976893Y-10511360D01*
X6974417Y-10472326D01*
X6971277Y-10424839D01*
X6967655Y-10371714D01*
X6966617Y-10356767D01*
X6962784Y-10298756D01*
X6959414Y-10241997D01*
X6956705Y-10190290D01*
X6954855Y-10147435D01*
X6954060Y-10117233D01*
X6954045Y-10114770D01*
X6953867Y-10050574D01*
X7000433Y-10054435D01*
X7047000Y-10058297D01*
X7046884Y-10025498D01*
X7046496Y-9999094D01*
X7043820Y-9980426D01*
X7036268Y-9967639D01*
X7021246Y-9958881D01*
X6996164Y-9952297D01*
X6958432Y-9946034D01*
X6929981Y-9941854D01*
X6884886Y-9935453D01*
X6841853Y-9929679D01*
X6805805Y-9925173D01*
X6781969Y-9922602D01*
X6741304Y-9919039D01*
X6716800Y-9919039D01*
X6716800Y-9896398D01*
X6748550Y-9900550D01*
G36*
X6083019Y-9805281D02*
X6112496Y-9809238D01*
X6117230Y-9809952D01*
X6159807Y-9816326D01*
X6207528Y-9823271D01*
X6242667Y-9828247D01*
X6283066Y-9833955D01*
X6325399Y-9840081D01*
X6356967Y-9844767D01*
X6394244Y-9850151D01*
X6433166Y-9855378D01*
X6451723Y-9857690D01*
X6478324Y-9862010D01*
X6492264Y-9868233D01*
X6497813Y-9878520D01*
X6498290Y-9881243D01*
X6508073Y-9897776D01*
X6519950Y-9902272D01*
X6532537Y-9906799D01*
X6537983Y-9918901D01*
X6539000Y-9938156D01*
X6540078Y-9959518D01*
X6546526Y-9970009D01*
X6563166Y-9975121D01*
X6572867Y-9976749D01*
X6595920Y-9982586D01*
X6605694Y-9991746D01*
X6606733Y-9998225D01*
X6614204Y-10013626D01*
X6627900Y-10022333D01*
X6644683Y-10034408D01*
X6649097Y-10053874D01*
X6649635Y-10068981D01*
X6651128Y-10098196D01*
X6653414Y-10138728D01*
X6656334Y-10187788D01*
X6659728Y-10242587D01*
X6661336Y-10267867D01*
X6665086Y-10327492D01*
X6668612Y-10385580D01*
X6671706Y-10438566D01*
X6674161Y-10482887D01*
X6675770Y-10514978D01*
X6676065Y-10521867D01*
X6678584Y-10585367D01*
X6629959Y-10582468D01*
X6581333Y-10579569D01*
X6581333Y-10626918D01*
X6580747Y-10652441D01*
X6576723Y-10667239D01*
X6565859Y-10673417D01*
X6544755Y-10673080D01*
X6513600Y-10668860D01*
X6494882Y-10666164D01*
X6465499Y-10661981D01*
X6431556Y-10657179D01*
X6428933Y-10656810D01*
X6350552Y-10645716D01*
X6287326Y-10636600D01*
X6237635Y-10629138D01*
X6199858Y-10623005D01*
X6172374Y-10617876D01*
X6153563Y-10613427D01*
X6141804Y-10609333D01*
X6135478Y-10605269D01*
X6132962Y-10600911D01*
X6132600Y-10597440D01*
X6125514Y-10582873D01*
X6115667Y-10576900D01*
X6101799Y-10566561D01*
X6098483Y-10557279D01*
X6097884Y-10546055D01*
X6096273Y-10519737D01*
X6093765Y-10480128D01*
X6090477Y-10429031D01*
X6086526Y-10368247D01*
X6082027Y-10299580D01*
X6077098Y-10224831D01*
X6073779Y-10174743D01*
X6068725Y-10097565D01*
X6064158Y-10025743D01*
X6060178Y-9961006D01*
X6056886Y-9905087D01*
X6054380Y-9859717D01*
X6052763Y-9826627D01*
X6052579Y-9821074D01*
X6077236Y-9821074D01*
X6077286Y-9829749D01*
X6078358Y-9853404D01*
X6080343Y-9890123D01*
X6083128Y-9937991D01*
X6086603Y-9995093D01*
X6090656Y-10059513D01*
X6094821Y-10123933D01*
X6099547Y-10196699D01*
X6104026Y-10266780D01*
X6108107Y-10331711D01*
X6111637Y-10389028D01*
X6114463Y-10436268D01*
X6116435Y-10470965D01*
X6117273Y-10487539D01*
X6120047Y-10550578D01*
X6179240Y-10560676D01*
X6216853Y-10566753D01*
X6262450Y-10573634D01*
X6307217Y-10579996D01*
X6314633Y-10581000D01*
X6353497Y-10586464D01*
X6390201Y-10592051D01*
X6418440Y-10596788D01*
X6424700Y-10597973D01*
X6456282Y-10602808D01*
X6487799Y-10605538D01*
X6490317Y-10605627D01*
X6522067Y-10606533D01*
X6522067Y-10555733D01*
X6520915Y-10525467D01*
X6517061Y-10509404D01*
X6510376Y-10504933D01*
X6498002Y-10503719D01*
X6472395Y-10500396D01*
X6437056Y-10495442D01*
X6395485Y-10489337D01*
X6386600Y-10488000D01*
X6342801Y-10481648D01*
X6303151Y-10476382D01*
X6271639Y-10472700D01*
X6252256Y-10471097D01*
X6250624Y-10471067D01*
X6231612Y-10468575D01*
X6221916Y-10463273D01*
X6219024Y-10451492D01*
X6215892Y-10427708D01*
X6213151Y-10396827D01*
X6212916Y-10393423D01*
X6206000Y-10290448D01*
X6200210Y-10203257D01*
X6195478Y-10130744D01*
X6191740Y-10071801D01*
X6190981Y-10059242D01*
X6252428Y-10059242D01*
X6253233Y-10097355D01*
X6255134Y-10148664D01*
X6258156Y-10214208D01*
X6262329Y-10295026D01*
X6265156Y-10346953D01*
X6268320Y-10390746D01*
X6272262Y-10424190D01*
X6276639Y-10444883D01*
X6279964Y-10450579D01*
X6291561Y-10453065D01*
X6316295Y-10457343D01*
X6350538Y-10462813D01*
X6390665Y-10468876D01*
X6390833Y-10468901D01*
X6433466Y-10475084D01*
X6462207Y-10478727D01*
X6479915Y-10479775D01*
X6489450Y-10478174D01*
X6493668Y-10473869D01*
X6495412Y-10466910D01*
X6495865Y-10453240D01*
X6495288Y-10425747D01*
X6493796Y-10387502D01*
X6491508Y-10341577D01*
X6488946Y-10297535D01*
X6485541Y-10244175D01*
X6482080Y-10192736D01*
X6478845Y-10147219D01*
X6476118Y-10111621D01*
X6474582Y-10093898D01*
X6469661Y-10042695D01*
X6366747Y-10028104D01*
X6326558Y-10022503D01*
X6292428Y-10017926D01*
X6267880Y-10014835D01*
X6256434Y-10013689D01*
X6256303Y-10013690D01*
X6253990Y-10018449D01*
X6252689Y-10033287D01*
X6252428Y-10059242D01*
X6190981Y-10059242D01*
X6188929Y-10025322D01*
X6186979Y-9990199D01*
X6185825Y-9965327D01*
X6185400Y-9949598D01*
X6185639Y-9941904D01*
X6185973Y-9940738D01*
X6195297Y-9940373D01*
X6216080Y-9942674D01*
X6234905Y-9945633D01*
X6287318Y-9954211D01*
X6347713Y-9963283D01*
X6407233Y-9971553D01*
X6442249Y-9976003D01*
X6485199Y-9981176D01*
X6499605Y-10211305D01*
X6503426Y-10273441D01*
X6506850Y-10331251D01*
X6509740Y-10382212D01*
X6511955Y-10423801D01*
X6513356Y-10453495D01*
X6513805Y-10468652D01*
X6516450Y-10488443D01*
X6526781Y-10501776D01*
X6547853Y-10510797D01*
X6582721Y-10517649D01*
X6583868Y-10517822D01*
X6608042Y-10520988D01*
X6619397Y-10519929D01*
X6621827Y-10513147D01*
X6620227Y-10503841D01*
X6618630Y-10490411D01*
X6616239Y-10462426D01*
X6613222Y-10422236D01*
X6609747Y-10372192D01*
X6605982Y-10314645D01*
X6602095Y-10251944D01*
X6601435Y-10240961D01*
X6597193Y-10169017D01*
X6593682Y-10112184D01*
X6590360Y-10068688D01*
X6586687Y-10036754D01*
X6582121Y-10014608D01*
X6576122Y-10000474D01*
X6568148Y-9992580D01*
X6557659Y-9989150D01*
X6544113Y-9988410D01*
X6526969Y-9988585D01*
X6524481Y-9988582D01*
X6501542Y-9983934D01*
X6487409Y-9968790D01*
X6480728Y-9940999D01*
X6479733Y-9917440D01*
X6478909Y-9893780D01*
X6474224Y-9881947D01*
X6462361Y-9876841D01*
X6452217Y-9875147D01*
X6379509Y-9864585D01*
X6318332Y-9855849D01*
X6263480Y-9848198D01*
X6234200Y-9844195D01*
X6194645Y-9838556D01*
X6155710Y-9832557D01*
X6124828Y-9827352D01*
X6120781Y-9826604D01*
X6096622Y-9822534D01*
X6080654Y-9820771D01*
X6077236Y-9821074D01*
X6052579Y-9821074D01*
X6052132Y-9807548D01*
X6052309Y-9803468D01*
X6061498Y-9803212D01*
X6083019Y-9805281D01*
X6083019Y-9805281D01*
G37*
X6083019Y-9805281D02*
X6112496Y-9809238D01*
X6117230Y-9809952D01*
X6159807Y-9816326D01*
X6207528Y-9823271D01*
X6242667Y-9828247D01*
X6283066Y-9833955D01*
X6325399Y-9840081D01*
X6356967Y-9844767D01*
X6394244Y-9850151D01*
X6433166Y-9855378D01*
X6451723Y-9857690D01*
X6478324Y-9862010D01*
X6492264Y-9868233D01*
X6497813Y-9878520D01*
X6498290Y-9881243D01*
X6508073Y-9897776D01*
X6519950Y-9902272D01*
X6532537Y-9906799D01*
X6537983Y-9918901D01*
X6539000Y-9938156D01*
X6540078Y-9959518D01*
X6546526Y-9970009D01*
X6563166Y-9975121D01*
X6572867Y-9976749D01*
X6595920Y-9982586D01*
X6605694Y-9991746D01*
X6606733Y-9998225D01*
X6614204Y-10013626D01*
X6627900Y-10022333D01*
X6644683Y-10034408D01*
X6649097Y-10053874D01*
X6649635Y-10068981D01*
X6651128Y-10098196D01*
X6653414Y-10138728D01*
X6656334Y-10187788D01*
X6659728Y-10242587D01*
X6661336Y-10267867D01*
X6665086Y-10327492D01*
X6668612Y-10385580D01*
X6671706Y-10438566D01*
X6674161Y-10482887D01*
X6675770Y-10514978D01*
X6676065Y-10521867D01*
X6678584Y-10585367D01*
X6629959Y-10582468D01*
X6581333Y-10579569D01*
X6581333Y-10626918D01*
X6580747Y-10652441D01*
X6576723Y-10667239D01*
X6565859Y-10673417D01*
X6544755Y-10673080D01*
X6513600Y-10668860D01*
X6494882Y-10666164D01*
X6465499Y-10661981D01*
X6431556Y-10657179D01*
X6428933Y-10656810D01*
X6350552Y-10645716D01*
X6287326Y-10636600D01*
X6237635Y-10629138D01*
X6199858Y-10623005D01*
X6172374Y-10617876D01*
X6153563Y-10613427D01*
X6141804Y-10609333D01*
X6135478Y-10605269D01*
X6132962Y-10600911D01*
X6132600Y-10597440D01*
X6125514Y-10582873D01*
X6115667Y-10576900D01*
X6101799Y-10566561D01*
X6098483Y-10557279D01*
X6097884Y-10546055D01*
X6096273Y-10519737D01*
X6093765Y-10480128D01*
X6090477Y-10429031D01*
X6086526Y-10368247D01*
X6082027Y-10299580D01*
X6077098Y-10224831D01*
X6073779Y-10174743D01*
X6068725Y-10097565D01*
X6064158Y-10025743D01*
X6060178Y-9961006D01*
X6056886Y-9905087D01*
X6054380Y-9859717D01*
X6052763Y-9826627D01*
X6052579Y-9821074D01*
X6077236Y-9821074D01*
X6077286Y-9829749D01*
X6078358Y-9853404D01*
X6080343Y-9890123D01*
X6083128Y-9937991D01*
X6086603Y-9995093D01*
X6090656Y-10059513D01*
X6094821Y-10123933D01*
X6099547Y-10196699D01*
X6104026Y-10266780D01*
X6108107Y-10331711D01*
X6111637Y-10389028D01*
X6114463Y-10436268D01*
X6116435Y-10470965D01*
X6117273Y-10487539D01*
X6120047Y-10550578D01*
X6179240Y-10560676D01*
X6216853Y-10566753D01*
X6262450Y-10573634D01*
X6307217Y-10579996D01*
X6314633Y-10581000D01*
X6353497Y-10586464D01*
X6390201Y-10592051D01*
X6418440Y-10596788D01*
X6424700Y-10597973D01*
X6456282Y-10602808D01*
X6487799Y-10605538D01*
X6490317Y-10605627D01*
X6522067Y-10606533D01*
X6522067Y-10555733D01*
X6520915Y-10525467D01*
X6517061Y-10509404D01*
X6510376Y-10504933D01*
X6498002Y-10503719D01*
X6472395Y-10500396D01*
X6437056Y-10495442D01*
X6395485Y-10489337D01*
X6386600Y-10488000D01*
X6342801Y-10481648D01*
X6303151Y-10476382D01*
X6271639Y-10472700D01*
X6252256Y-10471097D01*
X6250624Y-10471067D01*
X6231612Y-10468575D01*
X6221916Y-10463273D01*
X6219024Y-10451492D01*
X6215892Y-10427708D01*
X6213151Y-10396827D01*
X6212916Y-10393423D01*
X6206000Y-10290448D01*
X6200210Y-10203257D01*
X6195478Y-10130744D01*
X6191740Y-10071801D01*
X6190981Y-10059242D01*
X6252428Y-10059242D01*
X6253233Y-10097355D01*
X6255134Y-10148664D01*
X6258156Y-10214208D01*
X6262329Y-10295026D01*
X6265156Y-10346953D01*
X6268320Y-10390746D01*
X6272262Y-10424190D01*
X6276639Y-10444883D01*
X6279964Y-10450579D01*
X6291561Y-10453065D01*
X6316295Y-10457343D01*
X6350538Y-10462813D01*
X6390665Y-10468876D01*
X6390833Y-10468901D01*
X6433466Y-10475084D01*
X6462207Y-10478727D01*
X6479915Y-10479775D01*
X6489450Y-10478174D01*
X6493668Y-10473869D01*
X6495412Y-10466910D01*
X6495865Y-10453240D01*
X6495288Y-10425747D01*
X6493796Y-10387502D01*
X6491508Y-10341577D01*
X6488946Y-10297535D01*
X6485541Y-10244175D01*
X6482080Y-10192736D01*
X6478845Y-10147219D01*
X6476118Y-10111621D01*
X6474582Y-10093898D01*
X6469661Y-10042695D01*
X6366747Y-10028104D01*
X6326558Y-10022503D01*
X6292428Y-10017926D01*
X6267880Y-10014835D01*
X6256434Y-10013689D01*
X6256303Y-10013690D01*
X6253990Y-10018449D01*
X6252689Y-10033287D01*
X6252428Y-10059242D01*
X6190981Y-10059242D01*
X6188929Y-10025322D01*
X6186979Y-9990199D01*
X6185825Y-9965327D01*
X6185400Y-9949598D01*
X6185639Y-9941904D01*
X6185973Y-9940738D01*
X6195297Y-9940373D01*
X6216080Y-9942674D01*
X6234905Y-9945633D01*
X6287318Y-9954211D01*
X6347713Y-9963283D01*
X6407233Y-9971553D01*
X6442249Y-9976003D01*
X6485199Y-9981176D01*
X6499605Y-10211305D01*
X6503426Y-10273441D01*
X6506850Y-10331251D01*
X6509740Y-10382212D01*
X6511955Y-10423801D01*
X6513356Y-10453495D01*
X6513805Y-10468652D01*
X6516450Y-10488443D01*
X6526781Y-10501776D01*
X6547853Y-10510797D01*
X6582721Y-10517649D01*
X6583868Y-10517822D01*
X6608042Y-10520988D01*
X6619397Y-10519929D01*
X6621827Y-10513147D01*
X6620227Y-10503841D01*
X6618630Y-10490411D01*
X6616239Y-10462426D01*
X6613222Y-10422236D01*
X6609747Y-10372192D01*
X6605982Y-10314645D01*
X6602095Y-10251944D01*
X6601435Y-10240961D01*
X6597193Y-10169017D01*
X6593682Y-10112184D01*
X6590360Y-10068688D01*
X6586687Y-10036754D01*
X6582121Y-10014608D01*
X6576122Y-10000474D01*
X6568148Y-9992580D01*
X6557659Y-9989150D01*
X6544113Y-9988410D01*
X6526969Y-9988585D01*
X6524481Y-9988582D01*
X6501542Y-9983934D01*
X6487409Y-9968790D01*
X6480728Y-9940999D01*
X6479733Y-9917440D01*
X6478909Y-9893780D01*
X6474224Y-9881947D01*
X6462361Y-9876841D01*
X6452217Y-9875147D01*
X6379509Y-9864585D01*
X6318332Y-9855849D01*
X6263480Y-9848198D01*
X6234200Y-9844195D01*
X6194645Y-9838556D01*
X6155710Y-9832557D01*
X6124828Y-9827352D01*
X6120781Y-9826604D01*
X6096622Y-9822534D01*
X6080654Y-9820771D01*
X6077236Y-9821074D01*
X6052579Y-9821074D01*
X6052132Y-9807548D01*
X6052309Y-9803468D01*
X6061498Y-9803212D01*
X6083019Y-9805281D01*
G36*
X6950493Y-9193827D02*
X6979395Y-9197160D01*
X7019224Y-9202252D01*
X7067071Y-9208727D01*
X7120026Y-9216212D01*
X7131667Y-9217898D01*
X7184371Y-9225498D01*
X7231668Y-9232194D01*
X7270892Y-9237619D01*
X7299374Y-9241404D01*
X7314446Y-9243183D01*
X7315817Y-9243271D01*
X7325409Y-9250140D01*
X7326400Y-9255067D01*
X7332661Y-9268840D01*
X7342428Y-9278351D01*
X7350081Y-9286626D01*
X7355546Y-9300619D01*
X7359539Y-9323618D01*
X7362774Y-9358908D01*
X7364053Y-9377780D01*
X7369650Y-9465594D01*
X7292533Y-9454029D01*
X7292533Y-9532304D01*
X7253755Y-9526489D01*
X7214977Y-9520674D01*
X7221019Y-9560968D01*
X7227062Y-9601262D01*
X7148600Y-9589496D01*
X7148600Y-9667771D01*
X7108383Y-9662524D01*
X7085184Y-9659990D01*
X7076205Y-9660916D01*
X7078972Y-9665915D01*
X7082485Y-9668924D01*
X7095964Y-9674253D01*
X7123089Y-9680717D01*
X7160665Y-9687678D01*
X7205495Y-9694499D01*
X7221096Y-9696580D01*
X7271844Y-9703492D01*
X7308148Y-9709464D01*
X7332430Y-9715060D01*
X7347114Y-9720846D01*
X7354622Y-9727385D01*
X7354865Y-9727761D01*
X7367140Y-9740158D01*
X7375003Y-9742933D01*
X7382715Y-9750603D01*
X7385666Y-9771093D01*
X7385667Y-9771508D01*
X7387370Y-9800976D01*
X7390958Y-9826542D01*
X7393367Y-9844386D01*
X7387807Y-9851328D01*
X7370006Y-9852027D01*
X7367675Y-9851944D01*
X7341583Y-9849901D01*
X7309405Y-9845996D01*
X7296767Y-9844105D01*
X7258885Y-9838222D01*
X7212628Y-9831320D01*
X7162489Y-9824038D01*
X7112960Y-9817017D01*
X7068535Y-9810895D01*
X7033707Y-9806315D01*
X7019483Y-9804595D01*
X6994001Y-9799639D01*
X6980510Y-9792519D01*
X6979267Y-9789456D01*
X6973042Y-9776581D01*
X6963239Y-9767249D01*
X6955594Y-9758985D01*
X6950131Y-9745012D01*
X6946138Y-9722047D01*
X6942901Y-9686806D01*
X6941601Y-9667635D01*
X6937128Y-9597474D01*
X6958100Y-9597474D01*
X6960810Y-9674165D01*
X6963521Y-9750856D01*
X6990444Y-9755256D01*
X7011870Y-9758539D01*
X7043729Y-9763168D01*
X7079676Y-9768223D01*
X7085100Y-9768971D01*
X7127456Y-9774853D01*
X7176795Y-9781791D01*
X7223344Y-9788410D01*
X7229033Y-9789226D01*
X7274832Y-9795808D01*
X7306444Y-9799732D01*
X7326489Y-9800423D01*
X7337585Y-9797304D01*
X7342350Y-9789801D01*
X7343404Y-9777337D01*
X7343333Y-9764100D01*
X7342613Y-9741369D01*
X7340792Y-9727741D01*
X7339713Y-9726000D01*
X7328411Y-9724896D01*
X7304584Y-9721962D01*
X7272472Y-9717768D01*
X7236312Y-9712883D01*
X7200343Y-9707878D01*
X7168803Y-9703321D01*
X7152833Y-9700892D01*
X7107018Y-9693796D01*
X7075298Y-9688619D01*
X7055113Y-9684219D01*
X7043903Y-9679455D01*
X7039108Y-9673184D01*
X7038168Y-9664267D01*
X7038525Y-9651560D01*
X7038533Y-9649916D01*
X7037411Y-9627301D01*
X7031329Y-9614525D01*
X7016211Y-9607534D01*
X6991159Y-9602780D01*
X6958100Y-9597474D01*
X6937128Y-9597474D01*
X6935991Y-9579636D01*
X6974562Y-9584923D01*
X7013133Y-9590209D01*
X7013133Y-9567816D01*
X7030067Y-9567816D01*
X7031334Y-9590998D01*
X7037622Y-9604433D01*
X7052664Y-9611190D01*
X7080192Y-9614334D01*
X7087217Y-9614780D01*
X7098931Y-9613693D01*
X7104530Y-9605684D01*
X7106203Y-9586446D01*
X7106267Y-9577315D01*
X7106267Y-9540771D01*
X7108393Y-9541090D01*
X7108074Y-9538967D01*
X7106267Y-9538696D01*
X7106267Y-9540771D01*
X7069230Y-9535217D01*
X7030067Y-9529344D01*
X7030067Y-9567816D01*
X7013133Y-9567816D01*
X7013133Y-9512877D01*
X7049117Y-9515722D01*
X7085100Y-9518567D01*
X7082138Y-9481387D01*
X7080523Y-9461116D01*
X7096400Y-9461116D01*
X7108074Y-9538967D01*
X7145633Y-9544599D01*
X7184999Y-9550502D01*
X7179112Y-9513686D01*
X7174883Y-9490666D01*
X7171154Y-9475963D01*
X7170078Y-9473723D01*
X7160493Y-9470749D01*
X7140260Y-9467079D01*
X7131666Y-9465846D01*
X7096400Y-9461116D01*
X7080523Y-9461116D01*
X7079176Y-9444207D01*
X7118122Y-9448597D01*
X7157067Y-9452987D01*
X7157067Y-9376637D01*
X7190933Y-9381180D01*
X7215106Y-9382356D01*
X7224574Y-9377213D01*
X7224800Y-9375575D01*
X7216433Y-9369800D01*
X7191686Y-9363259D01*
X7151089Y-9356070D01*
X7112617Y-9350595D01*
X7055438Y-9342952D01*
X7012923Y-9336989D01*
X6982930Y-9332282D01*
X6963321Y-9328407D01*
X6951956Y-9324940D01*
X6946696Y-9321458D01*
X6945400Y-9317537D01*
X6945400Y-9317474D01*
X6939506Y-9305188D01*
X6933697Y-9299367D01*
X6926531Y-9286223D01*
X6920323Y-9262176D01*
X6917376Y-9241283D01*
X6916443Y-9229944D01*
X6937956Y-9229944D01*
X6938556Y-9240525D01*
X6941167Y-9281438D01*
X7091450Y-9301821D01*
X7241733Y-9322203D01*
X7241733Y-9406496D01*
X7207867Y-9401954D01*
X7174000Y-9397411D01*
X7174000Y-9433295D01*
X7175250Y-9460193D01*
X7181526Y-9474292D01*
X7196622Y-9479680D01*
X7217744Y-9480467D01*
X7250200Y-9480467D01*
X7250200Y-9408053D01*
X7284067Y-9411282D01*
X7317933Y-9414512D01*
X7317818Y-9352239D01*
X7318017Y-9320571D01*
X7317379Y-9296598D01*
X7313846Y-9278944D01*
X7305361Y-9266232D01*
X7289869Y-9257085D01*
X7265312Y-9250126D01*
X7229634Y-9243978D01*
X7180778Y-9237265D01*
X7137399Y-9231461D01*
X7084685Y-9224185D01*
X7037040Y-9217409D01*
X6997259Y-9211547D01*
X6968139Y-9207012D01*
X6952478Y-9204218D01*
X6951256Y-9203919D01*
X6942186Y-9203316D01*
X6938182Y-9210754D01*
X6937956Y-9229944D01*
X6916443Y-9229944D01*
X6915128Y-9213954D01*
X6916043Y-9199432D01*
X6921621Y-9193671D01*
X6933362Y-9192627D01*
X6935428Y-9192627D01*
X6950493Y-9193827D01*
X6950493Y-9193827D01*
G37*
X6950493Y-9193827D02*
X6979395Y-9197160D01*
X7019224Y-9202252D01*
X7067071Y-9208727D01*
X7120026Y-9216212D01*
X7131667Y-9217898D01*
X7184371Y-9225498D01*
X7231668Y-9232194D01*
X7270892Y-9237619D01*
X7299374Y-9241404D01*
X7314446Y-9243183D01*
X7315817Y-9243271D01*
X7325409Y-9250140D01*
X7326400Y-9255067D01*
X7332661Y-9268840D01*
X7342428Y-9278351D01*
X7350081Y-9286626D01*
X7355546Y-9300619D01*
X7359539Y-9323618D01*
X7362774Y-9358908D01*
X7364053Y-9377780D01*
X7369650Y-9465594D01*
X7292533Y-9454029D01*
X7292533Y-9532304D01*
X7253755Y-9526489D01*
X7214977Y-9520674D01*
X7221019Y-9560968D01*
X7227062Y-9601262D01*
X7148600Y-9589496D01*
X7148600Y-9667771D01*
X7108383Y-9662524D01*
X7085184Y-9659990D01*
X7076205Y-9660916D01*
X7078972Y-9665915D01*
X7082485Y-9668924D01*
X7095964Y-9674253D01*
X7123089Y-9680717D01*
X7160665Y-9687678D01*
X7205495Y-9694499D01*
X7221096Y-9696580D01*
X7271844Y-9703492D01*
X7308148Y-9709464D01*
X7332430Y-9715060D01*
X7347114Y-9720846D01*
X7354622Y-9727385D01*
X7354865Y-9727761D01*
X7367140Y-9740158D01*
X7375003Y-9742933D01*
X7382715Y-9750603D01*
X7385666Y-9771093D01*
X7385667Y-9771508D01*
X7387370Y-9800976D01*
X7390958Y-9826542D01*
X7393367Y-9844386D01*
X7387807Y-9851328D01*
X7370006Y-9852027D01*
X7367675Y-9851944D01*
X7341583Y-9849901D01*
X7309405Y-9845996D01*
X7296767Y-9844105D01*
X7258885Y-9838222D01*
X7212628Y-9831320D01*
X7162489Y-9824038D01*
X7112960Y-9817017D01*
X7068535Y-9810895D01*
X7033707Y-9806315D01*
X7019483Y-9804595D01*
X6994001Y-9799639D01*
X6980510Y-9792519D01*
X6979267Y-9789456D01*
X6973042Y-9776581D01*
X6963239Y-9767249D01*
X6955594Y-9758985D01*
X6950131Y-9745012D01*
X6946138Y-9722047D01*
X6942901Y-9686806D01*
X6941601Y-9667635D01*
X6937128Y-9597474D01*
X6958100Y-9597474D01*
X6960810Y-9674165D01*
X6963521Y-9750856D01*
X6990444Y-9755256D01*
X7011870Y-9758539D01*
X7043729Y-9763168D01*
X7079676Y-9768223D01*
X7085100Y-9768971D01*
X7127456Y-9774853D01*
X7176795Y-9781791D01*
X7223344Y-9788410D01*
X7229033Y-9789226D01*
X7274832Y-9795808D01*
X7306444Y-9799732D01*
X7326489Y-9800423D01*
X7337585Y-9797304D01*
X7342350Y-9789801D01*
X7343404Y-9777337D01*
X7343333Y-9764100D01*
X7342613Y-9741369D01*
X7340792Y-9727741D01*
X7339713Y-9726000D01*
X7328411Y-9724896D01*
X7304584Y-9721962D01*
X7272472Y-9717768D01*
X7236312Y-9712883D01*
X7200343Y-9707878D01*
X7168803Y-9703321D01*
X7152833Y-9700892D01*
X7107018Y-9693796D01*
X7075298Y-9688619D01*
X7055113Y-9684219D01*
X7043903Y-9679455D01*
X7039108Y-9673184D01*
X7038168Y-9664267D01*
X7038525Y-9651560D01*
X7038533Y-9649916D01*
X7037411Y-9627301D01*
X7031329Y-9614525D01*
X7016211Y-9607534D01*
X6991159Y-9602780D01*
X6958100Y-9597474D01*
X6937128Y-9597474D01*
X6935991Y-9579636D01*
X6974562Y-9584923D01*
X7013133Y-9590209D01*
X7013133Y-9567816D01*
X7030067Y-9567816D01*
X7031334Y-9590998D01*
X7037622Y-9604433D01*
X7052664Y-9611190D01*
X7080192Y-9614334D01*
X7087217Y-9614780D01*
X7098931Y-9613693D01*
X7104530Y-9605684D01*
X7106203Y-9586446D01*
X7106267Y-9577315D01*
X7106267Y-9540771D01*
X7108393Y-9541090D01*
X7108074Y-9538967D01*
X7106267Y-9538696D01*
X7106267Y-9540771D01*
X7069230Y-9535217D01*
X7030067Y-9529344D01*
X7030067Y-9567816D01*
X7013133Y-9567816D01*
X7013133Y-9512877D01*
X7049117Y-9515722D01*
X7085100Y-9518567D01*
X7082138Y-9481387D01*
X7080523Y-9461116D01*
X7096400Y-9461116D01*
X7108074Y-9538967D01*
X7145633Y-9544599D01*
X7184999Y-9550502D01*
X7179112Y-9513686D01*
X7174883Y-9490666D01*
X7171154Y-9475963D01*
X7170078Y-9473723D01*
X7160493Y-9470749D01*
X7140260Y-9467079D01*
X7131666Y-9465846D01*
X7096400Y-9461116D01*
X7080523Y-9461116D01*
X7079176Y-9444207D01*
X7118122Y-9448597D01*
X7157067Y-9452987D01*
X7157067Y-9376637D01*
X7190933Y-9381180D01*
X7215106Y-9382356D01*
X7224574Y-9377213D01*
X7224800Y-9375575D01*
X7216433Y-9369800D01*
X7191686Y-9363259D01*
X7151089Y-9356070D01*
X7112617Y-9350595D01*
X7055438Y-9342952D01*
X7012923Y-9336989D01*
X6982930Y-9332282D01*
X6963321Y-9328407D01*
X6951956Y-9324940D01*
X6946696Y-9321458D01*
X6945400Y-9317537D01*
X6945400Y-9317474D01*
X6939506Y-9305188D01*
X6933697Y-9299367D01*
X6926531Y-9286223D01*
X6920323Y-9262176D01*
X6917376Y-9241283D01*
X6916443Y-9229944D01*
X6937956Y-9229944D01*
X6938556Y-9240525D01*
X6941167Y-9281438D01*
X7091450Y-9301821D01*
X7241733Y-9322203D01*
X7241733Y-9406496D01*
X7207867Y-9401954D01*
X7174000Y-9397411D01*
X7174000Y-9433295D01*
X7175250Y-9460193D01*
X7181526Y-9474292D01*
X7196622Y-9479680D01*
X7217744Y-9480467D01*
X7250200Y-9480467D01*
X7250200Y-9408053D01*
X7284067Y-9411282D01*
X7317933Y-9414512D01*
X7317818Y-9352239D01*
X7318017Y-9320571D01*
X7317379Y-9296598D01*
X7313846Y-9278944D01*
X7305361Y-9266232D01*
X7289869Y-9257085D01*
X7265312Y-9250126D01*
X7229634Y-9243978D01*
X7180778Y-9237265D01*
X7137399Y-9231461D01*
X7084685Y-9224185D01*
X7037040Y-9217409D01*
X6997259Y-9211547D01*
X6968139Y-9207012D01*
X6952478Y-9204218D01*
X6951256Y-9203919D01*
X6942186Y-9203316D01*
X6938182Y-9210754D01*
X6937956Y-9229944D01*
X6916443Y-9229944D01*
X6915128Y-9213954D01*
X6916043Y-9199432D01*
X6921621Y-9193671D01*
X6933362Y-9192627D01*
X6935428Y-9192627D01*
X6950493Y-9193827D01*
G36*
X6535267Y-9134547D02*
X6564998Y-9137782D01*
X6602425Y-9142430D01*
X6643033Y-9147883D01*
X6682305Y-9153533D01*
X6715726Y-9158772D01*
X6738780Y-9162991D01*
X6740083Y-9163276D01*
X6754962Y-9171324D01*
X6759133Y-9180061D01*
X6765914Y-9191145D01*
X6771833Y-9192600D01*
X6782522Y-9198792D01*
X6786790Y-9218496D01*
X6786743Y-9233204D01*
X6793741Y-9242320D01*
X6811275Y-9249168D01*
X6811938Y-9249304D01*
X6832494Y-9258087D01*
X6841683Y-9270084D01*
X6850372Y-9283140D01*
X6857487Y-9285733D01*
X6866422Y-9293536D01*
X6869200Y-9314308D01*
X6870951Y-9344064D01*
X6874613Y-9369947D01*
X6880025Y-9397010D01*
X6847096Y-9391601D01*
X6809879Y-9385222D01*
X6786380Y-9380255D01*
X6773551Y-9375739D01*
X6768343Y-9370708D01*
X6767600Y-9366481D01*
X6760513Y-9355660D01*
X6750667Y-9351013D01*
X6737399Y-9341354D01*
X6733733Y-9321676D01*
X6733125Y-9309431D01*
X6729064Y-9301490D01*
X6718193Y-9296186D01*
X6697158Y-9291853D01*
X6663883Y-9287006D01*
X6621647Y-9281122D01*
X6593422Y-9278168D01*
X6576396Y-9279151D01*
X6567754Y-9285079D01*
X6564685Y-9296963D01*
X6564375Y-9315809D01*
X6564400Y-9322672D01*
X6564400Y-9368077D01*
X6625783Y-9377423D01*
X6663644Y-9383093D01*
X6701550Y-9388617D01*
X6728470Y-9392409D01*
X6756318Y-9398278D01*
X6770624Y-9407176D01*
X6773907Y-9413858D01*
X6782571Y-9427003D01*
X6789754Y-9429667D01*
X6798776Y-9437283D01*
X6801467Y-9454905D01*
X6804800Y-9474437D01*
X6817717Y-9483989D01*
X6823393Y-9485647D01*
X6847522Y-9494151D01*
X6864670Y-9507463D01*
X6876260Y-9528436D01*
X6883713Y-9559921D01*
X6888452Y-9604771D01*
X6889348Y-9617924D01*
X6895118Y-9708814D01*
X6855907Y-9703439D01*
X6816696Y-9698065D01*
X6819665Y-9734546D01*
X6820530Y-9757073D01*
X6816170Y-9768984D01*
X6803129Y-9772518D01*
X6777950Y-9769914D01*
X6767600Y-9768285D01*
X6742145Y-9764432D01*
X6705975Y-9759264D01*
X6665166Y-9753641D01*
X6645764Y-9751040D01*
X6606115Y-9745251D01*
X6580391Y-9739923D01*
X6565640Y-9734162D01*
X6558907Y-9727074D01*
X6557993Y-9724497D01*
X6549268Y-9711564D01*
X6542246Y-9709067D01*
X6533234Y-9701429D01*
X6530533Y-9683455D01*
X6527781Y-9664514D01*
X6516008Y-9655517D01*
X6505133Y-9652763D01*
X6487334Y-9646726D01*
X6479737Y-9639234D01*
X6479733Y-9639092D01*
X6473640Y-9627432D01*
X6466390Y-9620743D01*
X6456896Y-9604987D01*
X6450142Y-9574911D01*
X6448388Y-9559607D01*
X6446349Y-9537121D01*
X6465281Y-9537121D01*
X6466127Y-9544659D01*
X6469957Y-9562914D01*
X6471267Y-9582759D01*
X6473879Y-9600788D01*
X6484187Y-9607192D01*
X6490317Y-9607582D01*
X6521126Y-9609985D01*
X6538674Y-9618534D01*
X6546280Y-9635938D01*
X6547467Y-9654256D01*
X6547467Y-9690603D01*
X6604617Y-9699690D01*
X6644334Y-9705925D01*
X6686695Y-9712453D01*
X6712567Y-9716366D01*
X6740544Y-9720557D01*
X6761505Y-9723718D01*
X6769717Y-9724978D01*
X6773474Y-9718047D01*
X6775752Y-9699311D01*
X6776067Y-9687381D01*
X6776067Y-9648762D01*
X6848033Y-9659555D01*
X6845044Y-9584827D01*
X6843391Y-9551151D01*
X6841509Y-9524575D01*
X6839710Y-9509131D01*
X6839030Y-9506908D01*
X6829573Y-9503539D01*
X6809545Y-9498952D01*
X6801228Y-9497356D01*
X6766451Y-9490997D01*
X6769142Y-9566185D01*
X6771833Y-9641372D01*
X6748012Y-9641353D01*
X6729731Y-9640059D01*
X6699533Y-9636586D01*
X6662206Y-9631523D01*
X6635829Y-9627571D01*
X6547467Y-9613809D01*
X6547467Y-9588915D01*
X6543460Y-9557438D01*
X6530154Y-9539068D01*
X6505621Y-9531668D01*
X6495463Y-9531267D01*
X6473645Y-9532474D01*
X6465281Y-9537121D01*
X6446349Y-9537121D01*
X6443729Y-9508227D01*
X6485014Y-9515009D01*
X6512433Y-9519134D01*
X6534605Y-9521815D01*
X6541117Y-9522295D01*
X6553595Y-9529730D01*
X6555933Y-9539733D01*
X6561227Y-9553524D01*
X6568633Y-9556667D01*
X6578744Y-9564192D01*
X6581333Y-9581093D01*
X6581989Y-9593110D01*
X6586194Y-9600936D01*
X6597304Y-9606221D01*
X6618674Y-9610613D01*
X6651183Y-9615409D01*
X6685546Y-9620546D01*
X6714730Y-9625399D01*
X6733623Y-9629104D01*
X6736294Y-9629794D01*
X6744789Y-9630567D01*
X6748975Y-9624069D01*
X6749856Y-9606785D01*
X6748994Y-9585398D01*
X6747798Y-9564496D01*
X6745059Y-9549531D01*
X6738223Y-9539076D01*
X6724737Y-9531706D01*
X6702049Y-9525995D01*
X6667604Y-9520515D01*
X6621550Y-9514209D01*
X6584205Y-9508038D01*
X6558871Y-9501533D01*
X6547780Y-9495297D01*
X6547467Y-9494174D01*
X6541587Y-9481622D01*
X6530533Y-9469731D01*
X6517549Y-9452732D01*
X6513600Y-9438889D01*
X6506727Y-9424529D01*
X6488200Y-9416967D01*
X6470392Y-9409584D01*
X6462803Y-9399548D01*
X6462800Y-9399361D01*
X6456370Y-9388561D01*
X6451342Y-9387333D01*
X6445139Y-9379400D01*
X6439362Y-9357737D01*
X6434459Y-9325544D01*
X6430877Y-9286026D01*
X6429066Y-9242383D01*
X6428933Y-9227245D01*
X6428933Y-9222773D01*
X6446764Y-9222773D01*
X6447402Y-9244889D01*
X6449216Y-9276006D01*
X6450500Y-9293481D01*
X6456517Y-9370400D01*
X6482942Y-9370530D01*
X6508948Y-9373272D01*
X6523589Y-9383634D01*
X6530466Y-9405300D01*
X6532066Y-9420807D01*
X6534767Y-9458237D01*
X6598267Y-9468750D01*
X6653825Y-9477913D01*
X6694858Y-9484201D01*
X6723562Y-9487382D01*
X6742138Y-9487225D01*
X6752786Y-9483498D01*
X6757703Y-9475969D01*
X6759089Y-9464407D01*
X6759133Y-9451795D01*
X6759133Y-9414656D01*
X6718917Y-9409140D01*
X6663151Y-9401366D01*
X6614967Y-9394403D01*
X6576794Y-9388617D01*
X6551061Y-9384374D01*
X6541117Y-9382352D01*
X6534099Y-9372296D01*
X6530070Y-9349225D01*
X6529557Y-9338916D01*
X6528591Y-9313231D01*
X6527262Y-9294509D01*
X6526613Y-9289967D01*
X6524963Y-9276374D01*
X6523507Y-9254214D01*
X6523356Y-9250865D01*
X6521373Y-9231470D01*
X6514337Y-9221745D01*
X6497359Y-9217020D01*
X6486245Y-9215425D01*
X6463624Y-9213105D01*
X6449404Y-9212992D01*
X6447453Y-9213591D01*
X6446764Y-9222773D01*
X6428933Y-9222773D01*
X6428933Y-9196711D01*
X6466335Y-9199686D01*
X6503736Y-9202661D01*
X6499086Y-9167997D01*
X6496913Y-9146062D01*
X6497228Y-9145046D01*
X6515998Y-9145046D01*
X6516052Y-9153815D01*
X6518569Y-9173591D01*
X6520343Y-9184595D01*
X6525235Y-9207794D01*
X6533025Y-9219536D01*
X6549086Y-9225018D01*
X6564622Y-9227421D01*
X6591086Y-9231147D01*
X6627480Y-9236271D01*
X6666966Y-9241831D01*
X6676583Y-9243185D01*
X6750667Y-9253616D01*
X6750667Y-9289430D01*
X6751896Y-9312908D01*
X6754974Y-9328529D01*
X6756311Y-9330889D01*
X6767725Y-9334522D01*
X6788933Y-9336443D01*
X6794898Y-9336533D01*
X6827840Y-9336533D01*
X6825237Y-9300623D01*
X6821713Y-9276653D01*
X6814250Y-9265147D01*
X6805700Y-9262193D01*
X6776800Y-9257156D01*
X6760376Y-9250564D01*
X6752090Y-9238870D01*
X6747601Y-9218526D01*
X6746932Y-9214144D01*
X6745004Y-9199675D01*
X6742619Y-9189121D01*
X6737342Y-9181483D01*
X6726736Y-9175765D01*
X6708365Y-9170969D01*
X6679792Y-9166098D01*
X6638581Y-9160155D01*
X6602610Y-9155065D01*
X6566992Y-9150197D01*
X6538351Y-9146693D01*
X6520329Y-9144976D01*
X6515998Y-9145046D01*
X6497228Y-9145046D01*
X6500002Y-9136116D01*
X6510900Y-9133432D01*
X6517749Y-9133333D01*
X6535267Y-9134547D01*
X6535267Y-9134547D01*
G37*
X6535267Y-9134547D02*
X6564998Y-9137782D01*
X6602425Y-9142430D01*
X6643033Y-9147883D01*
X6682305Y-9153533D01*
X6715726Y-9158772D01*
X6738780Y-9162991D01*
X6740083Y-9163276D01*
X6754962Y-9171324D01*
X6759133Y-9180061D01*
X6765914Y-9191145D01*
X6771833Y-9192600D01*
X6782522Y-9198792D01*
X6786790Y-9218496D01*
X6786743Y-9233204D01*
X6793741Y-9242320D01*
X6811275Y-9249168D01*
X6811938Y-9249304D01*
X6832494Y-9258087D01*
X6841683Y-9270084D01*
X6850372Y-9283140D01*
X6857487Y-9285733D01*
X6866422Y-9293536D01*
X6869200Y-9314308D01*
X6870951Y-9344064D01*
X6874613Y-9369947D01*
X6880025Y-9397010D01*
X6847096Y-9391601D01*
X6809879Y-9385222D01*
X6786380Y-9380255D01*
X6773551Y-9375739D01*
X6768343Y-9370708D01*
X6767600Y-9366481D01*
X6760513Y-9355660D01*
X6750667Y-9351013D01*
X6737399Y-9341354D01*
X6733733Y-9321676D01*
X6733125Y-9309431D01*
X6729064Y-9301490D01*
X6718193Y-9296186D01*
X6697158Y-9291853D01*
X6663883Y-9287006D01*
X6621647Y-9281122D01*
X6593422Y-9278168D01*
X6576396Y-9279151D01*
X6567754Y-9285079D01*
X6564685Y-9296963D01*
X6564375Y-9315809D01*
X6564400Y-9322672D01*
X6564400Y-9368077D01*
X6625783Y-9377423D01*
X6663644Y-9383093D01*
X6701550Y-9388617D01*
X6728470Y-9392409D01*
X6756318Y-9398278D01*
X6770624Y-9407176D01*
X6773907Y-9413858D01*
X6782571Y-9427003D01*
X6789754Y-9429667D01*
X6798776Y-9437283D01*
X6801467Y-9454905D01*
X6804800Y-9474437D01*
X6817717Y-9483989D01*
X6823393Y-9485647D01*
X6847522Y-9494151D01*
X6864670Y-9507463D01*
X6876260Y-9528436D01*
X6883713Y-9559921D01*
X6888452Y-9604771D01*
X6889348Y-9617924D01*
X6895118Y-9708814D01*
X6855907Y-9703439D01*
X6816696Y-9698065D01*
X6819665Y-9734546D01*
X6820530Y-9757073D01*
X6816170Y-9768984D01*
X6803129Y-9772518D01*
X6777950Y-9769914D01*
X6767600Y-9768285D01*
X6742145Y-9764432D01*
X6705975Y-9759264D01*
X6665166Y-9753641D01*
X6645764Y-9751040D01*
X6606115Y-9745251D01*
X6580391Y-9739923D01*
X6565640Y-9734162D01*
X6558907Y-9727074D01*
X6557993Y-9724497D01*
X6549268Y-9711564D01*
X6542246Y-9709067D01*
X6533234Y-9701429D01*
X6530533Y-9683455D01*
X6527781Y-9664514D01*
X6516008Y-9655517D01*
X6505133Y-9652763D01*
X6487334Y-9646726D01*
X6479737Y-9639234D01*
X6479733Y-9639092D01*
X6473640Y-9627432D01*
X6466390Y-9620743D01*
X6456896Y-9604987D01*
X6450142Y-9574911D01*
X6448388Y-9559607D01*
X6446349Y-9537121D01*
X6465281Y-9537121D01*
X6466127Y-9544659D01*
X6469957Y-9562914D01*
X6471267Y-9582759D01*
X6473879Y-9600788D01*
X6484187Y-9607192D01*
X6490317Y-9607582D01*
X6521126Y-9609985D01*
X6538674Y-9618534D01*
X6546280Y-9635938D01*
X6547467Y-9654256D01*
X6547467Y-9690603D01*
X6604617Y-9699690D01*
X6644334Y-9705925D01*
X6686695Y-9712453D01*
X6712567Y-9716366D01*
X6740544Y-9720557D01*
X6761505Y-9723718D01*
X6769717Y-9724978D01*
X6773474Y-9718047D01*
X6775752Y-9699311D01*
X6776067Y-9687381D01*
X6776067Y-9648762D01*
X6848033Y-9659555D01*
X6845044Y-9584827D01*
X6843391Y-9551151D01*
X6841509Y-9524575D01*
X6839710Y-9509131D01*
X6839030Y-9506908D01*
X6829573Y-9503539D01*
X6809545Y-9498952D01*
X6801228Y-9497356D01*
X6766451Y-9490997D01*
X6769142Y-9566185D01*
X6771833Y-9641372D01*
X6748012Y-9641353D01*
X6729731Y-9640059D01*
X6699533Y-9636586D01*
X6662206Y-9631523D01*
X6635829Y-9627571D01*
X6547467Y-9613809D01*
X6547467Y-9588915D01*
X6543460Y-9557438D01*
X6530154Y-9539068D01*
X6505621Y-9531668D01*
X6495463Y-9531267D01*
X6473645Y-9532474D01*
X6465281Y-9537121D01*
X6446349Y-9537121D01*
X6443729Y-9508227D01*
X6485014Y-9515009D01*
X6512433Y-9519134D01*
X6534605Y-9521815D01*
X6541117Y-9522295D01*
X6553595Y-9529730D01*
X6555933Y-9539733D01*
X6561227Y-9553524D01*
X6568633Y-9556667D01*
X6578744Y-9564192D01*
X6581333Y-9581093D01*
X6581989Y-9593110D01*
X6586194Y-9600936D01*
X6597304Y-9606221D01*
X6618674Y-9610613D01*
X6651183Y-9615409D01*
X6685546Y-9620546D01*
X6714730Y-9625399D01*
X6733623Y-9629104D01*
X6736294Y-9629794D01*
X6744789Y-9630567D01*
X6748975Y-9624069D01*
X6749856Y-9606785D01*
X6748994Y-9585398D01*
X6747798Y-9564496D01*
X6745059Y-9549531D01*
X6738223Y-9539076D01*
X6724737Y-9531706D01*
X6702049Y-9525995D01*
X6667604Y-9520515D01*
X6621550Y-9514209D01*
X6584205Y-9508038D01*
X6558871Y-9501533D01*
X6547780Y-9495297D01*
X6547467Y-9494174D01*
X6541587Y-9481622D01*
X6530533Y-9469731D01*
X6517549Y-9452732D01*
X6513600Y-9438889D01*
X6506727Y-9424529D01*
X6488200Y-9416967D01*
X6470392Y-9409584D01*
X6462803Y-9399548D01*
X6462800Y-9399361D01*
X6456370Y-9388561D01*
X6451342Y-9387333D01*
X6445139Y-9379400D01*
X6439362Y-9357737D01*
X6434459Y-9325544D01*
X6430877Y-9286026D01*
X6429066Y-9242383D01*
X6428933Y-9227245D01*
X6428933Y-9222773D01*
X6446764Y-9222773D01*
X6447402Y-9244889D01*
X6449216Y-9276006D01*
X6450500Y-9293481D01*
X6456517Y-9370400D01*
X6482942Y-9370530D01*
X6508948Y-9373272D01*
X6523589Y-9383634D01*
X6530466Y-9405300D01*
X6532066Y-9420807D01*
X6534767Y-9458237D01*
X6598267Y-9468750D01*
X6653825Y-9477913D01*
X6694858Y-9484201D01*
X6723562Y-9487382D01*
X6742138Y-9487225D01*
X6752786Y-9483498D01*
X6757703Y-9475969D01*
X6759089Y-9464407D01*
X6759133Y-9451795D01*
X6759133Y-9414656D01*
X6718917Y-9409140D01*
X6663151Y-9401366D01*
X6614967Y-9394403D01*
X6576794Y-9388617D01*
X6551061Y-9384374D01*
X6541117Y-9382352D01*
X6534099Y-9372296D01*
X6530070Y-9349225D01*
X6529557Y-9338916D01*
X6528591Y-9313231D01*
X6527262Y-9294509D01*
X6526613Y-9289967D01*
X6524963Y-9276374D01*
X6523507Y-9254214D01*
X6523356Y-9250865D01*
X6521373Y-9231470D01*
X6514337Y-9221745D01*
X6497359Y-9217020D01*
X6486245Y-9215425D01*
X6463624Y-9213105D01*
X6449404Y-9212992D01*
X6447453Y-9213591D01*
X6446764Y-9222773D01*
X6428933Y-9222773D01*
X6428933Y-9196711D01*
X6466335Y-9199686D01*
X6503736Y-9202661D01*
X6499086Y-9167997D01*
X6496913Y-9146062D01*
X6497228Y-9145046D01*
X6515998Y-9145046D01*
X6516052Y-9153815D01*
X6518569Y-9173591D01*
X6520343Y-9184595D01*
X6525235Y-9207794D01*
X6533025Y-9219536D01*
X6549086Y-9225018D01*
X6564622Y-9227421D01*
X6591086Y-9231147D01*
X6627480Y-9236271D01*
X6666966Y-9241831D01*
X6676583Y-9243185D01*
X6750667Y-9253616D01*
X6750667Y-9289430D01*
X6751896Y-9312908D01*
X6754974Y-9328529D01*
X6756311Y-9330889D01*
X6767725Y-9334522D01*
X6788933Y-9336443D01*
X6794898Y-9336533D01*
X6827840Y-9336533D01*
X6825237Y-9300623D01*
X6821713Y-9276653D01*
X6814250Y-9265147D01*
X6805700Y-9262193D01*
X6776800Y-9257156D01*
X6760376Y-9250564D01*
X6752090Y-9238870D01*
X6747601Y-9218526D01*
X6746932Y-9214144D01*
X6745004Y-9199675D01*
X6742619Y-9189121D01*
X6737342Y-9181483D01*
X6726736Y-9175765D01*
X6708365Y-9170969D01*
X6679792Y-9166098D01*
X6638581Y-9160155D01*
X6602610Y-9155065D01*
X6566992Y-9150197D01*
X6538351Y-9146693D01*
X6520329Y-9144976D01*
X6515998Y-9145046D01*
X6497228Y-9145046D01*
X6500002Y-9136116D01*
X6510900Y-9133432D01*
X6517749Y-9133333D01*
X6535267Y-9134547D01*
D15*
X8720000Y-8494000D02*
X8720000Y-7454000D01*
X8480000Y-7454000D02*
X8480000Y-8494000D01*
X8720000Y-7454000D02*
X8480000Y-7454000D01*
X8480000Y-7714000D02*
X8720000Y-7714000D01*
X8720000Y-8494000D02*
X8480000Y-8494000D01*
X8720000Y-9764000D02*
X8720000Y-8724000D01*
X8480000Y-8724000D02*
X8480000Y-9764000D01*
X8720000Y-8724000D02*
X8480000Y-8724000D01*
X8480000Y-8984000D02*
X8720000Y-8984000D01*
X8720000Y-9764000D02*
X8480000Y-9764000D01*
X8720000Y-10260000D02*
X8480000Y-10260000D01*
X8480000Y-10520000D02*
X8480000Y-10000000D01*
X8480000Y-10000000D02*
X8720000Y-10000000D01*
X8720000Y-10000000D02*
X8720000Y-10520000D01*
X8720000Y-10520000D02*
X8480000Y-10520000D01*
X7760000Y-4590000D02*
X8000000Y-4590000D01*
X8000000Y-4330000D02*
X8000000Y-4850000D01*
X8000000Y-4850000D02*
X7760000Y-4850000D01*
X7760000Y-4850000D02*
X7760000Y-4330000D01*
X7760000Y-4330000D02*
X8000000Y-4330000D01*
D13*
X5045238Y-8596191D02*
X5126191Y-8596191D01*
X5135714Y-8591429D01*
X5140476Y-8586667D01*
X5145238Y-8577143D01*
X5145238Y-8558095D01*
X5140476Y-8548571D01*
X5135714Y-8543810D01*
X5126191Y-8539048D01*
X5045238Y-8539048D01*
X5145238Y-8439048D02*
X5145238Y-8496191D01*
X5145238Y-8467619D02*
X5045238Y-8467619D01*
X5059524Y-8477143D01*
X5069048Y-8486667D01*
X5073810Y-8496191D01*
X4715238Y-9876191D02*
X4796191Y-9876191D01*
X4805714Y-9871429D01*
X4810476Y-9866667D01*
X4815238Y-9857143D01*
X4815238Y-9838095D01*
X4810476Y-9828571D01*
X4805714Y-9823810D01*
X4796191Y-9819048D01*
X4715238Y-9819048D01*
X4724762Y-9776191D02*
X4720000Y-9771429D01*
X4715238Y-9761905D01*
X4715238Y-9738095D01*
X4720000Y-9728571D01*
X4724762Y-9723810D01*
X4734286Y-9719048D01*
X4743810Y-9719048D01*
X4758095Y-9723810D01*
X4815238Y-9780952D01*
X4815238Y-9719048D01*
X8096190Y-13992738D02*
X8096190Y-13892738D01*
X8134286Y-13892738D01*
X8143810Y-13897500D01*
X8148571Y-13902262D01*
X8153333Y-13911786D01*
X8153333Y-13926071D01*
X8148571Y-13935595D01*
X8143810Y-13940357D01*
X8134286Y-13945119D01*
X8096190Y-13945119D01*
X8186667Y-13892738D02*
X8253333Y-13892738D01*
X8210476Y-13992738D01*
X6426209Y-6621138D02*
X6426209Y-6702090D01*
X6430971Y-6711614D01*
X6435733Y-6716376D01*
X6445257Y-6721138D01*
X6464305Y-6721138D01*
X6473829Y-6716376D01*
X6478590Y-6711614D01*
X6483352Y-6702090D01*
X6483352Y-6621138D01*
X6521448Y-6621138D02*
X6583352Y-6621138D01*
X6550019Y-6659233D01*
X6564305Y-6659233D01*
X6573829Y-6663995D01*
X6578590Y-6668757D01*
X6583352Y-6678281D01*
X6583352Y-6702090D01*
X6578590Y-6711614D01*
X6573829Y-6716376D01*
X6564305Y-6721138D01*
X6535733Y-6721138D01*
X6526209Y-6716376D01*
X6521448Y-6711614D01*
X6456190Y-13355238D02*
X6456190Y-13255238D01*
X6494286Y-13255238D01*
X6503810Y-13260000D01*
X6508571Y-13264762D01*
X6513333Y-13274286D01*
X6513333Y-13288571D01*
X6508571Y-13298095D01*
X6503810Y-13302857D01*
X6494286Y-13307619D01*
X6456190Y-13307619D01*
X6551429Y-13264762D02*
X6556190Y-13260000D01*
X6565714Y-13255238D01*
X6589524Y-13255238D01*
X6599048Y-13260000D01*
X6603810Y-13264762D01*
X6608571Y-13274286D01*
X6608571Y-13283809D01*
X6603810Y-13298095D01*
X6546667Y-13355238D01*
X6608571Y-13355238D01*
X4777038Y-6815867D02*
X4777038Y-6863486D01*
X4677038Y-6863486D01*
X4767514Y-6725390D02*
X4772276Y-6730152D01*
X4777038Y-6744438D01*
X4777038Y-6753962D01*
X4772276Y-6768248D01*
X4762752Y-6777771D01*
X4753229Y-6782533D01*
X4734181Y-6787295D01*
X4719895Y-6787295D01*
X4700848Y-6782533D01*
X4691324Y-6777771D01*
X4681800Y-6768248D01*
X4677038Y-6753962D01*
X4677038Y-6744438D01*
X4681800Y-6730152D01*
X4686562Y-6725390D01*
X4777038Y-6682533D02*
X4677038Y-6682533D01*
X4677038Y-6658724D01*
X4681800Y-6644438D01*
X4691324Y-6634914D01*
X4700848Y-6630152D01*
X4719895Y-6625390D01*
X4734181Y-6625390D01*
X4753229Y-6630152D01*
X4762752Y-6634914D01*
X4772276Y-6644438D01*
X4777038Y-6658724D01*
X4777038Y-6682533D01*
X4777038Y-6530152D02*
X4777038Y-6587295D01*
X4777038Y-6558724D02*
X4677038Y-6558724D01*
X4691324Y-6568248D01*
X4700848Y-6577771D01*
X4705610Y-6587295D01*
X8303333Y-5665714D02*
X8298571Y-5670476D01*
X8284286Y-5675238D01*
X8274762Y-5675238D01*
X8260476Y-5670476D01*
X8250952Y-5660952D01*
X8246190Y-5651429D01*
X8241429Y-5632381D01*
X8241429Y-5618095D01*
X8246190Y-5599048D01*
X8250952Y-5589524D01*
X8260476Y-5580000D01*
X8274762Y-5575238D01*
X8284286Y-5575238D01*
X8298571Y-5580000D01*
X8303333Y-5584762D01*
X8398572Y-5675238D02*
X8341429Y-5675238D01*
X8370000Y-5675238D02*
X8370000Y-5575238D01*
X8360476Y-5589524D01*
X8350952Y-5599048D01*
X8341429Y-5603809D01*
X8313333Y-6055714D02*
X8308571Y-6060476D01*
X8294286Y-6065238D01*
X8284762Y-6065238D01*
X8270476Y-6060476D01*
X8260952Y-6050952D01*
X8256190Y-6041429D01*
X8251429Y-6022381D01*
X8251429Y-6008095D01*
X8256190Y-5989048D01*
X8260952Y-5979524D01*
X8270476Y-5970000D01*
X8284762Y-5965238D01*
X8294286Y-5965238D01*
X8308571Y-5970000D01*
X8313333Y-5974762D01*
X8351429Y-5974762D02*
X8356190Y-5970000D01*
X8365714Y-5965238D01*
X8389524Y-5965238D01*
X8399048Y-5970000D01*
X8403810Y-5974762D01*
X8408572Y-5984286D01*
X8408572Y-5993809D01*
X8403810Y-6008095D01*
X8346667Y-6065238D01*
X8408572Y-6065238D01*
X8313333Y-6245714D02*
X8308571Y-6250476D01*
X8294286Y-6255238D01*
X8284762Y-6255238D01*
X8270476Y-6250476D01*
X8260952Y-6240952D01*
X8256190Y-6231429D01*
X8251429Y-6212381D01*
X8251429Y-6198095D01*
X8256190Y-6179048D01*
X8260952Y-6169524D01*
X8270476Y-6160000D01*
X8284762Y-6155238D01*
X8294286Y-6155238D01*
X8308571Y-6160000D01*
X8313333Y-6164762D01*
X8346667Y-6155238D02*
X8408572Y-6155238D01*
X8375238Y-6193333D01*
X8389524Y-6193333D01*
X8399048Y-6198095D01*
X8403810Y-6202857D01*
X8408572Y-6212381D01*
X8408572Y-6236190D01*
X8403810Y-6245714D01*
X8399048Y-6250476D01*
X8389524Y-6255238D01*
X8360952Y-6255238D01*
X8351429Y-6250476D01*
X8346667Y-6245714D01*
X5095714Y-13136667D02*
X5100476Y-13141428D01*
X5105238Y-13155714D01*
X5105238Y-13165238D01*
X5100476Y-13179524D01*
X5090952Y-13189048D01*
X5081429Y-13193809D01*
X5062381Y-13198571D01*
X5048095Y-13198571D01*
X5029048Y-13193809D01*
X5019524Y-13189048D01*
X5010000Y-13179524D01*
X5005238Y-13165238D01*
X5005238Y-13155714D01*
X5010000Y-13141428D01*
X5014762Y-13136667D01*
X5038571Y-13050952D02*
X5105238Y-13050952D01*
X5000476Y-13074762D02*
X5071905Y-13098571D01*
X5071905Y-13036667D01*
X5875714Y-9216667D02*
X5880476Y-9221429D01*
X5885238Y-9235714D01*
X5885238Y-9245238D01*
X5880476Y-9259524D01*
X5870952Y-9269048D01*
X5861429Y-9273810D01*
X5842381Y-9278571D01*
X5828095Y-9278571D01*
X5809048Y-9273810D01*
X5799524Y-9269048D01*
X5790000Y-9259524D01*
X5785238Y-9245238D01*
X5785238Y-9235714D01*
X5790000Y-9221429D01*
X5794762Y-9216667D01*
X5785238Y-9126190D02*
X5785238Y-9173810D01*
X5832857Y-9178571D01*
X5828095Y-9173810D01*
X5823333Y-9164286D01*
X5823333Y-9140476D01*
X5828095Y-9130952D01*
X5832857Y-9126190D01*
X5842381Y-9121429D01*
X5866190Y-9121429D01*
X5875714Y-9126190D01*
X5880476Y-9130952D01*
X5885238Y-9140476D01*
X5885238Y-9164286D01*
X5880476Y-9173810D01*
X5875714Y-9178571D01*
X8303333Y-5865714D02*
X8298571Y-5870476D01*
X8284286Y-5875238D01*
X8274762Y-5875238D01*
X8260476Y-5870476D01*
X8250952Y-5860952D01*
X8246190Y-5851429D01*
X8241429Y-5832381D01*
X8241429Y-5818095D01*
X8246190Y-5799048D01*
X8250952Y-5789524D01*
X8260476Y-5780000D01*
X8274762Y-5775238D01*
X8284286Y-5775238D01*
X8298571Y-5780000D01*
X8303333Y-5784762D01*
X8389048Y-5775238D02*
X8370000Y-5775238D01*
X8360476Y-5780000D01*
X8355714Y-5784762D01*
X8346190Y-5799048D01*
X8341429Y-5818095D01*
X8341429Y-5856190D01*
X8346190Y-5865714D01*
X8350952Y-5870476D01*
X8360476Y-5875238D01*
X8379524Y-5875238D01*
X8389048Y-5870476D01*
X8393810Y-5865714D01*
X8398572Y-5856190D01*
X8398572Y-5832381D01*
X8393810Y-5822857D01*
X8389048Y-5818095D01*
X8379524Y-5813333D01*
X8360476Y-5813333D01*
X8350952Y-5818095D01*
X8346190Y-5822857D01*
X8341429Y-5832381D01*
X5935714Y-4816667D02*
X5940476Y-4821429D01*
X5945238Y-4835714D01*
X5945238Y-4845238D01*
X5940476Y-4859524D01*
X5930952Y-4869048D01*
X5921429Y-4873810D01*
X5902381Y-4878571D01*
X5888095Y-4878571D01*
X5869048Y-4873810D01*
X5859524Y-4869048D01*
X5850000Y-4859524D01*
X5845238Y-4845238D01*
X5845238Y-4835714D01*
X5850000Y-4821429D01*
X5854762Y-4816667D01*
X5845238Y-4783333D02*
X5845238Y-4716667D01*
X5945238Y-4759524D01*
X7005714Y-4816667D02*
X7010476Y-4821429D01*
X7015238Y-4835714D01*
X7015238Y-4845238D01*
X7010476Y-4859524D01*
X7000952Y-4869048D01*
X6991429Y-4873810D01*
X6972381Y-4878571D01*
X6958095Y-4878571D01*
X6939048Y-4873810D01*
X6929524Y-4869048D01*
X6920000Y-4859524D01*
X6915238Y-4845238D01*
X6915238Y-4835714D01*
X6920000Y-4821429D01*
X6924762Y-4816667D01*
X6958095Y-4759524D02*
X6953333Y-4769048D01*
X6948571Y-4773810D01*
X6939048Y-4778571D01*
X6934286Y-4778571D01*
X6924762Y-4773810D01*
X6920000Y-4769048D01*
X6915238Y-4759524D01*
X6915238Y-4740476D01*
X6920000Y-4730952D01*
X6924762Y-4726190D01*
X6934286Y-4721429D01*
X6939048Y-4721429D01*
X6948571Y-4726190D01*
X6953333Y-4730952D01*
X6958095Y-4740476D01*
X6958095Y-4759524D01*
X6962857Y-4769048D01*
X6967619Y-4773810D01*
X6977143Y-4778571D01*
X6996190Y-4778571D01*
X7005714Y-4773810D01*
X7010476Y-4769048D01*
X7015238Y-4759524D01*
X7015238Y-4740476D01*
X7010476Y-4730952D01*
X7005714Y-4726190D01*
X6996190Y-4721429D01*
X6977143Y-4721429D01*
X6967619Y-4726190D01*
X6962857Y-4730952D01*
X6958095Y-4740476D01*
X7495714Y-5716667D02*
X7500476Y-5721428D01*
X7505238Y-5735714D01*
X7505238Y-5745238D01*
X7500476Y-5759524D01*
X7490952Y-5769048D01*
X7481429Y-5773809D01*
X7462381Y-5778571D01*
X7448095Y-5778571D01*
X7429048Y-5773809D01*
X7419524Y-5769048D01*
X7410000Y-5759524D01*
X7405238Y-5745238D01*
X7405238Y-5735714D01*
X7410000Y-5721428D01*
X7414762Y-5716667D01*
X7505238Y-5669048D02*
X7505238Y-5650000D01*
X7500476Y-5640476D01*
X7495714Y-5635714D01*
X7481429Y-5626190D01*
X7462381Y-5621428D01*
X7424286Y-5621428D01*
X7414762Y-5626190D01*
X7410000Y-5630952D01*
X7405238Y-5640476D01*
X7405238Y-5659524D01*
X7410000Y-5669048D01*
X7414762Y-5673809D01*
X7424286Y-5678571D01*
X7448095Y-5678571D01*
X7457619Y-5673809D01*
X7462381Y-5669048D01*
X7467143Y-5659524D01*
X7467143Y-5640476D01*
X7462381Y-5630952D01*
X7457619Y-5626190D01*
X7448095Y-5621428D01*
X5195714Y-9864286D02*
X5200476Y-9869048D01*
X5205238Y-9883333D01*
X5205238Y-9892857D01*
X5200476Y-9907143D01*
X5190952Y-9916667D01*
X5181429Y-9921429D01*
X5162381Y-9926191D01*
X5148095Y-9926191D01*
X5129048Y-9921429D01*
X5119524Y-9916667D01*
X5110000Y-9907143D01*
X5105238Y-9892857D01*
X5105238Y-9883333D01*
X5110000Y-9869048D01*
X5114762Y-9864286D01*
X5205238Y-9769048D02*
X5205238Y-9826191D01*
X5205238Y-9797619D02*
X5105238Y-9797619D01*
X5119524Y-9807143D01*
X5129048Y-9816667D01*
X5133810Y-9826191D01*
X5105238Y-9707143D02*
X5105238Y-9697619D01*
X5110000Y-9688095D01*
X5114762Y-9683333D01*
X5124286Y-9678571D01*
X5143333Y-9673810D01*
X5167143Y-9673810D01*
X5186191Y-9678571D01*
X5195714Y-9683333D01*
X5200476Y-9688095D01*
X5205238Y-9697619D01*
X5205238Y-9707143D01*
X5200476Y-9716667D01*
X5195714Y-9721429D01*
X5186191Y-9726191D01*
X5167143Y-9730952D01*
X5143333Y-9730952D01*
X5124286Y-9726191D01*
X5114762Y-9721429D01*
X5110000Y-9716667D01*
X5105238Y-9707143D01*
X6205714Y-7195714D02*
X6200952Y-7200476D01*
X6186667Y-7205238D01*
X6177143Y-7205238D01*
X6162857Y-7200476D01*
X6153333Y-7190952D01*
X6148571Y-7181429D01*
X6143809Y-7162381D01*
X6143809Y-7148095D01*
X6148571Y-7129048D01*
X6153333Y-7119524D01*
X6162857Y-7110000D01*
X6177143Y-7105238D01*
X6186667Y-7105238D01*
X6200952Y-7110000D01*
X6205714Y-7114762D01*
X6300952Y-7205238D02*
X6243809Y-7205238D01*
X6272381Y-7205238D02*
X6272381Y-7105238D01*
X6262857Y-7119524D01*
X6253333Y-7129048D01*
X6243809Y-7133809D01*
X6396190Y-7205238D02*
X6339048Y-7205238D01*
X6367619Y-7205238D02*
X6367619Y-7105238D01*
X6358095Y-7119524D01*
X6348571Y-7129048D01*
X6339048Y-7133809D01*
X6205714Y-7395714D02*
X6200952Y-7400476D01*
X6186667Y-7405238D01*
X6177143Y-7405238D01*
X6162857Y-7400476D01*
X6153333Y-7390952D01*
X6148571Y-7381429D01*
X6143809Y-7362381D01*
X6143809Y-7348095D01*
X6148571Y-7329048D01*
X6153333Y-7319524D01*
X6162857Y-7310000D01*
X6177143Y-7305238D01*
X6186667Y-7305238D01*
X6200952Y-7310000D01*
X6205714Y-7314762D01*
X6300952Y-7405238D02*
X6243809Y-7405238D01*
X6272381Y-7405238D02*
X6272381Y-7305238D01*
X6262857Y-7319524D01*
X6253333Y-7329048D01*
X6243809Y-7333809D01*
X6339048Y-7314762D02*
X6343809Y-7310000D01*
X6353333Y-7305238D01*
X6377143Y-7305238D01*
X6386667Y-7310000D01*
X6391429Y-7314762D01*
X6396190Y-7324286D01*
X6396190Y-7333809D01*
X6391429Y-7348095D01*
X6334286Y-7405238D01*
X6396190Y-7405238D01*
X6205714Y-7585714D02*
X6200952Y-7590476D01*
X6186667Y-7595238D01*
X6177143Y-7595238D01*
X6162857Y-7590476D01*
X6153333Y-7580952D01*
X6148571Y-7571429D01*
X6143809Y-7552381D01*
X6143809Y-7538095D01*
X6148571Y-7519048D01*
X6153333Y-7509524D01*
X6162857Y-7500000D01*
X6177143Y-7495238D01*
X6186667Y-7495238D01*
X6200952Y-7500000D01*
X6205714Y-7504762D01*
X6300952Y-7595238D02*
X6243809Y-7595238D01*
X6272381Y-7595238D02*
X6272381Y-7495238D01*
X6262857Y-7509524D01*
X6253333Y-7519048D01*
X6243809Y-7523809D01*
X6334286Y-7495238D02*
X6396190Y-7495238D01*
X6362857Y-7533333D01*
X6377143Y-7533333D01*
X6386667Y-7538095D01*
X6391429Y-7542857D01*
X6396190Y-7552381D01*
X6396190Y-7576190D01*
X6391429Y-7585714D01*
X6386667Y-7590476D01*
X6377143Y-7595238D01*
X6348571Y-7595238D01*
X6339048Y-7590476D01*
X6334286Y-7585714D01*
X6205714Y-7785714D02*
X6200952Y-7790476D01*
X6186667Y-7795238D01*
X6177143Y-7795238D01*
X6162857Y-7790476D01*
X6153333Y-7780952D01*
X6148571Y-7771429D01*
X6143809Y-7752381D01*
X6143809Y-7738095D01*
X6148571Y-7719048D01*
X6153333Y-7709524D01*
X6162857Y-7700000D01*
X6177143Y-7695238D01*
X6186667Y-7695238D01*
X6200952Y-7700000D01*
X6205714Y-7704762D01*
X6300952Y-7795238D02*
X6243809Y-7795238D01*
X6272381Y-7795238D02*
X6272381Y-7695238D01*
X6262857Y-7709524D01*
X6253333Y-7719048D01*
X6243809Y-7723809D01*
X6386667Y-7728571D02*
X6386667Y-7795238D01*
X6362857Y-7690476D02*
X6339048Y-7761905D01*
X6400952Y-7761905D01*
X6205714Y-7985714D02*
X6200952Y-7990476D01*
X6186667Y-7995238D01*
X6177143Y-7995238D01*
X6162857Y-7990476D01*
X6153333Y-7980952D01*
X6148571Y-7971429D01*
X6143809Y-7952381D01*
X6143809Y-7938095D01*
X6148571Y-7919048D01*
X6153333Y-7909524D01*
X6162857Y-7900000D01*
X6177143Y-7895238D01*
X6186667Y-7895238D01*
X6200952Y-7900000D01*
X6205714Y-7904762D01*
X6300952Y-7995238D02*
X6243809Y-7995238D01*
X6272381Y-7995238D02*
X6272381Y-7895238D01*
X6262857Y-7909524D01*
X6253333Y-7919048D01*
X6243809Y-7923809D01*
X6391429Y-7895238D02*
X6343809Y-7895238D01*
X6339048Y-7942857D01*
X6343809Y-7938095D01*
X6353333Y-7933333D01*
X6377143Y-7933333D01*
X6386667Y-7938095D01*
X6391429Y-7942857D01*
X6396190Y-7952381D01*
X6396190Y-7976190D01*
X6391429Y-7985714D01*
X6386667Y-7990476D01*
X6377143Y-7995238D01*
X6353333Y-7995238D01*
X6343809Y-7990476D01*
X6339048Y-7985714D01*
X6955714Y-7185714D02*
X6950952Y-7190476D01*
X6936667Y-7195238D01*
X6927143Y-7195238D01*
X6912857Y-7190476D01*
X6903333Y-7180952D01*
X6898571Y-7171429D01*
X6893809Y-7152381D01*
X6893809Y-7138095D01*
X6898571Y-7119048D01*
X6903333Y-7109524D01*
X6912857Y-7100000D01*
X6927143Y-7095238D01*
X6936667Y-7095238D01*
X6950952Y-7100000D01*
X6955714Y-7104762D01*
X7050952Y-7195238D02*
X6993809Y-7195238D01*
X7022381Y-7195238D02*
X7022381Y-7095238D01*
X7012857Y-7109524D01*
X7003333Y-7119048D01*
X6993809Y-7123809D01*
X7136667Y-7095238D02*
X7117619Y-7095238D01*
X7108095Y-7100000D01*
X7103333Y-7104762D01*
X7093809Y-7119048D01*
X7089048Y-7138095D01*
X7089048Y-7176190D01*
X7093809Y-7185714D01*
X7098571Y-7190476D01*
X7108095Y-7195238D01*
X7127143Y-7195238D01*
X7136667Y-7190476D01*
X7141429Y-7185714D01*
X7146190Y-7176190D01*
X7146190Y-7152381D01*
X7141429Y-7142857D01*
X7136667Y-7138095D01*
X7127143Y-7133333D01*
X7108095Y-7133333D01*
X7098571Y-7138095D01*
X7093809Y-7142857D01*
X7089048Y-7152381D01*
X6955714Y-7385714D02*
X6950952Y-7390476D01*
X6936667Y-7395238D01*
X6927143Y-7395238D01*
X6912857Y-7390476D01*
X6903333Y-7380952D01*
X6898571Y-7371429D01*
X6893809Y-7352381D01*
X6893809Y-7338095D01*
X6898571Y-7319048D01*
X6903333Y-7309524D01*
X6912857Y-7300000D01*
X6927143Y-7295238D01*
X6936667Y-7295238D01*
X6950952Y-7300000D01*
X6955714Y-7304762D01*
X7050952Y-7395238D02*
X6993809Y-7395238D01*
X7022381Y-7395238D02*
X7022381Y-7295238D01*
X7012857Y-7309524D01*
X7003333Y-7319048D01*
X6993809Y-7323809D01*
X7084286Y-7295238D02*
X7150952Y-7295238D01*
X7108095Y-7395238D01*
X6945714Y-7585714D02*
X6940952Y-7590476D01*
X6926667Y-7595238D01*
X6917143Y-7595238D01*
X6902857Y-7590476D01*
X6893333Y-7580952D01*
X6888571Y-7571429D01*
X6883809Y-7552381D01*
X6883809Y-7538095D01*
X6888571Y-7519048D01*
X6893333Y-7509524D01*
X6902857Y-7500000D01*
X6917143Y-7495238D01*
X6926667Y-7495238D01*
X6940952Y-7500000D01*
X6945714Y-7504762D01*
X7040952Y-7595238D02*
X6983809Y-7595238D01*
X7012381Y-7595238D02*
X7012381Y-7495238D01*
X7002857Y-7509524D01*
X6993333Y-7519048D01*
X6983809Y-7523809D01*
X7098095Y-7538095D02*
X7088571Y-7533333D01*
X7083809Y-7528571D01*
X7079048Y-7519048D01*
X7079048Y-7514286D01*
X7083809Y-7504762D01*
X7088571Y-7500000D01*
X7098095Y-7495238D01*
X7117143Y-7495238D01*
X7126667Y-7500000D01*
X7131429Y-7504762D01*
X7136190Y-7514286D01*
X7136190Y-7519048D01*
X7131429Y-7528571D01*
X7126667Y-7533333D01*
X7117143Y-7538095D01*
X7098095Y-7538095D01*
X7088571Y-7542857D01*
X7083809Y-7547619D01*
X7079048Y-7557143D01*
X7079048Y-7576190D01*
X7083809Y-7585714D01*
X7088571Y-7590476D01*
X7098095Y-7595238D01*
X7117143Y-7595238D01*
X7126667Y-7590476D01*
X7131429Y-7585714D01*
X7136190Y-7576190D01*
X7136190Y-7557143D01*
X7131429Y-7547619D01*
X7126667Y-7542857D01*
X7117143Y-7538095D01*
X6945714Y-7795714D02*
X6940952Y-7800476D01*
X6926667Y-7805238D01*
X6917143Y-7805238D01*
X6902857Y-7800476D01*
X6893333Y-7790952D01*
X6888571Y-7781429D01*
X6883809Y-7762381D01*
X6883809Y-7748095D01*
X6888571Y-7729048D01*
X6893333Y-7719524D01*
X6902857Y-7710000D01*
X6917143Y-7705238D01*
X6926667Y-7705238D01*
X6940952Y-7710000D01*
X6945714Y-7714762D01*
X7040952Y-7805238D02*
X6983809Y-7805238D01*
X7012381Y-7805238D02*
X7012381Y-7705238D01*
X7002857Y-7719524D01*
X6993333Y-7729048D01*
X6983809Y-7733809D01*
X7088571Y-7805238D02*
X7107619Y-7805238D01*
X7117143Y-7800476D01*
X7121905Y-7795714D01*
X7131429Y-7781429D01*
X7136190Y-7762381D01*
X7136190Y-7724286D01*
X7131429Y-7714762D01*
X7126667Y-7710000D01*
X7117143Y-7705238D01*
X7098095Y-7705238D01*
X7088571Y-7710000D01*
X7083809Y-7714762D01*
X7079048Y-7724286D01*
X7079048Y-7748095D01*
X7083809Y-7757619D01*
X7088571Y-7762381D01*
X7098095Y-7767143D01*
X7117143Y-7767143D01*
X7126667Y-7762381D01*
X7131429Y-7757619D01*
X7136190Y-7748095D01*
X6945714Y-7985714D02*
X6940952Y-7990476D01*
X6926667Y-7995238D01*
X6917143Y-7995238D01*
X6902857Y-7990476D01*
X6893333Y-7980952D01*
X6888571Y-7971429D01*
X6883809Y-7952381D01*
X6883809Y-7938095D01*
X6888571Y-7919048D01*
X6893333Y-7909524D01*
X6902857Y-7900000D01*
X6917143Y-7895238D01*
X6926667Y-7895238D01*
X6940952Y-7900000D01*
X6945714Y-7904762D01*
X6983809Y-7904762D02*
X6988571Y-7900000D01*
X6998095Y-7895238D01*
X7021905Y-7895238D01*
X7031429Y-7900000D01*
X7036190Y-7904762D01*
X7040952Y-7914286D01*
X7040952Y-7923809D01*
X7036190Y-7938095D01*
X6979048Y-7995238D01*
X7040952Y-7995238D01*
X7102857Y-7895238D02*
X7112381Y-7895238D01*
X7121905Y-7900000D01*
X7126667Y-7904762D01*
X7131429Y-7914286D01*
X7136190Y-7933333D01*
X7136190Y-7957143D01*
X7131429Y-7976190D01*
X7126667Y-7985714D01*
X7121905Y-7990476D01*
X7112381Y-7995238D01*
X7102857Y-7995238D01*
X7093333Y-7990476D01*
X7088571Y-7985714D01*
X7083809Y-7976190D01*
X7079048Y-7957143D01*
X7079048Y-7933333D01*
X7083809Y-7914286D01*
X7088571Y-7904762D01*
X7093333Y-7900000D01*
X7102857Y-7895238D01*
X8305714Y-6435714D02*
X8300952Y-6440476D01*
X8286667Y-6445238D01*
X8277143Y-6445238D01*
X8262857Y-6440476D01*
X8253333Y-6430952D01*
X8248571Y-6421429D01*
X8243809Y-6402381D01*
X8243809Y-6388095D01*
X8248571Y-6369048D01*
X8253333Y-6359524D01*
X8262857Y-6350000D01*
X8277143Y-6345238D01*
X8286667Y-6345238D01*
X8300952Y-6350000D01*
X8305714Y-6354762D01*
X8343809Y-6354762D02*
X8348571Y-6350000D01*
X8358095Y-6345238D01*
X8381905Y-6345238D01*
X8391429Y-6350000D01*
X8396191Y-6354762D01*
X8400952Y-6364286D01*
X8400952Y-6373809D01*
X8396191Y-6388095D01*
X8339048Y-6445238D01*
X8400952Y-6445238D01*
X8496191Y-6445238D02*
X8439048Y-6445238D01*
X8467619Y-6445238D02*
X8467619Y-6345238D01*
X8458095Y-6359524D01*
X8448571Y-6369048D01*
X8439048Y-6373809D01*
X5605238Y-8593810D02*
X5505238Y-8593810D01*
X5505238Y-8570000D01*
X5510000Y-8555714D01*
X5519524Y-8546190D01*
X5529048Y-8541429D01*
X5548095Y-8536667D01*
X5562381Y-8536667D01*
X5581429Y-8541429D01*
X5590952Y-8546190D01*
X5600476Y-8555714D01*
X5605238Y-8570000D01*
X5605238Y-8593810D01*
X5605238Y-8441429D02*
X5605238Y-8498571D01*
X5605238Y-8470000D02*
X5505238Y-8470000D01*
X5519524Y-8479524D01*
X5529048Y-8489048D01*
X5533810Y-8498571D01*
X5501191Y-8831667D02*
X5548810Y-8831667D01*
X5491667Y-8860238D02*
X5525000Y-8760238D01*
X5558333Y-8860238D01*
X5508810Y-8335238D02*
X5508810Y-8235238D01*
X5565952Y-8335238D02*
X5523095Y-8278095D01*
X5565952Y-8235238D02*
X5508810Y-8292381D01*
X5394191Y-13453238D02*
X5394191Y-13353238D01*
X5432286Y-13353238D01*
X5441810Y-13358000D01*
X5446572Y-13362762D01*
X5451333Y-13372286D01*
X5451333Y-13386571D01*
X5446572Y-13396095D01*
X5441810Y-13400857D01*
X5432286Y-13405619D01*
X5394191Y-13405619D01*
X5508476Y-13396095D02*
X5498952Y-13391333D01*
X5494191Y-13386571D01*
X5489429Y-13377048D01*
X5489429Y-13372286D01*
X5494191Y-13362762D01*
X5498952Y-13358000D01*
X5508476Y-13353238D01*
X5527524Y-13353238D01*
X5537048Y-13358000D01*
X5541810Y-13362762D01*
X5546572Y-13372286D01*
X5546572Y-13377048D01*
X5541810Y-13386571D01*
X5537048Y-13391333D01*
X5527524Y-13396095D01*
X5508476Y-13396095D01*
X5498952Y-13400857D01*
X5494191Y-13405619D01*
X5489429Y-13415143D01*
X5489429Y-13434190D01*
X5494191Y-13443714D01*
X5498952Y-13448476D01*
X5508476Y-13453238D01*
X5527524Y-13453238D01*
X5537048Y-13448476D01*
X5541810Y-13443714D01*
X5546572Y-13434190D01*
X5546572Y-13415143D01*
X5541810Y-13405619D01*
X5537048Y-13400857D01*
X5527524Y-13396095D01*
X4625238Y-9216667D02*
X4577619Y-9250000D01*
X4625238Y-9273810D02*
X4525238Y-9273810D01*
X4525238Y-9235714D01*
X4530000Y-9226190D01*
X4534762Y-9221429D01*
X4544286Y-9216667D01*
X4558571Y-9216667D01*
X4568095Y-9221429D01*
X4572857Y-9226190D01*
X4577619Y-9235714D01*
X4577619Y-9273810D01*
X4625238Y-9121429D02*
X4625238Y-9178571D01*
X4625238Y-9150000D02*
X4525238Y-9150000D01*
X4539524Y-9159524D01*
X4549048Y-9169048D01*
X4553810Y-9178571D01*
X4795038Y-13135767D02*
X4747419Y-13169100D01*
X4795038Y-13192909D02*
X4695038Y-13192909D01*
X4695038Y-13154814D01*
X4699800Y-13145290D01*
X4704562Y-13140528D01*
X4714086Y-13135767D01*
X4728371Y-13135767D01*
X4737895Y-13140528D01*
X4742657Y-13145290D01*
X4747419Y-13154814D01*
X4747419Y-13192909D01*
X4704562Y-13097671D02*
X4699800Y-13092909D01*
X4695038Y-13083386D01*
X4695038Y-13059576D01*
X4699800Y-13050052D01*
X4704562Y-13045290D01*
X4714086Y-13040528D01*
X4723610Y-13040528D01*
X4737895Y-13045290D01*
X4795038Y-13102433D01*
X4795038Y-13040528D01*
X4249438Y-13148467D02*
X4201819Y-13181800D01*
X4249438Y-13205609D02*
X4149438Y-13205609D01*
X4149438Y-13167514D01*
X4154200Y-13157990D01*
X4158962Y-13153228D01*
X4168486Y-13148467D01*
X4182771Y-13148467D01*
X4192295Y-13153228D01*
X4197057Y-13157990D01*
X4201819Y-13167514D01*
X4201819Y-13205609D01*
X4149438Y-13115133D02*
X4149438Y-13053228D01*
X4187533Y-13086562D01*
X4187533Y-13072276D01*
X4192295Y-13062752D01*
X4197057Y-13057990D01*
X4206581Y-13053228D01*
X4230391Y-13053228D01*
X4239914Y-13057990D01*
X4244676Y-13062752D01*
X4249438Y-13072276D01*
X4249438Y-13100848D01*
X4244676Y-13110371D01*
X4239914Y-13115133D01*
X4625238Y-8536667D02*
X4577619Y-8570000D01*
X4625238Y-8593810D02*
X4525238Y-8593810D01*
X4525238Y-8555714D01*
X4530000Y-8546190D01*
X4534762Y-8541429D01*
X4544286Y-8536667D01*
X4558571Y-8536667D01*
X4568095Y-8541429D01*
X4572857Y-8546190D01*
X4577619Y-8555714D01*
X4577619Y-8593810D01*
X4558571Y-8450952D02*
X4625238Y-8450952D01*
X4520476Y-8474762D02*
X4591905Y-8498571D01*
X4591905Y-8436667D01*
X5425238Y-4916667D02*
X5377619Y-4950000D01*
X5425238Y-4973810D02*
X5325238Y-4973810D01*
X5325238Y-4935714D01*
X5330000Y-4926190D01*
X5334762Y-4921429D01*
X5344286Y-4916667D01*
X5358571Y-4916667D01*
X5368095Y-4921429D01*
X5372857Y-4926190D01*
X5377619Y-4935714D01*
X5377619Y-4973810D01*
X5325238Y-4826190D02*
X5325238Y-4873810D01*
X5372857Y-4878571D01*
X5368095Y-4873810D01*
X5363333Y-4864286D01*
X5363333Y-4840476D01*
X5368095Y-4830952D01*
X5372857Y-4826190D01*
X5382381Y-4821429D01*
X5406191Y-4821429D01*
X5415714Y-4826190D01*
X5420476Y-4830952D01*
X5425238Y-4840476D01*
X5425238Y-4864286D01*
X5420476Y-4873810D01*
X5415714Y-4878571D01*
X8163333Y-6815238D02*
X8130000Y-6767619D01*
X8106190Y-6815238D02*
X8106190Y-6715238D01*
X8144286Y-6715238D01*
X8153810Y-6720000D01*
X8158571Y-6724762D01*
X8163333Y-6734286D01*
X8163333Y-6748571D01*
X8158571Y-6758095D01*
X8153810Y-6762857D01*
X8144286Y-6767619D01*
X8106190Y-6767619D01*
X8249048Y-6715238D02*
X8230000Y-6715238D01*
X8220476Y-6720000D01*
X8215714Y-6724762D01*
X8206190Y-6739048D01*
X8201429Y-6758095D01*
X8201429Y-6796190D01*
X8206190Y-6805714D01*
X8210952Y-6810476D01*
X8220476Y-6815238D01*
X8239524Y-6815238D01*
X8249048Y-6810476D01*
X8253810Y-6805714D01*
X8258571Y-6796190D01*
X8258571Y-6772381D01*
X8253810Y-6762857D01*
X8249048Y-6758095D01*
X8239524Y-6753333D01*
X8220476Y-6753333D01*
X8210952Y-6758095D01*
X8206190Y-6762857D01*
X8201429Y-6772381D01*
X8163333Y-7325238D02*
X8130000Y-7277619D01*
X8106190Y-7325238D02*
X8106190Y-7225238D01*
X8144286Y-7225238D01*
X8153810Y-7230000D01*
X8158571Y-7234762D01*
X8163333Y-7244286D01*
X8163333Y-7258571D01*
X8158571Y-7268095D01*
X8153810Y-7272857D01*
X8144286Y-7277619D01*
X8106190Y-7277619D01*
X8196667Y-7225238D02*
X8263333Y-7225238D01*
X8220476Y-7325238D01*
X8338133Y-5465238D02*
X8304800Y-5417619D01*
X8280990Y-5465238D02*
X8280990Y-5365238D01*
X8319086Y-5365238D01*
X8328610Y-5370000D01*
X8333371Y-5374762D01*
X8338133Y-5384286D01*
X8338133Y-5398571D01*
X8333371Y-5408095D01*
X8328610Y-5412857D01*
X8319086Y-5417619D01*
X8280990Y-5417619D01*
X8385752Y-5465238D02*
X8404800Y-5465238D01*
X8414324Y-5460476D01*
X8419086Y-5455714D01*
X8428610Y-5441429D01*
X8433372Y-5422381D01*
X8433372Y-5384286D01*
X8428610Y-5374762D01*
X8423848Y-5370000D01*
X8414324Y-5365238D01*
X8395276Y-5365238D01*
X8385752Y-5370000D01*
X8380990Y-5374762D01*
X8376229Y-5384286D01*
X8376229Y-5408095D01*
X8380990Y-5417619D01*
X8385752Y-5422381D01*
X8395276Y-5427143D01*
X8414324Y-5427143D01*
X8423848Y-5422381D01*
X8428610Y-5417619D01*
X8433372Y-5408095D01*
X5555238Y-9254286D02*
X5507619Y-9287619D01*
X5555238Y-9311429D02*
X5455238Y-9311429D01*
X5455238Y-9273333D01*
X5460000Y-9263810D01*
X5464762Y-9259048D01*
X5474286Y-9254286D01*
X5488571Y-9254286D01*
X5498095Y-9259048D01*
X5502857Y-9263810D01*
X5507619Y-9273333D01*
X5507619Y-9311429D01*
X5555238Y-9159048D02*
X5555238Y-9216191D01*
X5555238Y-9187619D02*
X5455238Y-9187619D01*
X5469524Y-9197143D01*
X5479048Y-9206667D01*
X5483810Y-9216191D01*
X5455238Y-9097143D02*
X5455238Y-9087619D01*
X5460000Y-9078095D01*
X5464762Y-9073333D01*
X5474286Y-9068571D01*
X5493333Y-9063810D01*
X5517143Y-9063810D01*
X5536191Y-9068571D01*
X5545714Y-9073333D01*
X5550476Y-9078095D01*
X5555238Y-9087619D01*
X5555238Y-9097143D01*
X5550476Y-9106667D01*
X5545714Y-9111429D01*
X5536191Y-9116191D01*
X5517143Y-9120952D01*
X5493333Y-9120952D01*
X5474286Y-9116191D01*
X5464762Y-9111429D01*
X5460000Y-9106667D01*
X5455238Y-9097143D01*
X6025238Y-8614286D02*
X5977619Y-8647619D01*
X6025238Y-8671429D02*
X5925238Y-8671429D01*
X5925238Y-8633333D01*
X5930000Y-8623810D01*
X5934762Y-8619048D01*
X5944286Y-8614286D01*
X5958571Y-8614286D01*
X5968095Y-8619048D01*
X5972857Y-8623810D01*
X5977619Y-8633333D01*
X5977619Y-8671429D01*
X6025238Y-8519048D02*
X6025238Y-8576191D01*
X6025238Y-8547619D02*
X5925238Y-8547619D01*
X5939524Y-8557143D01*
X5949048Y-8566667D01*
X5953809Y-8576191D01*
X5934762Y-8480952D02*
X5930000Y-8476191D01*
X5925238Y-8466667D01*
X5925238Y-8442857D01*
X5930000Y-8433333D01*
X5934762Y-8428571D01*
X5944286Y-8423810D01*
X5953809Y-8423810D01*
X5968095Y-8428571D01*
X6025238Y-8485714D01*
X6025238Y-8423810D01*
X4698702Y-10865470D02*
X4712987Y-10870232D01*
X4736797Y-10870232D01*
X4746321Y-10865470D01*
X4751083Y-10860708D01*
X4755844Y-10851185D01*
X4755844Y-10841661D01*
X4751083Y-10832137D01*
X4746321Y-10827375D01*
X4736797Y-10822613D01*
X4717749Y-10817851D01*
X4708225Y-10813089D01*
X4703463Y-10808327D01*
X4698702Y-10798804D01*
X4698702Y-10789280D01*
X4703463Y-10779756D01*
X4708225Y-10774994D01*
X4717749Y-10770232D01*
X4741559Y-10770232D01*
X4755844Y-10774994D01*
X4798702Y-10870232D02*
X4798702Y-10770232D01*
X4836797Y-10770232D01*
X4846321Y-10774994D01*
X4851083Y-10779756D01*
X4855844Y-10789280D01*
X4855844Y-10803565D01*
X4851083Y-10813089D01*
X4846321Y-10817851D01*
X4836797Y-10822613D01*
X4798702Y-10822613D01*
X4951083Y-10870232D02*
X4893940Y-10870232D01*
X4922511Y-10870232D02*
X4922511Y-10770232D01*
X4912987Y-10784518D01*
X4903463Y-10794042D01*
X4893940Y-10798804D01*
X6339048Y-4525238D02*
X6405714Y-4625238D01*
X6405714Y-4525238D02*
X6339048Y-4625238D01*
X6496190Y-4625238D02*
X6439048Y-4625238D01*
X6467619Y-4625238D02*
X6467619Y-4525238D01*
X6458095Y-4539524D01*
X6448571Y-4549048D01*
X6439048Y-4553810D01*
X4925238Y-9311905D02*
X4925238Y-9359524D01*
X4825238Y-9359524D01*
X4872857Y-9278571D02*
X4872857Y-9245238D01*
X4925238Y-9230952D02*
X4925238Y-9278571D01*
X4825238Y-9278571D01*
X4825238Y-9230952D01*
X4925238Y-9188095D02*
X4825238Y-9188095D01*
X4825238Y-9164286D01*
X4830000Y-9150000D01*
X4839524Y-9140476D01*
X4849048Y-9135714D01*
X4868095Y-9130952D01*
X4882381Y-9130952D01*
X4901429Y-9135714D01*
X4910952Y-9140476D01*
X4920476Y-9150000D01*
X4925238Y-9164286D01*
X4925238Y-9188095D01*
X4925238Y-9035714D02*
X4925238Y-9092857D01*
X4925238Y-9064286D02*
X4825238Y-9064286D01*
X4839524Y-9073810D01*
X4849048Y-9083333D01*
X4853810Y-9092857D01*
X5235238Y-9311905D02*
X5235238Y-9359524D01*
X5135238Y-9359524D01*
X5182857Y-9278571D02*
X5182857Y-9245238D01*
X5235238Y-9230952D02*
X5235238Y-9278571D01*
X5135238Y-9278571D01*
X5135238Y-9230952D01*
X5235238Y-9188095D02*
X5135238Y-9188095D01*
X5135238Y-9164286D01*
X5140000Y-9150000D01*
X5149524Y-9140476D01*
X5159048Y-9135714D01*
X5178095Y-9130952D01*
X5192381Y-9130952D01*
X5211429Y-9135714D01*
X5220952Y-9140476D01*
X5230476Y-9150000D01*
X5235238Y-9164286D01*
X5235238Y-9188095D01*
X5144762Y-9092857D02*
X5140000Y-9088095D01*
X5135238Y-9078571D01*
X5135238Y-9054762D01*
X5140000Y-9045238D01*
X5144762Y-9040476D01*
X5154286Y-9035714D01*
X5163810Y-9035714D01*
X5178095Y-9040476D01*
X5235238Y-9097619D01*
X5235238Y-9035714D01*
M02*
