G04 #@! TF.FileFunction,Copper,L2,Bot,Signal*
%FSLAX45Y45*%
G04 Gerber Fmt 4.5, Leading zero omitted, Abs format (unit mm)*
G04 Created by KiCad (PCBNEW 4.0.5+dfsg1-4) date Sat Jun 24 23:26:37 2017*
%MOMM*%
%LPD*%
G01*
G04 APERTURE LIST*
%ADD10C,0.100000*%
%ADD11C,1.524000*%
%ADD12R,1.524000X1.524000*%
%ADD13O,1.250000X0.950000*%
%ADD14O,1.000000X1.550000*%
%ADD15R,1.727200X1.727200*%
%ADD16O,1.727200X1.727200*%
%ADD17O,1.000000X2.500000*%
%ADD18C,2.499360*%
%ADD19R,1.000000X2.750000*%
%ADD20C,1.397000*%
%ADD21R,1.397000X1.397000*%
%ADD22C,0.600000*%
%ADD23C,0.600000*%
%ADD24C,0.250000*%
%ADD25C,0.254000*%
G04 APERTURE END LIST*
D10*
D11*
X8050000Y-13730000D03*
D12*
X8304000Y-13730000D03*
D13*
X4372710Y-13585146D03*
X4872710Y-13585146D03*
D14*
X4272710Y-13855146D03*
X4972710Y-13855146D03*
D11*
X5400000Y-12600000D03*
D12*
X8300000Y-12600000D03*
D15*
X4420000Y-12070000D03*
D16*
X4674000Y-12070000D03*
X4420000Y-12324000D03*
X4674000Y-12324000D03*
X4420000Y-12578000D03*
X4674000Y-12578000D03*
D17*
X5210000Y-12900000D03*
X7810000Y-12900000D03*
D18*
X5308000Y-11000000D03*
X4292000Y-11000000D03*
D19*
X5700000Y-12677500D03*
X5700000Y-12102500D03*
X6100000Y-12102500D03*
X6100000Y-12677500D03*
X6400000Y-13377500D03*
X6400000Y-12802500D03*
X6800000Y-12802500D03*
X6800000Y-13377500D03*
X7100000Y-12677500D03*
X7100000Y-12102500D03*
X7500000Y-12102500D03*
X7500000Y-12677500D03*
X6400000Y-11977500D03*
X6400000Y-11402500D03*
X6800000Y-11402500D03*
X6800000Y-11977500D03*
D20*
X8593904Y-7847000D03*
X8606096Y-8101000D03*
D21*
X8606096Y-7593000D03*
D20*
X8593904Y-8355000D03*
X8593904Y-9117000D03*
X8606096Y-9371000D03*
D21*
X8606096Y-8863000D03*
D20*
X8593904Y-9625000D03*
D21*
X8600000Y-10133000D03*
D20*
X8600000Y-10387000D03*
X7880000Y-4717000D03*
D21*
X7880000Y-4463000D03*
D22*
X5476500Y-8311030D03*
X6676160Y-6327710D03*
X4900000Y-12870000D03*
X4190000Y-12880000D03*
X4210000Y-11720000D03*
X6090000Y-8200000D03*
X5830000Y-13110000D03*
X4950000Y-11670000D03*
X4960000Y-12070000D03*
X8070000Y-9260000D03*
X4610000Y-8630000D03*
X4610000Y-8180000D03*
X5860000Y-5330000D03*
X7740000Y-6330000D03*
X8110000Y-6670000D03*
X8170000Y-5180000D03*
X8530000Y-5390000D03*
X7371730Y-5905130D03*
X6756470Y-5235080D03*
X6122360Y-5712630D03*
X5770330Y-9096410D03*
X8147750Y-10749020D03*
X6478230Y-7346480D03*
X5434380Y-7047580D03*
X5420130Y-5513130D03*
X6922800Y-5204120D03*
X5608210Y-5747450D03*
X5783570Y-5901020D03*
X5530020Y-5825640D03*
X5696770Y-5975960D03*
X5558610Y-6149260D03*
X7048380Y-6502790D03*
X5488430Y-6192280D03*
X6587740Y-6312550D03*
X6503650Y-6317310D03*
X5431830Y-6248870D03*
X5580240Y-6364390D03*
X6502400Y-6628020D03*
X5421540Y-6390000D03*
X6422400Y-6374750D03*
X5492390Y-6597480D03*
X6342400Y-6626080D03*
X6798810Y-5654430D03*
X6946350Y-5691150D03*
X6946820Y-5609500D03*
X6413480Y-5879590D03*
X6478010Y-6029350D03*
X6541330Y-6127710D03*
X6627470Y-5887340D03*
X7446920Y-6421060D03*
X6343700Y-5754520D03*
X6059360Y-5943400D03*
X5358100Y-9527340D03*
X6004840Y-6415130D03*
X5805860Y-6043760D03*
X8012180Y-6534330D03*
X5229200Y-7823990D03*
D23*
X6675650Y-8311030D02*
X5476500Y-8311030D01*
X8600000Y-10133000D02*
X8600000Y-10003150D01*
X8600000Y-10003150D02*
X6907880Y-8311030D01*
X6907880Y-8311030D02*
X6675650Y-8311030D01*
D24*
X6675650Y-8311030D02*
X6675650Y-6328220D01*
X6675650Y-6328220D02*
X6676160Y-6327710D01*
X4190000Y-12880000D02*
X4190000Y-12420000D01*
X4900000Y-12870000D02*
X4200000Y-12870000D01*
X4200000Y-12870000D02*
X4190000Y-12880000D01*
X4140000Y-11790000D02*
X4210000Y-11720000D01*
X4140000Y-12370000D02*
X4140000Y-11790000D01*
X4190000Y-12420000D02*
X4140000Y-12370000D01*
X4610000Y-8180000D02*
X4610000Y-8630000D01*
X5860000Y-5330000D02*
X5880000Y-5330000D01*
X8170000Y-5180000D02*
X8320000Y-5180000D01*
X8320000Y-5180000D02*
X8530000Y-5390000D01*
X6800000Y-13377500D02*
X6800000Y-13207470D01*
X6800000Y-12847540D02*
X6800000Y-13207470D01*
X6800000Y-12802500D02*
X6800000Y-12825020D01*
X6800000Y-12825020D02*
X6800000Y-12847540D01*
X6607440Y-12632460D02*
X6100000Y-12632460D01*
X6800000Y-12825020D02*
X6607440Y-12632460D01*
X8708490Y-9002410D02*
X8593900Y-9117000D01*
X8708490Y-7961590D02*
X8708490Y-9002410D01*
X8593900Y-7847000D02*
X8708490Y-7961590D01*
X7500000Y-12102500D02*
X7500000Y-12677500D01*
X6800010Y-12847530D02*
X6800000Y-12847540D01*
X7500000Y-12847530D02*
X6800010Y-12847530D01*
X7500000Y-12677500D02*
X7500000Y-12762510D01*
X7500000Y-12762510D02*
X7500000Y-12847530D01*
X8050000Y-12941300D02*
X8050000Y-13730000D01*
X7850250Y-12741550D02*
X8050000Y-12941300D01*
X7520960Y-12741550D02*
X7850250Y-12741550D01*
X7500000Y-12762510D02*
X7520960Y-12741550D01*
X6800000Y-11402500D02*
X6800000Y-11572530D01*
X6100000Y-12677500D02*
X6100000Y-12654980D01*
X6100000Y-12654980D02*
X6100000Y-12632460D01*
X7500000Y-12102500D02*
X7500000Y-11932470D01*
X6800000Y-11932470D02*
X7500000Y-11932470D01*
X6800000Y-11572530D02*
X6800000Y-11932470D01*
X6800000Y-11932470D02*
X6800000Y-11977500D01*
X6145030Y-12147530D02*
X6100000Y-12102500D01*
X6800000Y-12147530D02*
X6145030Y-12147530D01*
X6800000Y-11977500D02*
X6800000Y-12147530D01*
X5400000Y-12615290D02*
X5400000Y-12600000D01*
X5632250Y-12847540D02*
X5400000Y-12615290D01*
X5907440Y-12847540D02*
X5632250Y-12847540D01*
X6100000Y-12654980D02*
X5907440Y-12847540D01*
X4674000Y-12578000D02*
X4792890Y-12578000D01*
X4814890Y-12600000D02*
X4792890Y-12578000D01*
X5400000Y-12600000D02*
X4814890Y-12600000D01*
X5308000Y-11140470D02*
X6100000Y-11932470D01*
X5308000Y-11000000D02*
X5308000Y-11140470D01*
X6100000Y-12102500D02*
X6100000Y-11932470D01*
X7010330Y-5488940D02*
X6756470Y-5235080D01*
X7010330Y-5755300D02*
X7010330Y-5488940D01*
X7221900Y-5755300D02*
X7010330Y-5755300D01*
X7371730Y-5905130D02*
X7221900Y-5755300D01*
X7471420Y-5905130D02*
X7371730Y-5905130D01*
X8606100Y-7039810D02*
X7471420Y-5905130D01*
X8606100Y-7593000D02*
X8606100Y-7039810D01*
X6143000Y-5691990D02*
X6122360Y-5712630D01*
X6683510Y-5691990D02*
X6143000Y-5691990D01*
X6746820Y-5755300D02*
X6683510Y-5691990D01*
X7010330Y-5755300D02*
X6746820Y-5755300D01*
X6507080Y-9108350D02*
X8147750Y-10749020D01*
X5782260Y-9108350D02*
X6507080Y-9108350D01*
X5782260Y-9108340D02*
X5782260Y-9108350D01*
X5770330Y-9096410D02*
X5782260Y-9108340D01*
X5733280Y-7346480D02*
X5434380Y-7047580D01*
X6478230Y-7346480D02*
X5733280Y-7346480D01*
X5764240Y-5169020D02*
X5420130Y-5513130D01*
X6887700Y-5169020D02*
X5764240Y-5169020D01*
X6922800Y-5204120D02*
X6887700Y-5169020D01*
X5761780Y-5901020D02*
X5608210Y-5747450D01*
X5783570Y-5901020D02*
X5761780Y-5901020D01*
X5546450Y-5825640D02*
X5696770Y-5975960D01*
X5530020Y-5825640D02*
X5546450Y-5825640D01*
X7048370Y-6502790D02*
X7048380Y-6502790D01*
X7048370Y-6472180D02*
X7048370Y-6502790D01*
X6542990Y-5966800D02*
X7048370Y-6472180D01*
X6439320Y-5966800D02*
X6542990Y-5966800D01*
X6254800Y-6151320D02*
X6439320Y-5966800D01*
X5560670Y-6151320D02*
X6254800Y-6151320D01*
X5558610Y-6149260D02*
X5560670Y-6151320D01*
X6486980Y-6211790D02*
X6587740Y-6312550D01*
X5507940Y-6211790D02*
X6486980Y-6211790D01*
X5488430Y-6192280D02*
X5507940Y-6211790D01*
X6443160Y-6256820D02*
X6503650Y-6317310D01*
X5439780Y-6256820D02*
X6443160Y-6256820D01*
X5431830Y-6248870D02*
X5439780Y-6256820D01*
X6223610Y-6349230D02*
X6502400Y-6628020D01*
X5595400Y-6349230D02*
X6223610Y-6349230D01*
X5580240Y-6364390D02*
X5595400Y-6349230D01*
X6349510Y-6301860D02*
X6422400Y-6374750D01*
X5509680Y-6301860D02*
X6349510Y-6301860D01*
X5421540Y-6390000D02*
X5509680Y-6301860D01*
X5520990Y-6626080D02*
X5492390Y-6597480D01*
X6342400Y-6626080D02*
X5520990Y-6626080D01*
X4420000Y-12070000D02*
X4538890Y-12070000D01*
X4667230Y-11904510D02*
X5146580Y-11904510D01*
X4538890Y-12032850D02*
X4667230Y-11904510D01*
X4538890Y-12070000D02*
X4538890Y-12032850D01*
X5740130Y-11904510D02*
X5146580Y-11904510D01*
X5900000Y-12064380D02*
X5740130Y-11904510D01*
X5900000Y-12143540D02*
X5900000Y-12064380D01*
X6030930Y-12274470D02*
X5900000Y-12143540D01*
X7100000Y-12274470D02*
X6030930Y-12274470D01*
X7100000Y-12102500D02*
X7100000Y-12274470D01*
X7100000Y-12274470D02*
X7100000Y-12677500D01*
X5146580Y-6119940D02*
X5146580Y-11904510D01*
X5619560Y-5646960D02*
X5146580Y-6119940D01*
X6791340Y-5646960D02*
X5619560Y-5646960D01*
X6798810Y-5654430D02*
X6791340Y-5646960D01*
X4420000Y-12324000D02*
X4301140Y-12205140D01*
X4301140Y-12205140D02*
X4301140Y-11925181D01*
X4301140Y-11925181D02*
X5101579Y-11124742D01*
X5101579Y-11124742D02*
X5101579Y-6098391D01*
X5101579Y-6098391D02*
X5611840Y-5588130D01*
X5611840Y-5588130D02*
X6820950Y-5588130D01*
X6820950Y-5588130D02*
X6923970Y-5691150D01*
X6923970Y-5691150D02*
X6946350Y-5691150D01*
X4420000Y-12324000D02*
X4420000Y-12264550D01*
X4420000Y-12264550D02*
X4390260Y-12264550D01*
X5700000Y-12102500D02*
X5700000Y-12197000D01*
X5700000Y-12197000D02*
X5700000Y-12677500D01*
X4487550Y-12197000D02*
X4420000Y-12264550D01*
X5700000Y-12197000D02*
X4487550Y-12197000D01*
X4547000Y-12532740D02*
X4465260Y-12451000D01*
X4465260Y-12451000D02*
X4376490Y-12451000D01*
X4376490Y-12451000D02*
X4252680Y-12327190D01*
X5056578Y-6070642D02*
X5591370Y-5535850D01*
X4252680Y-12327190D02*
X4252680Y-11910000D01*
X4252680Y-11910000D02*
X5056578Y-11106102D01*
X5056578Y-11106102D02*
X5056578Y-6070642D01*
X5591370Y-5535850D02*
X6873170Y-5535850D01*
X6873170Y-5535850D02*
X6946820Y-5609500D01*
X4674000Y-12324000D02*
X4674000Y-12442890D01*
X6400000Y-12802500D02*
X6400000Y-12892860D01*
X6400000Y-12892860D02*
X6400000Y-13377500D01*
X4547000Y-12619600D02*
X4547000Y-12532740D01*
X4667040Y-12739640D02*
X4547000Y-12619600D01*
X5288440Y-12739640D02*
X4667040Y-12739640D01*
X5441660Y-12892860D02*
X5288440Y-12739640D01*
X6400000Y-12892860D02*
X5441660Y-12892860D01*
X4636850Y-12442890D02*
X4674000Y-12442890D01*
X4547000Y-12532740D02*
X4636850Y-12442890D01*
X6413480Y-5879590D02*
X6519470Y-5879590D01*
X6519470Y-5879590D02*
X7114120Y-6474240D01*
X7114120Y-6474240D02*
X7114240Y-6474240D01*
X7114240Y-6474240D02*
X8460000Y-7820000D01*
X8460000Y-7820000D02*
X8460000Y-7954900D01*
X8460000Y-7954900D02*
X8606100Y-8101000D01*
X8606096Y-8101000D02*
X8460000Y-7954904D01*
X8593904Y-8355000D02*
X8593904Y-8256217D01*
X6954800Y-6500000D02*
X6954800Y-6445470D01*
X8593904Y-8256217D02*
X8390000Y-8052313D01*
X8390000Y-8052313D02*
X8390000Y-7850000D01*
X8390000Y-7850000D02*
X7120000Y-6580000D01*
X7120000Y-6580000D02*
X7034800Y-6580000D01*
X7034800Y-6580000D02*
X6954800Y-6500000D01*
X6538680Y-6029350D02*
X6478010Y-6029350D01*
X6954800Y-6445470D02*
X6538680Y-6029350D01*
X6565350Y-6127710D02*
X6541330Y-6127710D01*
X6741870Y-6304230D02*
X6565350Y-6127710D01*
X6741870Y-7506770D02*
X6741870Y-6304230D01*
X8606100Y-9371000D02*
X6741870Y-7506770D01*
X8473280Y-7733150D02*
X6627470Y-5887340D01*
X8626770Y-7733150D02*
X8473280Y-7733150D01*
X8754150Y-7860530D02*
X8626770Y-7733150D01*
X8754150Y-9464750D02*
X8754150Y-7860530D01*
X8593900Y-9625000D02*
X8754150Y-9464750D01*
X6343700Y-5754530D02*
X6343700Y-5754520D01*
X6646790Y-5754530D02*
X6343700Y-5754530D01*
X7313320Y-6421060D02*
X6646790Y-5754530D01*
X7446920Y-6421060D02*
X7313320Y-6421060D01*
X6400000Y-11977500D02*
X6400000Y-11402500D01*
X6400000Y-11402500D02*
X6400000Y-11232470D01*
X5896470Y-6106290D02*
X6059360Y-5943400D01*
X5779960Y-6106290D02*
X5896470Y-6106290D01*
X5760390Y-6086720D02*
X5779960Y-6106290D01*
X5505530Y-6086720D02*
X5760390Y-6086720D01*
X5295570Y-6296680D02*
X5505530Y-6086720D01*
X5295570Y-10128040D02*
X5295570Y-6296680D01*
X6400000Y-11232470D02*
X5295570Y-10128040D01*
X5902140Y-6517830D02*
X6004840Y-6415130D01*
X5483080Y-6517830D02*
X5902140Y-6517830D01*
X5358100Y-6642810D02*
X5483080Y-6517830D01*
X5358100Y-9527340D02*
X5358100Y-6642810D01*
X5229200Y-6296840D02*
X5229200Y-7823990D01*
X5484360Y-6041680D02*
X5229200Y-6296840D01*
X5803780Y-6041680D02*
X5484360Y-6041680D01*
X5805860Y-6043760D02*
X5803780Y-6041680D01*
X6032570Y-5817050D02*
X5805860Y-6043760D01*
X6645620Y-5817050D02*
X6032570Y-5817050D01*
X7362900Y-6534330D02*
X6645620Y-5817050D01*
X8012180Y-6534330D02*
X7362900Y-6534330D01*
X5940070Y-13547540D02*
X5292530Y-12900000D01*
X7079930Y-13547540D02*
X5940070Y-13547540D01*
X7727470Y-12900000D02*
X7079930Y-13547540D01*
X7810000Y-12900000D02*
X7727470Y-12900000D01*
X5210000Y-12900000D02*
X5292530Y-12900000D01*
D25*
G36*
X8729000Y-4309000D02*
X8640000Y-4309000D01*
X8612830Y-4314405D01*
X8589795Y-4329795D01*
X8574405Y-4352830D01*
X8569000Y-4380000D01*
X8569000Y-4435979D01*
X8534177Y-4421519D01*
X8491013Y-4421481D01*
X8451120Y-4437965D01*
X8420572Y-4468460D01*
X8404019Y-4508323D01*
X8403981Y-4551487D01*
X8420465Y-4591380D01*
X8450960Y-4621928D01*
X8490823Y-4638481D01*
X8533987Y-4638519D01*
X8569000Y-4624052D01*
X8569000Y-4735979D01*
X8534177Y-4721519D01*
X8491013Y-4721481D01*
X8451120Y-4737965D01*
X8420572Y-4768460D01*
X8404019Y-4808323D01*
X8403981Y-4851487D01*
X8420465Y-4891380D01*
X8450960Y-4921928D01*
X8490823Y-4938481D01*
X8533987Y-4938519D01*
X8569000Y-4924052D01*
X8569000Y-4980000D01*
X8574405Y-5007171D01*
X8589795Y-5030205D01*
X8612830Y-5045595D01*
X8640000Y-5051000D01*
X8729000Y-5051000D01*
X8729000Y-7488332D01*
X8722355Y-7478006D01*
X8701135Y-7463507D01*
X8682100Y-7459652D01*
X8682100Y-7039810D01*
X8676315Y-7010726D01*
X8676315Y-7010726D01*
X8659840Y-6986070D01*
X7525160Y-5851390D01*
X7500504Y-5834915D01*
X7471420Y-5829130D01*
X7427976Y-5829130D01*
X7424763Y-5825911D01*
X7390410Y-5811646D01*
X7385722Y-5811642D01*
X7275640Y-5701560D01*
X7250984Y-5685085D01*
X7221900Y-5679300D01*
X7086330Y-5679300D01*
X7086330Y-5488940D01*
X7080545Y-5459856D01*
X7064070Y-5435200D01*
X6926493Y-5297623D01*
X6941317Y-5297636D01*
X6975694Y-5283432D01*
X7002019Y-5257153D01*
X7016284Y-5222800D01*
X7016316Y-5185603D01*
X7002112Y-5151226D01*
X6975833Y-5124901D01*
X6941480Y-5110636D01*
X6934481Y-5110630D01*
X6916784Y-5098805D01*
X6887700Y-5093020D01*
X5764240Y-5093020D01*
X5735156Y-5098805D01*
X5710500Y-5115280D01*
X5406162Y-5419618D01*
X5401613Y-5419614D01*
X5367236Y-5433818D01*
X5340911Y-5460097D01*
X5326646Y-5494450D01*
X5326614Y-5531647D01*
X5340818Y-5566024D01*
X5367097Y-5592349D01*
X5401450Y-5606614D01*
X5413116Y-5606624D01*
X5002838Y-6016902D01*
X4986363Y-6041558D01*
X4980578Y-6070642D01*
X4980578Y-11074622D01*
X4198940Y-11856260D01*
X4182465Y-11880916D01*
X4176680Y-11910000D01*
X4176680Y-12327190D01*
X4182465Y-12356274D01*
X4198940Y-12380930D01*
X4302664Y-12484654D01*
X4278612Y-12520651D01*
X4267204Y-12578000D01*
X4278612Y-12635349D01*
X4311097Y-12683967D01*
X4359715Y-12716453D01*
X4417064Y-12727860D01*
X4422936Y-12727860D01*
X4480285Y-12716453D01*
X4513907Y-12693987D01*
X4613300Y-12793380D01*
X4637956Y-12809855D01*
X4667040Y-12815640D01*
X5097627Y-12815640D01*
X5096500Y-12821307D01*
X5096500Y-12978693D01*
X5105140Y-13022127D01*
X5129743Y-13058949D01*
X5166565Y-13083553D01*
X5210000Y-13092193D01*
X5253435Y-13083553D01*
X5290257Y-13058949D01*
X5311783Y-13026733D01*
X5886330Y-13601280D01*
X5910986Y-13617755D01*
X5940070Y-13623540D01*
X7079930Y-13623540D01*
X7109014Y-13617755D01*
X7133670Y-13601280D01*
X7708217Y-13026733D01*
X7729743Y-13058949D01*
X7766565Y-13083553D01*
X7810000Y-13092193D01*
X7853435Y-13083553D01*
X7890257Y-13058949D01*
X7914860Y-13022127D01*
X7923500Y-12978693D01*
X7923500Y-12821307D01*
X7914860Y-12777872D01*
X7890257Y-12741050D01*
X7853435Y-12716447D01*
X7810000Y-12707807D01*
X7766565Y-12716447D01*
X7729743Y-12741050D01*
X7705140Y-12777872D01*
X7696500Y-12821307D01*
X7696500Y-12831045D01*
X7673730Y-12846260D01*
X7048450Y-13471540D01*
X6913500Y-13471540D01*
X6913500Y-13406075D01*
X6897625Y-13390200D01*
X6812700Y-13390200D01*
X6812700Y-13392200D01*
X6787300Y-13392200D01*
X6787300Y-13390200D01*
X6702375Y-13390200D01*
X6686500Y-13406075D01*
X6686500Y-13471540D01*
X6514744Y-13471540D01*
X6514744Y-13240000D01*
X6512367Y-13227369D01*
X6686500Y-13227369D01*
X6686500Y-13348925D01*
X6702375Y-13364800D01*
X6787300Y-13364800D01*
X6787300Y-13192375D01*
X6812700Y-13192375D01*
X6812700Y-13364800D01*
X6897625Y-13364800D01*
X6913500Y-13348925D01*
X6913500Y-13227369D01*
X6903833Y-13204030D01*
X6885970Y-13186167D01*
X6862631Y-13176500D01*
X6828575Y-13176500D01*
X6812700Y-13192375D01*
X6787300Y-13192375D01*
X6771425Y-13176500D01*
X6737369Y-13176500D01*
X6714030Y-13186167D01*
X6696167Y-13204030D01*
X6686500Y-13227369D01*
X6512367Y-13227369D01*
X6510316Y-13216468D01*
X6496409Y-13194856D01*
X6476000Y-13180911D01*
X6476000Y-12998728D01*
X6495144Y-12986409D01*
X6509643Y-12965189D01*
X6514744Y-12940000D01*
X6514744Y-12831075D01*
X6686500Y-12831075D01*
X6686500Y-12952631D01*
X6696167Y-12975970D01*
X6714030Y-12993833D01*
X6737369Y-13003500D01*
X6771425Y-13003500D01*
X6787300Y-12987625D01*
X6787300Y-12815200D01*
X6812700Y-12815200D01*
X6812700Y-12987625D01*
X6828575Y-13003500D01*
X6862631Y-13003500D01*
X6885970Y-12993833D01*
X6903833Y-12975970D01*
X6913500Y-12952631D01*
X6913500Y-12831075D01*
X6897625Y-12815200D01*
X6812700Y-12815200D01*
X6787300Y-12815200D01*
X6702375Y-12815200D01*
X6686500Y-12831075D01*
X6514744Y-12831075D01*
X6514744Y-12665000D01*
X6512367Y-12652369D01*
X6686500Y-12652369D01*
X6686500Y-12773925D01*
X6702375Y-12789800D01*
X6787300Y-12789800D01*
X6787300Y-12617375D01*
X6812700Y-12617375D01*
X6812700Y-12789800D01*
X6897625Y-12789800D01*
X6913500Y-12773925D01*
X6913500Y-12652369D01*
X6903833Y-12629030D01*
X6885970Y-12611167D01*
X6862631Y-12601500D01*
X6828575Y-12601500D01*
X6812700Y-12617375D01*
X6787300Y-12617375D01*
X6771425Y-12601500D01*
X6737369Y-12601500D01*
X6714030Y-12611167D01*
X6696167Y-12629030D01*
X6686500Y-12652369D01*
X6512367Y-12652369D01*
X6510316Y-12641468D01*
X6496409Y-12619856D01*
X6475189Y-12605357D01*
X6450000Y-12600256D01*
X6350000Y-12600256D01*
X6326468Y-12604684D01*
X6304856Y-12618591D01*
X6290357Y-12639811D01*
X6285256Y-12665000D01*
X6285256Y-12816860D01*
X6213500Y-12816860D01*
X6213500Y-12706075D01*
X6197625Y-12690200D01*
X6112700Y-12690200D01*
X6112700Y-12692200D01*
X6087300Y-12692200D01*
X6087300Y-12690200D01*
X6002375Y-12690200D01*
X5986500Y-12706075D01*
X5986500Y-12816860D01*
X5814367Y-12816860D01*
X5814744Y-12815000D01*
X5814744Y-12540000D01*
X5812367Y-12527369D01*
X5986500Y-12527369D01*
X5986500Y-12648925D01*
X6002375Y-12664800D01*
X6087300Y-12664800D01*
X6087300Y-12492375D01*
X6112700Y-12492375D01*
X6112700Y-12664800D01*
X6197625Y-12664800D01*
X6213500Y-12648925D01*
X6213500Y-12527369D01*
X6203833Y-12504030D01*
X6185970Y-12486167D01*
X6162631Y-12476500D01*
X6128575Y-12476500D01*
X6112700Y-12492375D01*
X6087300Y-12492375D01*
X6071425Y-12476500D01*
X6037369Y-12476500D01*
X6014030Y-12486167D01*
X5996167Y-12504030D01*
X5986500Y-12527369D01*
X5812367Y-12527369D01*
X5810316Y-12516468D01*
X5796409Y-12494856D01*
X5776000Y-12480911D01*
X5776000Y-12298728D01*
X5795144Y-12286409D01*
X5809643Y-12265189D01*
X5814744Y-12240000D01*
X5814744Y-12086604D01*
X5824000Y-12095860D01*
X5824000Y-12143540D01*
X5829785Y-12172624D01*
X5846260Y-12197280D01*
X5977190Y-12328210D01*
X6001846Y-12344685D01*
X6030930Y-12350470D01*
X7024000Y-12350470D01*
X7024000Y-12481272D01*
X7004856Y-12493591D01*
X6990357Y-12514811D01*
X6985256Y-12540000D01*
X6985256Y-12815000D01*
X6989684Y-12838532D01*
X7003591Y-12860144D01*
X7024811Y-12874643D01*
X7050000Y-12879744D01*
X7150000Y-12879744D01*
X7173532Y-12875316D01*
X7195144Y-12861409D01*
X7209643Y-12840189D01*
X7214744Y-12815000D01*
X7214744Y-12706075D01*
X7386500Y-12706075D01*
X7386500Y-12827631D01*
X7396167Y-12850970D01*
X7414030Y-12868833D01*
X7437369Y-12878500D01*
X7471425Y-12878500D01*
X7487300Y-12862625D01*
X7487300Y-12690200D01*
X7512700Y-12690200D01*
X7512700Y-12862625D01*
X7528575Y-12878500D01*
X7562631Y-12878500D01*
X7585970Y-12868833D01*
X7603833Y-12850970D01*
X7613500Y-12827631D01*
X7613500Y-12706075D01*
X7597625Y-12690200D01*
X7512700Y-12690200D01*
X7487300Y-12690200D01*
X7402375Y-12690200D01*
X7386500Y-12706075D01*
X7214744Y-12706075D01*
X7214744Y-12540000D01*
X7212367Y-12527369D01*
X7386500Y-12527369D01*
X7386500Y-12648925D01*
X7402375Y-12664800D01*
X7487300Y-12664800D01*
X7487300Y-12492375D01*
X7512700Y-12492375D01*
X7512700Y-12664800D01*
X7597625Y-12664800D01*
X7613500Y-12648925D01*
X7613500Y-12527369D01*
X7612022Y-12523800D01*
X8159056Y-12523800D01*
X8159056Y-12676200D01*
X8163484Y-12699732D01*
X8177391Y-12721344D01*
X8198611Y-12735843D01*
X8223800Y-12740944D01*
X8376200Y-12740944D01*
X8399732Y-12736516D01*
X8421344Y-12722609D01*
X8435843Y-12701389D01*
X8440944Y-12676200D01*
X8440944Y-12523800D01*
X8436516Y-12500268D01*
X8422609Y-12478656D01*
X8401389Y-12464157D01*
X8376200Y-12459056D01*
X8223800Y-12459056D01*
X8200268Y-12463484D01*
X8178656Y-12477391D01*
X8164157Y-12498611D01*
X8159056Y-12523800D01*
X7612022Y-12523800D01*
X7603833Y-12504030D01*
X7585970Y-12486167D01*
X7562631Y-12476500D01*
X7528575Y-12476500D01*
X7512700Y-12492375D01*
X7487300Y-12492375D01*
X7471425Y-12476500D01*
X7437369Y-12476500D01*
X7414030Y-12486167D01*
X7396167Y-12504030D01*
X7386500Y-12527369D01*
X7212367Y-12527369D01*
X7210316Y-12516468D01*
X7196409Y-12494856D01*
X7176000Y-12480911D01*
X7176000Y-12298728D01*
X7195144Y-12286409D01*
X7209643Y-12265189D01*
X7214744Y-12240000D01*
X7214744Y-12131075D01*
X7386500Y-12131075D01*
X7386500Y-12252631D01*
X7396167Y-12275970D01*
X7414030Y-12293833D01*
X7437369Y-12303500D01*
X7471425Y-12303500D01*
X7487300Y-12287625D01*
X7487300Y-12115200D01*
X7512700Y-12115200D01*
X7512700Y-12287625D01*
X7528575Y-12303500D01*
X7562631Y-12303500D01*
X7585970Y-12293833D01*
X7603833Y-12275970D01*
X7613500Y-12252631D01*
X7613500Y-12131075D01*
X7597625Y-12115200D01*
X7512700Y-12115200D01*
X7487300Y-12115200D01*
X7402375Y-12115200D01*
X7386500Y-12131075D01*
X7214744Y-12131075D01*
X7214744Y-11965000D01*
X7212367Y-11952369D01*
X7386500Y-11952369D01*
X7386500Y-12073925D01*
X7402375Y-12089800D01*
X7487300Y-12089800D01*
X7487300Y-11917375D01*
X7512700Y-11917375D01*
X7512700Y-12089800D01*
X7597625Y-12089800D01*
X7613500Y-12073925D01*
X7613500Y-11952369D01*
X7603833Y-11929030D01*
X7585970Y-11911167D01*
X7562631Y-11901500D01*
X7528575Y-11901500D01*
X7512700Y-11917375D01*
X7487300Y-11917375D01*
X7471425Y-11901500D01*
X7437369Y-11901500D01*
X7414030Y-11911167D01*
X7396167Y-11929030D01*
X7386500Y-11952369D01*
X7212367Y-11952369D01*
X7210316Y-11941468D01*
X7196409Y-11919856D01*
X7175189Y-11905357D01*
X7150000Y-11900256D01*
X7050000Y-11900256D01*
X7026468Y-11904684D01*
X7004856Y-11918591D01*
X6990357Y-11939811D01*
X6985256Y-11965000D01*
X6985256Y-12198470D01*
X6213500Y-12198470D01*
X6213500Y-12131075D01*
X6197625Y-12115200D01*
X6112700Y-12115200D01*
X6112700Y-12117200D01*
X6087300Y-12117200D01*
X6087300Y-12115200D01*
X6002375Y-12115200D01*
X5990758Y-12126817D01*
X5976000Y-12112060D01*
X5976000Y-12064380D01*
X5973836Y-12053500D01*
X5970215Y-12035296D01*
X5953740Y-12010640D01*
X5895469Y-11952369D01*
X5986500Y-11952369D01*
X5986500Y-12073925D01*
X6002375Y-12089800D01*
X6087300Y-12089800D01*
X6087300Y-11917375D01*
X6112700Y-11917375D01*
X6112700Y-12089800D01*
X6197625Y-12089800D01*
X6213500Y-12073925D01*
X6213500Y-11952369D01*
X6203833Y-11929030D01*
X6185970Y-11911167D01*
X6162631Y-11901500D01*
X6128575Y-11901500D01*
X6112700Y-11917375D01*
X6087300Y-11917375D01*
X6071425Y-11901500D01*
X6037369Y-11901500D01*
X6014030Y-11911167D01*
X5996167Y-11929030D01*
X5986500Y-11952369D01*
X5895469Y-11952369D01*
X5793870Y-11850770D01*
X5769214Y-11834295D01*
X5740130Y-11828510D01*
X5222580Y-11828510D01*
X5222580Y-11169101D01*
X5275588Y-11189407D01*
X5350538Y-11187393D01*
X5410428Y-11162586D01*
X5423348Y-11133309D01*
X5308000Y-11017961D01*
X5306586Y-11019375D01*
X5288625Y-11001414D01*
X5290040Y-11000000D01*
X5325961Y-11000000D01*
X5441309Y-11115348D01*
X5470586Y-11102428D01*
X5497407Y-11032412D01*
X5495393Y-10957462D01*
X5470586Y-10897573D01*
X5441309Y-10884652D01*
X5325961Y-11000000D01*
X5290040Y-11000000D01*
X5288625Y-10998586D01*
X5306586Y-10980625D01*
X5308000Y-10982040D01*
X5423348Y-10866691D01*
X5410428Y-10837414D01*
X5340412Y-10810593D01*
X5265462Y-10812607D01*
X5222580Y-10830369D01*
X5222580Y-10143172D01*
X5225355Y-10157124D01*
X5241830Y-10181780D01*
X6294215Y-11234165D01*
X6290357Y-11239811D01*
X6285256Y-11265000D01*
X6285256Y-11540000D01*
X6289684Y-11563532D01*
X6303591Y-11585144D01*
X6324000Y-11599089D01*
X6324000Y-11781272D01*
X6304856Y-11793591D01*
X6290357Y-11814811D01*
X6285256Y-11840000D01*
X6285256Y-12115000D01*
X6289684Y-12138532D01*
X6303591Y-12160144D01*
X6324811Y-12174643D01*
X6350000Y-12179744D01*
X6450000Y-12179744D01*
X6473532Y-12175316D01*
X6495144Y-12161409D01*
X6509643Y-12140189D01*
X6514744Y-12115000D01*
X6514744Y-12006075D01*
X6686500Y-12006075D01*
X6686500Y-12127631D01*
X6696167Y-12150970D01*
X6714030Y-12168833D01*
X6737369Y-12178500D01*
X6771425Y-12178500D01*
X6787300Y-12162625D01*
X6787300Y-11990200D01*
X6812700Y-11990200D01*
X6812700Y-12162625D01*
X6828575Y-12178500D01*
X6862631Y-12178500D01*
X6885970Y-12168833D01*
X6903833Y-12150970D01*
X6913500Y-12127631D01*
X6913500Y-12006075D01*
X6897625Y-11990200D01*
X6812700Y-11990200D01*
X6787300Y-11990200D01*
X6702375Y-11990200D01*
X6686500Y-12006075D01*
X6514744Y-12006075D01*
X6514744Y-11840000D01*
X6512367Y-11827369D01*
X6686500Y-11827369D01*
X6686500Y-11948925D01*
X6702375Y-11964800D01*
X6787300Y-11964800D01*
X6787300Y-11792375D01*
X6812700Y-11792375D01*
X6812700Y-11964800D01*
X6897625Y-11964800D01*
X6913500Y-11948925D01*
X6913500Y-11827369D01*
X6903833Y-11804030D01*
X6885970Y-11786167D01*
X6862631Y-11776500D01*
X6828575Y-11776500D01*
X6812700Y-11792375D01*
X6787300Y-11792375D01*
X6771425Y-11776500D01*
X6737369Y-11776500D01*
X6714030Y-11786167D01*
X6696167Y-11804030D01*
X6686500Y-11827369D01*
X6512367Y-11827369D01*
X6510316Y-11816468D01*
X6496409Y-11794856D01*
X6476000Y-11780911D01*
X6476000Y-11598728D01*
X6495144Y-11586409D01*
X6509643Y-11565189D01*
X6514744Y-11540000D01*
X6514744Y-11431075D01*
X6686500Y-11431075D01*
X6686500Y-11552631D01*
X6696167Y-11575970D01*
X6714030Y-11593833D01*
X6737369Y-11603500D01*
X6771425Y-11603500D01*
X6787300Y-11587625D01*
X6787300Y-11415200D01*
X6812700Y-11415200D01*
X6812700Y-11587625D01*
X6828575Y-11603500D01*
X6862631Y-11603500D01*
X6885970Y-11593833D01*
X6903833Y-11575970D01*
X6913500Y-11552631D01*
X6913500Y-11431075D01*
X6897625Y-11415200D01*
X6812700Y-11415200D01*
X6787300Y-11415200D01*
X6702375Y-11415200D01*
X6686500Y-11431075D01*
X6514744Y-11431075D01*
X6514744Y-11265000D01*
X6512367Y-11252369D01*
X6686500Y-11252369D01*
X6686500Y-11373925D01*
X6702375Y-11389800D01*
X6787300Y-11389800D01*
X6787300Y-11217375D01*
X6812700Y-11217375D01*
X6812700Y-11389800D01*
X6897625Y-11389800D01*
X6913500Y-11373925D01*
X6913500Y-11252369D01*
X6903833Y-11229030D01*
X6885970Y-11211167D01*
X6862631Y-11201500D01*
X6828575Y-11201500D01*
X6812700Y-11217375D01*
X6787300Y-11217375D01*
X6771425Y-11201500D01*
X6737369Y-11201500D01*
X6714030Y-11211167D01*
X6696167Y-11229030D01*
X6686500Y-11252369D01*
X6512367Y-11252369D01*
X6510316Y-11241468D01*
X6496409Y-11219856D01*
X6475189Y-11205357D01*
X6470414Y-11204390D01*
X6470215Y-11203386D01*
X6453740Y-11178730D01*
X5371570Y-10096560D01*
X5371570Y-9620852D01*
X5376617Y-9620856D01*
X5410994Y-9606652D01*
X5437319Y-9580373D01*
X5451584Y-9546020D01*
X5451616Y-9508823D01*
X5437412Y-9474446D01*
X5434100Y-9471128D01*
X5434100Y-9114927D01*
X5676814Y-9114927D01*
X5691018Y-9149304D01*
X5717297Y-9175629D01*
X5751650Y-9189894D01*
X5788847Y-9189926D01*
X5802342Y-9184350D01*
X6475600Y-9184350D01*
X8054238Y-10762988D01*
X8054234Y-10767537D01*
X8068438Y-10801914D01*
X8094717Y-10828239D01*
X8129070Y-10842504D01*
X8166267Y-10842536D01*
X8200644Y-10828332D01*
X8226969Y-10802053D01*
X8241234Y-10767700D01*
X8241266Y-10730503D01*
X8227062Y-10696126D01*
X8200783Y-10669801D01*
X8166430Y-10655536D01*
X8161742Y-10655532D01*
X7986629Y-10480419D01*
X8524542Y-10480419D01*
X8530707Y-10503980D01*
X8580748Y-10521593D01*
X8633720Y-10518715D01*
X8669293Y-10503980D01*
X8675458Y-10480419D01*
X8600000Y-10404961D01*
X8524542Y-10480419D01*
X7986629Y-10480419D01*
X7873958Y-10367748D01*
X8465407Y-10367748D01*
X8468285Y-10420720D01*
X8483020Y-10456293D01*
X8506581Y-10462458D01*
X8582040Y-10387000D01*
X8506581Y-10311542D01*
X8483020Y-10317707D01*
X8465407Y-10367748D01*
X7873958Y-10367748D01*
X6560820Y-9054610D01*
X6536164Y-9038135D01*
X6507080Y-9032350D01*
X5838495Y-9032350D01*
X5823363Y-9017191D01*
X5789010Y-9002926D01*
X5751813Y-9002894D01*
X5717436Y-9017098D01*
X5691111Y-9043377D01*
X5676846Y-9077730D01*
X5676814Y-9114927D01*
X5434100Y-9114927D01*
X5434100Y-8394664D01*
X5457820Y-8404514D01*
X5495017Y-8404546D01*
X5495056Y-8404530D01*
X6869151Y-8404530D01*
X8483527Y-10018906D01*
X8470507Y-10037961D01*
X8465406Y-10063150D01*
X8465406Y-10202850D01*
X8469834Y-10226382D01*
X8483741Y-10247994D01*
X8504961Y-10262493D01*
X8530150Y-10267594D01*
X8536564Y-10267594D01*
X8530707Y-10270020D01*
X8524542Y-10293581D01*
X8600000Y-10369040D01*
X8675458Y-10293581D01*
X8669293Y-10270020D01*
X8662400Y-10267594D01*
X8669850Y-10267594D01*
X8693382Y-10263166D01*
X8714994Y-10249259D01*
X8729000Y-10228761D01*
X8729000Y-10346726D01*
X8716980Y-10317707D01*
X8693419Y-10311542D01*
X8617961Y-10387000D01*
X8693419Y-10462458D01*
X8716980Y-10456293D01*
X8729000Y-10422142D01*
X8729000Y-10829000D01*
X8640000Y-10829000D01*
X8612830Y-10834405D01*
X8589795Y-10849795D01*
X8574405Y-10872830D01*
X8569000Y-10900000D01*
X8569000Y-10955979D01*
X8534177Y-10941519D01*
X8491013Y-10941481D01*
X8451120Y-10957965D01*
X8420572Y-10988460D01*
X8404019Y-11028323D01*
X8403981Y-11071487D01*
X8420465Y-11111380D01*
X8450960Y-11141928D01*
X8490823Y-11158481D01*
X8533987Y-11158519D01*
X8569000Y-11144052D01*
X8569000Y-11255979D01*
X8534177Y-11241519D01*
X8491013Y-11241481D01*
X8451120Y-11257965D01*
X8420572Y-11288459D01*
X8404019Y-11328323D01*
X8403981Y-11371487D01*
X8420465Y-11411380D01*
X8450960Y-11441928D01*
X8490823Y-11458481D01*
X8533987Y-11458519D01*
X8569000Y-11444052D01*
X8569000Y-11500000D01*
X8574405Y-11527170D01*
X8589795Y-11550205D01*
X8612830Y-11565595D01*
X8640000Y-11571000D01*
X8729000Y-11571000D01*
X8729000Y-13929000D01*
X5077465Y-13929000D01*
X5077570Y-13928843D01*
X5086210Y-13885408D01*
X5086210Y-13828021D01*
X7969939Y-13828021D01*
X7976886Y-13852240D01*
X8029230Y-13870914D01*
X8084737Y-13868136D01*
X8123114Y-13852240D01*
X8130061Y-13828021D01*
X8050000Y-13747960D01*
X7969939Y-13828021D01*
X5086210Y-13828021D01*
X5086210Y-13824884D01*
X5077570Y-13781449D01*
X5052967Y-13744627D01*
X5016145Y-13720023D01*
X4972710Y-13711384D01*
X4929275Y-13720023D01*
X4892453Y-13744627D01*
X4867850Y-13781449D01*
X4859210Y-13824884D01*
X4859210Y-13885408D01*
X4867850Y-13928843D01*
X4867955Y-13929000D01*
X4377465Y-13929000D01*
X4377570Y-13928843D01*
X4386210Y-13885408D01*
X4386210Y-13824884D01*
X4377570Y-13781449D01*
X4352967Y-13744627D01*
X4316145Y-13720023D01*
X4272710Y-13711384D01*
X4229275Y-13720023D01*
X4192453Y-13744627D01*
X4167850Y-13781449D01*
X4159210Y-13824884D01*
X4159210Y-13885408D01*
X4167850Y-13928843D01*
X4167955Y-13929000D01*
X4071000Y-13929000D01*
X4071000Y-13709230D01*
X7909086Y-13709230D01*
X7911864Y-13764737D01*
X7927760Y-13803114D01*
X7951979Y-13810061D01*
X8032039Y-13730000D01*
X8067960Y-13730000D01*
X8148021Y-13810061D01*
X8163056Y-13805748D01*
X8163056Y-13806200D01*
X8167484Y-13829732D01*
X8181391Y-13851344D01*
X8202611Y-13865843D01*
X8227800Y-13870944D01*
X8380200Y-13870944D01*
X8403732Y-13866516D01*
X8425344Y-13852609D01*
X8439843Y-13831389D01*
X8444944Y-13806200D01*
X8444944Y-13653800D01*
X8440516Y-13630268D01*
X8426609Y-13608656D01*
X8405389Y-13594157D01*
X8380200Y-13589056D01*
X8227800Y-13589056D01*
X8204268Y-13593484D01*
X8182656Y-13607391D01*
X8168157Y-13628611D01*
X8163056Y-13653800D01*
X8163056Y-13654252D01*
X8148021Y-13649939D01*
X8067960Y-13730000D01*
X8032039Y-13730000D01*
X7951979Y-13649939D01*
X7927760Y-13656886D01*
X7909086Y-13709230D01*
X4071000Y-13709230D01*
X4071000Y-13585146D01*
X4244242Y-13585146D01*
X4252691Y-13627624D01*
X4276753Y-13663635D01*
X4312764Y-13687697D01*
X4355242Y-13696146D01*
X4390179Y-13696146D01*
X4432656Y-13687697D01*
X4468667Y-13663635D01*
X4492729Y-13627624D01*
X4501179Y-13585146D01*
X4744242Y-13585146D01*
X4752691Y-13627624D01*
X4776753Y-13663635D01*
X4812764Y-13687697D01*
X4855242Y-13696146D01*
X4890179Y-13696146D01*
X4932656Y-13687697D01*
X4968667Y-13663635D01*
X4989819Y-13631979D01*
X7969939Y-13631979D01*
X8050000Y-13712039D01*
X8130061Y-13631979D01*
X8123114Y-13607760D01*
X8070770Y-13589086D01*
X8015263Y-13591864D01*
X7976886Y-13607760D01*
X7969939Y-13631979D01*
X4989819Y-13631979D01*
X4992729Y-13627624D01*
X5001179Y-13585146D01*
X4992729Y-13542668D01*
X4968667Y-13506657D01*
X4932656Y-13482595D01*
X4890179Y-13474146D01*
X4855242Y-13474146D01*
X4812764Y-13482595D01*
X4776753Y-13506657D01*
X4752691Y-13542668D01*
X4744242Y-13585146D01*
X4501179Y-13585146D01*
X4492729Y-13542668D01*
X4468667Y-13506657D01*
X4432656Y-13482595D01*
X4390179Y-13474146D01*
X4355242Y-13474146D01*
X4312764Y-13482595D01*
X4276753Y-13506657D01*
X4252691Y-13542668D01*
X4244242Y-13585146D01*
X4071000Y-13585146D01*
X4071000Y-11037324D01*
X4103499Y-11037324D01*
X4132131Y-11106619D01*
X4185102Y-11159682D01*
X4254347Y-11188435D01*
X4329324Y-11188501D01*
X4398619Y-11159869D01*
X4451682Y-11106898D01*
X4480435Y-11037653D01*
X4480501Y-10962676D01*
X4451869Y-10893381D01*
X4398898Y-10840318D01*
X4329653Y-10811565D01*
X4254676Y-10811499D01*
X4185381Y-10840131D01*
X4132318Y-10893102D01*
X4103565Y-10962347D01*
X4103499Y-11037324D01*
X4071000Y-11037324D01*
X4071000Y-4393150D01*
X7745406Y-4393150D01*
X7745406Y-4532850D01*
X7749834Y-4556382D01*
X7763741Y-4577994D01*
X7784961Y-4592493D01*
X7810150Y-4597594D01*
X7819788Y-4597594D01*
X7804562Y-4603885D01*
X7767017Y-4641365D01*
X7746673Y-4690359D01*
X7746627Y-4743409D01*
X7766885Y-4792438D01*
X7804365Y-4829983D01*
X7853359Y-4850327D01*
X7906409Y-4850373D01*
X7955438Y-4830115D01*
X7992983Y-4792635D01*
X8013327Y-4743641D01*
X8013373Y-4690591D01*
X7993115Y-4641562D01*
X7955635Y-4604017D01*
X7940166Y-4597594D01*
X7949850Y-4597594D01*
X7973382Y-4593166D01*
X7994994Y-4579259D01*
X8009493Y-4558039D01*
X8014594Y-4532850D01*
X8014594Y-4393150D01*
X8010166Y-4369618D01*
X7996259Y-4348006D01*
X7975039Y-4333507D01*
X7949850Y-4328406D01*
X7810150Y-4328406D01*
X7786618Y-4332834D01*
X7765006Y-4346741D01*
X7750507Y-4367961D01*
X7745406Y-4393150D01*
X4071000Y-4393150D01*
X4071000Y-4071000D01*
X8729000Y-4071000D01*
X8729000Y-4309000D01*
X8729000Y-4309000D01*
G37*
X8729000Y-4309000D02*
X8640000Y-4309000D01*
X8612830Y-4314405D01*
X8589795Y-4329795D01*
X8574405Y-4352830D01*
X8569000Y-4380000D01*
X8569000Y-4435979D01*
X8534177Y-4421519D01*
X8491013Y-4421481D01*
X8451120Y-4437965D01*
X8420572Y-4468460D01*
X8404019Y-4508323D01*
X8403981Y-4551487D01*
X8420465Y-4591380D01*
X8450960Y-4621928D01*
X8490823Y-4638481D01*
X8533987Y-4638519D01*
X8569000Y-4624052D01*
X8569000Y-4735979D01*
X8534177Y-4721519D01*
X8491013Y-4721481D01*
X8451120Y-4737965D01*
X8420572Y-4768460D01*
X8404019Y-4808323D01*
X8403981Y-4851487D01*
X8420465Y-4891380D01*
X8450960Y-4921928D01*
X8490823Y-4938481D01*
X8533987Y-4938519D01*
X8569000Y-4924052D01*
X8569000Y-4980000D01*
X8574405Y-5007171D01*
X8589795Y-5030205D01*
X8612830Y-5045595D01*
X8640000Y-5051000D01*
X8729000Y-5051000D01*
X8729000Y-7488332D01*
X8722355Y-7478006D01*
X8701135Y-7463507D01*
X8682100Y-7459652D01*
X8682100Y-7039810D01*
X8676315Y-7010726D01*
X8676315Y-7010726D01*
X8659840Y-6986070D01*
X7525160Y-5851390D01*
X7500504Y-5834915D01*
X7471420Y-5829130D01*
X7427976Y-5829130D01*
X7424763Y-5825911D01*
X7390410Y-5811646D01*
X7385722Y-5811642D01*
X7275640Y-5701560D01*
X7250984Y-5685085D01*
X7221900Y-5679300D01*
X7086330Y-5679300D01*
X7086330Y-5488940D01*
X7080545Y-5459856D01*
X7064070Y-5435200D01*
X6926493Y-5297623D01*
X6941317Y-5297636D01*
X6975694Y-5283432D01*
X7002019Y-5257153D01*
X7016284Y-5222800D01*
X7016316Y-5185603D01*
X7002112Y-5151226D01*
X6975833Y-5124901D01*
X6941480Y-5110636D01*
X6934481Y-5110630D01*
X6916784Y-5098805D01*
X6887700Y-5093020D01*
X5764240Y-5093020D01*
X5735156Y-5098805D01*
X5710500Y-5115280D01*
X5406162Y-5419618D01*
X5401613Y-5419614D01*
X5367236Y-5433818D01*
X5340911Y-5460097D01*
X5326646Y-5494450D01*
X5326614Y-5531647D01*
X5340818Y-5566024D01*
X5367097Y-5592349D01*
X5401450Y-5606614D01*
X5413116Y-5606624D01*
X5002838Y-6016902D01*
X4986363Y-6041558D01*
X4980578Y-6070642D01*
X4980578Y-11074622D01*
X4198940Y-11856260D01*
X4182465Y-11880916D01*
X4176680Y-11910000D01*
X4176680Y-12327190D01*
X4182465Y-12356274D01*
X4198940Y-12380930D01*
X4302664Y-12484654D01*
X4278612Y-12520651D01*
X4267204Y-12578000D01*
X4278612Y-12635349D01*
X4311097Y-12683967D01*
X4359715Y-12716453D01*
X4417064Y-12727860D01*
X4422936Y-12727860D01*
X4480285Y-12716453D01*
X4513907Y-12693987D01*
X4613300Y-12793380D01*
X4637956Y-12809855D01*
X4667040Y-12815640D01*
X5097627Y-12815640D01*
X5096500Y-12821307D01*
X5096500Y-12978693D01*
X5105140Y-13022127D01*
X5129743Y-13058949D01*
X5166565Y-13083553D01*
X5210000Y-13092193D01*
X5253435Y-13083553D01*
X5290257Y-13058949D01*
X5311783Y-13026733D01*
X5886330Y-13601280D01*
X5910986Y-13617755D01*
X5940070Y-13623540D01*
X7079930Y-13623540D01*
X7109014Y-13617755D01*
X7133670Y-13601280D01*
X7708217Y-13026733D01*
X7729743Y-13058949D01*
X7766565Y-13083553D01*
X7810000Y-13092193D01*
X7853435Y-13083553D01*
X7890257Y-13058949D01*
X7914860Y-13022127D01*
X7923500Y-12978693D01*
X7923500Y-12821307D01*
X7914860Y-12777872D01*
X7890257Y-12741050D01*
X7853435Y-12716447D01*
X7810000Y-12707807D01*
X7766565Y-12716447D01*
X7729743Y-12741050D01*
X7705140Y-12777872D01*
X7696500Y-12821307D01*
X7696500Y-12831045D01*
X7673730Y-12846260D01*
X7048450Y-13471540D01*
X6913500Y-13471540D01*
X6913500Y-13406075D01*
X6897625Y-13390200D01*
X6812700Y-13390200D01*
X6812700Y-13392200D01*
X6787300Y-13392200D01*
X6787300Y-13390200D01*
X6702375Y-13390200D01*
X6686500Y-13406075D01*
X6686500Y-13471540D01*
X6514744Y-13471540D01*
X6514744Y-13240000D01*
X6512367Y-13227369D01*
X6686500Y-13227369D01*
X6686500Y-13348925D01*
X6702375Y-13364800D01*
X6787300Y-13364800D01*
X6787300Y-13192375D01*
X6812700Y-13192375D01*
X6812700Y-13364800D01*
X6897625Y-13364800D01*
X6913500Y-13348925D01*
X6913500Y-13227369D01*
X6903833Y-13204030D01*
X6885970Y-13186167D01*
X6862631Y-13176500D01*
X6828575Y-13176500D01*
X6812700Y-13192375D01*
X6787300Y-13192375D01*
X6771425Y-13176500D01*
X6737369Y-13176500D01*
X6714030Y-13186167D01*
X6696167Y-13204030D01*
X6686500Y-13227369D01*
X6512367Y-13227369D01*
X6510316Y-13216468D01*
X6496409Y-13194856D01*
X6476000Y-13180911D01*
X6476000Y-12998728D01*
X6495144Y-12986409D01*
X6509643Y-12965189D01*
X6514744Y-12940000D01*
X6514744Y-12831075D01*
X6686500Y-12831075D01*
X6686500Y-12952631D01*
X6696167Y-12975970D01*
X6714030Y-12993833D01*
X6737369Y-13003500D01*
X6771425Y-13003500D01*
X6787300Y-12987625D01*
X6787300Y-12815200D01*
X6812700Y-12815200D01*
X6812700Y-12987625D01*
X6828575Y-13003500D01*
X6862631Y-13003500D01*
X6885970Y-12993833D01*
X6903833Y-12975970D01*
X6913500Y-12952631D01*
X6913500Y-12831075D01*
X6897625Y-12815200D01*
X6812700Y-12815200D01*
X6787300Y-12815200D01*
X6702375Y-12815200D01*
X6686500Y-12831075D01*
X6514744Y-12831075D01*
X6514744Y-12665000D01*
X6512367Y-12652369D01*
X6686500Y-12652369D01*
X6686500Y-12773925D01*
X6702375Y-12789800D01*
X6787300Y-12789800D01*
X6787300Y-12617375D01*
X6812700Y-12617375D01*
X6812700Y-12789800D01*
X6897625Y-12789800D01*
X6913500Y-12773925D01*
X6913500Y-12652369D01*
X6903833Y-12629030D01*
X6885970Y-12611167D01*
X6862631Y-12601500D01*
X6828575Y-12601500D01*
X6812700Y-12617375D01*
X6787300Y-12617375D01*
X6771425Y-12601500D01*
X6737369Y-12601500D01*
X6714030Y-12611167D01*
X6696167Y-12629030D01*
X6686500Y-12652369D01*
X6512367Y-12652369D01*
X6510316Y-12641468D01*
X6496409Y-12619856D01*
X6475189Y-12605357D01*
X6450000Y-12600256D01*
X6350000Y-12600256D01*
X6326468Y-12604684D01*
X6304856Y-12618591D01*
X6290357Y-12639811D01*
X6285256Y-12665000D01*
X6285256Y-12816860D01*
X6213500Y-12816860D01*
X6213500Y-12706075D01*
X6197625Y-12690200D01*
X6112700Y-12690200D01*
X6112700Y-12692200D01*
X6087300Y-12692200D01*
X6087300Y-12690200D01*
X6002375Y-12690200D01*
X5986500Y-12706075D01*
X5986500Y-12816860D01*
X5814367Y-12816860D01*
X5814744Y-12815000D01*
X5814744Y-12540000D01*
X5812367Y-12527369D01*
X5986500Y-12527369D01*
X5986500Y-12648925D01*
X6002375Y-12664800D01*
X6087300Y-12664800D01*
X6087300Y-12492375D01*
X6112700Y-12492375D01*
X6112700Y-12664800D01*
X6197625Y-12664800D01*
X6213500Y-12648925D01*
X6213500Y-12527369D01*
X6203833Y-12504030D01*
X6185970Y-12486167D01*
X6162631Y-12476500D01*
X6128575Y-12476500D01*
X6112700Y-12492375D01*
X6087300Y-12492375D01*
X6071425Y-12476500D01*
X6037369Y-12476500D01*
X6014030Y-12486167D01*
X5996167Y-12504030D01*
X5986500Y-12527369D01*
X5812367Y-12527369D01*
X5810316Y-12516468D01*
X5796409Y-12494856D01*
X5776000Y-12480911D01*
X5776000Y-12298728D01*
X5795144Y-12286409D01*
X5809643Y-12265189D01*
X5814744Y-12240000D01*
X5814744Y-12086604D01*
X5824000Y-12095860D01*
X5824000Y-12143540D01*
X5829785Y-12172624D01*
X5846260Y-12197280D01*
X5977190Y-12328210D01*
X6001846Y-12344685D01*
X6030930Y-12350470D01*
X7024000Y-12350470D01*
X7024000Y-12481272D01*
X7004856Y-12493591D01*
X6990357Y-12514811D01*
X6985256Y-12540000D01*
X6985256Y-12815000D01*
X6989684Y-12838532D01*
X7003591Y-12860144D01*
X7024811Y-12874643D01*
X7050000Y-12879744D01*
X7150000Y-12879744D01*
X7173532Y-12875316D01*
X7195144Y-12861409D01*
X7209643Y-12840189D01*
X7214744Y-12815000D01*
X7214744Y-12706075D01*
X7386500Y-12706075D01*
X7386500Y-12827631D01*
X7396167Y-12850970D01*
X7414030Y-12868833D01*
X7437369Y-12878500D01*
X7471425Y-12878500D01*
X7487300Y-12862625D01*
X7487300Y-12690200D01*
X7512700Y-12690200D01*
X7512700Y-12862625D01*
X7528575Y-12878500D01*
X7562631Y-12878500D01*
X7585970Y-12868833D01*
X7603833Y-12850970D01*
X7613500Y-12827631D01*
X7613500Y-12706075D01*
X7597625Y-12690200D01*
X7512700Y-12690200D01*
X7487300Y-12690200D01*
X7402375Y-12690200D01*
X7386500Y-12706075D01*
X7214744Y-12706075D01*
X7214744Y-12540000D01*
X7212367Y-12527369D01*
X7386500Y-12527369D01*
X7386500Y-12648925D01*
X7402375Y-12664800D01*
X7487300Y-12664800D01*
X7487300Y-12492375D01*
X7512700Y-12492375D01*
X7512700Y-12664800D01*
X7597625Y-12664800D01*
X7613500Y-12648925D01*
X7613500Y-12527369D01*
X7612022Y-12523800D01*
X8159056Y-12523800D01*
X8159056Y-12676200D01*
X8163484Y-12699732D01*
X8177391Y-12721344D01*
X8198611Y-12735843D01*
X8223800Y-12740944D01*
X8376200Y-12740944D01*
X8399732Y-12736516D01*
X8421344Y-12722609D01*
X8435843Y-12701389D01*
X8440944Y-12676200D01*
X8440944Y-12523800D01*
X8436516Y-12500268D01*
X8422609Y-12478656D01*
X8401389Y-12464157D01*
X8376200Y-12459056D01*
X8223800Y-12459056D01*
X8200268Y-12463484D01*
X8178656Y-12477391D01*
X8164157Y-12498611D01*
X8159056Y-12523800D01*
X7612022Y-12523800D01*
X7603833Y-12504030D01*
X7585970Y-12486167D01*
X7562631Y-12476500D01*
X7528575Y-12476500D01*
X7512700Y-12492375D01*
X7487300Y-12492375D01*
X7471425Y-12476500D01*
X7437369Y-12476500D01*
X7414030Y-12486167D01*
X7396167Y-12504030D01*
X7386500Y-12527369D01*
X7212367Y-12527369D01*
X7210316Y-12516468D01*
X7196409Y-12494856D01*
X7176000Y-12480911D01*
X7176000Y-12298728D01*
X7195144Y-12286409D01*
X7209643Y-12265189D01*
X7214744Y-12240000D01*
X7214744Y-12131075D01*
X7386500Y-12131075D01*
X7386500Y-12252631D01*
X7396167Y-12275970D01*
X7414030Y-12293833D01*
X7437369Y-12303500D01*
X7471425Y-12303500D01*
X7487300Y-12287625D01*
X7487300Y-12115200D01*
X7512700Y-12115200D01*
X7512700Y-12287625D01*
X7528575Y-12303500D01*
X7562631Y-12303500D01*
X7585970Y-12293833D01*
X7603833Y-12275970D01*
X7613500Y-12252631D01*
X7613500Y-12131075D01*
X7597625Y-12115200D01*
X7512700Y-12115200D01*
X7487300Y-12115200D01*
X7402375Y-12115200D01*
X7386500Y-12131075D01*
X7214744Y-12131075D01*
X7214744Y-11965000D01*
X7212367Y-11952369D01*
X7386500Y-11952369D01*
X7386500Y-12073925D01*
X7402375Y-12089800D01*
X7487300Y-12089800D01*
X7487300Y-11917375D01*
X7512700Y-11917375D01*
X7512700Y-12089800D01*
X7597625Y-12089800D01*
X7613500Y-12073925D01*
X7613500Y-11952369D01*
X7603833Y-11929030D01*
X7585970Y-11911167D01*
X7562631Y-11901500D01*
X7528575Y-11901500D01*
X7512700Y-11917375D01*
X7487300Y-11917375D01*
X7471425Y-11901500D01*
X7437369Y-11901500D01*
X7414030Y-11911167D01*
X7396167Y-11929030D01*
X7386500Y-11952369D01*
X7212367Y-11952369D01*
X7210316Y-11941468D01*
X7196409Y-11919856D01*
X7175189Y-11905357D01*
X7150000Y-11900256D01*
X7050000Y-11900256D01*
X7026468Y-11904684D01*
X7004856Y-11918591D01*
X6990357Y-11939811D01*
X6985256Y-11965000D01*
X6985256Y-12198470D01*
X6213500Y-12198470D01*
X6213500Y-12131075D01*
X6197625Y-12115200D01*
X6112700Y-12115200D01*
X6112700Y-12117200D01*
X6087300Y-12117200D01*
X6087300Y-12115200D01*
X6002375Y-12115200D01*
X5990758Y-12126817D01*
X5976000Y-12112060D01*
X5976000Y-12064380D01*
X5973836Y-12053500D01*
X5970215Y-12035296D01*
X5953740Y-12010640D01*
X5895469Y-11952369D01*
X5986500Y-11952369D01*
X5986500Y-12073925D01*
X6002375Y-12089800D01*
X6087300Y-12089800D01*
X6087300Y-11917375D01*
X6112700Y-11917375D01*
X6112700Y-12089800D01*
X6197625Y-12089800D01*
X6213500Y-12073925D01*
X6213500Y-11952369D01*
X6203833Y-11929030D01*
X6185970Y-11911167D01*
X6162631Y-11901500D01*
X6128575Y-11901500D01*
X6112700Y-11917375D01*
X6087300Y-11917375D01*
X6071425Y-11901500D01*
X6037369Y-11901500D01*
X6014030Y-11911167D01*
X5996167Y-11929030D01*
X5986500Y-11952369D01*
X5895469Y-11952369D01*
X5793870Y-11850770D01*
X5769214Y-11834295D01*
X5740130Y-11828510D01*
X5222580Y-11828510D01*
X5222580Y-11169101D01*
X5275588Y-11189407D01*
X5350538Y-11187393D01*
X5410428Y-11162586D01*
X5423348Y-11133309D01*
X5308000Y-11017961D01*
X5306586Y-11019375D01*
X5288625Y-11001414D01*
X5290040Y-11000000D01*
X5325961Y-11000000D01*
X5441309Y-11115348D01*
X5470586Y-11102428D01*
X5497407Y-11032412D01*
X5495393Y-10957462D01*
X5470586Y-10897573D01*
X5441309Y-10884652D01*
X5325961Y-11000000D01*
X5290040Y-11000000D01*
X5288625Y-10998586D01*
X5306586Y-10980625D01*
X5308000Y-10982040D01*
X5423348Y-10866691D01*
X5410428Y-10837414D01*
X5340412Y-10810593D01*
X5265462Y-10812607D01*
X5222580Y-10830369D01*
X5222580Y-10143172D01*
X5225355Y-10157124D01*
X5241830Y-10181780D01*
X6294215Y-11234165D01*
X6290357Y-11239811D01*
X6285256Y-11265000D01*
X6285256Y-11540000D01*
X6289684Y-11563532D01*
X6303591Y-11585144D01*
X6324000Y-11599089D01*
X6324000Y-11781272D01*
X6304856Y-11793591D01*
X6290357Y-11814811D01*
X6285256Y-11840000D01*
X6285256Y-12115000D01*
X6289684Y-12138532D01*
X6303591Y-12160144D01*
X6324811Y-12174643D01*
X6350000Y-12179744D01*
X6450000Y-12179744D01*
X6473532Y-12175316D01*
X6495144Y-12161409D01*
X6509643Y-12140189D01*
X6514744Y-12115000D01*
X6514744Y-12006075D01*
X6686500Y-12006075D01*
X6686500Y-12127631D01*
X6696167Y-12150970D01*
X6714030Y-12168833D01*
X6737369Y-12178500D01*
X6771425Y-12178500D01*
X6787300Y-12162625D01*
X6787300Y-11990200D01*
X6812700Y-11990200D01*
X6812700Y-12162625D01*
X6828575Y-12178500D01*
X6862631Y-12178500D01*
X6885970Y-12168833D01*
X6903833Y-12150970D01*
X6913500Y-12127631D01*
X6913500Y-12006075D01*
X6897625Y-11990200D01*
X6812700Y-11990200D01*
X6787300Y-11990200D01*
X6702375Y-11990200D01*
X6686500Y-12006075D01*
X6514744Y-12006075D01*
X6514744Y-11840000D01*
X6512367Y-11827369D01*
X6686500Y-11827369D01*
X6686500Y-11948925D01*
X6702375Y-11964800D01*
X6787300Y-11964800D01*
X6787300Y-11792375D01*
X6812700Y-11792375D01*
X6812700Y-11964800D01*
X6897625Y-11964800D01*
X6913500Y-11948925D01*
X6913500Y-11827369D01*
X6903833Y-11804030D01*
X6885970Y-11786167D01*
X6862631Y-11776500D01*
X6828575Y-11776500D01*
X6812700Y-11792375D01*
X6787300Y-11792375D01*
X6771425Y-11776500D01*
X6737369Y-11776500D01*
X6714030Y-11786167D01*
X6696167Y-11804030D01*
X6686500Y-11827369D01*
X6512367Y-11827369D01*
X6510316Y-11816468D01*
X6496409Y-11794856D01*
X6476000Y-11780911D01*
X6476000Y-11598728D01*
X6495144Y-11586409D01*
X6509643Y-11565189D01*
X6514744Y-11540000D01*
X6514744Y-11431075D01*
X6686500Y-11431075D01*
X6686500Y-11552631D01*
X6696167Y-11575970D01*
X6714030Y-11593833D01*
X6737369Y-11603500D01*
X6771425Y-11603500D01*
X6787300Y-11587625D01*
X6787300Y-11415200D01*
X6812700Y-11415200D01*
X6812700Y-11587625D01*
X6828575Y-11603500D01*
X6862631Y-11603500D01*
X6885970Y-11593833D01*
X6903833Y-11575970D01*
X6913500Y-11552631D01*
X6913500Y-11431075D01*
X6897625Y-11415200D01*
X6812700Y-11415200D01*
X6787300Y-11415200D01*
X6702375Y-11415200D01*
X6686500Y-11431075D01*
X6514744Y-11431075D01*
X6514744Y-11265000D01*
X6512367Y-11252369D01*
X6686500Y-11252369D01*
X6686500Y-11373925D01*
X6702375Y-11389800D01*
X6787300Y-11389800D01*
X6787300Y-11217375D01*
X6812700Y-11217375D01*
X6812700Y-11389800D01*
X6897625Y-11389800D01*
X6913500Y-11373925D01*
X6913500Y-11252369D01*
X6903833Y-11229030D01*
X6885970Y-11211167D01*
X6862631Y-11201500D01*
X6828575Y-11201500D01*
X6812700Y-11217375D01*
X6787300Y-11217375D01*
X6771425Y-11201500D01*
X6737369Y-11201500D01*
X6714030Y-11211167D01*
X6696167Y-11229030D01*
X6686500Y-11252369D01*
X6512367Y-11252369D01*
X6510316Y-11241468D01*
X6496409Y-11219856D01*
X6475189Y-11205357D01*
X6470414Y-11204390D01*
X6470215Y-11203386D01*
X6453740Y-11178730D01*
X5371570Y-10096560D01*
X5371570Y-9620852D01*
X5376617Y-9620856D01*
X5410994Y-9606652D01*
X5437319Y-9580373D01*
X5451584Y-9546020D01*
X5451616Y-9508823D01*
X5437412Y-9474446D01*
X5434100Y-9471128D01*
X5434100Y-9114927D01*
X5676814Y-9114927D01*
X5691018Y-9149304D01*
X5717297Y-9175629D01*
X5751650Y-9189894D01*
X5788847Y-9189926D01*
X5802342Y-9184350D01*
X6475600Y-9184350D01*
X8054238Y-10762988D01*
X8054234Y-10767537D01*
X8068438Y-10801914D01*
X8094717Y-10828239D01*
X8129070Y-10842504D01*
X8166267Y-10842536D01*
X8200644Y-10828332D01*
X8226969Y-10802053D01*
X8241234Y-10767700D01*
X8241266Y-10730503D01*
X8227062Y-10696126D01*
X8200783Y-10669801D01*
X8166430Y-10655536D01*
X8161742Y-10655532D01*
X7986629Y-10480419D01*
X8524542Y-10480419D01*
X8530707Y-10503980D01*
X8580748Y-10521593D01*
X8633720Y-10518715D01*
X8669293Y-10503980D01*
X8675458Y-10480419D01*
X8600000Y-10404961D01*
X8524542Y-10480419D01*
X7986629Y-10480419D01*
X7873958Y-10367748D01*
X8465407Y-10367748D01*
X8468285Y-10420720D01*
X8483020Y-10456293D01*
X8506581Y-10462458D01*
X8582040Y-10387000D01*
X8506581Y-10311542D01*
X8483020Y-10317707D01*
X8465407Y-10367748D01*
X7873958Y-10367748D01*
X6560820Y-9054610D01*
X6536164Y-9038135D01*
X6507080Y-9032350D01*
X5838495Y-9032350D01*
X5823363Y-9017191D01*
X5789010Y-9002926D01*
X5751813Y-9002894D01*
X5717436Y-9017098D01*
X5691111Y-9043377D01*
X5676846Y-9077730D01*
X5676814Y-9114927D01*
X5434100Y-9114927D01*
X5434100Y-8394664D01*
X5457820Y-8404514D01*
X5495017Y-8404546D01*
X5495056Y-8404530D01*
X6869151Y-8404530D01*
X8483527Y-10018906D01*
X8470507Y-10037961D01*
X8465406Y-10063150D01*
X8465406Y-10202850D01*
X8469834Y-10226382D01*
X8483741Y-10247994D01*
X8504961Y-10262493D01*
X8530150Y-10267594D01*
X8536564Y-10267594D01*
X8530707Y-10270020D01*
X8524542Y-10293581D01*
X8600000Y-10369040D01*
X8675458Y-10293581D01*
X8669293Y-10270020D01*
X8662400Y-10267594D01*
X8669850Y-10267594D01*
X8693382Y-10263166D01*
X8714994Y-10249259D01*
X8729000Y-10228761D01*
X8729000Y-10346726D01*
X8716980Y-10317707D01*
X8693419Y-10311542D01*
X8617961Y-10387000D01*
X8693419Y-10462458D01*
X8716980Y-10456293D01*
X8729000Y-10422142D01*
X8729000Y-10829000D01*
X8640000Y-10829000D01*
X8612830Y-10834405D01*
X8589795Y-10849795D01*
X8574405Y-10872830D01*
X8569000Y-10900000D01*
X8569000Y-10955979D01*
X8534177Y-10941519D01*
X8491013Y-10941481D01*
X8451120Y-10957965D01*
X8420572Y-10988460D01*
X8404019Y-11028323D01*
X8403981Y-11071487D01*
X8420465Y-11111380D01*
X8450960Y-11141928D01*
X8490823Y-11158481D01*
X8533987Y-11158519D01*
X8569000Y-11144052D01*
X8569000Y-11255979D01*
X8534177Y-11241519D01*
X8491013Y-11241481D01*
X8451120Y-11257965D01*
X8420572Y-11288459D01*
X8404019Y-11328323D01*
X8403981Y-11371487D01*
X8420465Y-11411380D01*
X8450960Y-11441928D01*
X8490823Y-11458481D01*
X8533987Y-11458519D01*
X8569000Y-11444052D01*
X8569000Y-11500000D01*
X8574405Y-11527170D01*
X8589795Y-11550205D01*
X8612830Y-11565595D01*
X8640000Y-11571000D01*
X8729000Y-11571000D01*
X8729000Y-13929000D01*
X5077465Y-13929000D01*
X5077570Y-13928843D01*
X5086210Y-13885408D01*
X5086210Y-13828021D01*
X7969939Y-13828021D01*
X7976886Y-13852240D01*
X8029230Y-13870914D01*
X8084737Y-13868136D01*
X8123114Y-13852240D01*
X8130061Y-13828021D01*
X8050000Y-13747960D01*
X7969939Y-13828021D01*
X5086210Y-13828021D01*
X5086210Y-13824884D01*
X5077570Y-13781449D01*
X5052967Y-13744627D01*
X5016145Y-13720023D01*
X4972710Y-13711384D01*
X4929275Y-13720023D01*
X4892453Y-13744627D01*
X4867850Y-13781449D01*
X4859210Y-13824884D01*
X4859210Y-13885408D01*
X4867850Y-13928843D01*
X4867955Y-13929000D01*
X4377465Y-13929000D01*
X4377570Y-13928843D01*
X4386210Y-13885408D01*
X4386210Y-13824884D01*
X4377570Y-13781449D01*
X4352967Y-13744627D01*
X4316145Y-13720023D01*
X4272710Y-13711384D01*
X4229275Y-13720023D01*
X4192453Y-13744627D01*
X4167850Y-13781449D01*
X4159210Y-13824884D01*
X4159210Y-13885408D01*
X4167850Y-13928843D01*
X4167955Y-13929000D01*
X4071000Y-13929000D01*
X4071000Y-13709230D01*
X7909086Y-13709230D01*
X7911864Y-13764737D01*
X7927760Y-13803114D01*
X7951979Y-13810061D01*
X8032039Y-13730000D01*
X8067960Y-13730000D01*
X8148021Y-13810061D01*
X8163056Y-13805748D01*
X8163056Y-13806200D01*
X8167484Y-13829732D01*
X8181391Y-13851344D01*
X8202611Y-13865843D01*
X8227800Y-13870944D01*
X8380200Y-13870944D01*
X8403732Y-13866516D01*
X8425344Y-13852609D01*
X8439843Y-13831389D01*
X8444944Y-13806200D01*
X8444944Y-13653800D01*
X8440516Y-13630268D01*
X8426609Y-13608656D01*
X8405389Y-13594157D01*
X8380200Y-13589056D01*
X8227800Y-13589056D01*
X8204268Y-13593484D01*
X8182656Y-13607391D01*
X8168157Y-13628611D01*
X8163056Y-13653800D01*
X8163056Y-13654252D01*
X8148021Y-13649939D01*
X8067960Y-13730000D01*
X8032039Y-13730000D01*
X7951979Y-13649939D01*
X7927760Y-13656886D01*
X7909086Y-13709230D01*
X4071000Y-13709230D01*
X4071000Y-13585146D01*
X4244242Y-13585146D01*
X4252691Y-13627624D01*
X4276753Y-13663635D01*
X4312764Y-13687697D01*
X4355242Y-13696146D01*
X4390179Y-13696146D01*
X4432656Y-13687697D01*
X4468667Y-13663635D01*
X4492729Y-13627624D01*
X4501179Y-13585146D01*
X4744242Y-13585146D01*
X4752691Y-13627624D01*
X4776753Y-13663635D01*
X4812764Y-13687697D01*
X4855242Y-13696146D01*
X4890179Y-13696146D01*
X4932656Y-13687697D01*
X4968667Y-13663635D01*
X4989819Y-13631979D01*
X7969939Y-13631979D01*
X8050000Y-13712039D01*
X8130061Y-13631979D01*
X8123114Y-13607760D01*
X8070770Y-13589086D01*
X8015263Y-13591864D01*
X7976886Y-13607760D01*
X7969939Y-13631979D01*
X4989819Y-13631979D01*
X4992729Y-13627624D01*
X5001179Y-13585146D01*
X4992729Y-13542668D01*
X4968667Y-13506657D01*
X4932656Y-13482595D01*
X4890179Y-13474146D01*
X4855242Y-13474146D01*
X4812764Y-13482595D01*
X4776753Y-13506657D01*
X4752691Y-13542668D01*
X4744242Y-13585146D01*
X4501179Y-13585146D01*
X4492729Y-13542668D01*
X4468667Y-13506657D01*
X4432656Y-13482595D01*
X4390179Y-13474146D01*
X4355242Y-13474146D01*
X4312764Y-13482595D01*
X4276753Y-13506657D01*
X4252691Y-13542668D01*
X4244242Y-13585146D01*
X4071000Y-13585146D01*
X4071000Y-11037324D01*
X4103499Y-11037324D01*
X4132131Y-11106619D01*
X4185102Y-11159682D01*
X4254347Y-11188435D01*
X4329324Y-11188501D01*
X4398619Y-11159869D01*
X4451682Y-11106898D01*
X4480435Y-11037653D01*
X4480501Y-10962676D01*
X4451869Y-10893381D01*
X4398898Y-10840318D01*
X4329653Y-10811565D01*
X4254676Y-10811499D01*
X4185381Y-10840131D01*
X4132318Y-10893102D01*
X4103565Y-10962347D01*
X4103499Y-11037324D01*
X4071000Y-11037324D01*
X4071000Y-4393150D01*
X7745406Y-4393150D01*
X7745406Y-4532850D01*
X7749834Y-4556382D01*
X7763741Y-4577994D01*
X7784961Y-4592493D01*
X7810150Y-4597594D01*
X7819788Y-4597594D01*
X7804562Y-4603885D01*
X7767017Y-4641365D01*
X7746673Y-4690359D01*
X7746627Y-4743409D01*
X7766885Y-4792438D01*
X7804365Y-4829983D01*
X7853359Y-4850327D01*
X7906409Y-4850373D01*
X7955438Y-4830115D01*
X7992983Y-4792635D01*
X8013327Y-4743641D01*
X8013373Y-4690591D01*
X7993115Y-4641562D01*
X7955635Y-4604017D01*
X7940166Y-4597594D01*
X7949850Y-4597594D01*
X7973382Y-4593166D01*
X7994994Y-4579259D01*
X8009493Y-4558039D01*
X8014594Y-4532850D01*
X8014594Y-4393150D01*
X8010166Y-4369618D01*
X7996259Y-4348006D01*
X7975039Y-4333507D01*
X7949850Y-4328406D01*
X7810150Y-4328406D01*
X7786618Y-4332834D01*
X7765006Y-4346741D01*
X7750507Y-4367961D01*
X7745406Y-4393150D01*
X4071000Y-4393150D01*
X4071000Y-4071000D01*
X8729000Y-4071000D01*
X8729000Y-4309000D01*
G36*
X6303591Y-12985144D02*
X6324000Y-12999089D01*
X6324000Y-13181272D01*
X6304856Y-13193591D01*
X6290357Y-13214811D01*
X6285256Y-13240000D01*
X6285256Y-13471540D01*
X5971550Y-13471540D01*
X5468870Y-12968860D01*
X6293112Y-12968860D01*
X6303591Y-12985144D01*
X6303591Y-12985144D01*
G37*
X6303591Y-12985144D02*
X6324000Y-12999089D01*
X6324000Y-13181272D01*
X6304856Y-13193591D01*
X6290357Y-13214811D01*
X6285256Y-13240000D01*
X6285256Y-13471540D01*
X5971550Y-13471540D01*
X5468870Y-12968860D01*
X6293112Y-12968860D01*
X6303591Y-12985144D01*
G36*
X5603591Y-12285144D02*
X5624000Y-12299089D01*
X5624000Y-12481272D01*
X5604856Y-12493591D01*
X5590357Y-12514811D01*
X5585256Y-12540000D01*
X5585256Y-12815000D01*
X5585606Y-12816860D01*
X5473140Y-12816860D01*
X5396338Y-12740058D01*
X5434737Y-12738136D01*
X5473114Y-12722240D01*
X5480061Y-12698021D01*
X5400000Y-12617960D01*
X5398586Y-12619375D01*
X5380625Y-12601414D01*
X5382040Y-12600000D01*
X5417961Y-12600000D01*
X5498021Y-12680061D01*
X5522240Y-12673114D01*
X5540914Y-12620770D01*
X5538136Y-12565263D01*
X5522240Y-12526886D01*
X5498021Y-12519939D01*
X5417961Y-12600000D01*
X5382040Y-12600000D01*
X5301979Y-12519939D01*
X5277760Y-12526886D01*
X5259086Y-12579230D01*
X5261864Y-12634737D01*
X5273836Y-12663640D01*
X4794834Y-12663640D01*
X4802269Y-12655495D01*
X4819496Y-12613903D01*
X4807382Y-12590700D01*
X4686700Y-12590700D01*
X4686700Y-12592700D01*
X4661300Y-12592700D01*
X4661300Y-12590700D01*
X4659300Y-12590700D01*
X4659300Y-12565300D01*
X4661300Y-12565300D01*
X4661300Y-12563300D01*
X4686700Y-12563300D01*
X4686700Y-12565300D01*
X4807382Y-12565300D01*
X4819496Y-12542097D01*
X4802879Y-12501979D01*
X5319939Y-12501979D01*
X5400000Y-12582039D01*
X5480061Y-12501979D01*
X5473114Y-12477760D01*
X5420770Y-12459086D01*
X5365263Y-12461864D01*
X5326886Y-12477760D01*
X5319939Y-12501979D01*
X4802879Y-12501979D01*
X4802269Y-12500505D01*
X4762849Y-12457318D01*
X4750577Y-12451566D01*
X4782903Y-12429967D01*
X4815389Y-12381349D01*
X4826796Y-12324000D01*
X4816651Y-12273000D01*
X5595776Y-12273000D01*
X5603591Y-12285144D01*
X5603591Y-12285144D01*
G37*
X5603591Y-12285144D02*
X5624000Y-12299089D01*
X5624000Y-12481272D01*
X5604856Y-12493591D01*
X5590357Y-12514811D01*
X5585256Y-12540000D01*
X5585256Y-12815000D01*
X5585606Y-12816860D01*
X5473140Y-12816860D01*
X5396338Y-12740058D01*
X5434737Y-12738136D01*
X5473114Y-12722240D01*
X5480061Y-12698021D01*
X5400000Y-12617960D01*
X5398586Y-12619375D01*
X5380625Y-12601414D01*
X5382040Y-12600000D01*
X5417961Y-12600000D01*
X5498021Y-12680061D01*
X5522240Y-12673114D01*
X5540914Y-12620770D01*
X5538136Y-12565263D01*
X5522240Y-12526886D01*
X5498021Y-12519939D01*
X5417961Y-12600000D01*
X5382040Y-12600000D01*
X5301979Y-12519939D01*
X5277760Y-12526886D01*
X5259086Y-12579230D01*
X5261864Y-12634737D01*
X5273836Y-12663640D01*
X4794834Y-12663640D01*
X4802269Y-12655495D01*
X4819496Y-12613903D01*
X4807382Y-12590700D01*
X4686700Y-12590700D01*
X4686700Y-12592700D01*
X4661300Y-12592700D01*
X4661300Y-12590700D01*
X4659300Y-12590700D01*
X4659300Y-12565300D01*
X4661300Y-12565300D01*
X4661300Y-12563300D01*
X4686700Y-12563300D01*
X4686700Y-12565300D01*
X4807382Y-12565300D01*
X4819496Y-12542097D01*
X4802879Y-12501979D01*
X5319939Y-12501979D01*
X5400000Y-12582039D01*
X5480061Y-12501979D01*
X5473114Y-12477760D01*
X5420770Y-12459086D01*
X5365263Y-12461864D01*
X5326886Y-12477760D01*
X5319939Y-12501979D01*
X4802879Y-12501979D01*
X4802269Y-12500505D01*
X4762849Y-12457318D01*
X4750577Y-12451566D01*
X4782903Y-12429967D01*
X4815389Y-12381349D01*
X4826796Y-12324000D01*
X4816651Y-12273000D01*
X5595776Y-12273000D01*
X5603591Y-12285144D01*
G36*
X5585256Y-12121000D02*
X4816651Y-12121000D01*
X4826796Y-12070000D01*
X4815389Y-12012651D01*
X4793913Y-11980510D01*
X5585256Y-11980510D01*
X5585256Y-12121000D01*
X5585256Y-12121000D01*
G37*
X5585256Y-12121000D02*
X4816651Y-12121000D01*
X4826796Y-12070000D01*
X4815389Y-12012651D01*
X4793913Y-11980510D01*
X5585256Y-11980510D01*
X5585256Y-12121000D01*
G36*
X5070580Y-11828510D02*
X4667230Y-11828510D01*
X4638146Y-11834295D01*
X4613490Y-11850770D01*
X4536726Y-11927534D01*
X4531549Y-11923997D01*
X4506360Y-11918896D01*
X4414905Y-11918896D01*
X5070580Y-11263221D01*
X5070580Y-11828510D01*
X5070580Y-11828510D01*
G37*
X5070580Y-11828510D02*
X4667230Y-11828510D01*
X4638146Y-11834295D01*
X4613490Y-11850770D01*
X4536726Y-11927534D01*
X4531549Y-11923997D01*
X4506360Y-11918896D01*
X4414905Y-11918896D01*
X5070580Y-11263221D01*
X5070580Y-11828510D01*
G36*
X8472769Y-9345149D02*
X8472723Y-9397409D01*
X8492981Y-9446438D01*
X8530461Y-9483983D01*
X8558160Y-9495484D01*
X8518466Y-9511885D01*
X8480921Y-9549365D01*
X8460577Y-9598359D01*
X8460531Y-9651409D01*
X8480789Y-9700438D01*
X8518269Y-9737983D01*
X8567263Y-9758327D01*
X8620313Y-9758373D01*
X8669342Y-9738115D01*
X8706887Y-9700635D01*
X8727231Y-9651641D01*
X8727277Y-9599104D01*
X8729000Y-9597380D01*
X8729000Y-10037806D01*
X8716259Y-10018006D01*
X8695039Y-10003507D01*
X8693500Y-10003195D01*
X8693500Y-10003151D01*
X8693500Y-10003150D01*
X8686383Y-9967369D01*
X8686383Y-9967369D01*
X8666115Y-9937036D01*
X6973994Y-8244915D01*
X6943661Y-8224647D01*
X6907880Y-8217530D01*
X6751650Y-8217530D01*
X6751650Y-7624030D01*
X8472769Y-9345149D01*
X8472769Y-9345149D01*
G37*
X8472769Y-9345149D02*
X8472723Y-9397409D01*
X8492981Y-9446438D01*
X8530461Y-9483983D01*
X8558160Y-9495484D01*
X8518466Y-9511885D01*
X8480921Y-9549365D01*
X8460577Y-9598359D01*
X8460531Y-9651409D01*
X8480789Y-9700438D01*
X8518269Y-9737983D01*
X8567263Y-9758327D01*
X8620313Y-9758373D01*
X8669342Y-9738115D01*
X8706887Y-9700635D01*
X8727231Y-9651641D01*
X8727277Y-9599104D01*
X8729000Y-9597380D01*
X8729000Y-10037806D01*
X8716259Y-10018006D01*
X8695039Y-10003507D01*
X8693500Y-10003195D01*
X8693500Y-10003151D01*
X8693500Y-10003150D01*
X8686383Y-9967369D01*
X8686383Y-9967369D01*
X8666115Y-9937036D01*
X6973994Y-8244915D01*
X6943661Y-8224647D01*
X6907880Y-8217530D01*
X6751650Y-8217530D01*
X6751650Y-7624030D01*
X8472769Y-9345149D01*
G36*
X6878800Y-6476950D02*
X6878800Y-6500000D01*
X6884585Y-6529084D01*
X6901060Y-6553740D01*
X6981060Y-6633740D01*
X7005716Y-6650215D01*
X7034800Y-6656000D01*
X7088520Y-6656000D01*
X8314000Y-7881480D01*
X8314000Y-8052313D01*
X8319785Y-8081397D01*
X8336260Y-8106053D01*
X8495259Y-8265052D01*
X8480921Y-8279365D01*
X8460577Y-8328359D01*
X8460531Y-8381409D01*
X8480789Y-8430438D01*
X8518269Y-8467983D01*
X8567263Y-8488327D01*
X8620313Y-8488373D01*
X8669342Y-8468115D01*
X8678150Y-8459322D01*
X8678150Y-8728852D01*
X8675946Y-8728406D01*
X8536246Y-8728406D01*
X8512714Y-8732834D01*
X8491102Y-8746741D01*
X8476603Y-8767961D01*
X8471502Y-8793150D01*
X8471502Y-8932850D01*
X8475930Y-8956382D01*
X8489837Y-8977994D01*
X8511057Y-8992493D01*
X8532365Y-8996808D01*
X8524611Y-9000020D01*
X8518446Y-9023581D01*
X8593904Y-9099040D01*
X8595318Y-9097625D01*
X8613279Y-9115586D01*
X8611865Y-9117000D01*
X8613279Y-9118414D01*
X8595318Y-9136375D01*
X8593904Y-9134961D01*
X8592490Y-9136375D01*
X8574529Y-9118414D01*
X8575944Y-9117000D01*
X8500485Y-9041542D01*
X8476924Y-9047707D01*
X8459311Y-9097748D01*
X8460402Y-9117822D01*
X6817870Y-7475290D01*
X6817870Y-6416020D01*
X6878800Y-6476950D01*
X6878800Y-6476950D01*
G37*
X6878800Y-6476950D02*
X6878800Y-6500000D01*
X6884585Y-6529084D01*
X6901060Y-6553740D01*
X6981060Y-6633740D01*
X7005716Y-6650215D01*
X7034800Y-6656000D01*
X7088520Y-6656000D01*
X8314000Y-7881480D01*
X8314000Y-8052313D01*
X8319785Y-8081397D01*
X8336260Y-8106053D01*
X8495259Y-8265052D01*
X8480921Y-8279365D01*
X8460577Y-8328359D01*
X8460531Y-8381409D01*
X8480789Y-8430438D01*
X8518269Y-8467983D01*
X8567263Y-8488327D01*
X8620313Y-8488373D01*
X8669342Y-8468115D01*
X8678150Y-8459322D01*
X8678150Y-8728852D01*
X8675946Y-8728406D01*
X8536246Y-8728406D01*
X8512714Y-8732834D01*
X8491102Y-8746741D01*
X8476603Y-8767961D01*
X8471502Y-8793150D01*
X8471502Y-8932850D01*
X8475930Y-8956382D01*
X8489837Y-8977994D01*
X8511057Y-8992493D01*
X8532365Y-8996808D01*
X8524611Y-9000020D01*
X8518446Y-9023581D01*
X8593904Y-9099040D01*
X8595318Y-9097625D01*
X8613279Y-9115586D01*
X8611865Y-9117000D01*
X8613279Y-9118414D01*
X8595318Y-9136375D01*
X8593904Y-9134961D01*
X8592490Y-9136375D01*
X8574529Y-9118414D01*
X8575944Y-9117000D01*
X8500485Y-9041542D01*
X8476924Y-9047707D01*
X8459311Y-9097748D01*
X8460402Y-9117822D01*
X6817870Y-7475290D01*
X6817870Y-6416020D01*
X6878800Y-6476950D01*
G36*
X6569060Y-6406034D02*
X6599650Y-6406060D01*
X6599650Y-8217530D01*
X5476582Y-8217530D01*
X5457983Y-8217514D01*
X5434100Y-8227382D01*
X5434100Y-7154780D01*
X5679540Y-7400220D01*
X5704196Y-7416695D01*
X5733280Y-7422480D01*
X6421984Y-7422480D01*
X6425197Y-7425699D01*
X6459550Y-7439964D01*
X6496747Y-7439996D01*
X6531124Y-7425792D01*
X6557449Y-7399513D01*
X6571714Y-7365160D01*
X6571746Y-7327963D01*
X6557542Y-7293586D01*
X6531263Y-7267261D01*
X6496910Y-7252996D01*
X6459713Y-7252964D01*
X6425336Y-7267168D01*
X6422018Y-7270480D01*
X5764760Y-7270480D01*
X5527892Y-7033612D01*
X5527896Y-7029063D01*
X5513692Y-6994686D01*
X5487413Y-6968361D01*
X5453060Y-6954096D01*
X5434100Y-6954080D01*
X5434100Y-6674290D01*
X5435528Y-6672863D01*
X5439357Y-6676699D01*
X5473710Y-6690964D01*
X5483941Y-6690973D01*
X5491906Y-6696295D01*
X5520990Y-6702080D01*
X6286154Y-6702080D01*
X6289367Y-6705299D01*
X6323720Y-6719564D01*
X6360917Y-6719596D01*
X6395294Y-6705392D01*
X6421619Y-6679113D01*
X6421982Y-6678238D01*
X6423088Y-6680914D01*
X6449367Y-6707239D01*
X6483720Y-6721504D01*
X6520917Y-6721536D01*
X6555294Y-6707332D01*
X6581619Y-6681053D01*
X6595884Y-6646700D01*
X6595916Y-6609503D01*
X6581712Y-6575126D01*
X6555433Y-6548801D01*
X6521080Y-6534536D01*
X6516392Y-6534532D01*
X6447434Y-6465573D01*
X6475294Y-6454062D01*
X6501619Y-6427783D01*
X6508665Y-6410814D01*
X6522167Y-6410826D01*
X6551456Y-6398724D01*
X6569060Y-6406034D01*
X6569060Y-6406034D01*
G37*
X6569060Y-6406034D02*
X6599650Y-6406060D01*
X6599650Y-8217530D01*
X5476582Y-8217530D01*
X5457983Y-8217514D01*
X5434100Y-8227382D01*
X5434100Y-7154780D01*
X5679540Y-7400220D01*
X5704196Y-7416695D01*
X5733280Y-7422480D01*
X6421984Y-7422480D01*
X6425197Y-7425699D01*
X6459550Y-7439964D01*
X6496747Y-7439996D01*
X6531124Y-7425792D01*
X6557449Y-7399513D01*
X6571714Y-7365160D01*
X6571746Y-7327963D01*
X6557542Y-7293586D01*
X6531263Y-7267261D01*
X6496910Y-7252996D01*
X6459713Y-7252964D01*
X6425336Y-7267168D01*
X6422018Y-7270480D01*
X5764760Y-7270480D01*
X5527892Y-7033612D01*
X5527896Y-7029063D01*
X5513692Y-6994686D01*
X5487413Y-6968361D01*
X5453060Y-6954096D01*
X5434100Y-6954080D01*
X5434100Y-6674290D01*
X5435528Y-6672863D01*
X5439357Y-6676699D01*
X5473710Y-6690964D01*
X5483941Y-6690973D01*
X5491906Y-6696295D01*
X5520990Y-6702080D01*
X6286154Y-6702080D01*
X6289367Y-6705299D01*
X6323720Y-6719564D01*
X6360917Y-6719596D01*
X6395294Y-6705392D01*
X6421619Y-6679113D01*
X6421982Y-6678238D01*
X6423088Y-6680914D01*
X6449367Y-6707239D01*
X6483720Y-6721504D01*
X6520917Y-6721536D01*
X6555294Y-6707332D01*
X6581619Y-6681053D01*
X6595884Y-6646700D01*
X6595916Y-6609503D01*
X6581712Y-6575126D01*
X6555433Y-6548801D01*
X6521080Y-6534536D01*
X6516392Y-6534532D01*
X6447434Y-6465573D01*
X6475294Y-6454062D01*
X6501619Y-6427783D01*
X6508665Y-6410814D01*
X6522167Y-6410826D01*
X6551456Y-6398724D01*
X6569060Y-6406034D01*
G36*
X8613279Y-7845586D02*
X8611865Y-7847000D01*
X8613279Y-7848414D01*
X8595318Y-7866375D01*
X8593904Y-7864960D01*
X8592490Y-7866375D01*
X8574529Y-7848414D01*
X8575944Y-7847000D01*
X8574529Y-7845586D01*
X8592490Y-7827625D01*
X8593904Y-7829039D01*
X8595318Y-7827625D01*
X8613279Y-7845586D01*
X8613279Y-7845586D01*
G37*
X8613279Y-7845586D02*
X8611865Y-7847000D01*
X8613279Y-7848414D01*
X8595318Y-7866375D01*
X8593904Y-7864960D01*
X8592490Y-7866375D01*
X8574529Y-7848414D01*
X8575944Y-7847000D01*
X8574529Y-7845586D01*
X8592490Y-7827625D01*
X8593904Y-7829039D01*
X8595318Y-7827625D01*
X8613279Y-7845586D01*
G36*
X8530100Y-7071290D02*
X8530100Y-7459562D01*
X8512714Y-7462834D01*
X8491102Y-7476741D01*
X8476603Y-7497961D01*
X8471502Y-7523150D01*
X8471502Y-7623892D01*
X7457940Y-6610330D01*
X7955934Y-6610330D01*
X7959147Y-6613549D01*
X7993500Y-6627814D01*
X8030697Y-6627846D01*
X8065074Y-6613642D01*
X8068766Y-6609956D01*
X8530100Y-7071290D01*
X8530100Y-7071290D01*
G37*
X8530100Y-7071290D02*
X8530100Y-7459562D01*
X8512714Y-7462834D01*
X8491102Y-7476741D01*
X8476603Y-7497961D01*
X8471502Y-7523150D01*
X8471502Y-7623892D01*
X7457940Y-6610330D01*
X7955934Y-6610330D01*
X7959147Y-6613549D01*
X7993500Y-6627814D01*
X8030697Y-6627846D01*
X8065074Y-6613642D01*
X8068766Y-6609956D01*
X8530100Y-7071290D01*
G36*
X7278218Y-5919098D02*
X7278214Y-5923647D01*
X7292418Y-5958024D01*
X7318697Y-5984349D01*
X7353050Y-5998614D01*
X7390247Y-5998646D01*
X7424624Y-5984442D01*
X7427942Y-5981130D01*
X7439940Y-5981130D01*
X7917140Y-6458330D01*
X7532684Y-6458330D01*
X7540404Y-6439740D01*
X7540436Y-6402543D01*
X7526232Y-6368166D01*
X7499953Y-6341841D01*
X7465600Y-6327576D01*
X7428403Y-6327544D01*
X7394026Y-6341748D01*
X7390708Y-6345060D01*
X7344800Y-6345060D01*
X6831040Y-5831300D01*
X7190420Y-5831300D01*
X7278218Y-5919098D01*
X7278218Y-5919098D01*
G37*
X7278218Y-5919098D02*
X7278214Y-5923647D01*
X7292418Y-5958024D01*
X7318697Y-5984349D01*
X7353050Y-5998614D01*
X7390247Y-5998646D01*
X7424624Y-5984442D01*
X7427942Y-5981130D01*
X7439940Y-5981130D01*
X7917140Y-6458330D01*
X7532684Y-6458330D01*
X7540404Y-6439740D01*
X7540436Y-6402543D01*
X7526232Y-6368166D01*
X7499953Y-6341841D01*
X7465600Y-6327576D01*
X7428403Y-6327544D01*
X7394026Y-6341748D01*
X7390708Y-6345060D01*
X7344800Y-6345060D01*
X6831040Y-5831300D01*
X7190420Y-5831300D01*
X7278218Y-5919098D01*
G36*
X6662954Y-5253597D02*
X6677158Y-5287974D01*
X6703437Y-5314299D01*
X6737790Y-5328564D01*
X6742478Y-5328568D01*
X6873906Y-5459997D01*
X6873170Y-5459850D01*
X5591370Y-5459850D01*
X5578288Y-5462452D01*
X5795720Y-5245020D01*
X6662961Y-5245020D01*
X6662954Y-5253597D01*
X6662954Y-5253597D01*
G37*
X6662954Y-5253597D02*
X6677158Y-5287974D01*
X6703437Y-5314299D01*
X6737790Y-5328564D01*
X6742478Y-5328568D01*
X6873906Y-5459997D01*
X6873170Y-5459850D01*
X5591370Y-5459850D01*
X5578288Y-5462452D01*
X5795720Y-5245020D01*
X6662961Y-5245020D01*
X6662954Y-5253597D01*
M02*
