G04 #@! TF.FileFunction,Copper,L2,Bot,Signal*
%FSLAX45Y45*%
G04 Gerber Fmt 4.5, Leading zero omitted, Abs format (unit mm)*
G04 Created by KiCad (PCBNEW 4.0.2+dfsg1-stable) date Sat May  7 02:04:56 2016*
%MOMM*%
G01*
G04 APERTURE LIST*
%ADD10C,0.100000*%
%ADD11C,2.032000*%
%ADD12R,2.032000X2.032000*%
%ADD13C,5.500000*%
%ADD14R,2.032000X1.727200*%
%ADD15O,2.032000X1.727200*%
%ADD16R,1.000000X3.200000*%
%ADD17O,2.032000X2.032000*%
%ADD18C,1.524000*%
%ADD19R,1.524000X1.524000*%
%ADD20O,1.250000X0.950000*%
%ADD21O,1.000000X1.550000*%
%ADD22R,1.727200X1.727200*%
%ADD23O,1.727200X1.727200*%
%ADD24C,0.600000*%
%ADD25C,0.250000*%
%ADD26C,0.254000*%
G04 APERTURE END LIST*
D10*
D11*
X4270000Y-4600000D03*
D12*
X4270000Y-4346000D03*
D13*
X4430000Y-13570000D03*
D14*
X8905000Y-6105000D03*
D15*
X8905000Y-6359000D03*
X8905000Y-6613000D03*
X8905000Y-6867000D03*
D14*
X8905000Y-7970000D03*
D15*
X8905000Y-8224000D03*
X8905000Y-8478000D03*
X8905000Y-8732000D03*
D13*
X8760000Y-9940000D03*
D16*
X5600000Y-12730000D03*
X5600000Y-12050000D03*
X6000000Y-12050000D03*
X6000000Y-12730000D03*
D12*
X8905000Y-9090000D03*
D17*
X8905000Y-9344000D03*
D18*
X5085000Y-13655000D03*
D19*
X5339000Y-13655000D03*
D16*
X6300000Y-13430000D03*
X6300000Y-12750000D03*
X6700000Y-12750000D03*
X6700000Y-13430000D03*
D13*
X8760000Y-4400000D03*
D20*
X7909660Y-13585146D03*
X8409660Y-13585146D03*
D21*
X7809660Y-13855146D03*
X8509660Y-13855146D03*
D18*
X4980000Y-12390000D03*
D19*
X7880000Y-12390000D03*
D22*
X8650000Y-5050000D03*
D23*
X8904000Y-5050000D03*
X8650000Y-5304000D03*
X8904000Y-5304000D03*
X8650000Y-5558000D03*
X8904000Y-5558000D03*
D16*
X6300000Y-12030000D03*
X6300000Y-11350000D03*
X6700000Y-11350000D03*
X6700000Y-12030000D03*
X7000000Y-12730000D03*
X7000000Y-12050000D03*
X7400000Y-12050000D03*
X7400000Y-12730000D03*
D24*
X8134200Y-9147280D03*
X8480000Y-7850000D03*
X7930000Y-8080000D03*
X8250000Y-8220000D03*
X5920000Y-10490000D03*
X4170000Y-5050000D03*
X4920000Y-4960000D03*
X7890000Y-11620000D03*
X7910000Y-12990000D03*
X7890000Y-11286870D03*
X8248500Y-5164710D03*
X8420000Y-12652930D03*
X5498550Y-6870000D03*
X6432860Y-7130390D03*
X5498550Y-7047580D03*
X6432230Y-7345030D03*
X5498550Y-7503050D03*
X6434860Y-7739310D03*
X5420910Y-5590000D03*
X7115000Y-5426540D03*
X5426370Y-5869600D03*
X6018770Y-5700310D03*
X5421550Y-5977750D03*
X6006590Y-5808080D03*
X5746860Y-6194320D03*
X7056240Y-6260480D03*
X5677650Y-6263530D03*
X6875000Y-6286560D03*
X5592230Y-6348950D03*
X6786420Y-6312050D03*
X5684760Y-6433630D03*
X6715000Y-6568710D03*
X5503780Y-6437390D03*
X6635000Y-6314660D03*
X5495330Y-6517430D03*
X6575360Y-6566250D03*
X5498550Y-6597470D03*
X6475000Y-6579260D03*
X7522320Y-5313620D03*
X7464430Y-5501100D03*
X7157260Y-5563630D03*
X6639760Y-5626470D03*
X6713410Y-5666020D03*
X6783590Y-5709040D03*
X6847020Y-5771600D03*
X7412060Y-5726920D03*
X8196660Y-6912550D03*
X6629980Y-5706510D03*
X7892820Y-7086360D03*
X5919650Y-5933010D03*
X7526820Y-7098580D03*
X6272810Y-5950000D03*
X6768240Y-6030000D03*
X7857660Y-6909770D03*
D25*
X8713590Y-9147280D02*
X8770870Y-9090000D01*
X8134200Y-9147280D02*
X8713590Y-9147280D01*
X8905000Y-9090000D02*
X8770870Y-9090000D01*
X8770860Y-7850000D02*
X8480000Y-7850000D01*
X8110000Y-8080000D02*
X7930000Y-8080000D01*
X8250000Y-8220000D02*
X8110000Y-8080000D01*
X4830000Y-5050000D02*
X4170000Y-5050000D01*
X4920000Y-4960000D02*
X4830000Y-5050000D01*
X7890000Y-11286870D02*
X7890000Y-11620000D01*
X7400000Y-12730000D02*
X7650000Y-12730000D01*
X7650000Y-12730000D02*
X7910000Y-12990000D01*
X6700000Y-12030000D02*
X6700000Y-12222530D01*
X6700000Y-12557470D02*
X6700000Y-12222530D01*
X6700000Y-12750000D02*
X6700000Y-12557470D01*
X6000000Y-12730000D02*
X6000000Y-12537470D01*
X6000000Y-12050000D02*
X6000000Y-12242530D01*
X6000000Y-12242530D02*
X6000000Y-12537470D01*
X6700000Y-12750000D02*
X6700000Y-12921270D01*
X6700000Y-11350000D02*
X6700000Y-12030000D01*
X8904000Y-5558000D02*
X8904000Y-5676890D01*
X8905000Y-6359000D02*
X8905000Y-6240110D01*
X6700000Y-13430000D02*
X6700000Y-13237470D01*
X6000000Y-12730000D02*
X6000000Y-12922530D01*
X4980000Y-12390000D02*
X5580000Y-12990000D01*
X5580000Y-13160000D02*
X5085000Y-13655000D01*
X5580000Y-12990000D02*
X5580000Y-13160000D01*
X6700000Y-13430000D02*
X6700000Y-13622530D01*
X6234370Y-13622530D02*
X6700000Y-13622530D01*
X5932530Y-13320690D02*
X6234370Y-13622530D01*
X5932530Y-12990000D02*
X5932530Y-13320690D01*
X5580000Y-12990000D02*
X5932530Y-12990000D01*
X5932530Y-12990000D02*
X6000000Y-12922530D01*
X8957010Y-6477890D02*
X8905000Y-6477890D01*
X9039140Y-6560020D02*
X8957010Y-6477890D01*
X9039140Y-7113780D02*
X9039140Y-6560020D01*
X8770860Y-7382060D02*
X9039140Y-7113780D01*
X8770860Y-8075000D02*
X8770860Y-7850000D01*
X8770860Y-7850000D02*
X8770860Y-7382060D01*
X8800970Y-8105110D02*
X8770860Y-8075000D01*
X8905000Y-8105110D02*
X8800970Y-8105110D01*
X8905000Y-8224000D02*
X8905000Y-8105110D01*
X8905000Y-6359000D02*
X8905000Y-6477890D01*
X9009030Y-6240110D02*
X8905000Y-6240110D01*
X9039140Y-6210000D02*
X9009030Y-6240110D01*
X9039140Y-5812030D02*
X9039140Y-6210000D01*
X8904000Y-5676890D02*
X9039140Y-5812030D01*
X7400000Y-12730000D02*
X7400000Y-12922530D01*
X6700000Y-12922530D02*
X7400000Y-12922530D01*
X6700000Y-13237470D02*
X6700000Y-12922530D01*
X6700000Y-12922530D02*
X6700000Y-12921270D01*
X7400000Y-12730000D02*
X7400000Y-12050000D01*
X7890000Y-11367470D02*
X7890000Y-11286870D01*
X7400000Y-11857470D02*
X7890000Y-11367470D01*
X7400000Y-12050000D02*
X7400000Y-11857470D01*
X7890000Y-10367380D02*
X7890000Y-11286870D01*
X8779250Y-9478130D02*
X7890000Y-10367380D01*
X8905000Y-9478130D02*
X8779250Y-9478130D01*
X8905000Y-9344000D02*
X8905000Y-9478130D01*
X8904000Y-5050000D02*
X8785110Y-5050000D01*
X8785110Y-5139170D02*
X8785110Y-5050000D01*
X8755390Y-5168890D02*
X8785110Y-5139170D01*
X8252680Y-5168890D02*
X8755390Y-5168890D01*
X8248500Y-5164710D02*
X8252680Y-5168890D01*
X8157070Y-12390000D02*
X8420000Y-12652930D01*
X7880000Y-12390000D02*
X8157070Y-12390000D01*
X6172470Y-6870000D02*
X6432860Y-7130390D01*
X5498550Y-6870000D02*
X6172470Y-6870000D01*
X5796000Y-7345030D02*
X5498550Y-7047580D01*
X6432230Y-7345030D02*
X5796000Y-7345030D01*
X5734810Y-7739310D02*
X5498550Y-7503050D01*
X6434860Y-7739310D02*
X5734810Y-7739310D01*
X5584370Y-5426540D02*
X5420910Y-5590000D01*
X7115000Y-5426540D02*
X5584370Y-5426540D01*
X5595660Y-5700310D02*
X6018770Y-5700310D01*
X5426370Y-5869600D02*
X5595660Y-5700310D01*
X5591220Y-5808080D02*
X6006590Y-5808080D01*
X5421550Y-5977750D02*
X5591220Y-5808080D01*
X6972130Y-6176370D02*
X7056240Y-6260480D01*
X6759660Y-6176370D02*
X6972130Y-6176370D01*
X6735490Y-6152200D02*
X6759660Y-6176370D01*
X5788980Y-6152200D02*
X6735490Y-6152200D01*
X5746860Y-6194320D02*
X5788980Y-6152200D01*
X6820390Y-6231950D02*
X6875000Y-6286560D01*
X6751550Y-6231950D02*
X6820390Y-6231950D01*
X6721350Y-6201750D02*
X6751550Y-6231950D01*
X5827870Y-6201750D02*
X6721350Y-6201750D01*
X5766090Y-6263530D02*
X5827870Y-6201750D01*
X5677650Y-6263530D02*
X5766090Y-6263530D01*
X6766000Y-6312050D02*
X6786420Y-6312050D01*
X6705370Y-6251420D02*
X6766000Y-6312050D01*
X5841890Y-6251420D02*
X6705370Y-6251420D01*
X5767250Y-6326060D02*
X5841890Y-6251420D01*
X5615120Y-6326060D02*
X5767250Y-6326060D01*
X5592230Y-6348950D02*
X5615120Y-6326060D01*
X6579920Y-6433630D02*
X5684760Y-6433630D01*
X6715000Y-6568710D02*
X6579920Y-6433630D01*
X6578570Y-6371090D02*
X6635000Y-6314660D01*
X5658520Y-6371090D02*
X6578570Y-6371090D01*
X5658520Y-6371100D02*
X5658520Y-6371090D01*
X5592230Y-6437390D02*
X5658520Y-6371100D01*
X5503780Y-6437390D02*
X5592230Y-6437390D01*
X5504310Y-6508450D02*
X5495330Y-6517430D01*
X6517560Y-6508450D02*
X5504310Y-6508450D01*
X6575360Y-6566250D02*
X6517560Y-6508450D01*
X6456790Y-6597470D02*
X5498550Y-6597470D01*
X6475000Y-6579260D02*
X6456790Y-6597470D01*
X7000000Y-12050000D02*
X7000000Y-12730000D01*
X8773110Y-4926890D02*
X8650000Y-5050000D01*
X8949860Y-4926890D02*
X8773110Y-4926890D01*
X9086460Y-5063490D02*
X8949860Y-4926890D01*
X9086460Y-8734550D02*
X9086460Y-5063490D01*
X8969690Y-8851320D02*
X9086460Y-8734550D01*
X8336960Y-8851320D02*
X8969690Y-8851320D01*
X7000000Y-10188280D02*
X8336960Y-8851320D01*
X7000000Y-12050000D02*
X7000000Y-10188280D01*
X7785940Y-5050000D02*
X7522320Y-5313620D01*
X8650000Y-5050000D02*
X7785940Y-5050000D01*
X5600000Y-12050000D02*
X5600000Y-12730000D01*
X8650000Y-5304000D02*
X8531110Y-5304000D01*
X5600000Y-12050000D02*
X5600000Y-11857470D01*
X7661530Y-5304000D02*
X7464430Y-5501100D01*
X8531110Y-5304000D02*
X7661530Y-5304000D01*
X6549290Y-5501100D02*
X7464430Y-5501100D01*
X6174280Y-5876110D02*
X6549290Y-5501100D01*
X5954780Y-5876110D02*
X6174280Y-5876110D01*
X5949030Y-5870360D02*
X5954780Y-5876110D01*
X5846750Y-5870360D02*
X5949030Y-5870360D01*
X5342040Y-6375070D02*
X5846750Y-5870360D01*
X5342040Y-11599510D02*
X5342040Y-6375070D01*
X5600000Y-11857470D02*
X5342040Y-11599510D01*
X6300000Y-12750000D02*
X6300000Y-13430000D01*
X6300000Y-12750000D02*
X6300000Y-12557470D01*
X8904000Y-5304000D02*
X8785110Y-5304000D01*
X8785110Y-5341160D02*
X8785110Y-5304000D01*
X8703380Y-5422890D02*
X8785110Y-5341160D01*
X8564860Y-5422890D02*
X8703380Y-5422890D01*
X8424120Y-5563630D02*
X8564860Y-5422890D01*
X7157260Y-5563630D02*
X8424120Y-5563630D01*
X7150080Y-5556450D02*
X7157260Y-5563630D01*
X6557640Y-5556450D02*
X7150080Y-5556450D01*
X6071520Y-6042570D02*
X6557640Y-5556450D01*
X5810150Y-6042570D02*
X6071520Y-6042570D01*
X5432260Y-6420460D02*
X5810150Y-6042570D01*
X5432260Y-9694000D02*
X5432260Y-6420460D01*
X6382530Y-10644270D02*
X5432260Y-9694000D01*
X6382530Y-12474940D02*
X6382530Y-10644270D01*
X6300000Y-12557470D02*
X6382530Y-12474940D01*
X6664750Y-5601480D02*
X6639760Y-5626470D01*
X7007940Y-5601480D02*
X6664750Y-5601480D01*
X7032620Y-5626160D02*
X7007940Y-5601480D01*
X7354680Y-5626160D02*
X7032620Y-5626160D01*
X7367500Y-5613340D02*
X7354680Y-5626160D01*
X7905340Y-5613340D02*
X7367500Y-5613340D01*
X8905000Y-6613000D02*
X7905340Y-5613340D01*
X8905000Y-6867000D02*
X8770870Y-6867000D01*
X6732920Y-5646510D02*
X6713410Y-5666020D01*
X6989280Y-5646510D02*
X6732920Y-5646510D01*
X7013960Y-5671190D02*
X6989280Y-5646510D01*
X7373340Y-5671190D02*
X7013960Y-5671190D01*
X7386160Y-5658370D02*
X7373340Y-5671190D01*
X7562240Y-5658370D02*
X7386160Y-5658370D01*
X8770870Y-6867000D02*
X7562240Y-5658370D01*
X8905000Y-8478000D02*
X8905000Y-8359110D01*
X6880410Y-5709040D02*
X6783590Y-5709040D01*
X8022890Y-6851520D02*
X6880410Y-5709040D01*
X8022890Y-7529010D02*
X8022890Y-6851520D01*
X8852990Y-8359110D02*
X8022890Y-7529010D01*
X8905000Y-8359110D02*
X8852990Y-8359110D01*
X8905000Y-8732000D02*
X8905000Y-8613110D01*
X6877490Y-5771600D02*
X6847020Y-5771600D01*
X7977860Y-6871970D02*
X6877490Y-5771600D01*
X7977860Y-7737980D02*
X7977860Y-6871970D01*
X8852990Y-8613110D02*
X7977860Y-7737980D01*
X8905000Y-8613110D02*
X8852990Y-8613110D01*
X8196660Y-6511520D02*
X7412060Y-5726920D01*
X8196660Y-6912550D02*
X8196660Y-6511520D01*
X6877910Y-5954440D02*
X6629980Y-5706510D01*
X6993840Y-5954440D02*
X6877910Y-5954440D01*
X7920200Y-6880800D02*
X6993840Y-5954440D01*
X7920200Y-7058980D02*
X7920200Y-6880800D01*
X7892820Y-7086360D02*
X7920200Y-7058980D01*
X6300000Y-11350000D02*
X6300000Y-12030000D01*
X6300000Y-11350000D02*
X6300000Y-11157470D01*
X5850570Y-5933010D02*
X5919650Y-5933010D01*
X5387230Y-6396350D02*
X5850570Y-5933010D01*
X5387230Y-10244700D02*
X5387230Y-6396350D01*
X6300000Y-11157470D02*
X5387230Y-10244700D01*
X6596980Y-5950000D02*
X6272810Y-5950000D01*
X6778320Y-6131340D02*
X6596980Y-5950000D01*
X7015540Y-6131340D02*
X6778320Y-6131340D01*
X7526820Y-6642620D02*
X7015540Y-6131340D01*
X7526820Y-7098580D02*
X7526820Y-6642620D01*
X6977890Y-6030000D02*
X6768240Y-6030000D01*
X7857660Y-6909770D02*
X6977890Y-6030000D01*
D26*
G36*
X8568506Y-4112866D02*
X8473201Y-4208005D01*
X8421559Y-4332373D01*
X8421441Y-4467036D01*
X8472866Y-4591494D01*
X8568005Y-4686799D01*
X8692373Y-4738441D01*
X8827036Y-4738559D01*
X8951494Y-4687134D01*
X9046799Y-4591995D01*
X9079000Y-4514447D01*
X9079000Y-4948550D01*
X9003600Y-4873150D01*
X8978944Y-4856675D01*
X8949860Y-4850890D01*
X8773110Y-4850890D01*
X8744026Y-4856675D01*
X8719370Y-4873150D01*
X8693624Y-4898896D01*
X8563640Y-4898896D01*
X8540108Y-4903324D01*
X8518496Y-4917231D01*
X8503997Y-4938451D01*
X8498896Y-4963640D01*
X8498896Y-4974000D01*
X7785940Y-4974000D01*
X7756856Y-4979785D01*
X7732200Y-4996260D01*
X7508352Y-5220108D01*
X7503803Y-5220104D01*
X7469426Y-5234308D01*
X7443101Y-5260587D01*
X7428836Y-5294940D01*
X7428804Y-5332137D01*
X7443008Y-5366514D01*
X7467251Y-5390799D01*
X7450462Y-5407588D01*
X7445913Y-5407584D01*
X7411536Y-5421788D01*
X7408218Y-5425100D01*
X7208501Y-5425100D01*
X7208516Y-5408023D01*
X7194312Y-5373646D01*
X7168033Y-5347321D01*
X7133680Y-5333056D01*
X7096483Y-5333024D01*
X7062106Y-5347228D01*
X7058788Y-5350540D01*
X5584370Y-5350540D01*
X5555286Y-5356325D01*
X5547768Y-5361349D01*
X5530630Y-5372800D01*
X5406942Y-5496488D01*
X5402393Y-5496484D01*
X5368016Y-5510688D01*
X5341691Y-5536967D01*
X5327426Y-5571320D01*
X5327394Y-5608517D01*
X5341598Y-5642894D01*
X5367877Y-5669219D01*
X5402230Y-5683484D01*
X5439427Y-5683516D01*
X5473804Y-5669312D01*
X5500129Y-5643033D01*
X5514394Y-5608680D01*
X5514398Y-5603992D01*
X5615850Y-5502540D01*
X6440370Y-5502540D01*
X6142800Y-5800110D01*
X6100097Y-5800110D01*
X6100106Y-5789563D01*
X6088892Y-5762424D01*
X6097989Y-5753343D01*
X6112254Y-5718990D01*
X6112286Y-5681793D01*
X6098082Y-5647416D01*
X6071803Y-5621091D01*
X6037450Y-5606826D01*
X6000253Y-5606794D01*
X5965876Y-5620998D01*
X5962558Y-5624310D01*
X5595660Y-5624310D01*
X5566576Y-5630095D01*
X5541920Y-5646570D01*
X5412402Y-5776088D01*
X5407853Y-5776084D01*
X5373476Y-5790288D01*
X5347151Y-5816567D01*
X5332886Y-5850920D01*
X5332854Y-5888117D01*
X5346328Y-5920727D01*
X5342331Y-5924717D01*
X5328066Y-5959070D01*
X5328034Y-5996267D01*
X5342238Y-6030644D01*
X5368517Y-6056969D01*
X5402870Y-6071234D01*
X5440067Y-6071266D01*
X5474444Y-6057062D01*
X5500769Y-6030783D01*
X5515034Y-5996430D01*
X5515038Y-5991742D01*
X5622700Y-5884080D01*
X5725550Y-5884080D01*
X5288300Y-6321330D01*
X5271825Y-6345986D01*
X5266040Y-6375070D01*
X5266040Y-11599510D01*
X5271825Y-11628594D01*
X5288300Y-11653250D01*
X5494215Y-11859165D01*
X5490357Y-11864811D01*
X5485256Y-11890000D01*
X5485256Y-12210000D01*
X5489684Y-12233532D01*
X5503591Y-12255144D01*
X5524000Y-12269089D01*
X5524000Y-12511272D01*
X5504856Y-12523591D01*
X5490357Y-12544811D01*
X5485256Y-12570000D01*
X5485256Y-12890000D01*
X5489684Y-12913532D01*
X5503591Y-12935144D01*
X5524811Y-12949643D01*
X5550000Y-12954744D01*
X5650000Y-12954744D01*
X5673532Y-12950316D01*
X5695144Y-12936409D01*
X5709643Y-12915189D01*
X5714744Y-12890000D01*
X5714744Y-12758575D01*
X5886500Y-12758575D01*
X5886500Y-12902631D01*
X5896167Y-12925970D01*
X5914030Y-12943833D01*
X5937369Y-12953500D01*
X5971425Y-12953500D01*
X5987300Y-12937625D01*
X5987300Y-12742700D01*
X6012700Y-12742700D01*
X6012700Y-12937625D01*
X6028575Y-12953500D01*
X6062631Y-12953500D01*
X6085970Y-12943833D01*
X6103833Y-12925970D01*
X6113500Y-12902631D01*
X6113500Y-12758575D01*
X6097625Y-12742700D01*
X6012700Y-12742700D01*
X5987300Y-12742700D01*
X5902375Y-12742700D01*
X5886500Y-12758575D01*
X5714744Y-12758575D01*
X5714744Y-12570000D01*
X5712367Y-12557369D01*
X5886500Y-12557369D01*
X5886500Y-12701425D01*
X5902375Y-12717300D01*
X5987300Y-12717300D01*
X5987300Y-12522375D01*
X6012700Y-12522375D01*
X6012700Y-12717300D01*
X6097625Y-12717300D01*
X6113500Y-12701425D01*
X6113500Y-12557369D01*
X6103833Y-12534030D01*
X6085970Y-12516167D01*
X6062631Y-12506500D01*
X6028575Y-12506500D01*
X6012700Y-12522375D01*
X5987300Y-12522375D01*
X5971425Y-12506500D01*
X5937369Y-12506500D01*
X5914030Y-12516167D01*
X5896167Y-12534030D01*
X5886500Y-12557369D01*
X5712367Y-12557369D01*
X5710316Y-12546468D01*
X5696409Y-12524856D01*
X5676000Y-12510911D01*
X5676000Y-12268728D01*
X5695144Y-12256409D01*
X5709643Y-12235189D01*
X5714744Y-12210000D01*
X5714744Y-12078575D01*
X5886500Y-12078575D01*
X5886500Y-12222631D01*
X5896167Y-12245970D01*
X5914030Y-12263833D01*
X5937369Y-12273500D01*
X5971425Y-12273500D01*
X5987300Y-12257625D01*
X5987300Y-12062700D01*
X6012700Y-12062700D01*
X6012700Y-12257625D01*
X6028575Y-12273500D01*
X6062631Y-12273500D01*
X6085970Y-12263833D01*
X6103833Y-12245970D01*
X6113500Y-12222631D01*
X6113500Y-12078575D01*
X6097625Y-12062700D01*
X6012700Y-12062700D01*
X5987300Y-12062700D01*
X5902375Y-12062700D01*
X5886500Y-12078575D01*
X5714744Y-12078575D01*
X5714744Y-11890000D01*
X5712367Y-11877369D01*
X5886500Y-11877369D01*
X5886500Y-12021425D01*
X5902375Y-12037300D01*
X5987300Y-12037300D01*
X5987300Y-11842375D01*
X6012700Y-11842375D01*
X6012700Y-12037300D01*
X6097625Y-12037300D01*
X6113500Y-12021425D01*
X6113500Y-11877369D01*
X6103833Y-11854030D01*
X6085970Y-11836167D01*
X6062631Y-11826500D01*
X6028575Y-11826500D01*
X6012700Y-11842375D01*
X5987300Y-11842375D01*
X5971425Y-11826500D01*
X5937369Y-11826500D01*
X5914030Y-11836167D01*
X5896167Y-11854030D01*
X5886500Y-11877369D01*
X5712367Y-11877369D01*
X5710316Y-11866468D01*
X5696409Y-11844856D01*
X5675189Y-11830357D01*
X5670414Y-11829390D01*
X5670215Y-11828386D01*
X5653740Y-11803730D01*
X5418040Y-11568030D01*
X5418040Y-10382990D01*
X6194215Y-11159165D01*
X6190357Y-11164811D01*
X6185256Y-11190000D01*
X6185256Y-11510000D01*
X6189684Y-11533532D01*
X6203591Y-11555144D01*
X6224000Y-11569089D01*
X6224000Y-11811272D01*
X6204856Y-11823591D01*
X6190357Y-11844811D01*
X6185256Y-11870000D01*
X6185256Y-12190000D01*
X6189684Y-12213532D01*
X6203591Y-12235144D01*
X6224811Y-12249643D01*
X6250000Y-12254744D01*
X6306530Y-12254744D01*
X6306530Y-12443460D01*
X6246260Y-12503730D01*
X6229785Y-12528386D01*
X6229646Y-12529086D01*
X6226468Y-12529684D01*
X6204856Y-12543591D01*
X6190357Y-12564811D01*
X6185256Y-12590000D01*
X6185256Y-12910000D01*
X6189684Y-12933532D01*
X6203591Y-12955144D01*
X6224000Y-12969089D01*
X6224000Y-13211272D01*
X6204856Y-13223591D01*
X6190357Y-13244811D01*
X6185256Y-13270000D01*
X6185256Y-13590000D01*
X6189684Y-13613532D01*
X6203591Y-13635144D01*
X6224811Y-13649643D01*
X6250000Y-13654744D01*
X6350000Y-13654744D01*
X6373532Y-13650316D01*
X6395144Y-13636409D01*
X6409643Y-13615189D01*
X6414744Y-13590000D01*
X6414744Y-13458575D01*
X6586500Y-13458575D01*
X6586500Y-13602631D01*
X6596167Y-13625970D01*
X6614030Y-13643833D01*
X6637369Y-13653500D01*
X6671425Y-13653500D01*
X6687300Y-13637625D01*
X6687300Y-13442700D01*
X6712700Y-13442700D01*
X6712700Y-13637625D01*
X6728575Y-13653500D01*
X6762631Y-13653500D01*
X6785970Y-13643833D01*
X6803833Y-13625970D01*
X6813500Y-13602631D01*
X6813500Y-13585146D01*
X7781191Y-13585146D01*
X7789641Y-13627624D01*
X7813703Y-13663635D01*
X7849714Y-13687697D01*
X7892191Y-13696146D01*
X7927128Y-13696146D01*
X7969606Y-13687697D01*
X8005617Y-13663635D01*
X8029679Y-13627624D01*
X8038128Y-13585146D01*
X8281191Y-13585146D01*
X8289641Y-13627624D01*
X8313703Y-13663635D01*
X8349714Y-13687697D01*
X8392192Y-13696146D01*
X8427129Y-13696146D01*
X8469606Y-13687697D01*
X8505617Y-13663635D01*
X8529679Y-13627624D01*
X8538129Y-13585146D01*
X8529679Y-13542668D01*
X8505617Y-13506657D01*
X8469606Y-13482595D01*
X8427129Y-13474146D01*
X8392192Y-13474146D01*
X8349714Y-13482595D01*
X8313703Y-13506657D01*
X8289641Y-13542668D01*
X8281191Y-13585146D01*
X8038128Y-13585146D01*
X8029679Y-13542668D01*
X8005617Y-13506657D01*
X7969606Y-13482595D01*
X7927128Y-13474146D01*
X7892191Y-13474146D01*
X7849714Y-13482595D01*
X7813703Y-13506657D01*
X7789641Y-13542668D01*
X7781191Y-13585146D01*
X6813500Y-13585146D01*
X6813500Y-13458575D01*
X6797625Y-13442700D01*
X6712700Y-13442700D01*
X6687300Y-13442700D01*
X6602375Y-13442700D01*
X6586500Y-13458575D01*
X6414744Y-13458575D01*
X6414744Y-13270000D01*
X6412367Y-13257369D01*
X6586500Y-13257369D01*
X6586500Y-13401425D01*
X6602375Y-13417300D01*
X6687300Y-13417300D01*
X6687300Y-13222375D01*
X6712700Y-13222375D01*
X6712700Y-13417300D01*
X6797625Y-13417300D01*
X6813500Y-13401425D01*
X6813500Y-13257369D01*
X6803833Y-13234030D01*
X6785970Y-13216167D01*
X6762631Y-13206500D01*
X6728575Y-13206500D01*
X6712700Y-13222375D01*
X6687300Y-13222375D01*
X6671425Y-13206500D01*
X6637369Y-13206500D01*
X6614030Y-13216167D01*
X6596167Y-13234030D01*
X6586500Y-13257369D01*
X6412367Y-13257369D01*
X6410316Y-13246468D01*
X6396409Y-13224856D01*
X6376000Y-13210911D01*
X6376000Y-12968728D01*
X6395144Y-12956409D01*
X6409643Y-12935189D01*
X6414744Y-12910000D01*
X6414744Y-12778575D01*
X6586500Y-12778575D01*
X6586500Y-12922631D01*
X6596167Y-12945970D01*
X6614030Y-12963833D01*
X6637369Y-12973500D01*
X6671425Y-12973500D01*
X6687300Y-12957625D01*
X6687300Y-12762700D01*
X6712700Y-12762700D01*
X6712700Y-12957625D01*
X6728575Y-12973500D01*
X6762631Y-12973500D01*
X6785970Y-12963833D01*
X6803833Y-12945970D01*
X6813500Y-12922631D01*
X6813500Y-12778575D01*
X6797625Y-12762700D01*
X6712700Y-12762700D01*
X6687300Y-12762700D01*
X6602375Y-12762700D01*
X6586500Y-12778575D01*
X6414744Y-12778575D01*
X6414744Y-12590000D01*
X6412367Y-12577369D01*
X6586500Y-12577369D01*
X6586500Y-12721425D01*
X6602375Y-12737300D01*
X6687300Y-12737300D01*
X6687300Y-12542375D01*
X6712700Y-12542375D01*
X6712700Y-12737300D01*
X6797625Y-12737300D01*
X6813500Y-12721425D01*
X6813500Y-12577369D01*
X6803833Y-12554030D01*
X6785970Y-12536167D01*
X6762631Y-12526500D01*
X6728575Y-12526500D01*
X6712700Y-12542375D01*
X6687300Y-12542375D01*
X6671425Y-12526500D01*
X6637369Y-12526500D01*
X6614030Y-12536167D01*
X6596167Y-12554030D01*
X6586500Y-12577369D01*
X6412367Y-12577369D01*
X6410316Y-12566468D01*
X6405683Y-12559268D01*
X6436270Y-12528680D01*
X6452745Y-12504024D01*
X6453705Y-12499199D01*
X6458530Y-12474940D01*
X6458530Y-12058575D01*
X6586500Y-12058575D01*
X6586500Y-12202631D01*
X6596167Y-12225970D01*
X6614030Y-12243833D01*
X6637369Y-12253500D01*
X6671425Y-12253500D01*
X6687300Y-12237625D01*
X6687300Y-12042700D01*
X6712700Y-12042700D01*
X6712700Y-12237625D01*
X6728575Y-12253500D01*
X6762631Y-12253500D01*
X6785970Y-12243833D01*
X6803833Y-12225970D01*
X6813500Y-12202631D01*
X6813500Y-12058575D01*
X6797625Y-12042700D01*
X6712700Y-12042700D01*
X6687300Y-12042700D01*
X6602375Y-12042700D01*
X6586500Y-12058575D01*
X6458530Y-12058575D01*
X6458530Y-11857369D01*
X6586500Y-11857369D01*
X6586500Y-12001425D01*
X6602375Y-12017300D01*
X6687300Y-12017300D01*
X6687300Y-11822375D01*
X6712700Y-11822375D01*
X6712700Y-12017300D01*
X6797625Y-12017300D01*
X6813500Y-12001425D01*
X6813500Y-11857369D01*
X6803833Y-11834030D01*
X6785970Y-11816167D01*
X6762631Y-11806500D01*
X6728575Y-11806500D01*
X6712700Y-11822375D01*
X6687300Y-11822375D01*
X6671425Y-11806500D01*
X6637369Y-11806500D01*
X6614030Y-11816167D01*
X6596167Y-11834030D01*
X6586500Y-11857369D01*
X6458530Y-11857369D01*
X6458530Y-11378575D01*
X6586500Y-11378575D01*
X6586500Y-11522631D01*
X6596167Y-11545970D01*
X6614030Y-11563833D01*
X6637369Y-11573500D01*
X6671425Y-11573500D01*
X6687300Y-11557625D01*
X6687300Y-11362700D01*
X6712700Y-11362700D01*
X6712700Y-11557625D01*
X6728575Y-11573500D01*
X6762631Y-11573500D01*
X6785970Y-11563833D01*
X6803833Y-11545970D01*
X6813500Y-11522631D01*
X6813500Y-11378575D01*
X6797625Y-11362700D01*
X6712700Y-11362700D01*
X6687300Y-11362700D01*
X6602375Y-11362700D01*
X6586500Y-11378575D01*
X6458530Y-11378575D01*
X6458530Y-11177369D01*
X6586500Y-11177369D01*
X6586500Y-11321425D01*
X6602375Y-11337300D01*
X6687300Y-11337300D01*
X6687300Y-11142375D01*
X6712700Y-11142375D01*
X6712700Y-11337300D01*
X6797625Y-11337300D01*
X6813500Y-11321425D01*
X6813500Y-11177369D01*
X6803833Y-11154030D01*
X6785970Y-11136167D01*
X6762631Y-11126500D01*
X6728575Y-11126500D01*
X6712700Y-11142375D01*
X6687300Y-11142375D01*
X6671425Y-11126500D01*
X6637369Y-11126500D01*
X6614030Y-11136167D01*
X6596167Y-11154030D01*
X6586500Y-11177369D01*
X6458530Y-11177369D01*
X6458530Y-10644270D01*
X6452745Y-10615186D01*
X6452745Y-10615186D01*
X6436270Y-10590530D01*
X5508260Y-9662520D01*
X5508260Y-7620240D01*
X5681070Y-7793050D01*
X5705726Y-7809525D01*
X5734810Y-7815310D01*
X6378614Y-7815310D01*
X6381827Y-7818529D01*
X6416180Y-7832794D01*
X6453377Y-7832826D01*
X6487754Y-7818622D01*
X6514079Y-7792343D01*
X6528344Y-7757990D01*
X6528376Y-7720793D01*
X6514172Y-7686416D01*
X6487893Y-7660091D01*
X6453540Y-7645826D01*
X6416343Y-7645794D01*
X6381966Y-7659998D01*
X6378648Y-7663310D01*
X5766290Y-7663310D01*
X5592062Y-7489082D01*
X5592066Y-7484533D01*
X5577862Y-7450156D01*
X5551583Y-7423831D01*
X5517230Y-7409566D01*
X5508260Y-7409558D01*
X5508260Y-7164770D01*
X5742260Y-7398770D01*
X5766916Y-7415245D01*
X5796000Y-7421030D01*
X6375984Y-7421030D01*
X6379197Y-7424249D01*
X6413550Y-7438514D01*
X6450747Y-7438546D01*
X6485124Y-7424342D01*
X6511449Y-7398063D01*
X6525714Y-7363710D01*
X6525746Y-7326513D01*
X6511542Y-7292136D01*
X6485263Y-7265811D01*
X6450910Y-7251546D01*
X6413713Y-7251514D01*
X6379336Y-7265718D01*
X6376018Y-7269030D01*
X5827480Y-7269030D01*
X5592062Y-7033612D01*
X5592066Y-7029063D01*
X5577862Y-6994686D01*
X5551583Y-6968361D01*
X5528519Y-6958784D01*
X5551444Y-6949312D01*
X5554762Y-6946000D01*
X6140990Y-6946000D01*
X6339348Y-7144358D01*
X6339344Y-7148907D01*
X6353548Y-7183284D01*
X6379827Y-7209609D01*
X6414180Y-7223874D01*
X6451377Y-7223906D01*
X6485754Y-7209702D01*
X6512079Y-7183423D01*
X6526344Y-7149070D01*
X6526376Y-7111873D01*
X6512172Y-7077496D01*
X6485893Y-7051171D01*
X6451540Y-7036906D01*
X6446852Y-7036902D01*
X6226210Y-6816260D01*
X6201554Y-6799785D01*
X6172470Y-6794000D01*
X5554796Y-6794000D01*
X5551583Y-6790781D01*
X5517230Y-6776516D01*
X5508260Y-6776508D01*
X5508260Y-6690978D01*
X5517067Y-6690986D01*
X5551444Y-6676782D01*
X5554762Y-6673470D01*
X6456790Y-6673470D01*
X6460423Y-6672747D01*
X6493517Y-6672776D01*
X6527894Y-6658572D01*
X6535528Y-6650951D01*
X6556680Y-6659734D01*
X6593877Y-6659766D01*
X6628254Y-6645562D01*
X6643956Y-6629887D01*
X6661967Y-6647929D01*
X6696320Y-6662194D01*
X6733517Y-6662226D01*
X6767894Y-6648022D01*
X6794219Y-6621743D01*
X6808484Y-6587390D01*
X6808516Y-6550193D01*
X6794312Y-6515816D01*
X6768033Y-6489491D01*
X6733680Y-6475226D01*
X6728992Y-6475222D01*
X6659482Y-6405711D01*
X6687894Y-6393972D01*
X6712032Y-6369876D01*
X6733387Y-6391269D01*
X6767740Y-6405534D01*
X6804937Y-6405566D01*
X6839314Y-6391362D01*
X6852317Y-6378382D01*
X6856320Y-6380044D01*
X6893517Y-6380076D01*
X6927894Y-6365872D01*
X6954219Y-6339593D01*
X6968484Y-6305240D01*
X6968494Y-6292963D01*
X6976928Y-6313374D01*
X7003207Y-6339699D01*
X7037560Y-6353964D01*
X7074757Y-6353996D01*
X7109134Y-6339792D01*
X7112826Y-6336106D01*
X7450820Y-6674100D01*
X7450820Y-7042334D01*
X7447601Y-7045547D01*
X7433336Y-7079900D01*
X7433304Y-7117097D01*
X7447508Y-7151474D01*
X7473787Y-7177799D01*
X7508140Y-7192064D01*
X7545337Y-7192096D01*
X7579714Y-7177892D01*
X7606039Y-7151613D01*
X7620304Y-7117260D01*
X7620336Y-7080063D01*
X7606132Y-7045686D01*
X7602820Y-7042368D01*
X7602820Y-6762410D01*
X7764148Y-6923738D01*
X7764144Y-6928287D01*
X7778348Y-6962664D01*
X7804627Y-6988989D01*
X7838980Y-7003254D01*
X7844200Y-7003258D01*
X7844200Y-7005282D01*
X7839926Y-7007048D01*
X7813601Y-7033327D01*
X7799336Y-7067680D01*
X7799304Y-7104877D01*
X7813508Y-7139254D01*
X7839787Y-7165579D01*
X7874140Y-7179844D01*
X7901860Y-7179868D01*
X7901860Y-7737980D01*
X7907645Y-7767064D01*
X7924120Y-7791720D01*
X8771696Y-8639296D01*
X8748073Y-8674651D01*
X8736666Y-8732000D01*
X8745282Y-8775320D01*
X8336960Y-8775320D01*
X8307876Y-8781105D01*
X8283220Y-8797580D01*
X6946260Y-10134540D01*
X6929785Y-10159196D01*
X6924000Y-10188280D01*
X6924000Y-11831272D01*
X6904856Y-11843591D01*
X6890357Y-11864811D01*
X6885256Y-11890000D01*
X6885256Y-12210000D01*
X6889684Y-12233532D01*
X6903591Y-12255144D01*
X6924000Y-12269089D01*
X6924000Y-12511272D01*
X6904856Y-12523591D01*
X6890357Y-12544811D01*
X6885256Y-12570000D01*
X6885256Y-12890000D01*
X6889684Y-12913532D01*
X6903591Y-12935144D01*
X6924811Y-12949643D01*
X6950000Y-12954744D01*
X7050000Y-12954744D01*
X7073532Y-12950316D01*
X7095144Y-12936409D01*
X7109643Y-12915189D01*
X7114744Y-12890000D01*
X7114744Y-12758575D01*
X7286500Y-12758575D01*
X7286500Y-12902631D01*
X7296167Y-12925970D01*
X7314030Y-12943833D01*
X7337369Y-12953500D01*
X7371425Y-12953500D01*
X7387300Y-12937625D01*
X7387300Y-12742700D01*
X7412700Y-12742700D01*
X7412700Y-12937625D01*
X7428575Y-12953500D01*
X7462631Y-12953500D01*
X7485970Y-12943833D01*
X7503833Y-12925970D01*
X7513500Y-12902631D01*
X7513500Y-12758575D01*
X7497625Y-12742700D01*
X7412700Y-12742700D01*
X7387300Y-12742700D01*
X7302375Y-12742700D01*
X7286500Y-12758575D01*
X7114744Y-12758575D01*
X7114744Y-12570000D01*
X7112367Y-12557369D01*
X7286500Y-12557369D01*
X7286500Y-12701425D01*
X7302375Y-12717300D01*
X7387300Y-12717300D01*
X7387300Y-12522375D01*
X7412700Y-12522375D01*
X7412700Y-12717300D01*
X7497625Y-12717300D01*
X7513500Y-12701425D01*
X7513500Y-12557369D01*
X7503833Y-12534030D01*
X7485970Y-12516167D01*
X7462631Y-12506500D01*
X7428575Y-12506500D01*
X7412700Y-12522375D01*
X7387300Y-12522375D01*
X7371425Y-12506500D01*
X7337369Y-12506500D01*
X7314030Y-12516167D01*
X7296167Y-12534030D01*
X7286500Y-12557369D01*
X7112367Y-12557369D01*
X7110316Y-12546468D01*
X7096409Y-12524856D01*
X7076000Y-12510911D01*
X7076000Y-12313800D01*
X7739056Y-12313800D01*
X7739056Y-12466200D01*
X7743484Y-12489732D01*
X7757391Y-12511344D01*
X7778611Y-12525843D01*
X7803800Y-12530944D01*
X7956200Y-12530944D01*
X7979732Y-12526516D01*
X8001344Y-12512609D01*
X8015843Y-12491389D01*
X8020944Y-12466200D01*
X8020944Y-12466000D01*
X8125590Y-12466000D01*
X8326488Y-12666898D01*
X8326484Y-12671447D01*
X8340688Y-12705824D01*
X8366967Y-12732149D01*
X8401320Y-12746414D01*
X8438517Y-12746446D01*
X8472894Y-12732242D01*
X8499219Y-12705963D01*
X8513484Y-12671610D01*
X8513516Y-12634413D01*
X8499312Y-12600036D01*
X8473033Y-12573711D01*
X8438680Y-12559446D01*
X8433992Y-12559442D01*
X8210810Y-12336260D01*
X8186154Y-12319785D01*
X8157070Y-12314000D01*
X8020944Y-12314000D01*
X8020944Y-12313800D01*
X8016516Y-12290268D01*
X8002609Y-12268656D01*
X7981389Y-12254157D01*
X7956200Y-12249056D01*
X7803800Y-12249056D01*
X7780268Y-12253484D01*
X7758656Y-12267391D01*
X7744157Y-12288611D01*
X7739056Y-12313800D01*
X7076000Y-12313800D01*
X7076000Y-12268728D01*
X7095144Y-12256409D01*
X7109643Y-12235189D01*
X7114744Y-12210000D01*
X7114744Y-12078575D01*
X7286500Y-12078575D01*
X7286500Y-12222631D01*
X7296167Y-12245970D01*
X7314030Y-12263833D01*
X7337369Y-12273500D01*
X7371425Y-12273500D01*
X7387300Y-12257625D01*
X7387300Y-12062700D01*
X7412700Y-12062700D01*
X7412700Y-12257625D01*
X7428575Y-12273500D01*
X7462631Y-12273500D01*
X7485970Y-12263833D01*
X7503833Y-12245970D01*
X7513500Y-12222631D01*
X7513500Y-12078575D01*
X7497625Y-12062700D01*
X7412700Y-12062700D01*
X7387300Y-12062700D01*
X7302375Y-12062700D01*
X7286500Y-12078575D01*
X7114744Y-12078575D01*
X7114744Y-11890000D01*
X7112367Y-11877369D01*
X7286500Y-11877369D01*
X7286500Y-12021425D01*
X7302375Y-12037300D01*
X7387300Y-12037300D01*
X7387300Y-11842375D01*
X7412700Y-11842375D01*
X7412700Y-12037300D01*
X7497625Y-12037300D01*
X7513500Y-12021425D01*
X7513500Y-11877369D01*
X7503833Y-11854030D01*
X7485970Y-11836167D01*
X7462631Y-11826500D01*
X7428575Y-11826500D01*
X7412700Y-11842375D01*
X7387300Y-11842375D01*
X7371425Y-11826500D01*
X7337369Y-11826500D01*
X7314030Y-11836167D01*
X7296167Y-11854030D01*
X7286500Y-11877369D01*
X7112367Y-11877369D01*
X7110316Y-11866468D01*
X7096409Y-11844856D01*
X7076000Y-11830911D01*
X7076000Y-10219760D01*
X7913466Y-9382294D01*
X8744403Y-9382294D01*
X8764362Y-9430482D01*
X8808162Y-9477719D01*
X8866705Y-9504598D01*
X8892300Y-9492737D01*
X8892300Y-9356700D01*
X8917700Y-9356700D01*
X8917700Y-9492737D01*
X8943295Y-9504598D01*
X9001838Y-9477719D01*
X9045639Y-9430482D01*
X9065598Y-9382294D01*
X9053684Y-9356700D01*
X8917700Y-9356700D01*
X8892300Y-9356700D01*
X8756316Y-9356700D01*
X8744403Y-9382294D01*
X7913466Y-9382294D01*
X8075219Y-9220541D01*
X8081167Y-9226499D01*
X8115520Y-9240764D01*
X8152717Y-9240796D01*
X8187094Y-9226592D01*
X8190412Y-9223280D01*
X8713590Y-9223280D01*
X8742674Y-9217495D01*
X8744024Y-9216593D01*
X8756991Y-9236744D01*
X8773295Y-9247884D01*
X8764362Y-9257518D01*
X8744403Y-9305706D01*
X8756316Y-9331300D01*
X8892300Y-9331300D01*
X8892300Y-9329300D01*
X8917700Y-9329300D01*
X8917700Y-9331300D01*
X9053684Y-9331300D01*
X9065598Y-9305706D01*
X9045639Y-9257518D01*
X9036590Y-9247760D01*
X9051744Y-9238009D01*
X9066243Y-9216789D01*
X9071344Y-9191600D01*
X9071344Y-8988400D01*
X9066916Y-8964868D01*
X9053009Y-8943256D01*
X9031789Y-8928757D01*
X9006600Y-8923656D01*
X8988110Y-8923656D01*
X8998774Y-8921535D01*
X9023430Y-8905060D01*
X9079000Y-8849490D01*
X9079000Y-9825628D01*
X9047134Y-9748506D01*
X8951995Y-9653201D01*
X8827627Y-9601559D01*
X8692964Y-9601441D01*
X8568506Y-9652866D01*
X8473201Y-9748005D01*
X8421559Y-9872373D01*
X8421441Y-10007036D01*
X8472866Y-10131494D01*
X8568005Y-10226799D01*
X8692373Y-10278441D01*
X8827036Y-10278559D01*
X8951494Y-10227134D01*
X9046799Y-10131995D01*
X9079000Y-10054447D01*
X9079000Y-10529000D01*
X9000000Y-10529000D01*
X8972830Y-10534405D01*
X8949795Y-10549795D01*
X8934405Y-10572830D01*
X8929000Y-10600000D01*
X8929000Y-10665979D01*
X8894177Y-10651519D01*
X8851013Y-10651481D01*
X8811120Y-10667965D01*
X8780572Y-10698460D01*
X8764019Y-10738323D01*
X8763981Y-10781487D01*
X8780465Y-10821380D01*
X8810960Y-10851928D01*
X8850823Y-10868481D01*
X8893987Y-10868519D01*
X8929000Y-10854052D01*
X8929000Y-10965979D01*
X8894177Y-10951519D01*
X8851013Y-10951481D01*
X8811120Y-10967965D01*
X8780572Y-10998460D01*
X8764019Y-11038323D01*
X8763981Y-11081487D01*
X8780465Y-11121380D01*
X8810960Y-11151928D01*
X8850823Y-11168481D01*
X8893987Y-11168519D01*
X8929000Y-11154052D01*
X8929000Y-11220000D01*
X8934405Y-11247170D01*
X8949795Y-11270205D01*
X8972830Y-11285595D01*
X9000000Y-11291000D01*
X9079000Y-11291000D01*
X9079000Y-13929000D01*
X8614415Y-13929000D01*
X8614520Y-13928843D01*
X8623160Y-13885408D01*
X8623160Y-13824884D01*
X8614520Y-13781449D01*
X8589917Y-13744627D01*
X8553095Y-13720023D01*
X8509660Y-13711384D01*
X8466225Y-13720023D01*
X8429403Y-13744627D01*
X8404800Y-13781449D01*
X8396160Y-13824884D01*
X8396160Y-13885408D01*
X8404800Y-13928843D01*
X8404905Y-13929000D01*
X7914415Y-13929000D01*
X7914520Y-13928843D01*
X7923160Y-13885408D01*
X7923160Y-13824884D01*
X7914520Y-13781449D01*
X7889917Y-13744627D01*
X7853095Y-13720023D01*
X7809660Y-13711384D01*
X7766225Y-13720023D01*
X7729403Y-13744627D01*
X7704800Y-13781449D01*
X7696160Y-13824884D01*
X7696160Y-13885408D01*
X7704800Y-13928843D01*
X7704905Y-13929000D01*
X4071000Y-13929000D01*
X4071000Y-13637036D01*
X4091441Y-13637036D01*
X4142866Y-13761494D01*
X4238005Y-13856799D01*
X4362373Y-13908441D01*
X4497036Y-13908559D01*
X4621494Y-13857134D01*
X4716799Y-13761995D01*
X4720525Y-13753021D01*
X5004939Y-13753021D01*
X5011886Y-13777240D01*
X5064230Y-13795914D01*
X5119737Y-13793136D01*
X5158114Y-13777240D01*
X5165061Y-13753021D01*
X5085000Y-13672960D01*
X5004939Y-13753021D01*
X4720525Y-13753021D01*
X4768441Y-13637627D01*
X4768444Y-13634230D01*
X4944086Y-13634230D01*
X4946864Y-13689737D01*
X4962760Y-13728114D01*
X4986979Y-13735061D01*
X5067040Y-13655000D01*
X5102961Y-13655000D01*
X5183021Y-13735061D01*
X5198056Y-13730748D01*
X5198056Y-13731200D01*
X5202484Y-13754732D01*
X5216391Y-13776344D01*
X5237611Y-13790843D01*
X5262800Y-13795944D01*
X5415200Y-13795944D01*
X5438732Y-13791516D01*
X5460344Y-13777609D01*
X5474843Y-13756389D01*
X5479944Y-13731200D01*
X5479944Y-13578800D01*
X5475516Y-13555268D01*
X5461609Y-13533656D01*
X5440389Y-13519157D01*
X5415200Y-13514056D01*
X5262800Y-13514056D01*
X5239268Y-13518484D01*
X5217656Y-13532391D01*
X5203157Y-13553611D01*
X5198056Y-13578800D01*
X5198056Y-13579252D01*
X5183021Y-13574939D01*
X5102961Y-13655000D01*
X5067040Y-13655000D01*
X4986979Y-13574939D01*
X4962760Y-13581886D01*
X4944086Y-13634230D01*
X4768444Y-13634230D01*
X4768511Y-13556979D01*
X5004939Y-13556979D01*
X5085000Y-13637039D01*
X5165061Y-13556979D01*
X5158114Y-13532760D01*
X5105770Y-13514086D01*
X5050263Y-13516864D01*
X5011886Y-13532760D01*
X5004939Y-13556979D01*
X4768511Y-13556979D01*
X4768559Y-13502964D01*
X4717134Y-13378506D01*
X4621995Y-13283201D01*
X4497627Y-13231559D01*
X4362964Y-13231441D01*
X4238506Y-13282866D01*
X4143201Y-13378005D01*
X4091559Y-13502373D01*
X4091441Y-13637036D01*
X4071000Y-13637036D01*
X4071000Y-12488021D01*
X4899939Y-12488021D01*
X4906886Y-12512240D01*
X4959230Y-12530914D01*
X5014737Y-12528136D01*
X5053114Y-12512240D01*
X5060061Y-12488021D01*
X4980000Y-12407960D01*
X4899939Y-12488021D01*
X4071000Y-12488021D01*
X4071000Y-12369230D01*
X4839086Y-12369230D01*
X4841864Y-12424737D01*
X4857760Y-12463114D01*
X4881979Y-12470061D01*
X4962040Y-12390000D01*
X4997961Y-12390000D01*
X5078021Y-12470061D01*
X5102240Y-12463114D01*
X5120914Y-12410770D01*
X5118136Y-12355263D01*
X5102240Y-12316886D01*
X5078021Y-12309939D01*
X4997961Y-12390000D01*
X4962040Y-12390000D01*
X4881979Y-12309939D01*
X4857760Y-12316886D01*
X4839086Y-12369230D01*
X4071000Y-12369230D01*
X4071000Y-12291979D01*
X4899939Y-12291979D01*
X4980000Y-12372039D01*
X5060061Y-12291979D01*
X5053114Y-12267760D01*
X5000770Y-12249086D01*
X4945263Y-12251864D01*
X4906886Y-12267760D01*
X4899939Y-12291979D01*
X4071000Y-12291979D01*
X4071000Y-9161000D01*
X4140000Y-9161000D01*
X4167170Y-9155595D01*
X4190205Y-9140205D01*
X4205595Y-9117171D01*
X4211000Y-9090000D01*
X4211000Y-9019021D01*
X4245823Y-9033481D01*
X4288987Y-9033519D01*
X4328880Y-9017035D01*
X4359428Y-8986541D01*
X4375981Y-8946677D01*
X4376019Y-8903513D01*
X4359535Y-8863620D01*
X4329041Y-8833072D01*
X4289177Y-8816519D01*
X4246013Y-8816481D01*
X4211000Y-8830948D01*
X4211000Y-8719021D01*
X4245823Y-8733481D01*
X4288987Y-8733519D01*
X4328880Y-8717035D01*
X4359428Y-8686541D01*
X4375981Y-8646677D01*
X4376019Y-8603513D01*
X4359535Y-8563620D01*
X4329041Y-8533072D01*
X4289177Y-8516519D01*
X4246013Y-8516481D01*
X4211000Y-8530948D01*
X4211000Y-8460000D01*
X4205595Y-8432830D01*
X4190205Y-8409795D01*
X4167170Y-8394405D01*
X4140000Y-8389000D01*
X4071000Y-8389000D01*
X4071000Y-4244400D01*
X4103656Y-4244400D01*
X4103656Y-4447600D01*
X4108084Y-4471132D01*
X4121991Y-4492744D01*
X4134910Y-4501571D01*
X4130117Y-4506356D01*
X4104929Y-4567016D01*
X4104871Y-4632696D01*
X4129953Y-4693400D01*
X4176356Y-4739883D01*
X4237016Y-4765071D01*
X4302696Y-4765129D01*
X4363400Y-4740047D01*
X4409883Y-4693644D01*
X4435071Y-4632985D01*
X4435129Y-4567304D01*
X4410047Y-4506601D01*
X4405013Y-4501558D01*
X4416744Y-4494009D01*
X4431243Y-4472789D01*
X4436344Y-4447600D01*
X4436344Y-4244400D01*
X4431916Y-4220868D01*
X4418009Y-4199256D01*
X4396789Y-4184757D01*
X4371600Y-4179656D01*
X4168400Y-4179656D01*
X4144868Y-4184084D01*
X4123256Y-4197991D01*
X4108757Y-4219211D01*
X4103656Y-4244400D01*
X4071000Y-4244400D01*
X4071000Y-4071000D01*
X8669830Y-4071000D01*
X8568506Y-4112866D01*
X8568506Y-4112866D01*
G37*
X8568506Y-4112866D02*
X8473201Y-4208005D01*
X8421559Y-4332373D01*
X8421441Y-4467036D01*
X8472866Y-4591494D01*
X8568005Y-4686799D01*
X8692373Y-4738441D01*
X8827036Y-4738559D01*
X8951494Y-4687134D01*
X9046799Y-4591995D01*
X9079000Y-4514447D01*
X9079000Y-4948550D01*
X9003600Y-4873150D01*
X8978944Y-4856675D01*
X8949860Y-4850890D01*
X8773110Y-4850890D01*
X8744026Y-4856675D01*
X8719370Y-4873150D01*
X8693624Y-4898896D01*
X8563640Y-4898896D01*
X8540108Y-4903324D01*
X8518496Y-4917231D01*
X8503997Y-4938451D01*
X8498896Y-4963640D01*
X8498896Y-4974000D01*
X7785940Y-4974000D01*
X7756856Y-4979785D01*
X7732200Y-4996260D01*
X7508352Y-5220108D01*
X7503803Y-5220104D01*
X7469426Y-5234308D01*
X7443101Y-5260587D01*
X7428836Y-5294940D01*
X7428804Y-5332137D01*
X7443008Y-5366514D01*
X7467251Y-5390799D01*
X7450462Y-5407588D01*
X7445913Y-5407584D01*
X7411536Y-5421788D01*
X7408218Y-5425100D01*
X7208501Y-5425100D01*
X7208516Y-5408023D01*
X7194312Y-5373646D01*
X7168033Y-5347321D01*
X7133680Y-5333056D01*
X7096483Y-5333024D01*
X7062106Y-5347228D01*
X7058788Y-5350540D01*
X5584370Y-5350540D01*
X5555286Y-5356325D01*
X5547768Y-5361349D01*
X5530630Y-5372800D01*
X5406942Y-5496488D01*
X5402393Y-5496484D01*
X5368016Y-5510688D01*
X5341691Y-5536967D01*
X5327426Y-5571320D01*
X5327394Y-5608517D01*
X5341598Y-5642894D01*
X5367877Y-5669219D01*
X5402230Y-5683484D01*
X5439427Y-5683516D01*
X5473804Y-5669312D01*
X5500129Y-5643033D01*
X5514394Y-5608680D01*
X5514398Y-5603992D01*
X5615850Y-5502540D01*
X6440370Y-5502540D01*
X6142800Y-5800110D01*
X6100097Y-5800110D01*
X6100106Y-5789563D01*
X6088892Y-5762424D01*
X6097989Y-5753343D01*
X6112254Y-5718990D01*
X6112286Y-5681793D01*
X6098082Y-5647416D01*
X6071803Y-5621091D01*
X6037450Y-5606826D01*
X6000253Y-5606794D01*
X5965876Y-5620998D01*
X5962558Y-5624310D01*
X5595660Y-5624310D01*
X5566576Y-5630095D01*
X5541920Y-5646570D01*
X5412402Y-5776088D01*
X5407853Y-5776084D01*
X5373476Y-5790288D01*
X5347151Y-5816567D01*
X5332886Y-5850920D01*
X5332854Y-5888117D01*
X5346328Y-5920727D01*
X5342331Y-5924717D01*
X5328066Y-5959070D01*
X5328034Y-5996267D01*
X5342238Y-6030644D01*
X5368517Y-6056969D01*
X5402870Y-6071234D01*
X5440067Y-6071266D01*
X5474444Y-6057062D01*
X5500769Y-6030783D01*
X5515034Y-5996430D01*
X5515038Y-5991742D01*
X5622700Y-5884080D01*
X5725550Y-5884080D01*
X5288300Y-6321330D01*
X5271825Y-6345986D01*
X5266040Y-6375070D01*
X5266040Y-11599510D01*
X5271825Y-11628594D01*
X5288300Y-11653250D01*
X5494215Y-11859165D01*
X5490357Y-11864811D01*
X5485256Y-11890000D01*
X5485256Y-12210000D01*
X5489684Y-12233532D01*
X5503591Y-12255144D01*
X5524000Y-12269089D01*
X5524000Y-12511272D01*
X5504856Y-12523591D01*
X5490357Y-12544811D01*
X5485256Y-12570000D01*
X5485256Y-12890000D01*
X5489684Y-12913532D01*
X5503591Y-12935144D01*
X5524811Y-12949643D01*
X5550000Y-12954744D01*
X5650000Y-12954744D01*
X5673532Y-12950316D01*
X5695144Y-12936409D01*
X5709643Y-12915189D01*
X5714744Y-12890000D01*
X5714744Y-12758575D01*
X5886500Y-12758575D01*
X5886500Y-12902631D01*
X5896167Y-12925970D01*
X5914030Y-12943833D01*
X5937369Y-12953500D01*
X5971425Y-12953500D01*
X5987300Y-12937625D01*
X5987300Y-12742700D01*
X6012700Y-12742700D01*
X6012700Y-12937625D01*
X6028575Y-12953500D01*
X6062631Y-12953500D01*
X6085970Y-12943833D01*
X6103833Y-12925970D01*
X6113500Y-12902631D01*
X6113500Y-12758575D01*
X6097625Y-12742700D01*
X6012700Y-12742700D01*
X5987300Y-12742700D01*
X5902375Y-12742700D01*
X5886500Y-12758575D01*
X5714744Y-12758575D01*
X5714744Y-12570000D01*
X5712367Y-12557369D01*
X5886500Y-12557369D01*
X5886500Y-12701425D01*
X5902375Y-12717300D01*
X5987300Y-12717300D01*
X5987300Y-12522375D01*
X6012700Y-12522375D01*
X6012700Y-12717300D01*
X6097625Y-12717300D01*
X6113500Y-12701425D01*
X6113500Y-12557369D01*
X6103833Y-12534030D01*
X6085970Y-12516167D01*
X6062631Y-12506500D01*
X6028575Y-12506500D01*
X6012700Y-12522375D01*
X5987300Y-12522375D01*
X5971425Y-12506500D01*
X5937369Y-12506500D01*
X5914030Y-12516167D01*
X5896167Y-12534030D01*
X5886500Y-12557369D01*
X5712367Y-12557369D01*
X5710316Y-12546468D01*
X5696409Y-12524856D01*
X5676000Y-12510911D01*
X5676000Y-12268728D01*
X5695144Y-12256409D01*
X5709643Y-12235189D01*
X5714744Y-12210000D01*
X5714744Y-12078575D01*
X5886500Y-12078575D01*
X5886500Y-12222631D01*
X5896167Y-12245970D01*
X5914030Y-12263833D01*
X5937369Y-12273500D01*
X5971425Y-12273500D01*
X5987300Y-12257625D01*
X5987300Y-12062700D01*
X6012700Y-12062700D01*
X6012700Y-12257625D01*
X6028575Y-12273500D01*
X6062631Y-12273500D01*
X6085970Y-12263833D01*
X6103833Y-12245970D01*
X6113500Y-12222631D01*
X6113500Y-12078575D01*
X6097625Y-12062700D01*
X6012700Y-12062700D01*
X5987300Y-12062700D01*
X5902375Y-12062700D01*
X5886500Y-12078575D01*
X5714744Y-12078575D01*
X5714744Y-11890000D01*
X5712367Y-11877369D01*
X5886500Y-11877369D01*
X5886500Y-12021425D01*
X5902375Y-12037300D01*
X5987300Y-12037300D01*
X5987300Y-11842375D01*
X6012700Y-11842375D01*
X6012700Y-12037300D01*
X6097625Y-12037300D01*
X6113500Y-12021425D01*
X6113500Y-11877369D01*
X6103833Y-11854030D01*
X6085970Y-11836167D01*
X6062631Y-11826500D01*
X6028575Y-11826500D01*
X6012700Y-11842375D01*
X5987300Y-11842375D01*
X5971425Y-11826500D01*
X5937369Y-11826500D01*
X5914030Y-11836167D01*
X5896167Y-11854030D01*
X5886500Y-11877369D01*
X5712367Y-11877369D01*
X5710316Y-11866468D01*
X5696409Y-11844856D01*
X5675189Y-11830357D01*
X5670414Y-11829390D01*
X5670215Y-11828386D01*
X5653740Y-11803730D01*
X5418040Y-11568030D01*
X5418040Y-10382990D01*
X6194215Y-11159165D01*
X6190357Y-11164811D01*
X6185256Y-11190000D01*
X6185256Y-11510000D01*
X6189684Y-11533532D01*
X6203591Y-11555144D01*
X6224000Y-11569089D01*
X6224000Y-11811272D01*
X6204856Y-11823591D01*
X6190357Y-11844811D01*
X6185256Y-11870000D01*
X6185256Y-12190000D01*
X6189684Y-12213532D01*
X6203591Y-12235144D01*
X6224811Y-12249643D01*
X6250000Y-12254744D01*
X6306530Y-12254744D01*
X6306530Y-12443460D01*
X6246260Y-12503730D01*
X6229785Y-12528386D01*
X6229646Y-12529086D01*
X6226468Y-12529684D01*
X6204856Y-12543591D01*
X6190357Y-12564811D01*
X6185256Y-12590000D01*
X6185256Y-12910000D01*
X6189684Y-12933532D01*
X6203591Y-12955144D01*
X6224000Y-12969089D01*
X6224000Y-13211272D01*
X6204856Y-13223591D01*
X6190357Y-13244811D01*
X6185256Y-13270000D01*
X6185256Y-13590000D01*
X6189684Y-13613532D01*
X6203591Y-13635144D01*
X6224811Y-13649643D01*
X6250000Y-13654744D01*
X6350000Y-13654744D01*
X6373532Y-13650316D01*
X6395144Y-13636409D01*
X6409643Y-13615189D01*
X6414744Y-13590000D01*
X6414744Y-13458575D01*
X6586500Y-13458575D01*
X6586500Y-13602631D01*
X6596167Y-13625970D01*
X6614030Y-13643833D01*
X6637369Y-13653500D01*
X6671425Y-13653500D01*
X6687300Y-13637625D01*
X6687300Y-13442700D01*
X6712700Y-13442700D01*
X6712700Y-13637625D01*
X6728575Y-13653500D01*
X6762631Y-13653500D01*
X6785970Y-13643833D01*
X6803833Y-13625970D01*
X6813500Y-13602631D01*
X6813500Y-13585146D01*
X7781191Y-13585146D01*
X7789641Y-13627624D01*
X7813703Y-13663635D01*
X7849714Y-13687697D01*
X7892191Y-13696146D01*
X7927128Y-13696146D01*
X7969606Y-13687697D01*
X8005617Y-13663635D01*
X8029679Y-13627624D01*
X8038128Y-13585146D01*
X8281191Y-13585146D01*
X8289641Y-13627624D01*
X8313703Y-13663635D01*
X8349714Y-13687697D01*
X8392192Y-13696146D01*
X8427129Y-13696146D01*
X8469606Y-13687697D01*
X8505617Y-13663635D01*
X8529679Y-13627624D01*
X8538129Y-13585146D01*
X8529679Y-13542668D01*
X8505617Y-13506657D01*
X8469606Y-13482595D01*
X8427129Y-13474146D01*
X8392192Y-13474146D01*
X8349714Y-13482595D01*
X8313703Y-13506657D01*
X8289641Y-13542668D01*
X8281191Y-13585146D01*
X8038128Y-13585146D01*
X8029679Y-13542668D01*
X8005617Y-13506657D01*
X7969606Y-13482595D01*
X7927128Y-13474146D01*
X7892191Y-13474146D01*
X7849714Y-13482595D01*
X7813703Y-13506657D01*
X7789641Y-13542668D01*
X7781191Y-13585146D01*
X6813500Y-13585146D01*
X6813500Y-13458575D01*
X6797625Y-13442700D01*
X6712700Y-13442700D01*
X6687300Y-13442700D01*
X6602375Y-13442700D01*
X6586500Y-13458575D01*
X6414744Y-13458575D01*
X6414744Y-13270000D01*
X6412367Y-13257369D01*
X6586500Y-13257369D01*
X6586500Y-13401425D01*
X6602375Y-13417300D01*
X6687300Y-13417300D01*
X6687300Y-13222375D01*
X6712700Y-13222375D01*
X6712700Y-13417300D01*
X6797625Y-13417300D01*
X6813500Y-13401425D01*
X6813500Y-13257369D01*
X6803833Y-13234030D01*
X6785970Y-13216167D01*
X6762631Y-13206500D01*
X6728575Y-13206500D01*
X6712700Y-13222375D01*
X6687300Y-13222375D01*
X6671425Y-13206500D01*
X6637369Y-13206500D01*
X6614030Y-13216167D01*
X6596167Y-13234030D01*
X6586500Y-13257369D01*
X6412367Y-13257369D01*
X6410316Y-13246468D01*
X6396409Y-13224856D01*
X6376000Y-13210911D01*
X6376000Y-12968728D01*
X6395144Y-12956409D01*
X6409643Y-12935189D01*
X6414744Y-12910000D01*
X6414744Y-12778575D01*
X6586500Y-12778575D01*
X6586500Y-12922631D01*
X6596167Y-12945970D01*
X6614030Y-12963833D01*
X6637369Y-12973500D01*
X6671425Y-12973500D01*
X6687300Y-12957625D01*
X6687300Y-12762700D01*
X6712700Y-12762700D01*
X6712700Y-12957625D01*
X6728575Y-12973500D01*
X6762631Y-12973500D01*
X6785970Y-12963833D01*
X6803833Y-12945970D01*
X6813500Y-12922631D01*
X6813500Y-12778575D01*
X6797625Y-12762700D01*
X6712700Y-12762700D01*
X6687300Y-12762700D01*
X6602375Y-12762700D01*
X6586500Y-12778575D01*
X6414744Y-12778575D01*
X6414744Y-12590000D01*
X6412367Y-12577369D01*
X6586500Y-12577369D01*
X6586500Y-12721425D01*
X6602375Y-12737300D01*
X6687300Y-12737300D01*
X6687300Y-12542375D01*
X6712700Y-12542375D01*
X6712700Y-12737300D01*
X6797625Y-12737300D01*
X6813500Y-12721425D01*
X6813500Y-12577369D01*
X6803833Y-12554030D01*
X6785970Y-12536167D01*
X6762631Y-12526500D01*
X6728575Y-12526500D01*
X6712700Y-12542375D01*
X6687300Y-12542375D01*
X6671425Y-12526500D01*
X6637369Y-12526500D01*
X6614030Y-12536167D01*
X6596167Y-12554030D01*
X6586500Y-12577369D01*
X6412367Y-12577369D01*
X6410316Y-12566468D01*
X6405683Y-12559268D01*
X6436270Y-12528680D01*
X6452745Y-12504024D01*
X6453705Y-12499199D01*
X6458530Y-12474940D01*
X6458530Y-12058575D01*
X6586500Y-12058575D01*
X6586500Y-12202631D01*
X6596167Y-12225970D01*
X6614030Y-12243833D01*
X6637369Y-12253500D01*
X6671425Y-12253500D01*
X6687300Y-12237625D01*
X6687300Y-12042700D01*
X6712700Y-12042700D01*
X6712700Y-12237625D01*
X6728575Y-12253500D01*
X6762631Y-12253500D01*
X6785970Y-12243833D01*
X6803833Y-12225970D01*
X6813500Y-12202631D01*
X6813500Y-12058575D01*
X6797625Y-12042700D01*
X6712700Y-12042700D01*
X6687300Y-12042700D01*
X6602375Y-12042700D01*
X6586500Y-12058575D01*
X6458530Y-12058575D01*
X6458530Y-11857369D01*
X6586500Y-11857369D01*
X6586500Y-12001425D01*
X6602375Y-12017300D01*
X6687300Y-12017300D01*
X6687300Y-11822375D01*
X6712700Y-11822375D01*
X6712700Y-12017300D01*
X6797625Y-12017300D01*
X6813500Y-12001425D01*
X6813500Y-11857369D01*
X6803833Y-11834030D01*
X6785970Y-11816167D01*
X6762631Y-11806500D01*
X6728575Y-11806500D01*
X6712700Y-11822375D01*
X6687300Y-11822375D01*
X6671425Y-11806500D01*
X6637369Y-11806500D01*
X6614030Y-11816167D01*
X6596167Y-11834030D01*
X6586500Y-11857369D01*
X6458530Y-11857369D01*
X6458530Y-11378575D01*
X6586500Y-11378575D01*
X6586500Y-11522631D01*
X6596167Y-11545970D01*
X6614030Y-11563833D01*
X6637369Y-11573500D01*
X6671425Y-11573500D01*
X6687300Y-11557625D01*
X6687300Y-11362700D01*
X6712700Y-11362700D01*
X6712700Y-11557625D01*
X6728575Y-11573500D01*
X6762631Y-11573500D01*
X6785970Y-11563833D01*
X6803833Y-11545970D01*
X6813500Y-11522631D01*
X6813500Y-11378575D01*
X6797625Y-11362700D01*
X6712700Y-11362700D01*
X6687300Y-11362700D01*
X6602375Y-11362700D01*
X6586500Y-11378575D01*
X6458530Y-11378575D01*
X6458530Y-11177369D01*
X6586500Y-11177369D01*
X6586500Y-11321425D01*
X6602375Y-11337300D01*
X6687300Y-11337300D01*
X6687300Y-11142375D01*
X6712700Y-11142375D01*
X6712700Y-11337300D01*
X6797625Y-11337300D01*
X6813500Y-11321425D01*
X6813500Y-11177369D01*
X6803833Y-11154030D01*
X6785970Y-11136167D01*
X6762631Y-11126500D01*
X6728575Y-11126500D01*
X6712700Y-11142375D01*
X6687300Y-11142375D01*
X6671425Y-11126500D01*
X6637369Y-11126500D01*
X6614030Y-11136167D01*
X6596167Y-11154030D01*
X6586500Y-11177369D01*
X6458530Y-11177369D01*
X6458530Y-10644270D01*
X6452745Y-10615186D01*
X6452745Y-10615186D01*
X6436270Y-10590530D01*
X5508260Y-9662520D01*
X5508260Y-7620240D01*
X5681070Y-7793050D01*
X5705726Y-7809525D01*
X5734810Y-7815310D01*
X6378614Y-7815310D01*
X6381827Y-7818529D01*
X6416180Y-7832794D01*
X6453377Y-7832826D01*
X6487754Y-7818622D01*
X6514079Y-7792343D01*
X6528344Y-7757990D01*
X6528376Y-7720793D01*
X6514172Y-7686416D01*
X6487893Y-7660091D01*
X6453540Y-7645826D01*
X6416343Y-7645794D01*
X6381966Y-7659998D01*
X6378648Y-7663310D01*
X5766290Y-7663310D01*
X5592062Y-7489082D01*
X5592066Y-7484533D01*
X5577862Y-7450156D01*
X5551583Y-7423831D01*
X5517230Y-7409566D01*
X5508260Y-7409558D01*
X5508260Y-7164770D01*
X5742260Y-7398770D01*
X5766916Y-7415245D01*
X5796000Y-7421030D01*
X6375984Y-7421030D01*
X6379197Y-7424249D01*
X6413550Y-7438514D01*
X6450747Y-7438546D01*
X6485124Y-7424342D01*
X6511449Y-7398063D01*
X6525714Y-7363710D01*
X6525746Y-7326513D01*
X6511542Y-7292136D01*
X6485263Y-7265811D01*
X6450910Y-7251546D01*
X6413713Y-7251514D01*
X6379336Y-7265718D01*
X6376018Y-7269030D01*
X5827480Y-7269030D01*
X5592062Y-7033612D01*
X5592066Y-7029063D01*
X5577862Y-6994686D01*
X5551583Y-6968361D01*
X5528519Y-6958784D01*
X5551444Y-6949312D01*
X5554762Y-6946000D01*
X6140990Y-6946000D01*
X6339348Y-7144358D01*
X6339344Y-7148907D01*
X6353548Y-7183284D01*
X6379827Y-7209609D01*
X6414180Y-7223874D01*
X6451377Y-7223906D01*
X6485754Y-7209702D01*
X6512079Y-7183423D01*
X6526344Y-7149070D01*
X6526376Y-7111873D01*
X6512172Y-7077496D01*
X6485893Y-7051171D01*
X6451540Y-7036906D01*
X6446852Y-7036902D01*
X6226210Y-6816260D01*
X6201554Y-6799785D01*
X6172470Y-6794000D01*
X5554796Y-6794000D01*
X5551583Y-6790781D01*
X5517230Y-6776516D01*
X5508260Y-6776508D01*
X5508260Y-6690978D01*
X5517067Y-6690986D01*
X5551444Y-6676782D01*
X5554762Y-6673470D01*
X6456790Y-6673470D01*
X6460423Y-6672747D01*
X6493517Y-6672776D01*
X6527894Y-6658572D01*
X6535528Y-6650951D01*
X6556680Y-6659734D01*
X6593877Y-6659766D01*
X6628254Y-6645562D01*
X6643956Y-6629887D01*
X6661967Y-6647929D01*
X6696320Y-6662194D01*
X6733517Y-6662226D01*
X6767894Y-6648022D01*
X6794219Y-6621743D01*
X6808484Y-6587390D01*
X6808516Y-6550193D01*
X6794312Y-6515816D01*
X6768033Y-6489491D01*
X6733680Y-6475226D01*
X6728992Y-6475222D01*
X6659482Y-6405711D01*
X6687894Y-6393972D01*
X6712032Y-6369876D01*
X6733387Y-6391269D01*
X6767740Y-6405534D01*
X6804937Y-6405566D01*
X6839314Y-6391362D01*
X6852317Y-6378382D01*
X6856320Y-6380044D01*
X6893517Y-6380076D01*
X6927894Y-6365872D01*
X6954219Y-6339593D01*
X6968484Y-6305240D01*
X6968494Y-6292963D01*
X6976928Y-6313374D01*
X7003207Y-6339699D01*
X7037560Y-6353964D01*
X7074757Y-6353996D01*
X7109134Y-6339792D01*
X7112826Y-6336106D01*
X7450820Y-6674100D01*
X7450820Y-7042334D01*
X7447601Y-7045547D01*
X7433336Y-7079900D01*
X7433304Y-7117097D01*
X7447508Y-7151474D01*
X7473787Y-7177799D01*
X7508140Y-7192064D01*
X7545337Y-7192096D01*
X7579714Y-7177892D01*
X7606039Y-7151613D01*
X7620304Y-7117260D01*
X7620336Y-7080063D01*
X7606132Y-7045686D01*
X7602820Y-7042368D01*
X7602820Y-6762410D01*
X7764148Y-6923738D01*
X7764144Y-6928287D01*
X7778348Y-6962664D01*
X7804627Y-6988989D01*
X7838980Y-7003254D01*
X7844200Y-7003258D01*
X7844200Y-7005282D01*
X7839926Y-7007048D01*
X7813601Y-7033327D01*
X7799336Y-7067680D01*
X7799304Y-7104877D01*
X7813508Y-7139254D01*
X7839787Y-7165579D01*
X7874140Y-7179844D01*
X7901860Y-7179868D01*
X7901860Y-7737980D01*
X7907645Y-7767064D01*
X7924120Y-7791720D01*
X8771696Y-8639296D01*
X8748073Y-8674651D01*
X8736666Y-8732000D01*
X8745282Y-8775320D01*
X8336960Y-8775320D01*
X8307876Y-8781105D01*
X8283220Y-8797580D01*
X6946260Y-10134540D01*
X6929785Y-10159196D01*
X6924000Y-10188280D01*
X6924000Y-11831272D01*
X6904856Y-11843591D01*
X6890357Y-11864811D01*
X6885256Y-11890000D01*
X6885256Y-12210000D01*
X6889684Y-12233532D01*
X6903591Y-12255144D01*
X6924000Y-12269089D01*
X6924000Y-12511272D01*
X6904856Y-12523591D01*
X6890357Y-12544811D01*
X6885256Y-12570000D01*
X6885256Y-12890000D01*
X6889684Y-12913532D01*
X6903591Y-12935144D01*
X6924811Y-12949643D01*
X6950000Y-12954744D01*
X7050000Y-12954744D01*
X7073532Y-12950316D01*
X7095144Y-12936409D01*
X7109643Y-12915189D01*
X7114744Y-12890000D01*
X7114744Y-12758575D01*
X7286500Y-12758575D01*
X7286500Y-12902631D01*
X7296167Y-12925970D01*
X7314030Y-12943833D01*
X7337369Y-12953500D01*
X7371425Y-12953500D01*
X7387300Y-12937625D01*
X7387300Y-12742700D01*
X7412700Y-12742700D01*
X7412700Y-12937625D01*
X7428575Y-12953500D01*
X7462631Y-12953500D01*
X7485970Y-12943833D01*
X7503833Y-12925970D01*
X7513500Y-12902631D01*
X7513500Y-12758575D01*
X7497625Y-12742700D01*
X7412700Y-12742700D01*
X7387300Y-12742700D01*
X7302375Y-12742700D01*
X7286500Y-12758575D01*
X7114744Y-12758575D01*
X7114744Y-12570000D01*
X7112367Y-12557369D01*
X7286500Y-12557369D01*
X7286500Y-12701425D01*
X7302375Y-12717300D01*
X7387300Y-12717300D01*
X7387300Y-12522375D01*
X7412700Y-12522375D01*
X7412700Y-12717300D01*
X7497625Y-12717300D01*
X7513500Y-12701425D01*
X7513500Y-12557369D01*
X7503833Y-12534030D01*
X7485970Y-12516167D01*
X7462631Y-12506500D01*
X7428575Y-12506500D01*
X7412700Y-12522375D01*
X7387300Y-12522375D01*
X7371425Y-12506500D01*
X7337369Y-12506500D01*
X7314030Y-12516167D01*
X7296167Y-12534030D01*
X7286500Y-12557369D01*
X7112367Y-12557369D01*
X7110316Y-12546468D01*
X7096409Y-12524856D01*
X7076000Y-12510911D01*
X7076000Y-12313800D01*
X7739056Y-12313800D01*
X7739056Y-12466200D01*
X7743484Y-12489732D01*
X7757391Y-12511344D01*
X7778611Y-12525843D01*
X7803800Y-12530944D01*
X7956200Y-12530944D01*
X7979732Y-12526516D01*
X8001344Y-12512609D01*
X8015843Y-12491389D01*
X8020944Y-12466200D01*
X8020944Y-12466000D01*
X8125590Y-12466000D01*
X8326488Y-12666898D01*
X8326484Y-12671447D01*
X8340688Y-12705824D01*
X8366967Y-12732149D01*
X8401320Y-12746414D01*
X8438517Y-12746446D01*
X8472894Y-12732242D01*
X8499219Y-12705963D01*
X8513484Y-12671610D01*
X8513516Y-12634413D01*
X8499312Y-12600036D01*
X8473033Y-12573711D01*
X8438680Y-12559446D01*
X8433992Y-12559442D01*
X8210810Y-12336260D01*
X8186154Y-12319785D01*
X8157070Y-12314000D01*
X8020944Y-12314000D01*
X8020944Y-12313800D01*
X8016516Y-12290268D01*
X8002609Y-12268656D01*
X7981389Y-12254157D01*
X7956200Y-12249056D01*
X7803800Y-12249056D01*
X7780268Y-12253484D01*
X7758656Y-12267391D01*
X7744157Y-12288611D01*
X7739056Y-12313800D01*
X7076000Y-12313800D01*
X7076000Y-12268728D01*
X7095144Y-12256409D01*
X7109643Y-12235189D01*
X7114744Y-12210000D01*
X7114744Y-12078575D01*
X7286500Y-12078575D01*
X7286500Y-12222631D01*
X7296167Y-12245970D01*
X7314030Y-12263833D01*
X7337369Y-12273500D01*
X7371425Y-12273500D01*
X7387300Y-12257625D01*
X7387300Y-12062700D01*
X7412700Y-12062700D01*
X7412700Y-12257625D01*
X7428575Y-12273500D01*
X7462631Y-12273500D01*
X7485970Y-12263833D01*
X7503833Y-12245970D01*
X7513500Y-12222631D01*
X7513500Y-12078575D01*
X7497625Y-12062700D01*
X7412700Y-12062700D01*
X7387300Y-12062700D01*
X7302375Y-12062700D01*
X7286500Y-12078575D01*
X7114744Y-12078575D01*
X7114744Y-11890000D01*
X7112367Y-11877369D01*
X7286500Y-11877369D01*
X7286500Y-12021425D01*
X7302375Y-12037300D01*
X7387300Y-12037300D01*
X7387300Y-11842375D01*
X7412700Y-11842375D01*
X7412700Y-12037300D01*
X7497625Y-12037300D01*
X7513500Y-12021425D01*
X7513500Y-11877369D01*
X7503833Y-11854030D01*
X7485970Y-11836167D01*
X7462631Y-11826500D01*
X7428575Y-11826500D01*
X7412700Y-11842375D01*
X7387300Y-11842375D01*
X7371425Y-11826500D01*
X7337369Y-11826500D01*
X7314030Y-11836167D01*
X7296167Y-11854030D01*
X7286500Y-11877369D01*
X7112367Y-11877369D01*
X7110316Y-11866468D01*
X7096409Y-11844856D01*
X7076000Y-11830911D01*
X7076000Y-10219760D01*
X7913466Y-9382294D01*
X8744403Y-9382294D01*
X8764362Y-9430482D01*
X8808162Y-9477719D01*
X8866705Y-9504598D01*
X8892300Y-9492737D01*
X8892300Y-9356700D01*
X8917700Y-9356700D01*
X8917700Y-9492737D01*
X8943295Y-9504598D01*
X9001838Y-9477719D01*
X9045639Y-9430482D01*
X9065598Y-9382294D01*
X9053684Y-9356700D01*
X8917700Y-9356700D01*
X8892300Y-9356700D01*
X8756316Y-9356700D01*
X8744403Y-9382294D01*
X7913466Y-9382294D01*
X8075219Y-9220541D01*
X8081167Y-9226499D01*
X8115520Y-9240764D01*
X8152717Y-9240796D01*
X8187094Y-9226592D01*
X8190412Y-9223280D01*
X8713590Y-9223280D01*
X8742674Y-9217495D01*
X8744024Y-9216593D01*
X8756991Y-9236744D01*
X8773295Y-9247884D01*
X8764362Y-9257518D01*
X8744403Y-9305706D01*
X8756316Y-9331300D01*
X8892300Y-9331300D01*
X8892300Y-9329300D01*
X8917700Y-9329300D01*
X8917700Y-9331300D01*
X9053684Y-9331300D01*
X9065598Y-9305706D01*
X9045639Y-9257518D01*
X9036590Y-9247760D01*
X9051744Y-9238009D01*
X9066243Y-9216789D01*
X9071344Y-9191600D01*
X9071344Y-8988400D01*
X9066916Y-8964868D01*
X9053009Y-8943256D01*
X9031789Y-8928757D01*
X9006600Y-8923656D01*
X8988110Y-8923656D01*
X8998774Y-8921535D01*
X9023430Y-8905060D01*
X9079000Y-8849490D01*
X9079000Y-9825628D01*
X9047134Y-9748506D01*
X8951995Y-9653201D01*
X8827627Y-9601559D01*
X8692964Y-9601441D01*
X8568506Y-9652866D01*
X8473201Y-9748005D01*
X8421559Y-9872373D01*
X8421441Y-10007036D01*
X8472866Y-10131494D01*
X8568005Y-10226799D01*
X8692373Y-10278441D01*
X8827036Y-10278559D01*
X8951494Y-10227134D01*
X9046799Y-10131995D01*
X9079000Y-10054447D01*
X9079000Y-10529000D01*
X9000000Y-10529000D01*
X8972830Y-10534405D01*
X8949795Y-10549795D01*
X8934405Y-10572830D01*
X8929000Y-10600000D01*
X8929000Y-10665979D01*
X8894177Y-10651519D01*
X8851013Y-10651481D01*
X8811120Y-10667965D01*
X8780572Y-10698460D01*
X8764019Y-10738323D01*
X8763981Y-10781487D01*
X8780465Y-10821380D01*
X8810960Y-10851928D01*
X8850823Y-10868481D01*
X8893987Y-10868519D01*
X8929000Y-10854052D01*
X8929000Y-10965979D01*
X8894177Y-10951519D01*
X8851013Y-10951481D01*
X8811120Y-10967965D01*
X8780572Y-10998460D01*
X8764019Y-11038323D01*
X8763981Y-11081487D01*
X8780465Y-11121380D01*
X8810960Y-11151928D01*
X8850823Y-11168481D01*
X8893987Y-11168519D01*
X8929000Y-11154052D01*
X8929000Y-11220000D01*
X8934405Y-11247170D01*
X8949795Y-11270205D01*
X8972830Y-11285595D01*
X9000000Y-11291000D01*
X9079000Y-11291000D01*
X9079000Y-13929000D01*
X8614415Y-13929000D01*
X8614520Y-13928843D01*
X8623160Y-13885408D01*
X8623160Y-13824884D01*
X8614520Y-13781449D01*
X8589917Y-13744627D01*
X8553095Y-13720023D01*
X8509660Y-13711384D01*
X8466225Y-13720023D01*
X8429403Y-13744627D01*
X8404800Y-13781449D01*
X8396160Y-13824884D01*
X8396160Y-13885408D01*
X8404800Y-13928843D01*
X8404905Y-13929000D01*
X7914415Y-13929000D01*
X7914520Y-13928843D01*
X7923160Y-13885408D01*
X7923160Y-13824884D01*
X7914520Y-13781449D01*
X7889917Y-13744627D01*
X7853095Y-13720023D01*
X7809660Y-13711384D01*
X7766225Y-13720023D01*
X7729403Y-13744627D01*
X7704800Y-13781449D01*
X7696160Y-13824884D01*
X7696160Y-13885408D01*
X7704800Y-13928843D01*
X7704905Y-13929000D01*
X4071000Y-13929000D01*
X4071000Y-13637036D01*
X4091441Y-13637036D01*
X4142866Y-13761494D01*
X4238005Y-13856799D01*
X4362373Y-13908441D01*
X4497036Y-13908559D01*
X4621494Y-13857134D01*
X4716799Y-13761995D01*
X4720525Y-13753021D01*
X5004939Y-13753021D01*
X5011886Y-13777240D01*
X5064230Y-13795914D01*
X5119737Y-13793136D01*
X5158114Y-13777240D01*
X5165061Y-13753021D01*
X5085000Y-13672960D01*
X5004939Y-13753021D01*
X4720525Y-13753021D01*
X4768441Y-13637627D01*
X4768444Y-13634230D01*
X4944086Y-13634230D01*
X4946864Y-13689737D01*
X4962760Y-13728114D01*
X4986979Y-13735061D01*
X5067040Y-13655000D01*
X5102961Y-13655000D01*
X5183021Y-13735061D01*
X5198056Y-13730748D01*
X5198056Y-13731200D01*
X5202484Y-13754732D01*
X5216391Y-13776344D01*
X5237611Y-13790843D01*
X5262800Y-13795944D01*
X5415200Y-13795944D01*
X5438732Y-13791516D01*
X5460344Y-13777609D01*
X5474843Y-13756389D01*
X5479944Y-13731200D01*
X5479944Y-13578800D01*
X5475516Y-13555268D01*
X5461609Y-13533656D01*
X5440389Y-13519157D01*
X5415200Y-13514056D01*
X5262800Y-13514056D01*
X5239268Y-13518484D01*
X5217656Y-13532391D01*
X5203157Y-13553611D01*
X5198056Y-13578800D01*
X5198056Y-13579252D01*
X5183021Y-13574939D01*
X5102961Y-13655000D01*
X5067040Y-13655000D01*
X4986979Y-13574939D01*
X4962760Y-13581886D01*
X4944086Y-13634230D01*
X4768444Y-13634230D01*
X4768511Y-13556979D01*
X5004939Y-13556979D01*
X5085000Y-13637039D01*
X5165061Y-13556979D01*
X5158114Y-13532760D01*
X5105770Y-13514086D01*
X5050263Y-13516864D01*
X5011886Y-13532760D01*
X5004939Y-13556979D01*
X4768511Y-13556979D01*
X4768559Y-13502964D01*
X4717134Y-13378506D01*
X4621995Y-13283201D01*
X4497627Y-13231559D01*
X4362964Y-13231441D01*
X4238506Y-13282866D01*
X4143201Y-13378005D01*
X4091559Y-13502373D01*
X4091441Y-13637036D01*
X4071000Y-13637036D01*
X4071000Y-12488021D01*
X4899939Y-12488021D01*
X4906886Y-12512240D01*
X4959230Y-12530914D01*
X5014737Y-12528136D01*
X5053114Y-12512240D01*
X5060061Y-12488021D01*
X4980000Y-12407960D01*
X4899939Y-12488021D01*
X4071000Y-12488021D01*
X4071000Y-12369230D01*
X4839086Y-12369230D01*
X4841864Y-12424737D01*
X4857760Y-12463114D01*
X4881979Y-12470061D01*
X4962040Y-12390000D01*
X4997961Y-12390000D01*
X5078021Y-12470061D01*
X5102240Y-12463114D01*
X5120914Y-12410770D01*
X5118136Y-12355263D01*
X5102240Y-12316886D01*
X5078021Y-12309939D01*
X4997961Y-12390000D01*
X4962040Y-12390000D01*
X4881979Y-12309939D01*
X4857760Y-12316886D01*
X4839086Y-12369230D01*
X4071000Y-12369230D01*
X4071000Y-12291979D01*
X4899939Y-12291979D01*
X4980000Y-12372039D01*
X5060061Y-12291979D01*
X5053114Y-12267760D01*
X5000770Y-12249086D01*
X4945263Y-12251864D01*
X4906886Y-12267760D01*
X4899939Y-12291979D01*
X4071000Y-12291979D01*
X4071000Y-9161000D01*
X4140000Y-9161000D01*
X4167170Y-9155595D01*
X4190205Y-9140205D01*
X4205595Y-9117171D01*
X4211000Y-9090000D01*
X4211000Y-9019021D01*
X4245823Y-9033481D01*
X4288987Y-9033519D01*
X4328880Y-9017035D01*
X4359428Y-8986541D01*
X4375981Y-8946677D01*
X4376019Y-8903513D01*
X4359535Y-8863620D01*
X4329041Y-8833072D01*
X4289177Y-8816519D01*
X4246013Y-8816481D01*
X4211000Y-8830948D01*
X4211000Y-8719021D01*
X4245823Y-8733481D01*
X4288987Y-8733519D01*
X4328880Y-8717035D01*
X4359428Y-8686541D01*
X4375981Y-8646677D01*
X4376019Y-8603513D01*
X4359535Y-8563620D01*
X4329041Y-8533072D01*
X4289177Y-8516519D01*
X4246013Y-8516481D01*
X4211000Y-8530948D01*
X4211000Y-8460000D01*
X4205595Y-8432830D01*
X4190205Y-8409795D01*
X4167170Y-8394405D01*
X4140000Y-8389000D01*
X4071000Y-8389000D01*
X4071000Y-4244400D01*
X4103656Y-4244400D01*
X4103656Y-4447600D01*
X4108084Y-4471132D01*
X4121991Y-4492744D01*
X4134910Y-4501571D01*
X4130117Y-4506356D01*
X4104929Y-4567016D01*
X4104871Y-4632696D01*
X4129953Y-4693400D01*
X4176356Y-4739883D01*
X4237016Y-4765071D01*
X4302696Y-4765129D01*
X4363400Y-4740047D01*
X4409883Y-4693644D01*
X4435071Y-4632985D01*
X4435129Y-4567304D01*
X4410047Y-4506601D01*
X4405013Y-4501558D01*
X4416744Y-4494009D01*
X4431243Y-4472789D01*
X4436344Y-4447600D01*
X4436344Y-4244400D01*
X4431916Y-4220868D01*
X4418009Y-4199256D01*
X4396789Y-4184757D01*
X4371600Y-4179656D01*
X4168400Y-4179656D01*
X4144868Y-4184084D01*
X4123256Y-4197991D01*
X4108757Y-4219211D01*
X4103656Y-4244400D01*
X4071000Y-4244400D01*
X4071000Y-4071000D01*
X8669830Y-4071000D01*
X8568506Y-4112866D01*
G36*
X6306530Y-10675750D02*
X6306530Y-11056520D01*
X5463230Y-10213220D01*
X5463230Y-9832450D01*
X6306530Y-10675750D01*
X6306530Y-10675750D01*
G37*
X6306530Y-10675750D02*
X6306530Y-11056520D01*
X5463230Y-10213220D01*
X5463230Y-9832450D01*
X6306530Y-10675750D01*
G36*
X8917700Y-8211300D02*
X8919700Y-8211300D01*
X8919700Y-8236700D01*
X8917700Y-8236700D01*
X8917700Y-8238700D01*
X8892300Y-8238700D01*
X8892300Y-8236700D01*
X8890300Y-8236700D01*
X8890300Y-8211300D01*
X8892300Y-8211300D01*
X8892300Y-8209300D01*
X8917700Y-8209300D01*
X8917700Y-8211300D01*
X8917700Y-8211300D01*
G37*
X8917700Y-8211300D02*
X8919700Y-8211300D01*
X8919700Y-8236700D01*
X8917700Y-8236700D01*
X8917700Y-8238700D01*
X8892300Y-8238700D01*
X8892300Y-8236700D01*
X8890300Y-8236700D01*
X8890300Y-8211300D01*
X8892300Y-8211300D01*
X8892300Y-8209300D01*
X8917700Y-8209300D01*
X8917700Y-8211300D01*
G36*
X8717130Y-6920740D02*
X8741786Y-6937215D01*
X8758951Y-6940629D01*
X8780559Y-6972967D01*
X8829177Y-7005453D01*
X8886526Y-7016860D01*
X8923475Y-7016860D01*
X8980823Y-7005453D01*
X9010460Y-6985650D01*
X9010460Y-7819678D01*
X9006600Y-7818896D01*
X8803400Y-7818896D01*
X8779868Y-7823324D01*
X8758256Y-7837231D01*
X8743757Y-7858451D01*
X8738656Y-7883640D01*
X8738656Y-8056360D01*
X8743084Y-8079892D01*
X8756991Y-8101504D01*
X8778211Y-8116003D01*
X8787693Y-8117923D01*
X8769927Y-8133796D01*
X8758623Y-8157263D01*
X8098890Y-7497530D01*
X8098890Y-6851520D01*
X8093105Y-6822436D01*
X8076630Y-6797780D01*
X7026040Y-5747190D01*
X7319268Y-5747190D01*
X7332748Y-5779814D01*
X7359027Y-5806139D01*
X7393380Y-5820404D01*
X7398068Y-5820408D01*
X8120660Y-6543000D01*
X8120660Y-6856304D01*
X8117441Y-6859517D01*
X8103176Y-6893870D01*
X8103144Y-6931067D01*
X8117348Y-6965444D01*
X8143627Y-6991769D01*
X8177980Y-7006034D01*
X8215177Y-7006066D01*
X8249554Y-6991862D01*
X8275879Y-6965583D01*
X8290144Y-6931230D01*
X8290176Y-6894033D01*
X8275972Y-6859656D01*
X8272660Y-6856338D01*
X8272660Y-6511520D01*
X8266875Y-6482436D01*
X8250400Y-6457780D01*
X7526990Y-5734370D01*
X7530760Y-5734370D01*
X8717130Y-6920740D01*
X8717130Y-6920740D01*
G37*
X8717130Y-6920740D02*
X8741786Y-6937215D01*
X8758951Y-6940629D01*
X8780559Y-6972967D01*
X8829177Y-7005453D01*
X8886526Y-7016860D01*
X8923475Y-7016860D01*
X8980823Y-7005453D01*
X9010460Y-6985650D01*
X9010460Y-7819678D01*
X9006600Y-7818896D01*
X8803400Y-7818896D01*
X8779868Y-7823324D01*
X8758256Y-7837231D01*
X8743757Y-7858451D01*
X8738656Y-7883640D01*
X8738656Y-8056360D01*
X8743084Y-8079892D01*
X8756991Y-8101504D01*
X8778211Y-8116003D01*
X8787693Y-8117923D01*
X8769927Y-8133796D01*
X8758623Y-8157263D01*
X8098890Y-7497530D01*
X8098890Y-6851520D01*
X8093105Y-6822436D01*
X8076630Y-6797780D01*
X7026040Y-5747190D01*
X7319268Y-5747190D01*
X7332748Y-5779814D01*
X7359027Y-5806139D01*
X7393380Y-5820404D01*
X7398068Y-5820408D01*
X8120660Y-6543000D01*
X8120660Y-6856304D01*
X8117441Y-6859517D01*
X8103176Y-6893870D01*
X8103144Y-6931067D01*
X8117348Y-6965444D01*
X8143627Y-6991769D01*
X8177980Y-7006034D01*
X8215177Y-7006066D01*
X8249554Y-6991862D01*
X8275879Y-6965583D01*
X8290144Y-6931230D01*
X8290176Y-6894033D01*
X8275972Y-6859656D01*
X8272660Y-6856338D01*
X8272660Y-6511520D01*
X8266875Y-6482436D01*
X8250400Y-6457780D01*
X7526990Y-5734370D01*
X7530760Y-5734370D01*
X8717130Y-6920740D01*
G36*
X8917700Y-6346300D02*
X8919700Y-6346300D01*
X8919700Y-6371700D01*
X8917700Y-6371700D01*
X8917700Y-6373700D01*
X8892300Y-6373700D01*
X8892300Y-6371700D01*
X8890300Y-6371700D01*
X8890300Y-6346300D01*
X8892300Y-6346300D01*
X8892300Y-6344300D01*
X8917700Y-6344300D01*
X8917700Y-6346300D01*
X8917700Y-6346300D01*
G37*
X8917700Y-6346300D02*
X8919700Y-6346300D01*
X8919700Y-6371700D01*
X8917700Y-6371700D01*
X8917700Y-6373700D01*
X8892300Y-6373700D01*
X8892300Y-6371700D01*
X8890300Y-6371700D01*
X8890300Y-6346300D01*
X8892300Y-6346300D01*
X8892300Y-6344300D01*
X8917700Y-6344300D01*
X8917700Y-6346300D01*
G36*
X8916700Y-5545300D02*
X8918700Y-5545300D01*
X8918700Y-5570700D01*
X8916700Y-5570700D01*
X8916700Y-5691447D01*
X8939903Y-5703497D01*
X8992849Y-5678682D01*
X9010460Y-5659388D01*
X9010460Y-5954678D01*
X9006600Y-5953896D01*
X8803400Y-5953896D01*
X8779868Y-5958324D01*
X8758256Y-5972231D01*
X8743757Y-5993451D01*
X8738656Y-6018640D01*
X8738656Y-6191360D01*
X8743084Y-6214892D01*
X8756991Y-6236504D01*
X8778211Y-6251003D01*
X8787693Y-6252923D01*
X8769927Y-6268796D01*
X8744529Y-6321521D01*
X8744264Y-6323097D01*
X8756378Y-6346300D01*
X8745780Y-6346300D01*
X8039110Y-5639630D01*
X8424120Y-5639630D01*
X8453204Y-5633845D01*
X8477860Y-5617370D01*
X8503845Y-5591385D01*
X8508612Y-5615349D01*
X8541097Y-5663967D01*
X8589715Y-5696453D01*
X8647064Y-5707860D01*
X8652936Y-5707860D01*
X8710285Y-5696453D01*
X8758903Y-5663967D01*
X8776999Y-5636884D01*
X8815151Y-5678682D01*
X8868097Y-5703497D01*
X8891300Y-5691447D01*
X8891300Y-5570700D01*
X8889300Y-5570700D01*
X8889300Y-5545300D01*
X8891300Y-5545300D01*
X8891300Y-5543300D01*
X8916700Y-5543300D01*
X8916700Y-5545300D01*
X8916700Y-5545300D01*
G37*
X8916700Y-5545300D02*
X8918700Y-5545300D01*
X8918700Y-5570700D01*
X8916700Y-5570700D01*
X8916700Y-5691447D01*
X8939903Y-5703497D01*
X8992849Y-5678682D01*
X9010460Y-5659388D01*
X9010460Y-5954678D01*
X9006600Y-5953896D01*
X8803400Y-5953896D01*
X8779868Y-5958324D01*
X8758256Y-5972231D01*
X8743757Y-5993451D01*
X8738656Y-6018640D01*
X8738656Y-6191360D01*
X8743084Y-6214892D01*
X8756991Y-6236504D01*
X8778211Y-6251003D01*
X8787693Y-6252923D01*
X8769927Y-6268796D01*
X8744529Y-6321521D01*
X8744264Y-6323097D01*
X8756378Y-6346300D01*
X8745780Y-6346300D01*
X8039110Y-5639630D01*
X8424120Y-5639630D01*
X8453204Y-5633845D01*
X8477860Y-5617370D01*
X8503845Y-5591385D01*
X8508612Y-5615349D01*
X8541097Y-5663967D01*
X8589715Y-5696453D01*
X8647064Y-5707860D01*
X8652936Y-5707860D01*
X8710285Y-5696453D01*
X8758903Y-5663967D01*
X8776999Y-5636884D01*
X8815151Y-5678682D01*
X8868097Y-5703497D01*
X8891300Y-5691447D01*
X8891300Y-5570700D01*
X8889300Y-5570700D01*
X8889300Y-5545300D01*
X8891300Y-5545300D01*
X8891300Y-5543300D01*
X8916700Y-5543300D01*
X8916700Y-5545300D01*
M02*
