G04 #@! TF.FileFunction,Legend,Top*
%FSLAX45Y45*%
G04 Gerber Fmt 4.5, Leading zero omitted, Abs format (unit mm)*
G04 Created by KiCad (PCBNEW 4.0.5+dfsg1-4) date Thu Jun 15 20:37:51 2017*
%MOMM*%
%LPD*%
G01*
G04 APERTURE LIST*
%ADD10C,0.100000*%
%ADD11C,0.150000*%
%ADD12C,0.300000*%
%ADD13C,0.200000*%
G04 APERTURE END LIST*
D10*
D11*
X4078095Y-8205238D02*
X4097143Y-8205238D01*
X4106667Y-8210000D01*
X4116190Y-8219524D01*
X4120952Y-8238571D01*
X4120952Y-8271905D01*
X4116190Y-8290952D01*
X4106667Y-8300476D01*
X4097143Y-8305238D01*
X4078095Y-8305238D01*
X4068571Y-8300476D01*
X4059048Y-8290952D01*
X4054286Y-8271905D01*
X4054286Y-8238571D01*
X4059048Y-8219524D01*
X4068571Y-8210000D01*
X4078095Y-8205238D01*
X4163809Y-8305238D02*
X4163809Y-8205238D01*
X4220952Y-8305238D01*
X4220952Y-8205238D01*
X8696191Y-7485000D02*
X8686667Y-7480238D01*
X8672381Y-7480238D01*
X8658095Y-7485000D01*
X8648571Y-7494524D01*
X8643810Y-7504048D01*
X8639048Y-7523095D01*
X8639048Y-7537381D01*
X8643810Y-7556429D01*
X8648571Y-7565952D01*
X8658095Y-7575476D01*
X8672381Y-7580238D01*
X8681905Y-7580238D01*
X8696191Y-7575476D01*
X8700952Y-7570714D01*
X8700952Y-7537381D01*
X8681905Y-7537381D01*
X8670000Y-7337619D02*
X8670000Y-7385238D01*
X8636667Y-7285238D02*
X8670000Y-7337619D01*
X8703333Y-7285238D01*
X8513810Y-9320000D02*
X8504286Y-9315238D01*
X8490000Y-9315238D01*
X8475714Y-9320000D01*
X8466191Y-9329524D01*
X8461429Y-9339048D01*
X8456667Y-9358095D01*
X8456667Y-9372381D01*
X8461429Y-9391429D01*
X8466191Y-9400952D01*
X8475714Y-9410476D01*
X8490000Y-9415238D01*
X8499524Y-9415238D01*
X8513810Y-9410476D01*
X8518572Y-9405714D01*
X8518572Y-9372381D01*
X8499524Y-9372381D01*
X8561429Y-9415238D02*
X8561429Y-9315238D01*
X8618572Y-9415238D01*
X8618572Y-9315238D01*
X8666191Y-9415238D02*
X8666191Y-9315238D01*
X8690000Y-9315238D01*
X8704286Y-9320000D01*
X8713810Y-9329524D01*
X8718572Y-9339048D01*
X8723333Y-9358095D01*
X8723333Y-9372381D01*
X8718572Y-9391429D01*
X8713810Y-9400952D01*
X8704286Y-9410476D01*
X8690000Y-9415238D01*
X8666191Y-9415238D01*
X8605952Y-9045238D02*
X8558333Y-9045238D01*
X8553571Y-9092857D01*
X8558333Y-9088095D01*
X8567857Y-9083333D01*
X8591667Y-9083333D01*
X8601191Y-9088095D01*
X8605952Y-9092857D01*
X8610714Y-9102381D01*
X8610714Y-9126191D01*
X8605952Y-9135714D01*
X8601191Y-9140476D01*
X8591667Y-9145238D01*
X8567857Y-9145238D01*
X8558333Y-9140476D01*
X8553571Y-9135714D01*
X8639286Y-9045238D02*
X8672619Y-9145238D01*
X8705952Y-9045238D01*
X8851905Y-13897143D02*
X8928095Y-13897143D01*
X8890000Y-13935238D02*
X8890000Y-13859048D01*
X8960000Y-13873809D02*
X8955238Y-13883333D01*
X8955238Y-13897619D01*
X8960000Y-13911905D01*
X8969524Y-13921429D01*
X8979048Y-13926190D01*
X8998095Y-13930952D01*
X9012381Y-13930952D01*
X9031429Y-13926190D01*
X9040952Y-13921429D01*
X9050476Y-13911905D01*
X9055238Y-13897619D01*
X9055238Y-13888095D01*
X9050476Y-13873809D01*
X9045714Y-13869048D01*
X9012381Y-13869048D01*
X9012381Y-13888095D01*
X8968095Y-10335238D02*
X8987143Y-10335238D01*
X8996667Y-10340000D01*
X9006191Y-10349524D01*
X9010952Y-10368571D01*
X9010952Y-10401905D01*
X9006191Y-10420952D01*
X8996667Y-10430476D01*
X8987143Y-10435238D01*
X8968095Y-10435238D01*
X8958571Y-10430476D01*
X8949048Y-10420952D01*
X8944286Y-10401905D01*
X8944286Y-10368571D01*
X8949048Y-10349524D01*
X8958571Y-10340000D01*
X8968095Y-10335238D01*
X9053810Y-10435238D02*
X9053810Y-10335238D01*
X9110952Y-10435238D01*
X9110952Y-10335238D01*
X8825238Y-13869048D02*
X8777619Y-13902381D01*
X8825238Y-13926190D02*
X8725238Y-13926190D01*
X8725238Y-13888095D01*
X8730000Y-13878571D01*
X8734762Y-13873809D01*
X8744286Y-13869048D01*
X8758571Y-13869048D01*
X8768095Y-13873809D01*
X8772857Y-13878571D01*
X8777619Y-13888095D01*
X8777619Y-13926190D01*
X6790952Y-4865238D02*
X6733809Y-4865238D01*
X6762381Y-4865238D02*
X6762381Y-4765238D01*
X6752857Y-4779524D01*
X6743333Y-4789048D01*
X6733809Y-4793810D01*
X6876667Y-4765238D02*
X6857619Y-4765238D01*
X6848095Y-4770000D01*
X6843333Y-4774762D01*
X6833809Y-4789048D01*
X6829048Y-4808095D01*
X6829048Y-4846191D01*
X6833809Y-4855714D01*
X6838571Y-4860476D01*
X6848095Y-4865238D01*
X6867143Y-4865238D01*
X6876667Y-4860476D01*
X6881429Y-4855714D01*
X6886190Y-4846191D01*
X6886190Y-4822381D01*
X6881429Y-4812857D01*
X6876667Y-4808095D01*
X6867143Y-4803333D01*
X6848095Y-4803333D01*
X6838571Y-4808095D01*
X6833809Y-4812857D01*
X6829048Y-4822381D01*
D12*
X4532857Y-12390714D02*
X4647143Y-12390714D01*
D13*
X4198095Y-10720952D02*
X4226667Y-10730476D01*
X4274286Y-10730476D01*
X4293333Y-10720952D01*
X4302857Y-10711429D01*
X4312381Y-10692381D01*
X4312381Y-10673333D01*
X4302857Y-10654286D01*
X4293333Y-10644762D01*
X4274286Y-10635238D01*
X4236191Y-10625714D01*
X4217143Y-10616191D01*
X4207619Y-10606667D01*
X4198095Y-10587619D01*
X4198095Y-10568571D01*
X4207619Y-10549524D01*
X4217143Y-10540000D01*
X4236191Y-10530476D01*
X4283810Y-10530476D01*
X4312381Y-10540000D01*
X4379048Y-10530476D02*
X4512381Y-10530476D01*
X4379048Y-10730476D01*
X4512381Y-10730476D01*
X4588571Y-10730476D02*
X4588571Y-10530476D01*
X4636191Y-10530476D01*
X4664762Y-10540000D01*
X4683810Y-10559048D01*
X4693333Y-10578095D01*
X4702857Y-10616191D01*
X4702857Y-10644762D01*
X4693333Y-10682857D01*
X4683810Y-10701905D01*
X4664762Y-10720952D01*
X4636191Y-10730476D01*
X4588571Y-10730476D01*
X4788571Y-10730476D02*
X4788571Y-10530476D01*
X4921905Y-10635238D02*
X4921905Y-10730476D01*
X4855238Y-10530476D02*
X4921905Y-10635238D01*
X4988572Y-10530476D01*
X5321905Y-10711429D02*
X5312381Y-10720952D01*
X5283810Y-10730476D01*
X5264762Y-10730476D01*
X5236191Y-10720952D01*
X5217143Y-10701905D01*
X5207619Y-10682857D01*
X5198095Y-10644762D01*
X5198095Y-10616191D01*
X5207619Y-10578095D01*
X5217143Y-10559048D01*
X5236191Y-10540000D01*
X5264762Y-10530476D01*
X5283810Y-10530476D01*
X5312381Y-10540000D01*
X5321905Y-10549524D01*
X5445714Y-10530476D02*
X5483810Y-10530476D01*
X5502857Y-10540000D01*
X5521905Y-10559048D01*
X5531429Y-10597143D01*
X5531429Y-10663810D01*
X5521905Y-10701905D01*
X5502857Y-10720952D01*
X5483810Y-10730476D01*
X5445714Y-10730476D01*
X5426667Y-10720952D01*
X5407619Y-10701905D01*
X5398095Y-10663810D01*
X5398095Y-10597143D01*
X5407619Y-10559048D01*
X5426667Y-10540000D01*
X5445714Y-10530476D01*
X5617143Y-10730476D02*
X5617143Y-10530476D01*
X5683810Y-10673333D01*
X5750476Y-10530476D01*
X5750476Y-10730476D01*
X5845714Y-10730476D02*
X5845714Y-10530476D01*
X5912381Y-10673333D01*
X5979048Y-10530476D01*
X5979048Y-10730476D01*
X6074286Y-10530476D02*
X6074286Y-10692381D01*
X6083810Y-10711429D01*
X6093333Y-10720952D01*
X6112381Y-10730476D01*
X6150476Y-10730476D01*
X6169524Y-10720952D01*
X6179048Y-10711429D01*
X6188571Y-10692381D01*
X6188571Y-10530476D01*
X6283809Y-10730476D02*
X6283809Y-10530476D01*
X6398095Y-10730476D01*
X6398095Y-10530476D01*
X6493333Y-10730476D02*
X6493333Y-10530476D01*
X6560000Y-10530476D02*
X6674286Y-10530476D01*
X6617143Y-10730476D02*
X6617143Y-10530476D01*
X6779048Y-10635238D02*
X6779048Y-10730476D01*
X6712381Y-10530476D02*
X6779048Y-10635238D01*
X6845714Y-10530476D01*
X4198095Y-10869524D02*
X4207619Y-10860000D01*
X4226667Y-10850476D01*
X4274286Y-10850476D01*
X4293333Y-10860000D01*
X4302857Y-10869524D01*
X4312381Y-10888571D01*
X4312381Y-10907619D01*
X4302857Y-10936191D01*
X4188571Y-11050476D01*
X4312381Y-11050476D01*
X4436191Y-10850476D02*
X4455238Y-10850476D01*
X4474286Y-10860000D01*
X4483810Y-10869524D01*
X4493333Y-10888571D01*
X4502857Y-10926667D01*
X4502857Y-10974286D01*
X4493333Y-11012381D01*
X4483810Y-11031429D01*
X4474286Y-11040952D01*
X4455238Y-11050476D01*
X4436191Y-11050476D01*
X4417143Y-11040952D01*
X4407619Y-11031429D01*
X4398095Y-11012381D01*
X4388571Y-10974286D01*
X4388571Y-10926667D01*
X4398095Y-10888571D01*
X4407619Y-10869524D01*
X4417143Y-10860000D01*
X4436191Y-10850476D01*
X4626667Y-10850476D02*
X4645714Y-10850476D01*
X4664762Y-10860000D01*
X4674286Y-10869524D01*
X4683810Y-10888571D01*
X4693333Y-10926667D01*
X4693333Y-10974286D01*
X4683810Y-11012381D01*
X4674286Y-11031429D01*
X4664762Y-11040952D01*
X4645714Y-11050476D01*
X4626667Y-11050476D01*
X4607619Y-11040952D01*
X4598095Y-11031429D01*
X4588571Y-11012381D01*
X4579048Y-10974286D01*
X4579048Y-10926667D01*
X4588571Y-10888571D01*
X4598095Y-10869524D01*
X4607619Y-10860000D01*
X4626667Y-10850476D01*
X4788572Y-11050476D02*
X4826667Y-11050476D01*
X4845714Y-11040952D01*
X4855238Y-11031429D01*
X4874286Y-11002857D01*
X4883810Y-10964762D01*
X4883810Y-10888571D01*
X4874286Y-10869524D01*
X4864762Y-10860000D01*
X4845714Y-10850476D01*
X4807619Y-10850476D01*
X4788572Y-10860000D01*
X4779048Y-10869524D01*
X4769524Y-10888571D01*
X4769524Y-10936191D01*
X4779048Y-10955238D01*
X4788572Y-10964762D01*
X4807619Y-10974286D01*
X4845714Y-10974286D01*
X4864762Y-10964762D01*
X4874286Y-10955238D01*
X4883810Y-10936191D01*
X4969524Y-11031429D02*
X4979048Y-11040952D01*
X4969524Y-11050476D01*
X4960000Y-11040952D01*
X4969524Y-11031429D01*
X4969524Y-11050476D01*
X5150476Y-10917143D02*
X5150476Y-11050476D01*
X5102857Y-10840952D02*
X5055238Y-10983810D01*
X5179048Y-10983810D01*
X5255238Y-11031429D02*
X5264762Y-11040952D01*
X5255238Y-11050476D01*
X5245714Y-11040952D01*
X5255238Y-11031429D01*
X5255238Y-11050476D01*
X5455238Y-11050476D02*
X5340952Y-11050476D01*
X5398095Y-11050476D02*
X5398095Y-10850476D01*
X5379048Y-10879048D01*
X5360000Y-10898095D01*
X5340952Y-10907619D01*
X5550476Y-11050476D02*
X5588572Y-11050476D01*
X5607619Y-11040952D01*
X5617143Y-11031429D01*
X5636190Y-11002857D01*
X5645714Y-10964762D01*
X5645714Y-10888571D01*
X5636190Y-10869524D01*
X5626667Y-10860000D01*
X5607619Y-10850476D01*
X5569524Y-10850476D01*
X5550476Y-10860000D01*
X5540952Y-10869524D01*
X5531429Y-10888571D01*
X5531429Y-10936191D01*
X5540952Y-10955238D01*
X5550476Y-10964762D01*
X5569524Y-10974286D01*
X5607619Y-10974286D01*
X5626667Y-10964762D01*
X5636190Y-10955238D01*
X5645714Y-10936191D01*
X5731429Y-10974286D02*
X5883810Y-10974286D01*
X5969524Y-10869524D02*
X5979048Y-10860000D01*
X5998095Y-10850476D01*
X6045714Y-10850476D01*
X6064762Y-10860000D01*
X6074286Y-10869524D01*
X6083810Y-10888571D01*
X6083810Y-10907619D01*
X6074286Y-10936191D01*
X5960000Y-11050476D01*
X6083810Y-11050476D01*
X6207619Y-10850476D02*
X6226667Y-10850476D01*
X6245714Y-10860000D01*
X6255238Y-10869524D01*
X6264762Y-10888571D01*
X6274286Y-10926667D01*
X6274286Y-10974286D01*
X6264762Y-11012381D01*
X6255238Y-11031429D01*
X6245714Y-11040952D01*
X6226667Y-11050476D01*
X6207619Y-11050476D01*
X6188571Y-11040952D01*
X6179048Y-11031429D01*
X6169524Y-11012381D01*
X6160000Y-10974286D01*
X6160000Y-10926667D01*
X6169524Y-10888571D01*
X6179048Y-10869524D01*
X6188571Y-10860000D01*
X6207619Y-10850476D01*
X6464762Y-11050476D02*
X6350476Y-11050476D01*
X6407619Y-11050476D02*
X6407619Y-10850476D01*
X6388571Y-10879048D01*
X6369524Y-10898095D01*
X6350476Y-10907619D01*
X6636190Y-10850476D02*
X6598095Y-10850476D01*
X6579048Y-10860000D01*
X6569524Y-10869524D01*
X6550476Y-10898095D01*
X6540952Y-10936191D01*
X6540952Y-11012381D01*
X6550476Y-11031429D01*
X6560000Y-11040952D01*
X6579048Y-11050476D01*
X6617143Y-11050476D01*
X6636190Y-11040952D01*
X6645714Y-11031429D01*
X6655238Y-11012381D01*
X6655238Y-10964762D01*
X6645714Y-10945714D01*
X6636190Y-10936191D01*
X6617143Y-10926667D01*
X6579048Y-10926667D01*
X6560000Y-10936191D01*
X6550476Y-10945714D01*
X6540952Y-10964762D01*
X6740952Y-11031429D02*
X6750476Y-11040952D01*
X6740952Y-11050476D01*
X6731429Y-11040952D01*
X6740952Y-11031429D01*
X6740952Y-11050476D01*
X6921905Y-10917143D02*
X6921905Y-11050476D01*
X6874286Y-10840952D02*
X6826667Y-10983810D01*
X6950476Y-10983810D01*
X7026667Y-11031429D02*
X7036191Y-11040952D01*
X7026667Y-11050476D01*
X7017143Y-11040952D01*
X7026667Y-11031429D01*
X7026667Y-11050476D01*
X7226667Y-11050476D02*
X7112381Y-11050476D01*
X7169524Y-11050476D02*
X7169524Y-10850476D01*
X7150476Y-10879048D01*
X7131429Y-10898095D01*
X7112381Y-10907619D01*
X7321905Y-11050476D02*
X7360000Y-11050476D01*
X7379048Y-11040952D01*
X7388571Y-11031429D01*
X7407619Y-11002857D01*
X7417143Y-10964762D01*
X7417143Y-10888571D01*
X7407619Y-10869524D01*
X7398095Y-10860000D01*
X7379048Y-10850476D01*
X7340952Y-10850476D01*
X7321905Y-10860000D01*
X7312381Y-10869524D01*
X7302857Y-10888571D01*
X7302857Y-10936191D01*
X7312381Y-10955238D01*
X7321905Y-10964762D01*
X7340952Y-10974286D01*
X7379048Y-10974286D01*
X7398095Y-10964762D01*
X7407619Y-10955238D01*
X7417143Y-10936191D01*
X7133852Y-6240000D02*
G75*
G03X7133852Y-6240000I-53852J0D01*
G01*
D11*
X8475952Y-8790476D02*
X8490238Y-8795238D01*
X8514048Y-8795238D01*
X8523572Y-8790476D01*
X8528333Y-8785714D01*
X8533095Y-8776191D01*
X8533095Y-8766667D01*
X8528333Y-8757143D01*
X8523572Y-8752381D01*
X8514048Y-8747619D01*
X8495000Y-8742857D01*
X8485476Y-8738095D01*
X8480714Y-8733333D01*
X8475952Y-8723810D01*
X8475952Y-8714286D01*
X8480714Y-8704762D01*
X8485476Y-8700000D01*
X8495000Y-8695238D01*
X8518810Y-8695238D01*
X8533095Y-8700000D01*
X8633095Y-8785714D02*
X8628333Y-8790476D01*
X8614048Y-8795238D01*
X8604524Y-8795238D01*
X8590238Y-8790476D01*
X8580714Y-8780952D01*
X8575952Y-8771429D01*
X8571191Y-8752381D01*
X8571191Y-8738095D01*
X8575952Y-8719048D01*
X8580714Y-8709524D01*
X8590238Y-8700000D01*
X8604524Y-8695238D01*
X8614048Y-8695238D01*
X8628333Y-8700000D01*
X8633095Y-8704762D01*
X8723572Y-8795238D02*
X8675952Y-8795238D01*
X8675952Y-8695238D01*
X8443571Y-8500476D02*
X8457857Y-8505238D01*
X8481667Y-8505238D01*
X8491191Y-8500476D01*
X8495952Y-8495714D01*
X8500714Y-8486191D01*
X8500714Y-8476667D01*
X8495952Y-8467143D01*
X8491191Y-8462381D01*
X8481667Y-8457619D01*
X8462619Y-8452857D01*
X8453095Y-8448095D01*
X8448333Y-8443333D01*
X8443571Y-8433810D01*
X8443571Y-8424286D01*
X8448333Y-8414762D01*
X8453095Y-8410000D01*
X8462619Y-8405238D01*
X8486429Y-8405238D01*
X8500714Y-8410000D01*
X8543571Y-8505238D02*
X8543571Y-8405238D01*
X8567381Y-8405238D01*
X8581667Y-8410000D01*
X8591191Y-8419524D01*
X8595952Y-8429048D01*
X8600714Y-8448095D01*
X8600714Y-8462381D01*
X8595952Y-8481429D01*
X8591191Y-8490952D01*
X8581667Y-8500476D01*
X8567381Y-8505238D01*
X8543571Y-8505238D01*
X8638810Y-8476667D02*
X8686429Y-8476667D01*
X8629286Y-8505238D02*
X8662619Y-8405238D01*
X8695952Y-8505238D01*
X8488810Y-8175000D02*
X8479286Y-8170238D01*
X8465000Y-8170238D01*
X8450714Y-8175000D01*
X8441191Y-8184524D01*
X8436429Y-8194048D01*
X8431667Y-8213095D01*
X8431667Y-8227381D01*
X8436429Y-8246429D01*
X8441191Y-8255952D01*
X8450714Y-8265476D01*
X8465000Y-8270238D01*
X8474524Y-8270238D01*
X8488810Y-8265476D01*
X8493572Y-8260714D01*
X8493572Y-8227381D01*
X8474524Y-8227381D01*
X8536429Y-8270238D02*
X8536429Y-8170238D01*
X8593572Y-8270238D01*
X8593572Y-8170238D01*
X8641191Y-8270238D02*
X8641191Y-8170238D01*
X8665000Y-8170238D01*
X8679286Y-8175000D01*
X8688810Y-8184524D01*
X8693572Y-8194048D01*
X8698333Y-8213095D01*
X8698333Y-8227381D01*
X8693572Y-8246429D01*
X8688810Y-8255952D01*
X8679286Y-8265476D01*
X8665000Y-8270238D01*
X8641191Y-8270238D01*
X8446191Y-7925238D02*
X8508095Y-7925238D01*
X8474762Y-7963333D01*
X8489048Y-7963333D01*
X8498572Y-7968095D01*
X8503333Y-7972857D01*
X8508095Y-7982381D01*
X8508095Y-8006190D01*
X8503333Y-8015714D01*
X8498572Y-8020476D01*
X8489048Y-8025238D01*
X8460476Y-8025238D01*
X8450952Y-8020476D01*
X8446191Y-8015714D01*
X8536667Y-7925238D02*
X8570000Y-8025238D01*
X8603333Y-7925238D01*
X8627143Y-7925238D02*
X8689048Y-7925238D01*
X8655714Y-7963333D01*
X8670000Y-7963333D01*
X8679524Y-7968095D01*
X8684286Y-7972857D01*
X8689048Y-7982381D01*
X8689048Y-8006190D01*
X8684286Y-8015714D01*
X8679524Y-8020476D01*
X8670000Y-8025238D01*
X8641429Y-8025238D01*
X8631905Y-8020476D01*
X8627143Y-8015714D01*
X8608333Y-6920238D02*
X8575000Y-6872619D01*
X8551191Y-6920238D02*
X8551191Y-6820238D01*
X8589286Y-6820238D01*
X8598810Y-6825000D01*
X8603572Y-6829762D01*
X8608333Y-6839286D01*
X8608333Y-6853571D01*
X8603572Y-6863095D01*
X8598810Y-6867857D01*
X8589286Y-6872619D01*
X8551191Y-6872619D01*
X8641667Y-6820238D02*
X8708333Y-6920238D01*
X8708333Y-6820238D02*
X8641667Y-6920238D01*
X8553810Y-6565238D02*
X8610952Y-6565238D01*
X8582381Y-6665238D02*
X8582381Y-6565238D01*
X8634762Y-6565238D02*
X8701429Y-6665238D01*
X8701429Y-6565238D02*
X8634762Y-6665238D01*
X8503810Y-6315000D02*
X8494286Y-6310238D01*
X8480000Y-6310238D01*
X8465714Y-6315000D01*
X8456191Y-6324524D01*
X8451429Y-6334048D01*
X8446667Y-6353095D01*
X8446667Y-6367381D01*
X8451429Y-6386429D01*
X8456191Y-6395952D01*
X8465714Y-6405476D01*
X8480000Y-6410238D01*
X8489524Y-6410238D01*
X8503810Y-6405476D01*
X8508572Y-6400714D01*
X8508572Y-6367381D01*
X8489524Y-6367381D01*
X8551429Y-6410238D02*
X8551429Y-6310238D01*
X8608572Y-6410238D01*
X8608572Y-6310238D01*
X8656191Y-6410238D02*
X8656191Y-6310238D01*
X8680000Y-6310238D01*
X8694286Y-6315000D01*
X8703810Y-6324524D01*
X8708572Y-6334048D01*
X8713333Y-6353095D01*
X8713333Y-6367381D01*
X8708572Y-6386429D01*
X8703810Y-6395952D01*
X8694286Y-6405476D01*
X8680000Y-6410238D01*
X8656191Y-6410238D01*
X8451191Y-6050238D02*
X8513095Y-6050238D01*
X8479762Y-6088333D01*
X8494048Y-6088333D01*
X8503572Y-6093095D01*
X8508333Y-6097857D01*
X8513095Y-6107381D01*
X8513095Y-6131190D01*
X8508333Y-6140714D01*
X8503572Y-6145476D01*
X8494048Y-6150238D01*
X8465476Y-6150238D01*
X8455952Y-6145476D01*
X8451191Y-6140714D01*
X8541667Y-6050238D02*
X8575000Y-6150238D01*
X8608333Y-6050238D01*
X8632143Y-6050238D02*
X8694048Y-6050238D01*
X8660714Y-6088333D01*
X8675000Y-6088333D01*
X8684524Y-6093095D01*
X8689286Y-6097857D01*
X8694048Y-6107381D01*
X8694048Y-6131190D01*
X8689286Y-6140714D01*
X8684524Y-6145476D01*
X8675000Y-6150238D01*
X8646429Y-6150238D01*
X8636905Y-6145476D01*
X8632143Y-6140714D01*
X8709286Y-7732143D02*
X8785476Y-7732143D01*
X8747381Y-7770238D02*
X8747381Y-7694048D01*
X8818810Y-7670238D02*
X8875952Y-7670238D01*
X8847381Y-7770238D02*
X8847381Y-7670238D01*
X8899762Y-7670238D02*
X8966429Y-7770238D01*
X8966429Y-7670238D02*
X8899762Y-7770238D01*
X9004524Y-7732143D02*
X9080714Y-7732143D01*
X8697381Y-7152143D02*
X8773572Y-7152143D01*
X8735476Y-7190238D02*
X8735476Y-7114048D01*
X8878333Y-7190238D02*
X8845000Y-7142619D01*
X8821191Y-7190238D02*
X8821191Y-7090238D01*
X8859286Y-7090238D01*
X8868810Y-7095000D01*
X8873572Y-7099762D01*
X8878333Y-7109286D01*
X8878333Y-7123571D01*
X8873572Y-7133095D01*
X8868810Y-7137857D01*
X8859286Y-7142619D01*
X8821191Y-7142619D01*
X8911667Y-7090238D02*
X8978333Y-7190238D01*
X8978333Y-7090238D02*
X8911667Y-7190238D01*
X9016429Y-7152143D02*
X9092619Y-7152143D01*
X8642381Y-5875238D02*
X8642381Y-5775238D01*
X8747143Y-5865714D02*
X8742381Y-5870476D01*
X8728095Y-5875238D01*
X8718572Y-5875238D01*
X8704286Y-5870476D01*
X8694762Y-5860952D01*
X8690000Y-5851429D01*
X8685238Y-5832381D01*
X8685238Y-5818095D01*
X8690000Y-5799048D01*
X8694762Y-5789524D01*
X8704286Y-5780000D01*
X8718572Y-5775238D01*
X8728095Y-5775238D01*
X8742381Y-5780000D01*
X8747143Y-5784762D01*
X8785238Y-5870476D02*
X8799524Y-5875238D01*
X8823333Y-5875238D01*
X8832857Y-5870476D01*
X8837619Y-5865714D01*
X8842381Y-5856190D01*
X8842381Y-5846667D01*
X8837619Y-5837143D01*
X8832857Y-5832381D01*
X8823333Y-5827619D01*
X8804286Y-5822857D01*
X8794762Y-5818095D01*
X8790000Y-5813333D01*
X8785238Y-5803809D01*
X8785238Y-5794286D01*
X8790000Y-5784762D01*
X8794762Y-5780000D01*
X8804286Y-5775238D01*
X8828095Y-5775238D01*
X8842381Y-5780000D01*
X8885238Y-5875238D02*
X8885238Y-5775238D01*
X8923333Y-5775238D01*
X8932857Y-5780000D01*
X8937619Y-5784762D01*
X8942381Y-5794286D01*
X8942381Y-5808571D01*
X8937619Y-5818095D01*
X8932857Y-5822857D01*
X8923333Y-5827619D01*
X8885238Y-5827619D01*
X7675238Y-4415238D02*
X7627619Y-4448572D01*
X7675238Y-4472381D02*
X7575238Y-4472381D01*
X7575238Y-4434286D01*
X7580000Y-4424762D01*
X7584762Y-4420000D01*
X7594286Y-4415238D01*
X7608571Y-4415238D01*
X7618095Y-4420000D01*
X7622857Y-4424762D01*
X7627619Y-4434286D01*
X7627619Y-4472381D01*
X7622857Y-4372381D02*
X7622857Y-4339048D01*
X7675238Y-4324762D02*
X7675238Y-4372381D01*
X7575238Y-4372381D01*
X7575238Y-4324762D01*
X7670476Y-4286667D02*
X7675238Y-4272381D01*
X7675238Y-4248571D01*
X7670476Y-4239048D01*
X7665714Y-4234286D01*
X7656190Y-4229524D01*
X7646667Y-4229524D01*
X7637143Y-4234286D01*
X7632381Y-4239048D01*
X7627619Y-4248571D01*
X7622857Y-4267619D01*
X7618095Y-4277143D01*
X7613333Y-4281905D01*
X7603809Y-4286667D01*
X7594286Y-4286667D01*
X7584762Y-4281905D01*
X7580000Y-4277143D01*
X7575238Y-4267619D01*
X7575238Y-4243810D01*
X7580000Y-4229524D01*
X7622857Y-4186667D02*
X7622857Y-4153333D01*
X7675238Y-4139048D02*
X7675238Y-4186667D01*
X7575238Y-4186667D01*
X7575238Y-4139048D01*
X7575238Y-4110476D02*
X7575238Y-4053333D01*
X7675238Y-4081905D02*
X7575238Y-4081905D01*
X4241905Y-4117143D02*
X4318095Y-4117143D01*
X4280000Y-4155238D02*
X4280000Y-4079048D01*
X9077500Y-13130000D02*
X9077500Y-13250000D01*
X8902500Y-13250000D02*
X8902500Y-13130000D01*
X4143000Y-4473000D02*
X4143000Y-4219000D01*
X4115000Y-4755000D02*
X4115000Y-4600000D01*
X4143000Y-4473000D02*
X4397000Y-4473000D01*
X4425000Y-4600000D02*
X4425000Y-4755000D01*
X4425000Y-4755000D02*
X4115000Y-4755000D01*
X4397000Y-4473000D02*
X4397000Y-4219000D01*
X4397000Y-4219000D02*
X4143000Y-4219000D01*
X8972500Y-10835000D02*
X9002500Y-10835000D01*
X8972500Y-10985000D02*
X9002500Y-10985000D01*
X8742500Y-10770000D02*
X8742500Y-10750000D01*
X9132500Y-11050000D02*
X9152500Y-11030000D01*
X9132500Y-10920000D02*
X9152500Y-10940000D01*
X9002500Y-11050000D02*
X9132500Y-11050000D01*
X9152500Y-11030000D02*
X9152500Y-10940000D01*
X9132500Y-10920000D02*
X9002500Y-10920000D01*
X9002500Y-11195000D02*
X9002500Y-10625000D01*
X8742500Y-11070000D02*
X8742500Y-10900000D01*
X8832500Y-11245000D02*
X8912500Y-11245000D01*
X8912500Y-10575000D02*
X8832500Y-10575000D01*
X8335000Y-12910000D02*
X8335000Y-13010000D01*
X8505000Y-13010000D02*
X8505000Y-12910000D01*
X8335000Y-12350000D02*
X8335000Y-12450000D01*
X8505000Y-12450000D02*
X8505000Y-12350000D01*
X6235000Y-4770000D02*
X6235000Y-4870000D01*
X6405000Y-4870000D02*
X6405000Y-4770000D01*
X7215000Y-4780000D02*
X7215000Y-4880000D01*
X7385000Y-4880000D02*
X7385000Y-4780000D01*
X8435000Y-11340000D02*
X8435000Y-11240000D01*
X8265000Y-11240000D02*
X8265000Y-11340000D01*
X5990000Y-7065000D02*
X5890000Y-7065000D01*
X5890000Y-7235000D02*
X5990000Y-7235000D01*
X5990000Y-7265000D02*
X5890000Y-7265000D01*
X5890000Y-7435000D02*
X5990000Y-7435000D01*
X5990000Y-7465000D02*
X5890000Y-7465000D01*
X5890000Y-7635000D02*
X5990000Y-7635000D01*
X5990000Y-7665000D02*
X5890000Y-7665000D01*
X5890000Y-7835000D02*
X5990000Y-7835000D01*
X5990000Y-7865000D02*
X5890000Y-7865000D01*
X5890000Y-8035000D02*
X5990000Y-8035000D01*
X6735000Y-7065000D02*
X6635000Y-7065000D01*
X6635000Y-7235000D02*
X6735000Y-7235000D01*
X6735000Y-7265000D02*
X6635000Y-7265000D01*
X6635000Y-7435000D02*
X6735000Y-7435000D01*
X6735000Y-7465000D02*
X6635000Y-7465000D01*
X6635000Y-7635000D02*
X6735000Y-7635000D01*
X6735000Y-7665000D02*
X6635000Y-7665000D01*
X6635000Y-7835000D02*
X6735000Y-7835000D01*
X6735000Y-7865000D02*
X6635000Y-7865000D01*
X6635000Y-8035000D02*
X6735000Y-8035000D01*
X8778000Y-6232000D02*
X8778000Y-6994000D01*
X9032000Y-6232000D02*
X9032000Y-6994000D01*
X9060000Y-5950000D02*
X9060000Y-6105000D01*
X8778000Y-6994000D02*
X9032000Y-6994000D01*
X9032000Y-6232000D02*
X8778000Y-6232000D01*
X8750000Y-6105000D02*
X8750000Y-5950000D01*
X8750000Y-5950000D02*
X9060000Y-5950000D01*
X8778000Y-8097000D02*
X8778000Y-8859000D01*
X9032000Y-8097000D02*
X9032000Y-8859000D01*
X9060000Y-7815000D02*
X9060000Y-7970000D01*
X8778000Y-8859000D02*
X9032000Y-8859000D01*
X9032000Y-8097000D02*
X8778000Y-8097000D01*
X8750000Y-7970000D02*
X8750000Y-7815000D01*
X8750000Y-7815000D02*
X9060000Y-7815000D01*
X8877500Y-13130000D02*
X8877500Y-13250000D01*
X8702500Y-13250000D02*
X8702500Y-13130000D01*
X8507500Y-11790000D02*
X8507500Y-11910000D01*
X8332500Y-11910000D02*
X8332500Y-11790000D01*
X8300000Y-7252500D02*
X8420000Y-7252500D01*
X8420000Y-7427500D02*
X8300000Y-7427500D01*
X8300000Y-7452500D02*
X8420000Y-7452500D01*
X8420000Y-7627500D02*
X8300000Y-7627500D01*
X8180000Y-5567500D02*
X8060000Y-5567500D01*
X8060000Y-5392500D02*
X8180000Y-5392500D01*
X5030000Y-4687500D02*
X4910000Y-4687500D01*
X4910000Y-4512500D02*
X5030000Y-4512500D01*
X8730000Y-12640000D02*
G75*
G03X8730000Y-12640000I-10000J0D01*
G01*
X8745000Y-12585000D02*
X8745000Y-12635000D01*
X9035000Y-12585000D02*
X8745000Y-12585000D01*
X9035000Y-12635000D02*
X9035000Y-12585000D01*
X8745000Y-12635000D02*
X9035000Y-12635000D01*
X7730000Y-11310000D02*
G75*
G03X7730000Y-11310000I-10000J0D01*
G01*
X7745000Y-11255000D02*
X7745000Y-11305000D01*
X8035000Y-11255000D02*
X7745000Y-11255000D01*
X8035000Y-11305000D02*
X8035000Y-11255000D01*
X7745000Y-11305000D02*
X8035000Y-11305000D01*
X6550000Y-4850000D02*
X6480000Y-4850000D01*
X6740000Y-5000000D02*
X6740000Y-5050000D01*
X6880208Y-5000000D02*
X6740000Y-5000000D01*
X6739896Y-4660000D02*
X6880104Y-4660000D01*
X7070000Y-4850000D02*
X7070000Y-4810000D01*
X6550000Y-4850000D02*
X6550000Y-4810000D01*
X8705000Y-13480000D02*
X8705000Y-13750000D01*
X8855000Y-13480000D02*
X8855000Y-13750000D01*
X8765000Y-13630000D02*
X8790000Y-13630000D01*
X8790000Y-13630000D02*
X8775000Y-13615000D01*
X8815000Y-13605000D02*
X8745000Y-13605000D01*
X8780000Y-13640000D02*
X8780000Y-13675000D01*
X8780000Y-13605000D02*
X8815000Y-13640000D01*
X8815000Y-13640000D02*
X8745000Y-13640000D01*
X8745000Y-13640000D02*
X8780000Y-13605000D01*
X9070000Y-7260000D02*
X8800000Y-7260000D01*
X9070000Y-7410000D02*
X8800000Y-7410000D01*
X8920000Y-7320000D02*
X8920000Y-7345000D01*
X8920000Y-7345000D02*
X8935000Y-7330000D01*
X8945000Y-7370000D02*
X8945000Y-7300000D01*
X8910000Y-7335000D02*
X8875000Y-7335000D01*
X8945000Y-7335000D02*
X8910000Y-7370000D01*
X8910000Y-7370000D02*
X8910000Y-7300000D01*
X8910000Y-7300000D02*
X8945000Y-7335000D01*
X9070000Y-7450000D02*
X8800000Y-7450000D01*
X9070000Y-7600000D02*
X8800000Y-7600000D01*
X8920000Y-7510000D02*
X8920000Y-7535000D01*
X8920000Y-7535000D02*
X8935000Y-7520000D01*
X8945000Y-7560000D02*
X8945000Y-7490000D01*
X8910000Y-7525000D02*
X8875000Y-7525000D01*
X8945000Y-7525000D02*
X8910000Y-7560000D01*
X8910000Y-7560000D02*
X8910000Y-7490000D01*
X8910000Y-7490000D02*
X8945000Y-7525000D01*
X9049200Y-11565200D02*
X9049200Y-11539800D01*
X9049200Y-11539800D02*
X8744400Y-11539800D01*
X8744400Y-11539800D02*
X8744400Y-11565200D01*
X9049200Y-12225600D02*
X8744400Y-12225600D01*
X8744400Y-12225600D02*
X8744400Y-12276400D01*
X8744400Y-12276400D02*
X9049200Y-12276400D01*
X9049200Y-12276400D02*
X9049200Y-11565200D01*
X8744400Y-11565200D02*
X8744400Y-12225600D01*
X8925000Y-13480000D02*
X8925000Y-13750000D01*
X9075000Y-13480000D02*
X9075000Y-13750000D01*
X8985000Y-13630000D02*
X9010000Y-13630000D01*
X9010000Y-13630000D02*
X8995000Y-13615000D01*
X9035000Y-13605000D02*
X8965000Y-13605000D01*
X9000000Y-13640000D02*
X9000000Y-13675000D01*
X9000000Y-13605000D02*
X9035000Y-13640000D01*
X9035000Y-13640000D02*
X8965000Y-13640000D01*
X8965000Y-13640000D02*
X9000000Y-13605000D01*
X9032000Y-9217000D02*
X9032000Y-9471000D01*
X9060000Y-8935000D02*
X9060000Y-9090000D01*
X9032000Y-9217000D02*
X8778000Y-9217000D01*
X8750000Y-9090000D02*
X8750000Y-8935000D01*
X8750000Y-8935000D02*
X9060000Y-8935000D01*
X8778000Y-9217000D02*
X8778000Y-9471000D01*
X8778000Y-9471000D02*
X9032000Y-9471000D01*
X4894500Y-13591500D02*
X4894500Y-13718500D01*
X5466000Y-13655000D02*
X5593000Y-13655000D01*
X5529500Y-13718500D02*
X5529500Y-13591500D01*
X4958000Y-13528000D02*
X5466000Y-13528000D01*
X5466000Y-13528000D02*
X5466000Y-13782000D01*
X5466000Y-13782000D02*
X4958000Y-13782000D01*
X4958000Y-13782000D02*
X4958000Y-13528000D01*
X4167500Y-8850000D02*
X4137500Y-8850000D01*
X4167500Y-8700000D02*
X4137500Y-8700000D01*
X4397500Y-8915000D02*
X4397500Y-8935000D01*
X4007500Y-8635000D02*
X3987500Y-8655000D01*
X4007500Y-8765000D02*
X3987500Y-8745000D01*
X4137500Y-8635000D02*
X4007500Y-8635000D01*
X3987500Y-8655000D02*
X3987500Y-8745000D01*
X4007500Y-8765000D02*
X4137500Y-8765000D01*
X4137500Y-8490000D02*
X4137500Y-9060000D01*
X4397500Y-8615000D02*
X4397500Y-8785000D01*
X4307500Y-8440000D02*
X4227500Y-8440000D01*
X4227500Y-9110000D02*
X4307500Y-9110000D01*
X7232500Y-6387500D02*
X7232500Y-6320000D01*
X6197500Y-6387500D02*
X6197500Y-6320000D01*
X6197500Y-5352500D02*
X6197500Y-5420000D01*
X7232500Y-5352500D02*
X7232500Y-5420000D01*
X7232500Y-6387500D02*
X7165000Y-6387500D01*
X7232500Y-5352500D02*
X7165000Y-5352500D01*
X6197500Y-5352500D02*
X6265000Y-5352500D01*
X6197500Y-6387500D02*
X6265000Y-6387500D01*
X7232500Y-6320000D02*
X7360000Y-6320000D01*
X8070000Y-6485000D02*
X8170000Y-6485000D01*
X8170000Y-6315000D02*
X8070000Y-6315000D01*
X8070000Y-6685000D02*
X8170000Y-6685000D01*
X8170000Y-6515000D02*
X8070000Y-6515000D01*
X7845000Y-10760000D02*
X7845000Y-10860000D01*
X8015000Y-10860000D02*
X8015000Y-10760000D01*
X8045000Y-10760000D02*
X8045000Y-10860000D01*
X8215000Y-10860000D02*
X8215000Y-10760000D01*
X8170000Y-6115000D02*
X8070000Y-6115000D01*
X8070000Y-6285000D02*
X8170000Y-6285000D01*
X7724660Y-14123146D02*
X8594660Y-14123146D01*
X7724660Y-13482646D02*
X8594660Y-13482646D01*
X8594660Y-13482646D02*
X8594660Y-14123146D01*
X8594660Y-14000146D02*
X7724660Y-14000146D01*
X7724660Y-14123146D02*
X7724660Y-13482646D01*
X4720000Y-12390000D02*
X4720000Y-11520000D01*
X4720000Y-11520000D02*
X8140000Y-11520000D01*
X8140000Y-11520000D02*
X8140000Y-13260000D01*
X8140000Y-13260000D02*
X4720000Y-13260000D01*
X4720000Y-13260000D02*
X4720000Y-12390000D01*
X8523000Y-5177000D02*
X8523000Y-5685000D01*
X8495000Y-4895000D02*
X8650000Y-4895000D01*
X8777000Y-4923000D02*
X8777000Y-5177000D01*
X8777000Y-5177000D02*
X8523000Y-5177000D01*
X8523000Y-5685000D02*
X9031000Y-5685000D01*
X9031000Y-5685000D02*
X9031000Y-5177000D01*
X8495000Y-4895000D02*
X8495000Y-5050000D01*
X9031000Y-4923000D02*
X8777000Y-4923000D01*
X9031000Y-5177000D02*
X9031000Y-4923000D01*
X7360000Y-13472500D02*
X7480000Y-13472500D01*
X7480000Y-13647500D02*
X7360000Y-13647500D01*
X7360000Y-13672500D02*
X7480000Y-13672500D01*
X7480000Y-13847500D02*
X7360000Y-13847500D01*
X7460000Y-7050000D02*
X7010000Y-7050000D01*
X7010000Y-7050000D02*
X7010000Y-8090000D01*
X7010000Y-8090000D02*
X7910000Y-8090000D01*
X7910000Y-8090000D02*
X7910000Y-7050000D01*
X7910000Y-7050000D02*
X7460000Y-7050000D01*
X8180000Y-5367500D02*
X8060000Y-5367500D01*
X8060000Y-5192500D02*
X8180000Y-5192500D01*
X7740000Y-4255000D02*
X7760000Y-4255000D01*
X8340000Y-4255000D02*
X8320000Y-4255000D01*
X8340000Y-4905000D02*
X8320000Y-4905000D01*
X7740000Y-4905000D02*
X7760000Y-4905000D01*
X7920000Y-4905000D02*
X8160000Y-4905000D01*
X7920000Y-4255000D02*
X8160000Y-4255000D01*
X7740000Y-4255000D02*
X7740000Y-4905000D01*
X8340000Y-4905000D02*
X8340000Y-4255000D01*
X8230000Y-4580000D02*
G75*
G03X8230000Y-4580000I-190000J0D01*
G01*
X8190000Y-4580000D02*
G75*
G03X8190000Y-4580000I-150000J0D01*
G01*
X5410000Y-8070000D02*
X4350000Y-8070000D01*
X4350000Y-8070000D02*
X4350000Y-5230000D01*
X4350000Y-5230000D02*
X5410000Y-5230000D01*
X5410000Y-5230000D02*
X5410000Y-8070000D01*
X8170000Y-6715000D02*
X8070000Y-6715000D01*
X8070000Y-6885000D02*
X8170000Y-6885000D01*
X8180000Y-5767500D02*
X8060000Y-5767500D01*
X8060000Y-5592500D02*
X8180000Y-5592500D01*
X8180000Y-5967500D02*
X8060000Y-5967500D01*
X8060000Y-5792500D02*
X8180000Y-5792500D01*
X5920000Y-12890000D02*
X6020000Y-12990000D01*
X5920000Y-13440000D02*
X5920000Y-12890000D01*
X5920000Y-12890000D02*
X5820000Y-12990000D01*
X7220000Y-13040000D02*
X6720000Y-13490000D01*
X4620000Y-13040000D02*
X5120000Y-13490000D01*
X5120000Y-13490000D02*
X6720000Y-13490000D01*
X6220000Y-11240000D02*
X7220000Y-11740000D01*
X5620000Y-11240000D02*
X4620000Y-11740000D01*
X5920000Y-11240000D02*
X6220000Y-11240000D01*
X5920000Y-11240000D02*
X5620000Y-11240000D01*
X7220000Y-12390000D02*
X7220000Y-13040000D01*
X7220000Y-12390000D02*
X7220000Y-11740000D01*
X4620000Y-12390000D02*
X4620000Y-13040000D01*
X4620000Y-12390000D02*
X4620000Y-11740000D01*
X8935714Y-12915238D02*
X8902381Y-12867619D01*
X8878571Y-12915238D02*
X8878571Y-12815238D01*
X8916667Y-12815238D01*
X8926191Y-12820000D01*
X8930952Y-12824762D01*
X8935714Y-12834286D01*
X8935714Y-12848571D01*
X8930952Y-12858095D01*
X8926191Y-12862857D01*
X8916667Y-12867619D01*
X8878571Y-12867619D01*
X9030952Y-12915238D02*
X8973810Y-12915238D01*
X9002381Y-12915238D02*
X9002381Y-12815238D01*
X8992857Y-12829524D01*
X8983333Y-12839048D01*
X8973810Y-12843809D01*
X9092857Y-12815238D02*
X9102381Y-12815238D01*
X9111905Y-12820000D01*
X9116667Y-12824762D01*
X9121429Y-12834286D01*
X9126191Y-12853333D01*
X9126191Y-12877143D01*
X9121429Y-12896190D01*
X9116667Y-12905714D01*
X9111905Y-12910476D01*
X9102381Y-12915238D01*
X9092857Y-12915238D01*
X9083333Y-12910476D01*
X9078571Y-12905714D01*
X9073810Y-12896190D01*
X9069048Y-12877143D01*
X9069048Y-12853333D01*
X9073810Y-12834286D01*
X9078571Y-12824762D01*
X9083333Y-12820000D01*
X9092857Y-12815238D01*
X4196191Y-4915238D02*
X4196191Y-4815238D01*
X4220000Y-4815238D01*
X4234286Y-4820000D01*
X4243810Y-4829524D01*
X4248572Y-4839048D01*
X4253333Y-4858095D01*
X4253333Y-4872381D01*
X4248572Y-4891429D01*
X4243810Y-4900952D01*
X4234286Y-4910476D01*
X4220000Y-4915238D01*
X4196191Y-4915238D01*
X4339048Y-4848571D02*
X4339048Y-4915238D01*
X4315238Y-4810476D02*
X4291429Y-4881905D01*
X4353333Y-4881905D01*
X8562976Y-11193333D02*
X8567738Y-11179048D01*
X8567738Y-11155238D01*
X8562976Y-11145714D01*
X8558214Y-11140952D01*
X8548691Y-11136190D01*
X8539167Y-11136190D01*
X8529643Y-11140952D01*
X8524881Y-11145714D01*
X8520119Y-11155238D01*
X8515357Y-11174286D01*
X8510595Y-11183810D01*
X8505833Y-11188571D01*
X8496310Y-11193333D01*
X8486786Y-11193333D01*
X8477262Y-11188571D01*
X8472500Y-11183810D01*
X8467738Y-11174286D01*
X8467738Y-11150476D01*
X8472500Y-11136190D01*
X8467738Y-11102857D02*
X8567738Y-11079048D01*
X8496310Y-11060000D01*
X8567738Y-11040952D01*
X8467738Y-11017143D01*
X8467738Y-10931429D02*
X8467738Y-10979048D01*
X8515357Y-10983810D01*
X8510595Y-10979048D01*
X8505833Y-10969524D01*
X8505833Y-10945714D01*
X8510595Y-10936190D01*
X8515357Y-10931429D01*
X8524881Y-10926667D01*
X8548691Y-10926667D01*
X8558214Y-10931429D01*
X8562976Y-10936190D01*
X8567738Y-10945714D01*
X8567738Y-10969524D01*
X8562976Y-10979048D01*
X8558214Y-10983810D01*
X8255714Y-12976667D02*
X8260476Y-12981428D01*
X8265238Y-12995714D01*
X8265238Y-13005238D01*
X8260476Y-13019524D01*
X8250952Y-13029048D01*
X8241429Y-13033809D01*
X8222381Y-13038571D01*
X8208095Y-13038571D01*
X8189048Y-13033809D01*
X8179524Y-13029048D01*
X8170000Y-13019524D01*
X8165238Y-13005238D01*
X8165238Y-12995714D01*
X8170000Y-12981428D01*
X8174762Y-12976667D01*
X8265238Y-12881428D02*
X8265238Y-12938571D01*
X8265238Y-12910000D02*
X8165238Y-12910000D01*
X8179524Y-12919524D01*
X8189048Y-12929048D01*
X8193809Y-12938571D01*
X8245714Y-12416667D02*
X8250476Y-12421428D01*
X8255238Y-12435714D01*
X8255238Y-12445238D01*
X8250476Y-12459524D01*
X8240952Y-12469048D01*
X8231429Y-12473809D01*
X8212381Y-12478571D01*
X8198095Y-12478571D01*
X8179048Y-12473809D01*
X8169524Y-12469048D01*
X8160000Y-12459524D01*
X8155238Y-12445238D01*
X8155238Y-12435714D01*
X8160000Y-12421428D01*
X8164762Y-12416667D01*
X8155238Y-12326190D02*
X8155238Y-12373809D01*
X8202857Y-12378571D01*
X8198095Y-12373809D01*
X8193333Y-12364286D01*
X8193333Y-12340476D01*
X8198095Y-12330952D01*
X8202857Y-12326190D01*
X8212381Y-12321428D01*
X8236190Y-12321428D01*
X8245714Y-12326190D01*
X8250476Y-12330952D01*
X8255238Y-12340476D01*
X8255238Y-12364286D01*
X8250476Y-12373809D01*
X8245714Y-12378571D01*
X6355714Y-4496667D02*
X6360476Y-4501429D01*
X6365238Y-4515714D01*
X6365238Y-4525238D01*
X6360476Y-4539524D01*
X6350952Y-4549048D01*
X6341429Y-4553810D01*
X6322381Y-4558571D01*
X6308095Y-4558571D01*
X6289048Y-4553810D01*
X6279524Y-4549048D01*
X6270000Y-4539524D01*
X6265238Y-4525238D01*
X6265238Y-4515714D01*
X6270000Y-4501429D01*
X6274762Y-4496667D01*
X6265238Y-4463333D02*
X6265238Y-4396667D01*
X6365238Y-4439524D01*
X7335714Y-4506667D02*
X7340476Y-4511429D01*
X7345238Y-4525714D01*
X7345238Y-4535238D01*
X7340476Y-4549524D01*
X7330952Y-4559048D01*
X7321429Y-4563810D01*
X7302381Y-4568571D01*
X7288095Y-4568571D01*
X7269048Y-4563810D01*
X7259524Y-4559048D01*
X7250000Y-4549524D01*
X7245238Y-4535238D01*
X7245238Y-4525714D01*
X7250000Y-4511429D01*
X7254762Y-4506667D01*
X7288095Y-4449524D02*
X7283333Y-4459048D01*
X7278571Y-4463810D01*
X7269048Y-4468571D01*
X7264286Y-4468571D01*
X7254762Y-4463810D01*
X7250000Y-4459048D01*
X7245238Y-4449524D01*
X7245238Y-4430476D01*
X7250000Y-4420952D01*
X7254762Y-4416190D01*
X7264286Y-4411429D01*
X7269048Y-4411429D01*
X7278571Y-4416190D01*
X7283333Y-4420952D01*
X7288095Y-4430476D01*
X7288095Y-4449524D01*
X7292857Y-4459048D01*
X7297619Y-4463810D01*
X7307143Y-4468571D01*
X7326190Y-4468571D01*
X7335714Y-4463810D01*
X7340476Y-4459048D01*
X7345238Y-4449524D01*
X7345238Y-4430476D01*
X7340476Y-4420952D01*
X7335714Y-4416190D01*
X7326190Y-4411429D01*
X7307143Y-4411429D01*
X7297619Y-4416190D01*
X7292857Y-4420952D01*
X7288095Y-4430476D01*
X8385714Y-10954286D02*
X8390476Y-10959048D01*
X8395238Y-10973333D01*
X8395238Y-10982857D01*
X8390476Y-10997143D01*
X8380952Y-11006667D01*
X8371429Y-11011429D01*
X8352381Y-11016191D01*
X8338095Y-11016191D01*
X8319048Y-11011429D01*
X8309524Y-11006667D01*
X8300000Y-10997143D01*
X8295238Y-10982857D01*
X8295238Y-10973333D01*
X8300000Y-10959048D01*
X8304762Y-10954286D01*
X8395238Y-10859048D02*
X8395238Y-10916191D01*
X8395238Y-10887619D02*
X8295238Y-10887619D01*
X8309524Y-10897143D01*
X8319048Y-10906667D01*
X8323809Y-10916191D01*
X8295238Y-10797143D02*
X8295238Y-10787619D01*
X8300000Y-10778095D01*
X8304762Y-10773333D01*
X8314286Y-10768571D01*
X8333333Y-10763810D01*
X8357143Y-10763810D01*
X8376190Y-10768571D01*
X8385714Y-10773333D01*
X8390476Y-10778095D01*
X8395238Y-10787619D01*
X8395238Y-10797143D01*
X8390476Y-10806667D01*
X8385714Y-10811429D01*
X8376190Y-10816191D01*
X8357143Y-10820952D01*
X8333333Y-10820952D01*
X8314286Y-10816191D01*
X8304762Y-10811429D01*
X8300000Y-10806667D01*
X8295238Y-10797143D01*
X5505714Y-7180714D02*
X5500952Y-7185476D01*
X5486667Y-7190238D01*
X5477143Y-7190238D01*
X5462857Y-7185476D01*
X5453333Y-7175952D01*
X5448571Y-7166429D01*
X5443810Y-7147381D01*
X5443810Y-7133095D01*
X5448571Y-7114048D01*
X5453333Y-7104524D01*
X5462857Y-7095000D01*
X5477143Y-7090238D01*
X5486667Y-7090238D01*
X5500952Y-7095000D01*
X5505714Y-7099762D01*
X5600952Y-7190238D02*
X5543810Y-7190238D01*
X5572381Y-7190238D02*
X5572381Y-7090238D01*
X5562857Y-7104524D01*
X5553333Y-7114048D01*
X5543810Y-7118809D01*
X5696190Y-7190238D02*
X5639048Y-7190238D01*
X5667619Y-7190238D02*
X5667619Y-7090238D01*
X5658095Y-7104524D01*
X5648571Y-7114048D01*
X5639048Y-7118809D01*
X5495714Y-7375714D02*
X5490952Y-7380476D01*
X5476667Y-7385238D01*
X5467143Y-7385238D01*
X5452857Y-7380476D01*
X5443333Y-7370952D01*
X5438571Y-7361429D01*
X5433810Y-7342381D01*
X5433810Y-7328095D01*
X5438571Y-7309048D01*
X5443333Y-7299524D01*
X5452857Y-7290000D01*
X5467143Y-7285238D01*
X5476667Y-7285238D01*
X5490952Y-7290000D01*
X5495714Y-7294762D01*
X5590952Y-7385238D02*
X5533810Y-7385238D01*
X5562381Y-7385238D02*
X5562381Y-7285238D01*
X5552857Y-7299524D01*
X5543333Y-7309048D01*
X5533810Y-7313809D01*
X5629048Y-7294762D02*
X5633809Y-7290000D01*
X5643333Y-7285238D01*
X5667143Y-7285238D01*
X5676667Y-7290000D01*
X5681429Y-7294762D01*
X5686190Y-7304286D01*
X5686190Y-7313809D01*
X5681429Y-7328095D01*
X5624286Y-7385238D01*
X5686190Y-7385238D01*
X5505714Y-7575714D02*
X5500952Y-7580476D01*
X5486667Y-7585238D01*
X5477143Y-7585238D01*
X5462857Y-7580476D01*
X5453333Y-7570952D01*
X5448571Y-7561429D01*
X5443810Y-7542381D01*
X5443810Y-7528095D01*
X5448571Y-7509048D01*
X5453333Y-7499524D01*
X5462857Y-7490000D01*
X5477143Y-7485238D01*
X5486667Y-7485238D01*
X5500952Y-7490000D01*
X5505714Y-7494762D01*
X5600952Y-7585238D02*
X5543810Y-7585238D01*
X5572381Y-7585238D02*
X5572381Y-7485238D01*
X5562857Y-7499524D01*
X5553333Y-7509048D01*
X5543810Y-7513809D01*
X5634286Y-7485238D02*
X5696190Y-7485238D01*
X5662857Y-7523333D01*
X5677143Y-7523333D01*
X5686667Y-7528095D01*
X5691429Y-7532857D01*
X5696190Y-7542381D01*
X5696190Y-7566190D01*
X5691429Y-7575714D01*
X5686667Y-7580476D01*
X5677143Y-7585238D01*
X5648571Y-7585238D01*
X5639048Y-7580476D01*
X5634286Y-7575714D01*
X5505714Y-7790714D02*
X5500952Y-7795476D01*
X5486667Y-7800238D01*
X5477143Y-7800238D01*
X5462857Y-7795476D01*
X5453333Y-7785952D01*
X5448571Y-7776429D01*
X5443810Y-7757381D01*
X5443810Y-7743095D01*
X5448571Y-7724048D01*
X5453333Y-7714524D01*
X5462857Y-7705000D01*
X5477143Y-7700238D01*
X5486667Y-7700238D01*
X5500952Y-7705000D01*
X5505714Y-7709762D01*
X5600952Y-7800238D02*
X5543810Y-7800238D01*
X5572381Y-7800238D02*
X5572381Y-7700238D01*
X5562857Y-7714524D01*
X5553333Y-7724048D01*
X5543810Y-7728809D01*
X5686667Y-7733571D02*
X5686667Y-7800238D01*
X5662857Y-7695476D02*
X5639048Y-7766905D01*
X5700952Y-7766905D01*
X5505714Y-7980714D02*
X5500952Y-7985476D01*
X5486667Y-7990238D01*
X5477143Y-7990238D01*
X5462857Y-7985476D01*
X5453333Y-7975952D01*
X5448571Y-7966429D01*
X5443810Y-7947381D01*
X5443810Y-7933095D01*
X5448571Y-7914048D01*
X5453333Y-7904524D01*
X5462857Y-7895000D01*
X5477143Y-7890238D01*
X5486667Y-7890238D01*
X5500952Y-7895000D01*
X5505714Y-7899762D01*
X5600952Y-7990238D02*
X5543810Y-7990238D01*
X5572381Y-7990238D02*
X5572381Y-7890238D01*
X5562857Y-7904524D01*
X5553333Y-7914048D01*
X5543810Y-7918809D01*
X5691429Y-7890238D02*
X5643809Y-7890238D01*
X5639048Y-7937857D01*
X5643809Y-7933095D01*
X5653333Y-7928333D01*
X5677143Y-7928333D01*
X5686667Y-7933095D01*
X5691429Y-7937857D01*
X5696190Y-7947381D01*
X5696190Y-7971190D01*
X5691429Y-7980714D01*
X5686667Y-7985476D01*
X5677143Y-7990238D01*
X5653333Y-7990238D01*
X5643809Y-7985476D01*
X5639048Y-7980714D01*
X6245714Y-7195714D02*
X6240952Y-7200476D01*
X6226667Y-7205238D01*
X6217143Y-7205238D01*
X6202857Y-7200476D01*
X6193333Y-7190952D01*
X6188571Y-7181429D01*
X6183809Y-7162381D01*
X6183809Y-7148095D01*
X6188571Y-7129048D01*
X6193333Y-7119524D01*
X6202857Y-7110000D01*
X6217143Y-7105238D01*
X6226667Y-7105238D01*
X6240952Y-7110000D01*
X6245714Y-7114762D01*
X6340952Y-7205238D02*
X6283809Y-7205238D01*
X6312381Y-7205238D02*
X6312381Y-7105238D01*
X6302857Y-7119524D01*
X6293333Y-7129048D01*
X6283809Y-7133809D01*
X6426667Y-7105238D02*
X6407619Y-7105238D01*
X6398095Y-7110000D01*
X6393333Y-7114762D01*
X6383809Y-7129048D01*
X6379048Y-7148095D01*
X6379048Y-7186190D01*
X6383809Y-7195714D01*
X6388571Y-7200476D01*
X6398095Y-7205238D01*
X6417143Y-7205238D01*
X6426667Y-7200476D01*
X6431429Y-7195714D01*
X6436190Y-7186190D01*
X6436190Y-7162381D01*
X6431429Y-7152857D01*
X6426667Y-7148095D01*
X6417143Y-7143333D01*
X6398095Y-7143333D01*
X6388571Y-7148095D01*
X6383809Y-7152857D01*
X6379048Y-7162381D01*
X6245714Y-7395714D02*
X6240952Y-7400476D01*
X6226667Y-7405238D01*
X6217143Y-7405238D01*
X6202857Y-7400476D01*
X6193333Y-7390952D01*
X6188571Y-7381429D01*
X6183809Y-7362381D01*
X6183809Y-7348095D01*
X6188571Y-7329048D01*
X6193333Y-7319524D01*
X6202857Y-7310000D01*
X6217143Y-7305238D01*
X6226667Y-7305238D01*
X6240952Y-7310000D01*
X6245714Y-7314762D01*
X6340952Y-7405238D02*
X6283809Y-7405238D01*
X6312381Y-7405238D02*
X6312381Y-7305238D01*
X6302857Y-7319524D01*
X6293333Y-7329048D01*
X6283809Y-7333809D01*
X6374286Y-7305238D02*
X6440952Y-7305238D01*
X6398095Y-7405238D01*
X6250714Y-7590714D02*
X6245952Y-7595476D01*
X6231667Y-7600238D01*
X6222143Y-7600238D01*
X6207857Y-7595476D01*
X6198333Y-7585952D01*
X6193571Y-7576429D01*
X6188809Y-7557381D01*
X6188809Y-7543095D01*
X6193571Y-7524048D01*
X6198333Y-7514524D01*
X6207857Y-7505000D01*
X6222143Y-7500238D01*
X6231667Y-7500238D01*
X6245952Y-7505000D01*
X6250714Y-7509762D01*
X6345952Y-7600238D02*
X6288809Y-7600238D01*
X6317381Y-7600238D02*
X6317381Y-7500238D01*
X6307857Y-7514524D01*
X6298333Y-7524048D01*
X6288809Y-7528809D01*
X6403095Y-7543095D02*
X6393571Y-7538333D01*
X6388809Y-7533571D01*
X6384048Y-7524048D01*
X6384048Y-7519286D01*
X6388809Y-7509762D01*
X6393571Y-7505000D01*
X6403095Y-7500238D01*
X6422143Y-7500238D01*
X6431667Y-7505000D01*
X6436429Y-7509762D01*
X6441190Y-7519286D01*
X6441190Y-7524048D01*
X6436429Y-7533571D01*
X6431667Y-7538333D01*
X6422143Y-7543095D01*
X6403095Y-7543095D01*
X6393571Y-7547857D01*
X6388809Y-7552619D01*
X6384048Y-7562143D01*
X6384048Y-7581190D01*
X6388809Y-7590714D01*
X6393571Y-7595476D01*
X6403095Y-7600238D01*
X6422143Y-7600238D01*
X6431667Y-7595476D01*
X6436429Y-7590714D01*
X6441190Y-7581190D01*
X6441190Y-7562143D01*
X6436429Y-7552619D01*
X6431667Y-7547857D01*
X6422143Y-7543095D01*
X6245714Y-7795714D02*
X6240952Y-7800476D01*
X6226667Y-7805238D01*
X6217143Y-7805238D01*
X6202857Y-7800476D01*
X6193333Y-7790952D01*
X6188571Y-7781429D01*
X6183809Y-7762381D01*
X6183809Y-7748095D01*
X6188571Y-7729048D01*
X6193333Y-7719524D01*
X6202857Y-7710000D01*
X6217143Y-7705238D01*
X6226667Y-7705238D01*
X6240952Y-7710000D01*
X6245714Y-7714762D01*
X6340952Y-7805238D02*
X6283809Y-7805238D01*
X6312381Y-7805238D02*
X6312381Y-7705238D01*
X6302857Y-7719524D01*
X6293333Y-7729048D01*
X6283809Y-7733809D01*
X6388571Y-7805238D02*
X6407619Y-7805238D01*
X6417143Y-7800476D01*
X6421905Y-7795714D01*
X6431429Y-7781429D01*
X6436190Y-7762381D01*
X6436190Y-7724286D01*
X6431429Y-7714762D01*
X6426667Y-7710000D01*
X6417143Y-7705238D01*
X6398095Y-7705238D01*
X6388571Y-7710000D01*
X6383809Y-7714762D01*
X6379048Y-7724286D01*
X6379048Y-7748095D01*
X6383809Y-7757619D01*
X6388571Y-7762381D01*
X6398095Y-7767143D01*
X6417143Y-7767143D01*
X6426667Y-7762381D01*
X6431429Y-7757619D01*
X6436190Y-7748095D01*
X6250714Y-7980714D02*
X6245952Y-7985476D01*
X6231667Y-7990238D01*
X6222143Y-7990238D01*
X6207857Y-7985476D01*
X6198333Y-7975952D01*
X6193571Y-7966429D01*
X6188809Y-7947381D01*
X6188809Y-7933095D01*
X6193571Y-7914048D01*
X6198333Y-7904524D01*
X6207857Y-7895000D01*
X6222143Y-7890238D01*
X6231667Y-7890238D01*
X6245952Y-7895000D01*
X6250714Y-7899762D01*
X6288809Y-7899762D02*
X6293571Y-7895000D01*
X6303095Y-7890238D01*
X6326905Y-7890238D01*
X6336429Y-7895000D01*
X6341190Y-7899762D01*
X6345952Y-7909286D01*
X6345952Y-7918809D01*
X6341190Y-7933095D01*
X6284048Y-7990238D01*
X6345952Y-7990238D01*
X6407857Y-7890238D02*
X6417381Y-7890238D01*
X6426905Y-7895000D01*
X6431667Y-7899762D01*
X6436429Y-7909286D01*
X6441190Y-7928333D01*
X6441190Y-7952143D01*
X6436429Y-7971190D01*
X6431667Y-7980714D01*
X6426905Y-7985476D01*
X6417381Y-7990238D01*
X6407857Y-7990238D01*
X6398333Y-7985476D01*
X6393571Y-7980714D01*
X6388809Y-7971190D01*
X6384048Y-7952143D01*
X6384048Y-7928333D01*
X6388809Y-7909286D01*
X6393571Y-7899762D01*
X6398333Y-7895000D01*
X6407857Y-7890238D01*
X8665238Y-13166667D02*
X8617619Y-13200000D01*
X8665238Y-13223809D02*
X8565238Y-13223809D01*
X8565238Y-13185714D01*
X8570000Y-13176190D01*
X8574762Y-13171428D01*
X8584286Y-13166667D01*
X8598571Y-13166667D01*
X8608095Y-13171428D01*
X8612857Y-13176190D01*
X8617619Y-13185714D01*
X8617619Y-13223809D01*
X8665238Y-13071428D02*
X8665238Y-13128571D01*
X8665238Y-13100000D02*
X8565238Y-13100000D01*
X8579524Y-13109524D01*
X8589048Y-13119048D01*
X8593810Y-13128571D01*
X8255238Y-11866667D02*
X8207619Y-11900000D01*
X8255238Y-11923809D02*
X8155238Y-11923809D01*
X8155238Y-11885714D01*
X8160000Y-11876190D01*
X8164762Y-11871428D01*
X8174286Y-11866667D01*
X8188571Y-11866667D01*
X8198095Y-11871428D01*
X8202857Y-11876190D01*
X8207619Y-11885714D01*
X8207619Y-11923809D01*
X8188571Y-11780952D02*
X8255238Y-11780952D01*
X8150476Y-11804762D02*
X8221905Y-11828571D01*
X8221905Y-11766667D01*
X7998333Y-7390238D02*
X7965000Y-7342619D01*
X7941190Y-7390238D02*
X7941190Y-7290238D01*
X7979286Y-7290238D01*
X7988810Y-7295000D01*
X7993571Y-7299762D01*
X7998333Y-7309286D01*
X7998333Y-7323571D01*
X7993571Y-7333095D01*
X7988810Y-7337857D01*
X7979286Y-7342619D01*
X7941190Y-7342619D01*
X8084048Y-7290238D02*
X8065000Y-7290238D01*
X8055476Y-7295000D01*
X8050714Y-7299762D01*
X8041190Y-7314048D01*
X8036429Y-7333095D01*
X8036429Y-7371190D01*
X8041190Y-7380714D01*
X8045952Y-7385476D01*
X8055476Y-7390238D01*
X8074524Y-7390238D01*
X8084048Y-7385476D01*
X8088810Y-7380714D01*
X8093571Y-7371190D01*
X8093571Y-7347381D01*
X8088810Y-7337857D01*
X8084048Y-7333095D01*
X8074524Y-7328333D01*
X8055476Y-7328333D01*
X8045952Y-7333095D01*
X8041190Y-7337857D01*
X8036429Y-7347381D01*
X7998333Y-7600238D02*
X7965000Y-7552619D01*
X7941190Y-7600238D02*
X7941190Y-7500238D01*
X7979286Y-7500238D01*
X7988810Y-7505000D01*
X7993571Y-7509762D01*
X7998333Y-7519286D01*
X7998333Y-7533571D01*
X7993571Y-7543095D01*
X7988810Y-7547857D01*
X7979286Y-7552619D01*
X7941190Y-7552619D01*
X8031667Y-7500238D02*
X8098333Y-7500238D01*
X8055476Y-7600238D01*
X7753333Y-5515238D02*
X7720000Y-5467619D01*
X7696190Y-5515238D02*
X7696190Y-5415238D01*
X7734286Y-5415238D01*
X7743810Y-5420000D01*
X7748571Y-5424762D01*
X7753333Y-5434286D01*
X7753333Y-5448571D01*
X7748571Y-5458095D01*
X7743810Y-5462857D01*
X7734286Y-5467619D01*
X7696190Y-5467619D01*
X7810476Y-5458095D02*
X7800952Y-5453333D01*
X7796190Y-5448571D01*
X7791429Y-5439048D01*
X7791429Y-5434286D01*
X7796190Y-5424762D01*
X7800952Y-5420000D01*
X7810476Y-5415238D01*
X7829524Y-5415238D01*
X7839048Y-5420000D01*
X7843810Y-5424762D01*
X7848571Y-5434286D01*
X7848571Y-5439048D01*
X7843810Y-5448571D01*
X7839048Y-5453333D01*
X7829524Y-5458095D01*
X7810476Y-5458095D01*
X7800952Y-5462857D01*
X7796190Y-5467619D01*
X7791429Y-5477143D01*
X7791429Y-5496191D01*
X7796190Y-5505714D01*
X7800952Y-5510476D01*
X7810476Y-5515238D01*
X7829524Y-5515238D01*
X7839048Y-5510476D01*
X7843810Y-5505714D01*
X7848571Y-5496191D01*
X7848571Y-5477143D01*
X7843810Y-5467619D01*
X7839048Y-5462857D01*
X7829524Y-5458095D01*
X4633333Y-4645238D02*
X4600000Y-4597619D01*
X4576191Y-4645238D02*
X4576191Y-4545238D01*
X4614286Y-4545238D01*
X4623810Y-4550000D01*
X4628572Y-4554762D01*
X4633333Y-4564286D01*
X4633333Y-4578571D01*
X4628572Y-4588095D01*
X4623810Y-4592857D01*
X4614286Y-4597619D01*
X4576191Y-4597619D01*
X4680952Y-4645238D02*
X4700000Y-4645238D01*
X4709524Y-4640476D01*
X4714286Y-4635714D01*
X4723810Y-4621429D01*
X4728572Y-4602381D01*
X4728572Y-4564286D01*
X4723810Y-4554762D01*
X4719048Y-4550000D01*
X4709524Y-4545238D01*
X4690476Y-4545238D01*
X4680952Y-4550000D01*
X4676191Y-4554762D01*
X4671429Y-4564286D01*
X4671429Y-4588095D01*
X4676191Y-4597619D01*
X4680952Y-4602381D01*
X4690476Y-4607143D01*
X4709524Y-4607143D01*
X4719048Y-4602381D01*
X4723810Y-4597619D01*
X4728572Y-4588095D01*
X8580238Y-12691190D02*
X8661191Y-12691190D01*
X8670714Y-12686429D01*
X8675476Y-12681667D01*
X8680238Y-12672143D01*
X8680238Y-12653095D01*
X8675476Y-12643571D01*
X8670714Y-12638809D01*
X8661191Y-12634048D01*
X8580238Y-12634048D01*
X8680238Y-12534048D02*
X8680238Y-12591190D01*
X8680238Y-12562619D02*
X8580238Y-12562619D01*
X8594524Y-12572143D01*
X8604048Y-12581667D01*
X8608810Y-12591190D01*
X8085238Y-11356190D02*
X8166190Y-11356190D01*
X8175714Y-11351429D01*
X8180476Y-11346667D01*
X8185238Y-11337143D01*
X8185238Y-11318095D01*
X8180476Y-11308571D01*
X8175714Y-11303809D01*
X8166190Y-11299048D01*
X8085238Y-11299048D01*
X8094762Y-11256190D02*
X8090000Y-11251429D01*
X8085238Y-11241905D01*
X8085238Y-11218095D01*
X8090000Y-11208571D01*
X8094762Y-11203809D01*
X8104286Y-11199048D01*
X8113809Y-11199048D01*
X8128095Y-11203809D01*
X8185238Y-11260952D01*
X8185238Y-11199048D01*
X6729048Y-4475238D02*
X6795714Y-4575238D01*
X6795714Y-4475238D02*
X6729048Y-4575238D01*
X6886190Y-4575238D02*
X6829048Y-4575238D01*
X6857619Y-4575238D02*
X6857619Y-4475238D01*
X6848095Y-4489524D01*
X6838571Y-4499048D01*
X6829048Y-4503810D01*
X8705238Y-11963809D02*
X8605238Y-11963809D01*
X8605238Y-11940000D01*
X8610000Y-11925714D01*
X8619524Y-11916190D01*
X8629048Y-11911428D01*
X8648095Y-11906667D01*
X8662381Y-11906667D01*
X8681429Y-11911428D01*
X8690952Y-11916190D01*
X8700476Y-11925714D01*
X8705238Y-11940000D01*
X8705238Y-11963809D01*
X8705238Y-11811428D02*
X8705238Y-11868571D01*
X8705238Y-11840000D02*
X8605238Y-11840000D01*
X8619524Y-11849524D01*
X8629048Y-11859048D01*
X8633810Y-11868571D01*
X8831191Y-8625238D02*
X8831191Y-8525238D01*
X8869286Y-8525238D01*
X8878810Y-8530000D01*
X8883572Y-8534762D01*
X8888333Y-8544286D01*
X8888333Y-8558571D01*
X8883572Y-8568095D01*
X8878810Y-8572857D01*
X8869286Y-8577619D01*
X8831191Y-8577619D01*
X8974048Y-8525238D02*
X8955000Y-8525238D01*
X8945476Y-8530000D01*
X8940714Y-8534762D01*
X8931191Y-8549048D01*
X8926429Y-8568095D01*
X8926429Y-8606191D01*
X8931191Y-8615714D01*
X8935952Y-8620476D01*
X8945476Y-8625238D01*
X8964524Y-8625238D01*
X8974048Y-8620476D01*
X8978810Y-8615714D01*
X8983572Y-8606191D01*
X8983572Y-8582381D01*
X8978810Y-8572857D01*
X8974048Y-8568095D01*
X8964524Y-8563333D01*
X8945476Y-8563333D01*
X8935952Y-8568095D01*
X8931191Y-8572857D01*
X8926429Y-8582381D01*
X5131191Y-13917738D02*
X5131191Y-13817738D01*
X5169286Y-13817738D01*
X5178810Y-13822500D01*
X5183572Y-13827262D01*
X5188333Y-13836786D01*
X5188333Y-13851071D01*
X5183572Y-13860595D01*
X5178810Y-13865357D01*
X5169286Y-13870119D01*
X5131191Y-13870119D01*
X5221667Y-13817738D02*
X5288333Y-13817738D01*
X5245476Y-13917738D01*
X6638809Y-6560238D02*
X6638809Y-6641190D01*
X6643571Y-6650714D01*
X6648333Y-6655476D01*
X6657857Y-6660238D01*
X6676905Y-6660238D01*
X6686429Y-6655476D01*
X6691190Y-6650714D01*
X6695952Y-6641190D01*
X6695952Y-6560238D01*
X6734048Y-6560238D02*
X6795952Y-6560238D01*
X6762619Y-6598333D01*
X6776905Y-6598333D01*
X6786429Y-6603095D01*
X6791190Y-6607857D01*
X6795952Y-6617381D01*
X6795952Y-6641190D01*
X6791190Y-6650714D01*
X6786429Y-6655476D01*
X6776905Y-6660238D01*
X6748333Y-6660238D01*
X6738809Y-6655476D01*
X6734048Y-6650714D01*
X7763333Y-6435714D02*
X7758571Y-6440476D01*
X7744286Y-6445238D01*
X7734762Y-6445238D01*
X7720476Y-6440476D01*
X7710952Y-6430952D01*
X7706190Y-6421429D01*
X7701429Y-6402381D01*
X7701429Y-6388095D01*
X7706190Y-6369048D01*
X7710952Y-6359524D01*
X7720476Y-6350000D01*
X7734762Y-6345238D01*
X7744286Y-6345238D01*
X7758571Y-6350000D01*
X7763333Y-6354762D01*
X7801429Y-6354762D02*
X7806190Y-6350000D01*
X7815714Y-6345238D01*
X7839524Y-6345238D01*
X7849048Y-6350000D01*
X7853810Y-6354762D01*
X7858571Y-6364286D01*
X7858571Y-6373809D01*
X7853810Y-6388095D01*
X7796667Y-6445238D01*
X7858571Y-6445238D01*
X7773333Y-6635714D02*
X7768571Y-6640476D01*
X7754286Y-6645238D01*
X7744762Y-6645238D01*
X7730476Y-6640476D01*
X7720952Y-6630952D01*
X7716190Y-6621429D01*
X7711429Y-6602381D01*
X7711429Y-6588095D01*
X7716190Y-6569048D01*
X7720952Y-6559524D01*
X7730476Y-6550000D01*
X7744762Y-6545238D01*
X7754286Y-6545238D01*
X7768571Y-6550000D01*
X7773333Y-6554762D01*
X7806667Y-6545238D02*
X7868571Y-6545238D01*
X7835238Y-6583333D01*
X7849524Y-6583333D01*
X7859048Y-6588095D01*
X7863810Y-6592857D01*
X7868571Y-6602381D01*
X7868571Y-6626190D01*
X7863810Y-6635714D01*
X7859048Y-6640476D01*
X7849524Y-6645238D01*
X7820952Y-6645238D01*
X7811429Y-6640476D01*
X7806667Y-6635714D01*
X7975714Y-10486667D02*
X7980476Y-10491429D01*
X7985238Y-10505714D01*
X7985238Y-10515238D01*
X7980476Y-10529524D01*
X7970952Y-10539048D01*
X7961429Y-10543810D01*
X7942381Y-10548571D01*
X7928095Y-10548571D01*
X7909048Y-10543810D01*
X7899524Y-10539048D01*
X7890000Y-10529524D01*
X7885238Y-10515238D01*
X7885238Y-10505714D01*
X7890000Y-10491429D01*
X7894762Y-10486667D01*
X7918571Y-10400952D02*
X7985238Y-10400952D01*
X7880476Y-10424762D02*
X7951905Y-10448571D01*
X7951905Y-10386667D01*
X8155714Y-10486667D02*
X8160476Y-10491429D01*
X8165238Y-10505714D01*
X8165238Y-10515238D01*
X8160476Y-10529524D01*
X8150952Y-10539048D01*
X8141429Y-10543810D01*
X8122381Y-10548571D01*
X8108095Y-10548571D01*
X8089048Y-10543810D01*
X8079524Y-10539048D01*
X8070000Y-10529524D01*
X8065238Y-10515238D01*
X8065238Y-10505714D01*
X8070000Y-10491429D01*
X8074762Y-10486667D01*
X8065238Y-10400952D02*
X8065238Y-10420000D01*
X8070000Y-10429524D01*
X8074762Y-10434286D01*
X8089048Y-10443810D01*
X8108095Y-10448571D01*
X8146190Y-10448571D01*
X8155714Y-10443810D01*
X8160476Y-10439048D01*
X8165238Y-10429524D01*
X8165238Y-10410476D01*
X8160476Y-10400952D01*
X8155714Y-10396190D01*
X8146190Y-10391429D01*
X8122381Y-10391429D01*
X8112857Y-10396190D01*
X8108095Y-10400952D01*
X8103333Y-10410476D01*
X8103333Y-10429524D01*
X8108095Y-10439048D01*
X8112857Y-10443810D01*
X8122381Y-10448571D01*
X7743333Y-6235714D02*
X7738571Y-6240476D01*
X7724286Y-6245238D01*
X7714762Y-6245238D01*
X7700476Y-6240476D01*
X7690952Y-6230952D01*
X7686190Y-6221429D01*
X7681429Y-6202381D01*
X7681429Y-6188095D01*
X7686190Y-6169048D01*
X7690952Y-6159524D01*
X7700476Y-6150000D01*
X7714762Y-6145238D01*
X7724286Y-6145238D01*
X7738571Y-6150000D01*
X7743333Y-6154762D01*
X7790952Y-6245238D02*
X7810000Y-6245238D01*
X7819524Y-6240476D01*
X7824286Y-6235714D01*
X7833810Y-6221429D01*
X7838571Y-6202381D01*
X7838571Y-6164286D01*
X7833810Y-6154762D01*
X7829048Y-6150000D01*
X7819524Y-6145238D01*
X7800476Y-6145238D01*
X7790952Y-6150000D01*
X7786190Y-6154762D01*
X7781429Y-6164286D01*
X7781429Y-6188095D01*
X7786190Y-6197619D01*
X7790952Y-6202381D01*
X7800476Y-6207143D01*
X7819524Y-6207143D01*
X7829048Y-6202381D01*
X7833810Y-6197619D01*
X7838571Y-6188095D01*
X6036190Y-13145238D02*
X6036190Y-13045238D01*
X6074286Y-13045238D01*
X6083810Y-13050000D01*
X6088571Y-13054762D01*
X6093333Y-13064286D01*
X6093333Y-13078571D01*
X6088571Y-13088095D01*
X6083810Y-13092857D01*
X6074286Y-13097619D01*
X6036190Y-13097619D01*
X6131429Y-13054762D02*
X6136190Y-13050000D01*
X6145714Y-13045238D01*
X6169524Y-13045238D01*
X6179048Y-13050000D01*
X6183810Y-13054762D01*
X6188571Y-13064286D01*
X6188571Y-13073809D01*
X6183810Y-13088095D01*
X6126667Y-13145238D01*
X6188571Y-13145238D01*
X7043333Y-13615238D02*
X7010000Y-13567619D01*
X6986190Y-13615238D02*
X6986190Y-13515238D01*
X7024286Y-13515238D01*
X7033810Y-13520000D01*
X7038571Y-13524762D01*
X7043333Y-13534286D01*
X7043333Y-13548571D01*
X7038571Y-13558095D01*
X7033810Y-13562857D01*
X7024286Y-13567619D01*
X6986190Y-13567619D01*
X7081429Y-13524762D02*
X7086190Y-13520000D01*
X7095714Y-13515238D01*
X7119524Y-13515238D01*
X7129048Y-13520000D01*
X7133810Y-13524762D01*
X7138571Y-13534286D01*
X7138571Y-13543809D01*
X7133810Y-13558095D01*
X7076667Y-13615238D01*
X7138571Y-13615238D01*
X7043333Y-13795238D02*
X7010000Y-13747619D01*
X6986190Y-13795238D02*
X6986190Y-13695238D01*
X7024286Y-13695238D01*
X7033810Y-13700000D01*
X7038571Y-13704762D01*
X7043333Y-13714286D01*
X7043333Y-13728571D01*
X7038571Y-13738095D01*
X7033810Y-13742857D01*
X7024286Y-13747619D01*
X6986190Y-13747619D01*
X7076667Y-13695238D02*
X7138571Y-13695238D01*
X7105238Y-13733333D01*
X7119524Y-13733333D01*
X7129048Y-13738095D01*
X7133810Y-13742857D01*
X7138571Y-13752381D01*
X7138571Y-13776190D01*
X7133810Y-13785714D01*
X7129048Y-13790476D01*
X7119524Y-13795238D01*
X7090952Y-13795238D01*
X7081429Y-13790476D01*
X7076667Y-13785714D01*
X7500476Y-7706190D02*
X7505238Y-7691905D01*
X7505238Y-7668095D01*
X7500476Y-7658571D01*
X7495714Y-7653809D01*
X7486190Y-7649048D01*
X7476667Y-7649048D01*
X7467143Y-7653809D01*
X7462381Y-7658571D01*
X7457619Y-7668095D01*
X7452857Y-7687143D01*
X7448095Y-7696667D01*
X7443333Y-7701429D01*
X7433809Y-7706190D01*
X7424286Y-7706190D01*
X7414762Y-7701429D01*
X7410000Y-7696667D01*
X7405238Y-7687143D01*
X7405238Y-7663333D01*
X7410000Y-7649048D01*
X7505238Y-7606190D02*
X7405238Y-7606190D01*
X7405238Y-7568095D01*
X7410000Y-7558571D01*
X7414762Y-7553809D01*
X7424286Y-7549048D01*
X7438571Y-7549048D01*
X7448095Y-7553809D01*
X7452857Y-7558571D01*
X7457619Y-7568095D01*
X7457619Y-7606190D01*
X7505238Y-7453809D02*
X7505238Y-7510952D01*
X7505238Y-7482381D02*
X7405238Y-7482381D01*
X7419524Y-7491905D01*
X7429048Y-7501429D01*
X7433809Y-7510952D01*
X7421905Y-7987143D02*
X7498095Y-7987143D01*
X7460000Y-8025238D02*
X7460000Y-7949048D01*
X7753333Y-5330238D02*
X7720000Y-5282619D01*
X7696190Y-5330238D02*
X7696190Y-5230238D01*
X7734286Y-5230238D01*
X7743810Y-5235000D01*
X7748571Y-5239762D01*
X7753333Y-5249286D01*
X7753333Y-5263571D01*
X7748571Y-5273095D01*
X7743810Y-5277857D01*
X7734286Y-5282619D01*
X7696190Y-5282619D01*
X7843810Y-5230238D02*
X7796190Y-5230238D01*
X7791429Y-5277857D01*
X7796190Y-5273095D01*
X7805714Y-5268333D01*
X7829524Y-5268333D01*
X7839048Y-5273095D01*
X7843810Y-5277857D01*
X7848571Y-5287381D01*
X7848571Y-5311191D01*
X7843810Y-5320714D01*
X7839048Y-5325476D01*
X7829524Y-5330238D01*
X7805714Y-5330238D01*
X7796190Y-5325476D01*
X7791429Y-5320714D01*
X7680476Y-4813333D02*
X7685238Y-4799048D01*
X7685238Y-4775238D01*
X7680476Y-4765714D01*
X7675714Y-4760952D01*
X7666190Y-4756190D01*
X7656667Y-4756190D01*
X7647143Y-4760952D01*
X7642381Y-4765714D01*
X7637619Y-4775238D01*
X7632857Y-4794286D01*
X7628095Y-4803810D01*
X7623333Y-4808571D01*
X7613809Y-4813333D01*
X7604286Y-4813333D01*
X7594762Y-4808571D01*
X7590000Y-4803810D01*
X7585238Y-4794286D01*
X7585238Y-4770476D01*
X7590000Y-4756190D01*
X7585238Y-4722857D02*
X7685238Y-4699048D01*
X7613809Y-4680000D01*
X7685238Y-4660952D01*
X7585238Y-4637143D01*
X7585238Y-4556190D02*
X7585238Y-4575238D01*
X7590000Y-4584762D01*
X7594762Y-4589524D01*
X7609048Y-4599048D01*
X7628095Y-4603810D01*
X7666190Y-4603810D01*
X7675714Y-4599048D01*
X7680476Y-4594286D01*
X7685238Y-4584762D01*
X7685238Y-4565714D01*
X7680476Y-4556190D01*
X7675714Y-4551429D01*
X7666190Y-4546667D01*
X7642381Y-4546667D01*
X7632857Y-4551429D01*
X7628095Y-4556190D01*
X7623333Y-4565714D01*
X7623333Y-4584762D01*
X7628095Y-4594286D01*
X7632857Y-4599048D01*
X7642381Y-4603810D01*
X4777038Y-6815867D02*
X4777038Y-6863486D01*
X4677038Y-6863486D01*
X4767514Y-6725390D02*
X4772276Y-6730152D01*
X4777038Y-6744438D01*
X4777038Y-6753962D01*
X4772276Y-6768248D01*
X4762752Y-6777771D01*
X4753229Y-6782533D01*
X4734181Y-6787295D01*
X4719895Y-6787295D01*
X4700848Y-6782533D01*
X4691324Y-6777771D01*
X4681800Y-6768248D01*
X4677038Y-6753962D01*
X4677038Y-6744438D01*
X4681800Y-6730152D01*
X4686562Y-6725390D01*
X4777038Y-6682533D02*
X4677038Y-6682533D01*
X4677038Y-6658724D01*
X4681800Y-6644438D01*
X4691324Y-6634914D01*
X4700848Y-6630152D01*
X4719895Y-6625390D01*
X4734181Y-6625390D01*
X4753229Y-6630152D01*
X4762752Y-6634914D01*
X4772276Y-6644438D01*
X4777038Y-6658724D01*
X4777038Y-6682533D01*
X4777038Y-6530152D02*
X4777038Y-6587295D01*
X4777038Y-6558724D02*
X4677038Y-6558724D01*
X4691324Y-6568248D01*
X4700848Y-6577771D01*
X4705610Y-6587295D01*
X7685714Y-6835714D02*
X7680952Y-6840476D01*
X7666667Y-6845238D01*
X7657143Y-6845238D01*
X7642857Y-6840476D01*
X7633333Y-6830952D01*
X7628571Y-6821429D01*
X7623809Y-6802381D01*
X7623809Y-6788095D01*
X7628571Y-6769048D01*
X7633333Y-6759524D01*
X7642857Y-6750000D01*
X7657143Y-6745238D01*
X7666667Y-6745238D01*
X7680952Y-6750000D01*
X7685714Y-6754762D01*
X7723809Y-6754762D02*
X7728571Y-6750000D01*
X7738095Y-6745238D01*
X7761905Y-6745238D01*
X7771429Y-6750000D01*
X7776190Y-6754762D01*
X7780952Y-6764286D01*
X7780952Y-6773809D01*
X7776190Y-6788095D01*
X7719048Y-6845238D01*
X7780952Y-6845238D01*
X7876190Y-6845238D02*
X7819048Y-6845238D01*
X7847619Y-6845238D02*
X7847619Y-6745238D01*
X7838095Y-6759524D01*
X7828571Y-6769048D01*
X7819048Y-6773809D01*
X7665714Y-5725238D02*
X7632381Y-5677619D01*
X7608571Y-5725238D02*
X7608571Y-5625238D01*
X7646667Y-5625238D01*
X7656190Y-5630000D01*
X7660952Y-5634762D01*
X7665714Y-5644286D01*
X7665714Y-5658571D01*
X7660952Y-5668095D01*
X7656190Y-5672857D01*
X7646667Y-5677619D01*
X7608571Y-5677619D01*
X7760952Y-5725238D02*
X7703809Y-5725238D01*
X7732381Y-5725238D02*
X7732381Y-5625238D01*
X7722857Y-5639524D01*
X7713333Y-5649048D01*
X7703809Y-5653809D01*
X7856190Y-5725238D02*
X7799048Y-5725238D01*
X7827619Y-5725238D02*
X7827619Y-5625238D01*
X7818095Y-5639524D01*
X7808571Y-5649048D01*
X7799048Y-5653809D01*
X7655714Y-5935238D02*
X7622381Y-5887619D01*
X7598571Y-5935238D02*
X7598571Y-5835238D01*
X7636667Y-5835238D01*
X7646190Y-5840000D01*
X7650952Y-5844762D01*
X7655714Y-5854286D01*
X7655714Y-5868571D01*
X7650952Y-5878095D01*
X7646190Y-5882857D01*
X7636667Y-5887619D01*
X7598571Y-5887619D01*
X7750952Y-5935238D02*
X7693809Y-5935238D01*
X7722381Y-5935238D02*
X7722381Y-5835238D01*
X7712857Y-5849524D01*
X7703333Y-5859048D01*
X7693809Y-5863809D01*
X7789048Y-5844762D02*
X7793809Y-5840000D01*
X7803333Y-5835238D01*
X7827143Y-5835238D01*
X7836667Y-5840000D01*
X7841429Y-5844762D01*
X7846190Y-5854286D01*
X7846190Y-5863809D01*
X7841429Y-5878095D01*
X7784286Y-5935238D01*
X7846190Y-5935238D01*
X4804191Y-12943238D02*
X4804191Y-12843238D01*
X4842286Y-12843238D01*
X4851810Y-12848000D01*
X4856572Y-12852762D01*
X4861333Y-12862286D01*
X4861333Y-12876571D01*
X4856572Y-12886095D01*
X4851810Y-12890857D01*
X4842286Y-12895619D01*
X4804191Y-12895619D01*
X4918476Y-12886095D02*
X4908952Y-12881333D01*
X4904191Y-12876571D01*
X4899429Y-12867048D01*
X4899429Y-12862286D01*
X4904191Y-12852762D01*
X4908952Y-12848000D01*
X4918476Y-12843238D01*
X4937524Y-12843238D01*
X4947048Y-12848000D01*
X4951810Y-12852762D01*
X4956572Y-12862286D01*
X4956572Y-12867048D01*
X4951810Y-12876571D01*
X4947048Y-12881333D01*
X4937524Y-12886095D01*
X4918476Y-12886095D01*
X4908952Y-12890857D01*
X4904191Y-12895619D01*
X4899429Y-12905143D01*
X4899429Y-12924190D01*
X4904191Y-12933714D01*
X4908952Y-12938476D01*
X4918476Y-12943238D01*
X4937524Y-12943238D01*
X4947048Y-12938476D01*
X4951810Y-12933714D01*
X4956572Y-12924190D01*
X4956572Y-12905143D01*
X4951810Y-12895619D01*
X4947048Y-12890857D01*
X4937524Y-12886095D01*
M02*
