G04 #@! TF.FileFunction,Soldermask,Bot*
%FSLAX45Y45*%
G04 Gerber Fmt 4.5, Leading zero omitted, Abs format (unit mm)*
G04 Created by KiCad (PCBNEW 4.0.2-4+6225~38~ubuntu14.04.1-stable) date Wed 13 Apr 2016 10:42:26 PM HKT*
%MOMM*%
G01*
G04 APERTURE LIST*
%ADD10C,0.100000*%
%ADD11R,1.400000X3.600000*%
%ADD12C,2.432000*%
%ADD13R,2.432000X2.432000*%
%ADD14C,5.900000*%
%ADD15C,1.300000*%
%ADD16O,1.650000X1.350000*%
%ADD17O,1.400000X1.950000*%
%ADD18C,1.924000*%
%ADD19R,1.924000X1.924000*%
%ADD20R,2.127200X2.127200*%
%ADD21O,2.127200X2.127200*%
%ADD22R,2.432000X2.127200*%
%ADD23O,2.432000X2.127200*%
%ADD24O,2.432000X2.432000*%
G04 APERTURE END LIST*
D10*
D11*
X6300000Y-13430000D03*
X6300000Y-12750000D03*
X6700000Y-12750000D03*
X6700000Y-13430000D03*
D12*
X4270000Y-4600000D03*
D13*
X4270000Y-4346000D03*
D14*
X4430000Y-13570000D03*
X8760000Y-4400000D03*
D15*
X8872500Y-11060000D03*
X8872500Y-10760000D03*
D16*
X7909660Y-13585146D03*
X8409660Y-13585146D03*
D17*
X7809660Y-13855146D03*
X8509660Y-13855146D03*
D18*
X4980000Y-12390000D03*
D19*
X7880000Y-12390000D03*
D20*
X8650000Y-5050000D03*
D21*
X8904000Y-5050000D03*
X8650000Y-5304000D03*
X8904000Y-5304000D03*
X8650000Y-5558000D03*
X8904000Y-5558000D03*
D22*
X8905000Y-6105000D03*
D23*
X8905000Y-6359000D03*
X8905000Y-6613000D03*
X8905000Y-6867000D03*
D22*
X8905000Y-7970000D03*
D23*
X8905000Y-8224000D03*
X8905000Y-8478000D03*
X8905000Y-8732000D03*
D14*
X8760000Y-9940000D03*
D11*
X6300000Y-12030000D03*
X6300000Y-11350000D03*
X6700000Y-11350000D03*
X6700000Y-12030000D03*
X5600000Y-12730000D03*
X5600000Y-12050000D03*
X6000000Y-12050000D03*
X6000000Y-12730000D03*
X7000000Y-12730000D03*
X7000000Y-12050000D03*
X7400000Y-12050000D03*
X7400000Y-12730000D03*
D18*
X4234000Y-10122000D03*
X4488000Y-10122000D03*
X4234000Y-9868000D03*
X4488000Y-9868000D03*
X4234000Y-9614000D03*
X4488000Y-9614000D03*
X4234000Y-9360000D03*
X4488000Y-9360000D03*
X4234000Y-9106000D03*
X4488000Y-9106000D03*
X4234000Y-8852000D03*
X4488000Y-8852000D03*
X4234000Y-8598000D03*
X4488000Y-8598000D03*
D13*
X8905000Y-9090000D03*
D24*
X8905000Y-9344000D03*
D18*
X5085000Y-13655000D03*
D19*
X5339000Y-13655000D03*
M02*
