M48
;DRILL file {KiCad 4.0.2-4+6225~38~ubuntu14.04.1-stable} date Wed 13 Apr 2016 10:42:29 PM HKT
;FORMAT={2:4/ absolute / inch / suppress trailing zeros}
FMAT,2
INCH,LZ
T1C0.016
T2C0.020
T3C0.022
T4C0.031
T5C0.040
T6C0.126
T7C0.035
%
G90
G05
M72
T1
X018268Y-019921
X019252Y-020394
X020197Y-019449
X021345Y-021996
X021661Y-023175
X021969Y-019449
X022191Y-025312
X022191Y-027775
X022282Y-024843
X022394Y-025564
X022613Y-02481
X022799Y-024318
X022965Y-024811
X023682Y-023411
X023689Y-02248
X023696Y-024685
X024835Y-024115
X025177Y-024822
X025211Y-02223
X025333Y-028867
X025672Y-024622
X025776Y-023635
X025807Y-025852
X026089Y-02248
X026191Y-025847
X026258Y-024854
X026495Y-022674
X026612Y-025902
X027175Y-0239
X027588Y-026748
X028012Y-020365
X028179Y-021867
X028661Y-047441
X028681Y-024993
X029088Y-027939
X029177Y-021496
X029205Y-022135
X029488Y-030551
X029822Y-021872
X029882Y-047441
X030775Y-049335
X030995Y-028854
X031693Y-016417
X032992Y-026417
X033031Y-027598
X033031Y-031417
X033189Y-01622
T4
X016669Y-03385
X016669Y-03485
X016669Y-03585
X016669Y-03685
X016669Y-03785
X016669Y-03885
X016669Y-03985
X017669Y-03385
X017669Y-03485
X017669Y-03585
X017669Y-03685
X017669Y-03785
X017669Y-03885
X017669Y-03985
X019606Y-04878
X02002Y-05376
X02102Y-05376
X031024Y-04878
T5
X016811Y-01711
X016811Y-01811
X034055Y-019882
X034055Y-020882
X034055Y-021882
X035055Y-019882
X035055Y-020882
X035055Y-021882
X035059Y-024035
X035059Y-025035
X035059Y-026035
X035059Y-027035
X035059Y-031378
X035059Y-032378
X035059Y-033378
X035059Y-034378
X035059Y-035787
X035059Y-036787
T6
X017441Y-053425
X034488Y-017323
X034488Y-039134
T7
X034931Y-042362
X034931Y-043543
T2
X030747Y-054676G85X030747Y-05442
G05
X033503Y-054676G85X033503Y-05442
G05
T3
X031081Y-053485G85X031199Y-053485
G05
X03305Y-053485G85X033168Y-053485
G05
T0
M30
